<?xml version="1.0" encoding="UTF-8"?>
<svg width="147px" height="42px" viewBox="0 0 147 42" version="1.1" xmlns="http://www.w3.org/2000/svg" xmlns:xlink="http://www.w3.org/1999/xlink">
    <!-- Generator: Sketch 55.2 (78181) - https://sketchapp.com -->
    <title>CNBC Select Logo</title>
    <desc>Created with Sketch.</desc>
    <g id="Symbols" stroke="none" stroke-width="1" fill="none" fill-rule="evenodd">
        <g id="1440/Global-Select-Header" transform="translate(-72.000000, -23.000000)" fill-rule="nonzero">
            <g id="logo" transform="translate(72.000000, 23.000000)">
                <g id="Group" transform="translate(14.700000, 8.400000)" fill="#0477C9">
                    <g transform="translate(28.760870, 0.000000)">
                        <path d="M0.575217391,20.9353846 L2.94,17.7046154 C4.21826087,18.9323077 5.56043478,19.5138462 7.03043478,19.5138462 C7.98913043,19.5138462 8.56434783,19.1907692 8.56434783,18.6092308 C8.56434783,18.0923077 8.11695652,17.7692308 6.13565217,17.1230769 C3.51521739,16.2830769 1.21434783,14.9907692 1.21434783,11.9538462 C1.21434783,8.72307692 3.83478261,6.91384615 7.09434783,6.91384615 C9.45913043,6.91384615 11.1847826,7.56 12.9743478,8.91692308 L10.6095652,12.4061538 C9.52304348,11.3076923 8.18086957,10.7261538 7.15826087,10.7261538 C6.58304348,10.7261538 5.94391304,10.9846154 5.88,11.5661538 C5.88,12.0830769 6.45521739,12.4061538 7.98913043,12.9876923 C11.4404348,14.2153846 13.293913,15.12 13.293913,18.2215385 C13.293913,21.1938462 11.1847826,23.2615385 6.9026087,23.2615385 C4.47391304,23.2615385 2.30086957,22.4861538 0.575217391,20.9353846 Z" id="Path"></path>
                        <path d="M30.7421739,16.4769231 L20.0686957,16.4769231 C20.3882609,18.2861538 21.8582609,19.2553846 23.7756522,19.2553846 C25.053913,19.2553846 26.396087,18.7384615 27.4186957,17.5753846 L30.2947826,20.5476923 C28.9526087,22.1630769 26.7795652,23.3907692 23.2643478,23.3907692 C18.5347826,23.3907692 15.0834783,20.0953846 15.0834783,15.1846154 C15.0834783,10.4030769 18.4069565,7.04307692 23.1365217,7.04307692 C27.5465217,7.04307692 30.7421739,10.4030769 30.7421739,15.0553846 C30.806087,15.3784615 30.7421739,16.1538462 30.7421739,16.4769231 Z M20.1326087,13.44 L26.0126087,13.44 C25.6930435,11.8892308 24.6704348,10.92 23.2004348,10.92 C21.6026087,10.92 20.4521739,11.8246154 20.1326087,13.44 Z" id="Shape"></path>
                        <polygon id="Path" points="33.6182609 0.0646153846 38.6034783 0.0646153846 38.6034783 23.0030769 33.6182609 23.0030769"></polygon>
                        <path d="M57.0743478,16.4769231 L46.4008696,16.4769231 C46.7204348,18.2861538 48.1904348,19.2553846 50.1078261,19.2553846 C51.386087,19.2553846 52.7282609,18.7384615 53.7508696,17.5753846 L56.6269565,20.5476923 C55.2847826,22.1630769 53.1117391,23.3907692 49.5965217,23.3907692 C44.8669565,23.3907692 41.4156522,20.0953846 41.4156522,15.1846154 C41.4156522,10.4030769 44.7391304,7.04307692 49.4686957,7.04307692 C53.8786957,7.04307692 57.0743478,10.4030769 57.0743478,15.0553846 C57.1382609,15.4430769 57.0743478,16.1538462 57.0743478,16.4769231 Z M46.4647826,13.44 L52.3447826,13.44 C52.0252174,11.8892308 51.0026087,10.92 49.5326087,10.92 C47.9347826,10.92 46.7843478,11.8892308 46.4647826,13.44 Z" id="Shape"></path>
                        <path d="M59.0556522,15.1846154 C59.0556522,10.2092308 62.3791304,6.97846154 67.3643478,6.97846154 C69.7930435,6.97846154 72.3495652,7.75384615 74.0752174,9.75692308 L70.8156522,12.9876923 C70.1126087,12.0184615 68.8982609,11.5015385 67.7478261,11.5015385 C65.5747826,11.5015385 64.0408696,12.9876923 64.0408696,15.1846154 C64.0408696,17.4461538 65.5747826,18.8676923 67.7478261,18.8676923 C69.153913,18.8676923 70.1765217,18.3507692 71.0713043,17.3815385 L74.1391304,20.6123077 C72.7330435,22.2276923 70.4321739,23.3261538 67.1726087,23.3261538 C62.4430435,23.3261538 58.9917391,20.0307692 59.0556522,15.1846154 Z" id="Path"></path>
                        <path d="M76.9513043,18.0923077 L76.9513043,11.3076923 L75.1617391,11.3076923 L75.1617391,7.23692308 L76.9513043,7.23692308 L76.9513043,2.13230769 L82.0004348,1.61538462 L82.0004348,7.23692308 L85.7713043,7.23692308 L85.7713043,11.3076923 L82.0004348,11.3076923 L82.0004348,17.1230769 C82.0004348,18.1569231 82.1921739,18.9323077 83.1508696,18.9323077 C83.5343478,18.9323077 84.1734783,18.8676923 84.6847826,18.6092308 L85.8991304,22.3569231 C84.8126087,22.9384615 83.6621739,23.3907692 81.4891304,23.3907692 C78.8686957,23.3907692 76.9513043,21.6461538 76.9513043,18.0923077 Z" id="Path"></path>
                    </g>
                    <g transform="translate(0.000000, 5.621538)">
                        <g transform="translate(0.000000, 13.569231)">
                            <path d="M4.53782609,1.61538462 C4.47391304,1.22769231 4.09043478,1.09846154 3.70695652,1.03384615 C2.4926087,0.904615385 2.23695652,1.87384615 2.23695652,2.26153846 C2.23695652,2.90769231 2.42869565,3.48923077 3.64304348,3.48923077 C3.83478261,3.48923077 4.47391304,3.23076923 4.47391304,2.90769231 L6.19956522,2.90769231 C6.13565217,4.00615385 4.28217391,4.26461538 3.45130435,4.26461538 C1.78956522,4.26461538 0.319565217,3.94153846 0.383478261,2.26153846 C0.447391304,1.09846154 1.53391304,0.258461538 3.77086957,0.258461538 C4.98521739,0.258461538 6.19956522,0.646153846 6.19956522,1.55076923 L4.53782609,1.55076923 L4.53782609,1.61538462 Z" id="Path"></path>
                            <path d="M21.9221739,1.61538462 C21.8582609,1.22769231 21.4747826,1.09846154 21.0913043,1.03384615 C19.8769565,0.904615385 19.6213043,1.87384615 19.6213043,2.26153846 C19.6213043,2.90769231 19.8130435,3.48923077 21.0273913,3.48923077 C21.2191304,3.48923077 21.8582609,3.23076923 21.8582609,2.90769231 L23.583913,2.90769231 C23.52,4.00615385 21.6665217,4.26461538 20.8356522,4.26461538 C19.173913,4.26461538 17.703913,3.94153846 17.7678261,2.26153846 C17.8317391,1.09846154 18.9182609,0.258461538 21.1552174,0.258461538 C22.3695652,0.258461538 23.583913,0.646153846 23.583913,1.55076923 L21.9221739,1.55076923 L21.9221739,1.61538462 Z" id="Path"></path>
                            <polygon id="Path" points="6.58304348 0.387692308 8.82 0.387692308 10.7373913 3.10153846 10.7373913 3.10153846 10.7373913 0.387692308 12.2073913 0.387692308 12.2073913 4.2 10.0343478 4.2 7.98913043 1.48615385 7.98913043 1.48615385 7.98913043 4.2 6.51913043 4.2 6.51913043 0.387692308"></polygon>
                            <path d="M12.6547826,0.387692308 L15.4030435,0.387692308 C16.7452174,0.387692308 17.5121739,0.775384615 17.5121739,1.29230769 C17.5121739,1.61538462 17.1926087,2.00307692 16.4895652,2.13230769 L16.4895652,2.13230769 C17.3843478,2.19692308 17.703913,2.71384615 17.703913,3.10153846 C17.703913,3.74769231 16.9369565,4.13538462 15.4669565,4.13538462 L12.7186957,4.13538462 L12.7186957,0.387692308 L12.6547826,0.387692308 Z M14.2526087,1.87384615 L14.7,1.87384615 C15.4030435,1.87384615 15.7865217,1.80923077 15.7865217,1.55076923 C15.7865217,1.22769231 15.4669565,1.16307692 14.8278261,1.16307692 L14.2526087,1.16307692 L14.2526087,1.87384615 L14.2526087,1.87384615 Z M14.2526087,3.36 L14.7,3.36 C15.5308696,3.36 15.8504348,3.29538462 15.8504348,2.97230769 C15.8504348,2.64923077 15.4669565,2.58461538 14.8278261,2.58461538 L14.2526087,2.58461538 L14.2526087,3.36 Z" id="Shape"></path>
                        </g>
                        <g transform="translate(1.278261, 0.000000)" id="Path">
                            <path d="M15.3391304,1.93846154 C15.2113043,1.61538462 15.0195652,1.35692308 14.7,1.09846154 C14.0608696,0.516923077 12.9743478,0.387692308 12.2073913,0.84 C11.5043478,1.22769231 11.0569565,1.93846154 11.0569565,2.77846154 L11.0569565,2.77846154 L12.0156522,2.77846154 C12.0795652,2.84307692 12.2073913,2.84307692 12.2073913,2.90769231 C11.823913,3.23076923 11.1847826,3.48923077 11.2486957,4.07076923 L12.2713043,10.5323077 L12.2713043,10.5323077 L15.0834783,4.2 C15.4669565,3.61846154 15.6586957,2.64923077 15.3391304,1.93846154 Z"></path>
                            <path d="M9.33130435,10.5969231 L10.4817391,3.23076923 C10.5456522,2.71384615 10.4178261,2.19692308 10.226087,1.80923077 C9.97043478,1.42153846 9.58695652,1.03384615 9.13956522,0.904615385 C8.3726087,0.581538462 7.35,0.710769231 6.77478261,1.35692308 C6.19956522,1.93846154 5.94391304,2.84307692 6.19956522,3.68307692 L9.07565217,10.1446154 L9.33130435,10.5969231 C9.33130435,10.5969231 9.33130435,10.5969231 9.33130435,10.5969231 Z"></path>
                            <path d="M19.4934783,4.84615385 C19.8769565,5.49230769 19.8130435,6.52615385 19.3656522,7.10769231 C19.11,7.56 18.6626087,7.75384615 18.2791304,8.01230769 L12.3352174,12.1476923 L12.3352174,12.1476923 L12.3991304,11.9538462 L15.5308696,4.78153846 C15.9782609,3.94153846 16.8730435,3.48923077 17.8317391,3.61846154 C18.4708696,3.81230769 19.173913,4.2 19.4934783,4.84615385 Z"></path>
                            <path d="M2.62043478,7.56 L9.20347826,12.1476923 L9.2673913,12.1476923 L6.00782609,4.78153846 C5.4326087,3.81230769 4.28217391,3.36 3.25956522,3.74769231 C2.62043478,4.00615385 2.10913043,4.58769231 1.9173913,5.23384615 C1.72565217,6.13846154 1.98130435,7.04307692 2.62043478,7.56 Z"></path>
                            <path d="M20.8995652,12.2769231 C21.3469565,11.6953846 21.4747826,10.7261538 21.1552174,10.0153846 C20.9634783,9.56307692 20.516087,9.04615385 20.0047826,8.85230769 C19.3656522,8.52923077 18.5347826,8.59384615 17.9595652,8.98153846 L12.0795652,13.1169231 L19.11,13.1169231 C19.8130435,13.1815385 20.4521739,12.8584615 20.8995652,12.2769231 Z"></path>
                            <path d="M9.52304348,13.1815385 L3.64304348,9.04615385 C3.06782609,8.65846154 2.17304348,8.59384615 1.59782609,8.91692308 C1.08652174,9.11076923 0.639130435,9.56307692 0.447391304,10.08 C0.127826087,10.7907692 0.255652174,11.76 0.703043478,12.3415385 C1.15043478,12.9230769 1.78956522,13.2461538 2.4926087,13.1815385 L9.52304348,13.1815385 Z"></path>
                        </g>
                    </g>
                </g>
                <path d="M20.516087,0.516923077 L126.483913,0.516923077 C137.473603,0.516923077 146.424783,9.58751251 146.424783,20.6769231 L146.424783,21.3230769 C146.424783,32.4335329 137.452787,41.4830769 126.483913,41.4830769 L20.516087,41.4830769 C9.52633512,41.4830769 0.574510621,32.4124244 0.574510621,21.3230769 L0.574510621,20.6828 C0.508219105,9.56853794 9.48238409,0.516923077 20.516087,0.516923077 Z M20.516087,2.45538462 C10.5422769,2.45538462 2.43204568,10.6356097 2.49192022,20.6769231 L2.49192022,21.3230769 C2.49192022,31.3428372 10.5862683,39.5446154 20.516087,39.5446154 L126.483913,39.5446154 C136.394836,39.5446154 144.507391,31.3619409 144.507391,21.3230769 L144.507391,20.6769231 C144.507391,10.6570886 136.413659,2.45538462 126.483913,2.45538462 L20.516087,2.45538462 Z" id="Path" fill="#0477C9"></path>
                <path d="M0.576459578,22.3416313 C1.11619344,33.0503069 9.89111917,41.5476923 20.516087,41.5476923 L126.483913,41.5476923 C137.108881,41.5476923 145.883807,33.0503069 146.42354,22.3416313 L144.508633,22.2429841 C144.020691,31.9240834 136.084533,39.6092308 126.483913,39.6092308 L20.516087,39.6092308 C10.9154674,39.6092308 2.97930893,31.9240834 2.49136651,22.2429841 L0.576459578,22.3416313 Z" id="Path" fill="#74C5FF"></path>
            </g>
        </g>
    </g>
</svg>
