<svg height="180" viewBox="0 0 711 180" width="711" xmlns="http://www.w3.org/2000/svg"><clipPath id="a"><path d="M.06.22h710.875v179.72H.06z"/></clipPath><clipPath id="b"><path d="M.06.22h710.875v179.72H.06z"/></clipPath><clipPath id="c"><path d="M.06.22h710.875v179.72H.06z"/></clipPath><clipPath id="d"><path d="M.06.22h710.875v179.72H.06z"/></clipPath><clipPath id="e"><path d="M.06.22h710.875v179.72H.06z"/></clipPath><clipPath id="f"><path d="M.06.22h710.875v179.72H.06z"/></clipPath><clipPath id="g"><path d="M.06.22h710.875v179.72H.06z"/></clipPath><clipPath id="h"><path d="M.06.22h710.875v179.72H.06z"/></clipPath><clipPath id="i"><path d="M.06.22h710.875v179.72H.06z"/></clipPath><clipPath id="j"><path d="M.06.22h710.875v179.72H.06z"/></clipPath><path clip-path="url(#a)" d="M70.146.351c-16.071 0-31.404 1.67-42.369 20.668V3.976H0v135.355h29.583V69.714c0-25.589 13.123-39.681 36.951-39.681 3.387 0 6.611.262 9.325.756l1.466.267V.351z" fill="#ff6c2f"/><path clip-path="url(#b)" d="M102.476 77.91c1.046 27.201 14.125 42.113 36.882 42.113 14.649 0 30.344-9.344 30.344-24.938h28.513c0 27.998-29.297 46.65-57.549 46.65-43.684 0-65.657-24.328-65.657-73.245C75.009 27.163 98.29.219 138.574.219c40.806 0 61.47 26.418 61.47 77.69h-97.568m69.581-17.528c-1.047-25.111-14.65-38.188-34.268-38.188-19.619 0-33.482 14.125-34.528 38.188z"/><path clip-path="url(#c)" d="M297.375 138.072c-.787-2.355-2.996-14.909-2.996-18.312-7.584 12.817-24.325 21.976-45.514 21.976-31.389 0-45.255-15.176-45.255-37.147 0-36.359 24.33-41.852 60.167-46.037 20.663-2.615 28.773-5.231 29.557-14.125 0-14.386-9.416-22.756-29.034-22.756-20.928 0-29.56 9.416-30.869 25.895h-25.373C208.844 19.839 222.967.22 265.345.22c41.852 0 55.978 19.096 55.978 53.101 0 0-.565 59.392 0 65.254.917 9.522 3.257 19.666 3.257 19.666zm-3.257-66.312c-4.187 4.449-13.599 5.495-30.083 7.849-23.018 3.664-32.96 6.148-32.96 22.104 0 13.34 7.852 20.141 23.806 20.141 20.664 0 37.928-13.863 38.714-33.744z"/><path clip-path="url(#d)" d="M417.304 44.427c-1.832-16.218-9.94-23.282-30.868-23.282-18.311 0-27.986 4.448-27.986 16.219 0 12.296 8.367 15.173 29.033 19.355 42.114 9.681 59.903 14.91 59.903 43.947 0 23.28-19.618 41.069-57.81 41.069-38.453 0-61.733-18.312-62.519-46.823h28.25c0 12.579 13.341 22.886 34.005 22.886 22.76 0 31.652-8.525 31.652-16.086 0-12.817-13.864-17.003-31.389-20.665-46.824-9.154-57.549-20.402-57.549-43.684 0-20.664 16.742-37.145 55.194-37.145 39.237 0 54.935 16.741 56.24 44.207h-26.156"/><path clip-path="url(#e)" d="M450.516 71.107C450.516 28.47 476.412.22 518.003.22c40.805 0 66.442 27.989 66.442 70.887 0 42.375-25.896 70.629-66.442 70.629-42.379 0-67.487-29.037-67.487-70.629m106.46 0c0-30.866-13.6-47.607-38.973-47.607s-39.237 16.741-39.237 47.607c0 30.606 13.864 47.607 39.237 47.607 25.108 0 38.973-17.001 38.973-47.607z"/><path clip-path="url(#f)" d="M660.753.22c-7.437 0-14.818.942-21.693 3.992-10.045 3.976-17.88 11.25-22.475 23.343V3.881h-26.153v134.191h27.945V69.016c0-24.101 9.548-41.33 35.706-41.33 14.127 0 27.641 9.656 27.641 27.728v82.658h27.199v-91.29C708.923.569 660.753.22 660.753.22"/><path d="M213.363 179.594h-2.516v-20.703h12.37v2.245h-9.854v7.469h9.014v2.193h-9.014zm22.57-8.769h-4.601v8.769h-2.517v-20.703h7.497c1.517 0 2.871.322 4.006.918 1.651.924 2.678 2.518 2.678 4.9 0 3.896-2.542 5.223-4.435 5.711v.053l4.571 9.121h-2.922zm.164-2.085c2.434 0 4.249-1.162 4.249-4.006 0-2.545-1.759-3.789-4.144-3.789h-4.87v7.795zm12.795-9.849h13.236v2.245h-10.72v6.903h9.854v2.19h-9.854v7.119h10.855v2.246h-13.371zm19.669 0h13.235v2.245h-10.72v6.903h9.854v2.19h-9.854v7.119h10.855v2.246h-13.37zm28.384 0h3.818l5.249 14.832c.649 1.812.919 2.703.919 2.703h.056s.27-.892.919-2.703l5.331-14.832h3.791v20.703h-2.572v-17.783h-.079s-.326 1.059-1.11 3.25l-5.226 14.533h-2.381l-5.089-14.533c-.73-2.166-1.109-3.25-1.109-3.25h-.082v17.783h-2.435zm27.085 0h2.517v20.703h-2.517zm9.525 0h3.22l9.203 15.399a14.05 14.05 0 011.056 2.03h.079v-17.43h2.384v20.703h-3.221l-9.177-15.373c-.811-1.353-1.08-2.002-1.08-2.002h-.056v17.375h-2.408z"/><path clip-path="url(#g)" d="M356.418 158.891h6.359c5.656 0 10.015 2.76 10.015 10.094 0 7.281-4.062 10.609-9.716 10.609h-6.658zm6.359 18.537c4.386 0 7.39-2.271 7.39-8.361 0-5.793-3.06-8.014-7.229-8.014h-4.004v16.375z"/><path clip-path="url(#h)" d="M389.809 164.439c-.242-2.032-1.406-3.849-4.304-3.849-2.812 0-4.331 1.599-4.331 3.574 0 1.896 1.031 2.978 3.465 3.438l2.924.515c4.035.729 5.44 2.707 5.44 5.657 0 3.791-2.571 6.225-7.524 6.225-4.791 0-7.524-2.572-7.738-6.225h2.625c.296 2.22 1.841 4.195 5.17 4.195 3.679 0 4.896-1.789 4.896-3.979 0-1.788-.975-3.033-3.518-3.465l-2.896-.516c-4.059-.76-5.494-2.924-5.494-5.631 0-3.355 2.761-5.793 7.012-5.793 4.384 0 6.656 2.329 6.847 5.85h-2.573"/><path d="M419.087 173.423h-8.282l-2.138 6.171h-2.517l7.36-20.703h2.978l7.442 20.703h-2.678zm-5.006-9.444l-2.572 7.416h6.876l-2.598-7.416c-.436-1.244-.813-2.571-.813-2.571h-.053c-.056.133-.435 1.404-.84 2.571zm15.07-5.088h3.221l9.202 15.399a14.128 14.128 0 011.057 2.03h.079v-17.43h2.384v20.703h-3.221l-9.178-15.373c-.812-1.353-1.08-2.002-1.08-2.002h-.057v17.375h-2.407zm22.864 0h6.359c5.657 0 10.015 2.76 10.015 10.094 0 7.281-4.061 10.609-9.716 10.609h-6.658zm6.359 18.537c4.386 0 7.39-2.271 7.39-8.361 0-5.793-3.06-8.014-7.229-8.014h-4.005v16.375zm27.22 2.166h-2.517v-20.703h12.369v2.245h-9.852v7.469h9.013v2.193h-9.013zm22.569-8.769h-4.602v8.769h-2.517v-20.703h7.495c1.519 0 2.872.322 4.008.918 1.65.924 2.678 2.518 2.678 4.9 0 3.896-2.542 5.223-4.438 5.711v.053l4.574 9.121h-2.922zm.164-2.085c2.434 0 4.248-1.162 4.248-4.006 0-2.545-1.759-3.789-4.144-3.789h-4.869v7.795zm12.795-9.849h13.235v2.245h-10.718v6.903h9.852v2.19h-9.852v7.119h10.854v2.246h-13.371zm19.669 0h13.235v2.245h-10.719v6.903h9.853v2.19h-9.853v7.119h10.854v2.246h-13.37zm28.385 0h3.817l5.249 14.832c.648 1.812.919 2.703.919 2.703h.056s.271-.892.919-2.703l5.332-14.832h3.79v20.703h-2.569v-17.783h-.08s-.326 1.059-1.11 3.25l-5.226 14.533h-2.383l-5.088-14.533a330.27 330.27 0 00-1.108-3.25h-.082v17.783h-2.436zm38.289 14.532h-8.283l-2.137 6.171h-2.517l7.359-20.703h2.979l7.441 20.703h-2.678zm-5.006-9.444l-2.572 7.416h6.876l-2.599-7.416c-.437-1.244-.812-2.571-.812-2.571h-.054c-.056.133-.434 1.404-.839 2.571zm22.187 6.846h-4.603v8.769h-2.516v-20.703h7.495c1.519 0 2.871.322 4.008.918 1.649.924 2.678 2.518 2.678 4.9 0 3.896-2.542 5.223-4.438 5.711v.053l4.572 9.121h-2.921zm.165-2.085c2.435 0 4.248-1.162 4.248-4.006 0-2.545-1.759-3.789-4.143-3.789h-4.871v7.795zm15.308 10.854h-2.515v-20.703h2.515v10.636l9.689-10.636h3.033l-7.957 8.687 8.523 12.016h-3.03l-7.226-10.123-3.032 3.329zm18.156-20.703h13.236v2.245h-10.72v6.903h9.854v2.19h-9.854v7.119h10.855v2.246h-13.371z"/><path clip-path="url(#i)" d="M692.4 161.08h-7.171v18.514h-2.52V161.08h-7.173v-2.189H692.4z"/><path clip-path="url(#j)" d="M707.741 164.439c-.244-2.032-1.406-3.849-4.304-3.849-2.813 0-4.331 1.599-4.331 3.574 0 1.896 1.029 2.978 3.465 3.438l2.924.515c4.034.729 5.44 2.707 5.44 5.657 0 3.791-2.572 6.225-7.525 6.225-4.791 0-7.524-2.572-7.739-6.225h2.625c.297 2.22 1.841 4.195 5.171 4.195 3.681 0 4.896-1.789 4.896-3.979 0-1.788-.976-3.033-3.518-3.465l-2.897-.516c-4.059-.76-5.493-2.924-5.493-5.631 0-3.355 2.76-5.793 7.012-5.793 4.383 0 6.655 2.329 6.847 5.85h-2.572"/></svg>