<svg id="Layer_1" data-name="Layer 1" xmlns="http://www.w3.org/2000/svg" viewBox="0 0 598.5 36.22"><title>Artboard 1 copy 5</title><g id="Icon"><rect x="30.91" width="3.83" height="6.57" rx="1.28" fill="#fff" opacity="0.6"/><rect x="30.91" y="8.98" width="3.83" height="27.23" rx="1.28" fill="#fff"/><rect x="24.73" width="3.83" height="8.5" rx="1.28" fill="#fff" opacity="0.6"/><rect x="24.73" y="10.67" width="3.83" height="25.54" rx="1.28" fill="#fff"/><rect x="37.15" width="3.83" height="2.97" rx="1.28" fill="#fff" opacity="0.6"/><rect x="37.15" y="5.34" width="3.83" height="30.88" rx="1.28" fill="#fff"/><rect x="6.18" width="3.83" height="27.48" rx="1.28" fill="#fff" opacity="0.6"/><rect width="3.83" height="36.22" rx="1.28" fill="#fff" opacity="0.6"/><rect x="6.18" y="29.84" width="3.83" height="6.37" rx="1.28" fill="#fff"/><rect x="12.36" width="3.83" height="17.21" rx="1.28" fill="#fff" opacity="0.6"/><rect x="12.36" y="19.62" width="3.83" height="16.59" rx="1.28" fill="#fff"/><rect x="18.54" width="3.83" height="17.21" rx="1.28" fill="#fff" opacity="0.6"/><rect x="18.54" y="19.62" width="3.83" height="16.59" rx="1.28" fill="#fff"/></g><path d="M66,9.06v6.31H92.18v8.54H66V35.75H55.26V.47H93.79V9.06Z" fill="#fff"/><path d="M141,12c0,5.82-1.46,8.73-5.87,9.8,3.68.87,5.58,3.11,5.58,6.7v7.23H129.88V30.36c0-3-1.31-3.64-4.85-3.64H109v9H98.15V.47h28.34C137.16.47,141,2.85,141,12ZM109,9.25v8.64H126.1c3,0,3.88-1.31,3.88-4.66,0-2.72-1.12-4-3.88-4Z" fill="#fff"/><path d="M158.51,9.06V14.4h26.15v7.42H158.51v5.39H186.7v8.54h-39V.47h38.53V9.06Z" fill="#fff"/><path d="M193.34,35.75V.47h10.77V35.75Z" fill="#fff"/><path d="M245.12,13.09c0-3.89-2.48-4.23-8.11-4.23h-6.26c-7,0-8.63.93-8.63,6.94v4.9c0,5.54,2.37,6.65,8.68,6.65H237c5.63,0,8.16-.73,8.16-3.73a8.53,8.53,0,0,0-.1-1.07H232.4V15.41h23.88V27c0,7.14-5.24,9.17-16.5,9.17h-12c-5.58,0-9.56-.24-12.61-2.62S211.1,28,211.1,23.23V13.62C211.1,3,215.71,0,227.74,0h12c6.16,0,10.38.29,13,2.28C255,4.06,256,7,256,11.19c0,.63,0,1.31-.05,2H245.12Z" fill="#fff"/><path d="M262.82,35.75V.47h10.77v13h22.08V.47h10.82V35.75H295.67V22H273.59V35.75Z" fill="#fff"/><path d="M326,35.75V9.11H311.29V.47h40.28V9.11H336.82V35.75Z" fill="#fff"/><path d="M358.55.47h4.56l12.23,31.59L387.08.47h5.83l11.64,31.59L416.88.47h4.61L407.75,35.75h-6.26L390,5l-11.5,30.77h-6.26Z" fill="#fff"/><path d="M438.26.47h5.82l20.53,35.28H460L455.34,28h-28l-4.51,7.77h-5ZM453.2,24.25,441.22,4,429.43,24.25Z" fill="#fff"/><path d="M460.9.47h5L483.23,32,500.69.47h5l-19.6,35.28h-5.58Z" fill="#fff"/><path d="M510,.47h34.74V4.4H514.28V15.46h29.21v3.93H514.28V31.82h30.47v3.93H510Z" fill="#fff"/><path d="M554.74,24.25c0,.92-.1,1.6-.1,2.08,0,4.81,3.06,5.92,10.34,5.92h9.22c8.59,0,11.55-.92,11.55-6.84,0-5-2.23-5.82-7.77-5.82H563.09c-9.17,0-12.76-2.43-12.76-9.71C550.33,2,554.84,0,565.51,0h8c6.5,0,10.77.15,13.3,2.24,1.69,1.45,2.37,3.73,2.37,7v1H585V9.74c0-5.1-2.18-5.92-8.73-5.92h-12c-6.94,0-9.31,1.11-9.31,5.87,0,5.19,2.81,6,9.6,6h12.67c4.42,0,7.57.19,9.61,1.41,2.67,1.6,3.35,4.22,3.35,8.58,0,8.11-3.94,10.53-14.56,10.53h-12c-9.22,0-13.15-2.47-13.15-9.27,0-.77.05-1.64.1-2.66Z" fill="#fff"/><path d="M598.5,3A2.79,2.79,0,1,1,595.72.26,2.73,2.73,0,0,1,598.5,3Zm-4.89,0a2.11,2.11,0,0,0,2.12,2.17A2.08,2.08,0,0,0,597.8,3,2.09,2.09,0,0,0,595.72.81,2.11,2.11,0,0,0,593.61,3Zm1.68,1.42h-.63V1.68a5.39,5.39,0,0,1,1-.08,1.63,1.63,0,0,1,.94.2.76.76,0,0,1,.27.6.7.7,0,0,1-.56.63v0a.8.8,0,0,1,.49.66,2.43,2.43,0,0,0,.2.68h-.68a2.41,2.41,0,0,1-.21-.66c0-.3-.22-.43-.57-.43h-.29Zm0-1.54h.3c.35,0,.63-.12.63-.4s-.18-.41-.58-.41a1.39,1.39,0,0,0-.35,0Z" fill="#fff"/></svg>