<?xml version="1.0" encoding="UTF-8"?>
<svg width="133px" height="38px" viewBox="0 0 133 38" version="1.1" xmlns="http://www.w3.org/2000/svg" xmlns:xlink="http://www.w3.org/1999/xlink">
    <!-- Generator: Sketch 55.2 (78181) - https://sketchapp.com -->
    <title>logo/white</title>
    <desc>Created with Sketch.</desc>
    <g id="Symbols" stroke="none" stroke-width="1" fill="none" fill-rule="evenodd">
        <g id="logo/white" fill="#FFFFFF" fill-rule="nonzero">
            <g>
                <g id="Group" transform="translate(13.300000, 7.600000)">
                    <g transform="translate(26.021739, 0.000000)">
                        <path d="M0.520434783,18.9415385 L2.66,16.0184615 C3.81652174,17.1292308 5.03086957,17.6553846 6.36086957,17.6553846 C7.22826087,17.6553846 7.74869565,17.3630769 7.74869565,16.8369231 C7.74869565,16.3692308 7.34391304,16.0769231 5.55130435,15.4923077 C3.18043478,14.7323077 1.09869565,13.5630769 1.09869565,10.8153846 C1.09869565,7.89230769 3.46956522,6.25538462 6.41869565,6.25538462 C8.55826087,6.25538462 10.1195652,6.84 11.7386957,8.06769231 L9.59913043,11.2246154 C8.61608696,10.2307692 7.40173913,9.70461538 6.47652174,9.70461538 C5.95608696,9.70461538 5.37782609,9.93846154 5.32,10.4646154 C5.32,10.9323077 5.84043478,11.2246154 7.22826087,11.7507692 C10.3508696,12.8615385 12.0278261,13.68 12.0278261,16.4861538 C12.0278261,19.1753846 10.1195652,21.0461538 6.24521739,21.0461538 C4.04782609,21.0461538 2.08173913,20.3446154 0.520434783,18.9415385 Z" id="Path"></path>
                        <path d="M27.8143478,14.9076923 L18.1573913,14.9076923 C18.4465217,16.5446154 19.7765217,17.4215385 21.5113043,17.4215385 C22.6678261,17.4215385 23.8821739,16.9538462 24.8073913,15.9015385 L27.4095652,18.5907692 C26.1952174,20.0523077 24.2291304,21.1630769 21.0486957,21.1630769 C16.7695652,21.1630769 13.6469565,18.1815385 13.6469565,13.7384615 C13.6469565,9.41230769 16.653913,6.37230769 20.9330435,6.37230769 C24.9230435,6.37230769 27.8143478,9.41230769 27.8143478,13.6215385 C27.8721739,13.9138462 27.8143478,14.6153846 27.8143478,14.9076923 Z M18.2152174,12.16 L23.5352174,12.16 C23.246087,10.7569231 22.3208696,9.88 20.9908696,9.88 C19.5452174,9.88 18.5043478,10.6984615 18.2152174,12.16 Z" id="Shape"></path>
                        <polygon id="Path" points="30.4165217 0.0584615385 34.9269565 0.0584615385 34.9269565 20.8123077 30.4165217 20.8123077"></polygon>
                        <path d="M51.6386957,14.9076923 L41.9817391,14.9076923 C42.2708696,16.5446154 43.6008696,17.4215385 45.3356522,17.4215385 C46.4921739,17.4215385 47.7065217,16.9538462 48.6317391,15.9015385 L51.233913,18.5907692 C50.0195652,20.0523077 48.0534783,21.1630769 44.8730435,21.1630769 C40.593913,21.1630769 37.4713043,18.1815385 37.4713043,13.7384615 C37.4713043,9.41230769 40.4782609,6.37230769 44.7573913,6.37230769 C48.7473913,6.37230769 51.6386957,9.41230769 51.6386957,13.6215385 C51.6965217,13.9723077 51.6386957,14.6153846 51.6386957,14.9076923 Z M42.0395652,12.16 L47.3595652,12.16 C47.0704348,10.7569231 46.1452174,9.88 44.8152174,9.88 C43.3695652,9.88 42.3286957,10.7569231 42.0395652,12.16 Z" id="Shape"></path>
                        <path d="M53.4313043,13.7384615 C53.4313043,9.23692308 56.4382609,6.31384615 60.9486957,6.31384615 C63.146087,6.31384615 65.4591304,7.01538462 67.0204348,8.82769231 L64.0713043,11.7507692 C63.4352174,10.8738462 62.3365217,10.4061538 61.2956522,10.4061538 C59.3295652,10.4061538 57.9417391,11.7507692 57.9417391,13.7384615 C57.9417391,15.7846154 59.3295652,17.0707692 61.2956522,17.0707692 C62.5678261,17.0707692 63.4930435,16.6030769 64.3026087,15.7261538 L67.0782609,18.6492308 C65.806087,20.1107692 63.7243478,21.1046154 60.7752174,21.1046154 C56.496087,21.1046154 53.3734783,18.1230769 53.4313043,13.7384615 Z" id="Path"></path>
                        <path d="M69.6226087,16.3692308 L69.6226087,10.2307692 L68.0034783,10.2307692 L68.0034783,6.54769231 L69.6226087,6.54769231 L69.6226087,1.92923077 L74.1908696,1.46153846 L74.1908696,6.54769231 L77.6026087,6.54769231 L77.6026087,10.2307692 L74.1908696,10.2307692 L74.1908696,15.4923077 C74.1908696,16.4276923 74.3643478,17.1292308 75.2317391,17.1292308 C75.5786957,17.1292308 76.1569565,17.0707692 76.6195652,16.8369231 L77.7182609,20.2276923 C76.7352174,20.7538462 75.6943478,21.1630769 73.7282609,21.1630769 C71.3573913,21.1630769 69.6226087,19.5846154 69.6226087,16.3692308 Z" id="Path"></path>
                    </g>
                    <g transform="translate(0.000000, 5.086154)">
                        <g transform="translate(0.000000, 12.276923)">
                            <path d="M4.10565217,1.46153846 C4.04782609,1.11076923 3.70086957,0.993846154 3.35391304,0.935384615 C2.25521739,0.818461538 2.02391304,1.69538462 2.02391304,2.04615385 C2.02391304,2.63076923 2.1973913,3.15692308 3.29608696,3.15692308 C3.46956522,3.15692308 4.04782609,2.92307692 4.04782609,2.63076923 L5.60913043,2.63076923 C5.55130435,3.62461538 3.87434783,3.85846154 3.1226087,3.85846154 C1.61913043,3.85846154 0.289130435,3.56615385 0.346956522,2.04615385 C0.404782609,0.993846154 1.38782609,0.233846154 3.41173913,0.233846154 C4.51043478,0.233846154 5.60913043,0.584615385 5.60913043,1.40307692 L4.10565217,1.40307692 L4.10565217,1.46153846 Z" id="Path"></path>
                            <path d="M19.8343478,1.46153846 C19.7765217,1.11076923 19.4295652,0.993846154 19.0826087,0.935384615 C17.983913,0.818461538 17.7526087,1.69538462 17.7526087,2.04615385 C17.7526087,2.63076923 17.926087,3.15692308 19.0247826,3.15692308 C19.1982609,3.15692308 19.7765217,2.92307692 19.7765217,2.63076923 L21.3378261,2.63076923 C21.28,3.62461538 19.6030435,3.85846154 18.8513043,3.85846154 C17.3478261,3.85846154 16.0178261,3.56615385 16.0756522,2.04615385 C16.1334783,0.993846154 17.1165217,0.233846154 19.1404348,0.233846154 C20.2391304,0.233846154 21.3378261,0.584615385 21.3378261,1.40307692 L19.8343478,1.40307692 L19.8343478,1.46153846 Z" id="Path"></path>
                            <polygon id="Path" points="5.95608696 0.350769231 7.98 0.350769231 9.71478261 2.80615385 9.71478261 2.80615385 9.71478261 0.350769231 11.0447826 0.350769231 11.0447826 3.8 9.07869565 3.8 7.22826087 1.34461538 7.22826087 1.34461538 7.22826087 3.8 5.89826087 3.8 5.89826087 0.350769231"></polygon>
                            <path d="M11.4495652,0.350769231 L13.936087,0.350769231 C15.1504348,0.350769231 15.8443478,0.701538462 15.8443478,1.16923077 C15.8443478,1.46153846 15.5552174,1.81230769 14.9191304,1.92923077 L14.9191304,1.92923077 C15.7286957,1.98769231 16.0178261,2.45538462 16.0178261,2.80615385 C16.0178261,3.39076923 15.323913,3.74153846 13.993913,3.74153846 L11.5073913,3.74153846 L11.5073913,0.350769231 L11.4495652,0.350769231 Z M12.8952174,1.69538462 L13.3,1.69538462 C13.936087,1.69538462 14.2830435,1.63692308 14.2830435,1.40307692 C14.2830435,1.11076923 13.993913,1.05230769 13.4156522,1.05230769 L12.8952174,1.05230769 L12.8952174,1.69538462 L12.8952174,1.69538462 Z M12.8952174,3.04 L13.3,3.04 C14.0517391,3.04 14.3408696,2.98153846 14.3408696,2.68923077 C14.3408696,2.39692308 13.993913,2.33846154 13.4156522,2.33846154 L12.8952174,2.33846154 L12.8952174,3.04 Z" id="Shape"></path>
                        </g>
                        <g transform="translate(1.156522, 0.000000)" id="Path">
                            <path d="M13.8782609,1.75384615 C13.7626087,1.46153846 13.5891304,1.22769231 13.3,0.993846154 C12.7217391,0.467692308 11.7386957,0.350769231 11.0447826,0.76 C10.4086957,1.11076923 10.003913,1.75384615 10.003913,2.51384615 L10.003913,2.51384615 L10.8713043,2.51384615 C10.9291304,2.57230769 11.0447826,2.57230769 11.0447826,2.63076923 C10.6978261,2.92307692 10.1195652,3.15692308 10.1773913,3.68307692 L11.1026087,9.52923077 L11.1026087,9.52923077 L13.6469565,3.8 C13.993913,3.27384615 14.1673913,2.39692308 13.8782609,1.75384615 Z"></path>
                            <path d="M8.4426087,9.58769231 L9.48347826,2.92307692 C9.54130435,2.45538462 9.42565217,1.98769231 9.25217391,1.63692308 C9.02086957,1.28615385 8.67391304,0.935384615 8.26913043,0.818461538 C7.57521739,0.526153846 6.65,0.643076923 6.12956522,1.22769231 C5.60913043,1.75384615 5.37782609,2.57230769 5.60913043,3.33230769 L8.21130435,9.17846154 L8.4426087,9.58769231 C8.4426087,9.58769231 8.4426087,9.58769231 8.4426087,9.58769231 Z"></path>
                            <path d="M17.6369565,4.38461538 C17.983913,4.96923077 17.926087,5.90461538 17.5213043,6.43076923 C17.29,6.84 16.8852174,7.01538462 16.5382609,7.24923077 L11.1604348,10.9907692 L11.1604348,10.9907692 L11.2182609,10.8153846 L14.0517391,4.32615385 C14.4565217,3.56615385 15.266087,3.15692308 16.1334783,3.27384615 C16.7117391,3.44923077 17.3478261,3.8 17.6369565,4.38461538 Z"></path>
                            <path d="M2.37086957,6.84 L8.32695652,10.9907692 L8.38478261,10.9907692 L5.43565217,4.32615385 C4.91521739,3.44923077 3.87434783,3.04 2.94913043,3.39076923 C2.37086957,3.62461538 1.90826087,4.15076923 1.73478261,4.73538462 C1.56130435,5.55384615 1.7926087,6.37230769 2.37086957,6.84 Z"></path>
                            <path d="M18.9091304,11.1076923 C19.313913,10.5815385 19.4295652,9.70461538 19.1404348,9.06153846 C18.9669565,8.65230769 18.5621739,8.18461538 18.0995652,8.00923077 C17.5213043,7.71692308 16.7695652,7.77538462 16.2491304,8.12615385 L10.9291304,11.8676923 L17.29,11.8676923 C17.926087,11.9261538 18.5043478,11.6338462 18.9091304,11.1076923 Z"></path>
                            <path d="M8.61608696,11.9261538 L3.29608696,8.18461538 C2.77565217,7.83384615 1.96608696,7.77538462 1.44565217,8.06769231 C0.983043478,8.24307692 0.57826087,8.65230769 0.404782609,9.12 C0.115652174,9.76307692 0.231304348,10.64 0.636086957,11.1661538 C1.04086957,11.6923077 1.61913043,11.9846154 2.25521739,11.9261538 L8.61608696,11.9261538 Z"></path>
                        </g>
                    </g>
                </g>
                <path d="M18.5621739,0.467692308 L114.437826,0.467692308 C124.380879,0.467692308 132.479565,8.67441608 132.479565,18.7076923 L132.479565,19.2923077 C132.479565,29.344625 124.362045,37.5323077 114.437826,37.5323077 L18.5621739,37.5323077 C8.61906511,37.5323077 0.519795324,29.3255268 0.519795324,19.2923077 L0.519795324,18.7130096 C0.459817285,8.65724861 8.57929989,0.467692308 18.5621739,0.467692308 Z M18.5621739,2.22153846 C9.53825053,2.22153846 2.20042228,9.62269448 2.25459448,18.7076923 L2.25459448,19.2923077 C2.25459448,28.3578051 9.57805226,35.7784615 18.5621739,35.7784615 L114.437826,35.7784615 C123.404852,35.7784615 130.744783,28.3750894 130.744783,19.2923077 L130.744783,18.7076923 C130.744783,9.64212775 123.421882,2.22153846 114.437826,2.22153846 L18.5621739,2.22153846 Z" id="Path"></path>
            </g>
        </g>
    </g>
</svg>