<svg xmlns="http://www.w3.org/2000/svg" id="data2" viewBox="0 0 48 48">
	<g>
		<path fill="#E86C60" d="M12,27H2c-0.55225,0-1,0.44727-1,1v12c0,0.55273,0.44775,1,1,1h10c0.55225,0,1-0.44727,1-1V28
		C13,27.44727,12.55225,27,12,27z"></path>
		<path fill="#EFD358" d="M28,17H18c-0.55225,0-1,0.44727-1,1v22c0,0.55273,0.44775,1,1,1h10c0.55225,0,1-0.44727,1-1V18
		C29,17.44727,28.55225,17,28,17z"></path>
		<path fill="#72C472" d="M44,7H34c-0.55225,0-1,0.44727-1,1v32c0,0.55273,0.44775,1,1,1h10c0.55225,0,1-0.44727,1-1V8
		C45,7.44727,44.55225,7,44,7z"></path>
	</g>
</svg>