<svg xmlns="http://www.w3.org/2000/svg" viewBox="0 0 151.6 148.8"><style>.st2{fill:#babcbe}.st3{fill:#a8d6f3}.st4{fill:#107bc0}.st7{fill:#f0ab1e}.st10{fill:#ab5c31}</style><circle cx="28.4" cy="65.2" r="24.9" fill="#e6e7e8"/><path d="M28.4 93.5C12.7 93.5 0 80.8 0 65.2s12.7-28.4 28.4-28.4 28.4 12.7 28.4 28.4S44 93.5 28.4 93.5zm0-49.7C16.6 43.8 7 53.4 7 65.2s9.6 21.4 21.4 21.4S49.7 77 49.7 65.2s-9.5-21.4-21.3-21.4z" fill="#bcbec0"/><path class="st2" d="M19.1 76l-5.5 2.9 1-6.1-4.4-4.4 6.1-.9 2.8-5.5 2.7 5.5 6.2.9-4.5 4.4 1.1 6.1zM37.7 76l-5.5 2.9 1-6.1-4.4-4.4 6.1-.9 2.8-5.5 2.7 5.5 6.1.9-4.4 4.4 1 6.1zM28.4 59.6l-5.5 2.9 1-6.1-4.4-4.4 6.1-.8 2.8-5.6 2.7 5.6 6.1.8-4.4 4.4 1 6.1z"/><circle class="st3" cx="75.8" cy="28.4" r="24.9"/><path class="st4" d="M75.8 56.7c-15.6 0-28.4-12.7-28.4-28.4S60.2 0 75.8 0s28.4 12.7 28.4 28.4-12.7 28.3-28.4 28.3zm0-49.7C64 7 54.4 16.6 54.4 28.4S64 49.7 75.8 49.7s21.4-9.6 21.4-21.4S87.6 7 75.8 7z"/><path class="st4" d="M60.6 25.1l-.4-.9c1.1-.7 2.3-1.9 2.6-3.5l-.1 1.7-1.5-1.1c-.7-.5-.9-1.1-.9-1.7 0-1 .8-1.7 1.8-1.7.7 0 1.2.3 1.5.6.3.6.5 1.2.5 1.9.1 2.1-1.4 3.8-3.5 4.7zM69.3 27.4c2.1 0 3.4-1 3.4-3.5 0-2.1-1.1-3.2-2.8-3.2-.5 0-1.2.1-2.1.4l1.7-1-.5 2.5c-.2 1.4-1 1.9-2 1.9-.7 0-1.3-.3-1.6-.9 0-3 2.6-4.3 5.6-4.3 4.1 0 6.1 1.9 6.1 4.5 0 2-1.5 4-5.3 4.5v-.5c4.3.4 5.8 2.1 5.8 4.8 0 2.9-2.6 5.1-7 5.1-3.9 0-5.9-1.7-6.1-4.6.3-.9 1-1.2 1.7-1.2 1.1 0 1.8.6 2.1 2.5l.3 2.6-1.3-1.1c.7.3 1.2.4 1.9.4 2.5 0 3.8-1.2 3.8-3.8 0-2.3-1.3-3.6-3.6-3.6h-1v-1.5h.9zM88.8 21.9l.8 1.2H78.4v-3.4h12.5v2.1l-6.6 15.4h-4.1L80 37l8.8-15.1z"/><circle cx="46.5" cy="120.4" r="24.9" fill="#fff"/><path class="st3" d="M46.5 148.8c-15.6 0-28.4-12.7-28.4-28.4S30.9 92 46.5 92s28.4 12.7 28.4 28.4-12.7 28.4-28.4 28.4zm0-49.7c-11.8 0-21.4 9.6-21.4 21.4s9.6 21.4 21.4 21.4 21.4-9.6 21.4-21.4-9.6-21.4-21.4-21.4z"/><path class="st3" d="M46.1 127.7l-7.2 3.8 1.4-8-5.8-5.7 8-1.2 3.6-7.2 3.6 7.2 8 1.2-5.8 5.7 1.4 8z"/><circle cx="123.3" cy="64.3" r="24.9" fill="#ffd35b"/><path class="st7" d="M123.3 92.6c-15.6 0-28.4-12.7-28.4-28.4s12.7-28.4 28.4-28.4 28.4 12.7 28.4 28.4-12.8 28.4-28.4 28.4zm0-49.7c-11.8 0-21.4 9.6-21.4 21.4s9.6 21.4 21.4 21.4 21.4-9.6 21.4-21.4-9.7-21.4-21.4-21.4z"/><path class="st7" d="M114.9 76.1l-4.9 2.5 1-5.4-4-3.9 5.5-.8 2.4-5 2.5 5 5.5.8-4 3.9 1 5.4zM131.6 76.1l-4.9 2.5.9-5.4-4-3.9 5.5-.8 2.5-5 2.4 5 5.5.8-3.9 3.9.9 5.4zM114.9 60l-4.9 2.6 1-5.5-4-3.9 5.5-.8 2.4-5 2.5 5 5.5.8-4 3.9 1 5.5zM131.6 60l-4.9 2.6.9-5.5-4-3.9 5.5-.8 2.5-5 2.4 5 5.5.8-3.9 3.9.9 5.5z"/><circle cx="104.6" cy="120.4" r="24.9" fill="#f78d26"/><path d="M104.6 148.8c-15.6 0-28.4-12.7-28.4-28.4S89 92 104.6 92s28.4 12.7 28.4 28.4-12.8 28.4-28.4 28.4zm0-49.7c-11.8 0-21.4 9.6-21.4 21.4s9.6 21.4 21.4 21.4 21.4-9.6 21.4-21.4-9.6-21.4-21.4-21.4z" fill="#b05926"/><path class="st10" d="M94.5 125.3l-6 3.1 1.1-6.7-4.8-4.7 6.7-1 3-6 3 6 6.7 1-4.9 4.7 1.2 6.7zM114.8 125.3l-6 3.1 1.1-6.7-4.8-4.7 6.7-1 3-6 3 6 6.7 1-4.9 4.7 1.2 6.7z"/></svg>