<?xml version="1.0" encoding="utf-8"?>
<!-- Generator: Adobe Illustrator 19.2.1, SVG Export Plug-In . SVG Version: 6.00 Build 0)  -->
<svg version="1.1" id="Layer_1" xmlns="http://www.w3.org/2000/svg" xmlns:xlink="http://www.w3.org/1999/xlink" x="0px" y="0px"
	 viewBox="0 0 42.1 17.2" style="enable-background:new 0 0 42.1 17.2;" xml:space="preserve">
<style type="text/css">
	.st0{fill:#FFFFFF;}
	.st1{fill:#00B742;}
</style>
<g>
	<polygon class="st0" points="17,3.5 11.8,11.3 11.7,11.3 11.7,3.5 9.2,3.5 0,17.2 3.6,17.2 8.7,9.4 8.8,9.4 8.8,17.2 11.3,17.2 
		16.5,9.4 16.5,9.4 16.5,17.2 19.5,17.2 19.5,3.5 	"/>
	<g>
		<path class="st1" d="M41.2,0l-5.7,3.5h1.6l-5.2,7.8h0V3.5h-2.5l-5.2,7.8h0V3.5h-3v13.7h2.6l5.2-7.8h0v7.8h2.5l9.2-13.7h1.5L41.2,0
			z"/>
	</g>
</g>
</svg>
