<?xml version="1.0" encoding="utf-8"?>
<!-- Generator: Adobe Illustrator 21.0.0, SVG Export Plug-In . SVG Version: 6.00 Build 0)  -->
<svg version="1.1" id="Layer_1" xmlns="http://www.w3.org/2000/svg" xmlns:xlink="http://www.w3.org/1999/xlink" x="0px" y="0px"
	 viewBox="0 0 834 1000" style="enable-background:new 0 0 834 1000;" xml:space="preserve">
<style type="text/css">
	.st0{fill:#FFFFFF;}
</style>
<path class="st0" d="M103.8,708.5c29.2,0,54,10.2,74.4,30.6s30.6,44.8,30.6,73.1s-10.2,52.7-30.6,73.1S132.9,916,103.8,916
	S50,905.8,30,885.4S0,840.6,0,812.2s10-52.7,30-73.1S74.6,708.5,103.8,708.5z M103.8,83.5c131.7,0,253.5,32.5,365.6,97.5
	s200.8,153.5,266.2,265.6s98.1,234,98.1,365.6c0,28.3-10.2,52.7-30.6,73.1S757.9,916,728.8,916S675,905.8,655,885.4
	s-30-44.8-30-73.1c0-143.3-50.8-266-152.5-368.1S247.9,291,103.8,291C74.6,291,50,280.8,30,260.4S0,215.6,0,187.2s10-52.7,30-73.1
	S74.6,83.5,103.8,83.5z M103.8,396c115,0,213.3,40.6,295,121.9s122.5,179.4,122.5,294.4c0,28.3-10.2,52.7-30.6,73.1
	S445.4,916,416.2,916s-53.8-10.2-73.8-30.6s-30-44.8-30-73.1c0-57.5-20.4-106.7-61.2-147.5s-90-61.2-147.5-61.2
	c-29.2,0-53.8-10.2-73.8-30.6S0,528.1,0,499.8c0-28.3,10-52.7,30-73.1S74.6,396,103.8,396z"/>
</svg>
