<svg xmlns="http://www.w3.org/2000/svg" viewBox="0 0 32 32"><defs><style>.cls-1{fill:#fff;}</style></defs><title>twitter</title><path d="M32 6.1a13.74 13.74 0 0 1-3.3 3.38q0 .28 0 .85a18.63 18.63 0 0 1-.7 5.27 19 19 0 0 1-2.35 5 19.83 19.83 0 0 1-3.75 4.27 16.68 16.68 0 0 1-5.24 3 19.17 19.17 0 0 1-6.6 1.13A18.2 18.2 0 0 1 0 26.05a14 14 0 0 0 1.58.08 12.84 12.84 0 0 0 8.14-2.8 6.57 6.57 0 0 1-6.13-4.55 8.3 8.3 0 0 0 1.23.1 6.78 6.78 0 0 0 1.73-.22A6.45 6.45 0 0 1 2.8 16.4a6.34 6.34 0 0 1-1.5-4.18v-.08a6.5 6.5 0 0 0 3 .83 6.55 6.55 0 0 1-2.13-2.34 6.4 6.4 0 0 1-.8-3.13 6.43 6.43 0 0 1 .86-3.3A18.6 18.6 0 0 0 8.2 9a18.27 18.27 0 0 0 7.55 2 7.28 7.28 0 0 1-.16-1.5 6.32 6.32 0 0 1 1.9-4.64 6.57 6.57 0 0 1 9.44.15 12.86 12.86 0 0 0 4.16-1.57 6.37 6.37 0 0 1-2.88 3.6A13.07 13.07 0 0 0 32 6.1z" class="cls-1"/></svg>