<svg xmlns="http://www.w3.org/2000/svg" width="200" height="40" viewBox="0 0 200 40"><defs><style>.cls-1{fill:#009acf;}.cls-2{fill:#f1f1f2;}</style></defs><title>Asset 1</title><g id="Layer_2" data-name="Layer 2"><g id="Layer_1-2" data-name="Layer 1"><polygon class="cls-1" points="126 4.79 126.33 4.41 115.11 5.34 118.68 8.21 106.01 23.74 98.55 14.75 93.97 14.75 103.63 26.67 92.67 40 97.15 40 105.95 29.44 114.65 40 119.23 40 108.27 26.57 126.01 4.79 126 4.79"/><path class="cls-2" d="M9.07,40H5.18V16.27H0V12.71H5.18V8.14c0-5,2.65-8.14,7.46-8.14a12.55,12.55,0,0,1,5.5,1.07V4.8a11.57,11.57,0,0,0-4.53-1.13q-4.54,0-4.54,5.26v3.78h9.07v3.56H9.07Z"/><path class="cls-2" d="M32.56,13.5a13.74,13.74,0,0,1,10.15,3.92,12.53,12.53,0,0,1,3.95,9.36,12.52,12.52,0,0,1-3.95,9.35A13.94,13.94,0,0,1,32.56,40a14,14,0,0,1-10.15-3.87,12.55,12.55,0,0,1-3.94-9.35,12.56,12.56,0,0,1,3.94-9.36A13.75,13.75,0,0,1,32.56,13.5Zm7.24,6.22a9.86,9.86,0,0,0-7.24-2.82,9.85,9.85,0,0,0-7.23,2.82,9.57,9.57,0,0,0-2.86,7.06,9.54,9.54,0,0,0,2.86,7,9.85,9.85,0,0,0,7.23,2.82,9.86,9.86,0,0,0,7.24-2.82,9.54,9.54,0,0,0,2.86-7A9.57,9.57,0,0,0,39.8,19.72Z"/><path class="cls-2" d="M50.92,40V14.75h3.89v4.81c1.95-3.29,6.1-5.44,10.37-5.44v3.82a10.61,10.61,0,0,0-3.24.47,10.51,10.51,0,0,0-7.13,5.65V40Z"/><path class="cls-2" d="M70.09,36.29A12.18,12.18,0,0,1,66,26.78a13.06,13.06,0,0,1,3.67-9.47,12.72,12.72,0,0,1,9.56-3.81c8.75,0,12.2,7.42,12.2,13.12v1H70c.43,5.44,4.86,8.94,11.12,8.94a15.66,15.66,0,0,0,8.37-2.35v3.34C87.32,39.22,84.3,40,80.35,40A15,15,0,0,1,70.09,36.29ZM87.48,24.58a8.48,8.48,0,0,0-2.27-5.28c-1.35-1.62-3.4-2.4-6.15-2.4a8.94,8.94,0,0,0-6.37,2.29A8.21,8.21,0,0,0,70,24.58Z"/><path class="cls-2" d="M122.89,33.78V14.49l3.9-4.79V32.89c0,2.46,1.13,3.71,3.4,3.71a5,5,0,0,0,2.54-.68v3.35a8.4,8.4,0,0,1-3.83.73C125.49,40,122.89,38.22,122.89,33.78Z"/><path class="cls-2" d="M138.55,4.19a2.82,2.82,0,0,1,3.89,0,2.6,2.6,0,0,1,0,3.77,2.92,2.92,0,0,1-3.89,0A2.69,2.69,0,0,1,138.55,4.19Zm0,35.81V14.75h3.89V40Z"/><path class="cls-2" d="M158.26,40l-12-25.4h4.37l9.51,20.33L169.6,14.6h4.21l-12,25.4Z"/><path class="cls-2" d="M178.67,36.29a12.18,12.18,0,0,1-4.1-9.51,13.06,13.06,0,0,1,3.67-9.47,12.71,12.71,0,0,1,9.56-3.81c8.74,0,12.2,7.42,12.2,13.12v1H178.56c.44,5.44,4.86,8.94,11.13,8.94a15.66,15.66,0,0,0,8.37-2.35v3.34c-2.16,1.63-5.19,2.41-9.13,2.41A15,15,0,0,1,178.67,36.29Zm17.39-11.71a8.54,8.54,0,0,0-2.27-5.28c-1.35-1.62-3.4-2.4-6.16-2.4a9,9,0,0,0-6.37,2.29,8.24,8.24,0,0,0-2.64,5.39Z"/></g></g></svg>