<svg xmlns="http://www.w3.org/2000/svg" xmlns:xlink="http://www.w3.org/1999/xlink" width="35" height="35" viewBox="0 0 35 35"><defs><style>.cls-1{fill:url(#New_Gradient_Swatch_1);}.cls-2{fill:#fff;}.cls-3{fill:#d2e5f1;}.cls-4{fill:#b5cfe4;}</style><linearGradient id="New_Gradient_Swatch_1" x1="17.5" x2="17.5" y2="34.87" gradientTransform="translate(2.1 -1.87) rotate(6.51)" gradientUnits="userSpaceOnUse"><stop offset="0" stop-color="#42bce8"/><stop offset="1" stop-color="#23a7dc"/></linearGradient></defs><title>Asset 1</title><g  data-name="Layer 2"><g id="Layer_1-2" data-name="Layer 1"><circle class="cls-1" cx="17.5" cy="17.5" r="17.5" transform="translate(-1.87 2.1) rotate(-6.51)"/><path class="cls-2" d="M26,10.07,22.89,25.83a1.15,1.15,0,0,1-1.64.56L14,20.86,11.41,19.6,7,18.11s-.68-.24-.74-.76.76-.81.76-.81L24.57,9.65S26,9,26,10.07Z"/><path class="cls-3" d="M13.48,25.65s-.21,0-.47-.85-1.6-5.2-1.6-5.2L22,12.86s.61-.37.59,0c0,0,.1.07-.22.38l-8.33,7.49"/><path class="cls-4" d="M16.8,23,14,25.59a.52.52,0,0,1-.47.06L14,20.82"/></g></g></svg>
