<svg id="Layer_1" data-name="Layer 1" xmlns="http://www.w3.org/2000/svg" viewBox="0 0 77.8 53.93"><defs><style>.cls-1{fill:#fff;}</style></defs><title>Artboard 7</title><path class="cls-1" d="M37.81,35.39H19.75V18.78H37.81Zm20.12,0H39.87V18.78H57.93ZM37.81,16.6H19.75V0H37.81Zm20.12,0H39.87V0H57.93ZM8.73,35.39A56.42,56.42,0,0,1,1.82,18.78h16V35.39Zm9.08,10.54a43.47,43.47,0,0,1-7.75-8.48h7.75Zm20,8a32.75,32.75,0,0,1-18.06-6.42V37.33H37.81Zm20.12-6.42a32.75,32.75,0,0,1-18.06,6.42V37.33H57.93Zm9.81-10.06A43.16,43.16,0,0,1,60,45.93V37.45ZM76,18.78a55.09,55.09,0,0,1-6.9,16.61H60V18.78ZM77.68,0c.12,1.21.12,2.42.12,3.76A62.2,62.2,0,0,1,76.47,16.6H60V0ZM0,3.76C0,2.54,0,1.21.12,0H17.81V16.6H1.33A62.2,62.2,0,0,1,0,3.76"/></svg>