<svg id="Layer_1" data-name="Layer 1" xmlns="http://www.w3.org/2000/svg" viewBox="0 0 2037.1 283.1"><title>Artboard 1</title><path d="M285.4,133.4c-6.6-4-15.3-6.8-26.2-8.5s-27.2-2.6-48.9-2.6H111q-46.05,0-60.6-10c-9.7-6.7-14.6-18.9-14.6-36.8,0-17.6,5-29.6,14.9-36.2s29.3-9.8,58-9.8H203q42.3,0,55.4,9.5c8.7,6.4,13.1,18.6,13.1,36.8v4.3h33v-8q0-19.95-4.5-33.3a48.22,48.22,0,0,0-14-21.4c-7.8-6.4-18.5-11-32.3-13.5S215.9,0,181.7,0H119Q51.05,0,25.5,17.2T0,77c0,27.8,7.5,47.5,22.4,58.9s40.8,17.2,77.7,17.2H216.9c24.6,0,40.9,3.2,48.8,9.7s11.9,18.5,11.8,35.9c0,20.9-5.7,35.1-17.1,42.5s-35.8,11.1-73.3,11.1H114.9q-46.8,0-63.8-10.2C39.7,235.4,34,223.3,34,206c0-2,.1-5.6.4-10.9.1-2.2.2-4,.4-5.4H1.8c-.1,1-.2,2.1-.2,3.2C1.2,201.1,1,207,1,210.4q0,39,23.7,55.8T104,283h93.7c43.1,0,72.8-6.1,89.4-18.2s24.8-33.5,24.8-64.2q0-28.8-6-43.8A47.29,47.29,0,0,0,285.4,133.4Z" fill="#fff"/><path d="M722,19.3c-8.8-6.9-20.4-11.9-34.8-14.8S651,0,622,0H529.7c-29.1,0-50.8,1.5-65.3,4.5s-26,7.9-34.8,14.8c-9.8,7.8-16.8,18.5-21.2,32.1s-6.5,31.9-6.5,54.9v75.3c0,21,2.2,38,6.6,50.8s11.5,23.3,21.4,31.2c8.9,7,20.4,12,34.5,14.9s36,4.4,65.5,4.3H622c29.8,0,51.8-1.4,65.8-4.3s25.5-7.9,34.3-14.9c9.5-7.6,16.5-18,21-31.4s6.7-30.8,6.7-52.3v-77c0-21.4-2.2-38.8-6.7-52.2S731.6,26.9,722,19.3ZM712.6,172v9.3c0,14.5-.8,25.1-2.4,32a46.56,46.56,0,0,1-8,17.7c-5.4,7.2-13,12.3-22.7,15.4s-23.4,4.6-41.2,4.6h-125c-17.8,0-31.6-1.5-41.2-4.6s-17.2-8.2-22.7-15.4a46.94,46.94,0,0,1-8.3-18.5c-1.6-7.1-2.4-19-2.4-35.5V104.4c0-16.6.8-28.4,2.4-35.5a48.4,48.4,0,0,1,8.3-18.5c5.5-7.2,13-12.3,22.7-15.4s23.4-4.6,41.2-4.6h125c17.8,0,31.6,1.5,41.2,4.6s17.2,8.2,22.7,15.4a46.82,46.82,0,0,1,8,17.6q2.4,10.2,2.4,32.1Z" fill="#fff"/><polygon points="1152.9 248.1 903.1 3.4 849.1 3.4 849.1 279.7 883.4 279.7 883.4 31.2 1136.9 279.7 1187 279.7 1187 3.4 1152.9 3.4 1152.9 248.1" fill="#fff"/><path d="M2037.1,102.3V69.1c0-25.1-7.1-42.4-21.4-51.7s-43.4-14-87.3-14H1731.1V33.5h208.4c24.7,0,41.2,3.1,49.3,9.3s12.2,18.6,12.1,37.1V93c0,18.7-4,31.1-12.1,37.2s-24.5,9.2-49.3,9.2H1731.1V279.7h34.3V171.3H1933c28.8,0,47.2,3.3,55,9.8s11.8,18.9,11.8,36.9v61.6h34.3V211.1c0-16.1-3.8-28.7-11.5-37.8s-19.1-14.4-34.1-16.1c18.2-3.8,30.8-9.7,38-17.6S2037.2,119.4,2037.1,102.3Z" fill="#fff"/><polygon points="1481.7 3.4 1436.1 3.4 1275.8 279.7 1314.9 279.7 1366.9 189.7 1366.9 189.7 1459.3 30.8 1553.2 189.7 1553.1 189.7 1606.1 279.7 1642.4 279.7 1481.7 3.4" fill="#fff"/></svg>