<svg id="Layer_1" data-name="Layer 1" xmlns="http://www.w3.org/2000/svg" viewBox="0 0 500 500"><defs><style>.cls-1{fill:#f9f9f9;}</style></defs><title>Artboard 3</title><rect class="cls-1" x="366.8" y="47" width="42.91" height="73.61" rx="14.36"/><rect class="cls-1" x="366.81" y="147.71" width="42.91" height="305.29" rx="14.36"/><rect class="cls-1" x="297.5" y="47" width="42.91" height="95.3" rx="14.36"/><rect class="cls-1" x="297.5" y="166.63" width="42.91" height="286.37" rx="14.36"/><rect class="cls-1" x="436.78" y="47" width="42.91" height="33.29" rx="14.36"/><rect class="cls-1" x="436.78" y="106.82" width="42.91" height="346.18" rx="14.36"/><rect class="cls-1" x="89.61" y="47" width="42.91" height="308.09" rx="14.36"/><rect class="cls-1" x="20.31" y="47" width="42.91" height="406" rx="14.36"/><rect class="cls-1" x="89.61" y="381.57" width="42.91" height="71.43" rx="14.36"/><rect class="cls-1" x="158.91" y="47" width="42.91" height="192.95" rx="14.36"/><rect class="cls-1" x="158.91" y="266.99" width="42.91" height="186.01" rx="14.36"/><rect class="cls-1" x="228.2" y="47" width="42.91" height="192.95" rx="14.36"/><rect class="cls-1" x="228.2" y="266.99" width="42.91" height="186.01" rx="14.36"/></svg>