<svg id="Layer_1" data-name="Layer 1" xmlns="http://www.w3.org/2000/svg" viewBox="0 0 645.65 64.96"><title>Research</title><path d="M7.88,64.2H0V.77H45.28q15.13,0,20,3.21t4.92,11.87v7.62q0,5.88-2.45,8.61t-8.71,4q5.19.56,7.83,3.69c1.76,2.09,2.65,5,2.65,8.67V64.2H61.68V50.06q0-6.23-2.7-8.48c-1.8-1.51-6-2.26-12.63-2.26H7.88Zm40-56.53h-40V32h40q8.52,0,11.31-2.11t2.79-8.54v-3q0-6.39-2.79-8.52T47.84,7.67Z" fill="#fff"/><path d="M84.18,64.2V.77h62.45V7.84H91.89V27.73h52.44V34.8H91.89V57.13h54.74V64.2Z" fill="#fff"/><path d="M157.07,43.54h7.58q0,.47-.09,1.23c-.05,1.22-.08,2.06-.08,2.52q0,6,3.92,8.3t14.65,2.35h16.57q12.91,0,16.83-2.56t3.92-9.76q0-6-2.73-8.24t-11.2-2.23h-26.8q-12.69,0-17.82-3.95t-5.14-13.52q0-9.79,5.86-13.74T184,0h14.4c7.86,0,13.38.3,16.53.89A16.34,16.34,0,0,1,222.33,4a11.12,11.12,0,0,1,3.22,4.92,24.12,24.12,0,0,1,1,7.65V18.4H219v-1q0-6.26-3-8.45t-12.71-2.2H181.65q-9.89,0-13.32,2.26c-2.28,1.51-3.43,4.28-3.43,8.31s1.12,6.9,3.35,8.43,6.86,2.3,13.91,2.3H205a77.29,77.29,0,0,1,11.22.6,16.74,16.74,0,0,1,6,2A10.72,10.72,0,0,1,226.87,36q1.38,3.45,1.38,10,0,10.56-5.69,14.74T202.05,65H180.54q-12.78,0-18.21-3.85t-5.43-12.8q0-1.2.12-4.05A4.3,4.3,0,0,1,157.07,43.54Z" fill="#fff"/><path d="M241.58,64.2V.77H304V7.84H249.29V27.73h52.45V34.8H249.29V57.13H304V64.2Z" fill="#fff"/><path d="M311.83,64.2,348.63.77h10.48L396,64.2h-8.35l-8.31-14H328.91l-8.09,14Zm20.91-20.66h42.77L354,7.07Z" fill="#fff"/><path d="M411.55,64.2h-7.88V.77H449Q464.08.77,469,4t4.92,11.87v7.62c0,3.92-.81,6.79-2.45,8.61s-4.53,3.16-8.71,4q5.21.56,7.84,3.69t2.64,8.67V64.2h-7.88V50.06q0-6.23-2.71-8.48T450,39.32H411.55Zm40-56.53h-40V32h40q8.52,0,11.31-2.11c1.86-1.4,2.8-4.25,2.8-8.54v-3c0-4.26-.94-7.1-2.8-8.52S457.19,7.67,451.51,7.67Z" fill="#fff"/><path d="M513.05,65q-9.75,0-14.23-1a16.61,16.61,0,0,1-7.32-3.43,15.11,15.11,0,0,1-4.58-7.11,38.94,38.94,0,0,1-1.43-11.71V24.41a44.42,44.42,0,0,1,1.43-12.61,15.16,15.16,0,0,1,4.58-7.37A16.78,16.78,0,0,1,499,1a71.54,71.54,0,0,1,14-1h20q15.49,0,20.95,3.85t5.46,14c0,.88,0,1.56,0,2.05s0,.92-.07,1.32H552v-.94q0-7.41-3.26-10.37T537.29,7H509.81a28.3,28.3,0,0,0-8.75,1.06,9.55,9.55,0,0,0-4.88,3.54,11.25,11.25,0,0,0-1.75,4.17,44.81,44.81,0,0,0-.51,8.14V40.73a44.75,44.75,0,0,0,.51,8.13A11.37,11.37,0,0,0,496.18,53a9.59,9.59,0,0,0,4.88,3.53,28.25,28.25,0,0,0,8.75,1.07h27.4q9,0,12.26-2.9t3.28-10.52V42.47H560c0,.4,0,1,0,1.64s0,1.2,0,1.51a31.07,31.07,0,0,1-1.19,9.53A12.69,12.69,0,0,1,555,61a15.16,15.16,0,0,1-7.15,3.11Q543.25,65,533,65Z" fill="#fff"/><path d="M580.3,64.2h-7.88V.77h7.88v27.3h57.46V.77h7.89V64.2h-7.89V35H580.3Z" fill="#fff"/></svg>