<?xml version="1.0" encoding="utf-8"?>
<!-- Generator: Adobe Illustrator 21.0.0, SVG Export Plug-In . SVG Version: 6.00 Build 0)  -->
<svg version="1.1" id="Layer_1" xmlns="http://www.w3.org/2000/svg" xmlns:xlink="http://www.w3.org/1999/xlink" x="0px" y="0px"
	 viewBox="0 0 950 144.6" style="enable-background:new 0 0 950 144.6;" xml:space="preserve">
<style type="text/css">
	.st0{fill:#4F497A;}
</style>
<g>
	<g>
		<polyline points="580.4,27.3 602.9,27.3 602.9,0.5 524.1,0.5 524.1,27.3 547.5,27.3 547.5,115.4 580.4,115.4 580.4,27.3 		"/>
		<path d="M647.4,32.8v83H679V65.9c0-6.2,0.6-11.9,8.3-11.9c7,0,7.3,6.7,7.3,11.9v49.9h31.5V69.6c0-6.7-0.3-15.1,8.8-15.1
			c7.5,0,6.8,6,6.8,11.4v49.9h31.5V61.3c0-8.8,0-16.9-6-23.1c-4.9-5-12.3-7.2-19.3-7.2c-10.9,0-19.2,3.6-24.9,12.8
			c-5-8.9-13.2-12.8-23.4-12.8c-9.8,0-18,4.4-22.6,12.8h-0.3v-11L647.4,32.8"/>
		<path d="M836.2,86.1c-1.3,7.1-5.4,10.1-12.7,10.1c-9.7,0-13-6.5-12.5-15.4h55.6v-4.4c0-27.3-16.9-45.2-44.5-45.2
			c-11.9,0-24.5,4.1-33,12.8c-7.8,8-12.2,20.2-12.2,31.4c0,11.9,4.7,23.2,13.7,31.2c9.4,8.3,21.3,10.9,33.5,10.9
			c19.7,0,37.5-9.3,42.6-29.4L836.2,86.1 M810.8,64.4c-0.3-7.6,3.1-14.3,11.5-14.3c9.1,0,11.7,6.2,11.7,14.3H810.8z"/>
		<path d="M865.3,92.2c6.2,19.2,23.2,25.2,41.8,25.2c18.7,0,42.9-6.5,42.9-29.4c0-8.9-4.1-16.3-11.7-21.1
			c-6.7-4.1-15.1-5.2-22.6-6.2c-3.9-0.5-10.4-1-14-2c-2.1-0.5-4.9-1.6-4.9-4.2c0-3.6,7.8-4.4,10.4-4.4c5.7,0,12,1.6,14.5,7.3
			l24.5-4.7c-5.5-15.6-21.9-21.6-37.5-21.6c-9.3,0-18.5,1.3-26.7,6.3c-7.8,4.9-12.8,12.4-12.8,21.8c0,22.1,20.6,25.5,38,27.9
			c2.9,0.3,14,1.1,14,5.4c0,4.9-9.1,5.2-12.3,5.2c-7,0-15.9-1-17.7-8.9L865.3,92.2"/>
		<rect x="609" width="32.2" height="27.2"/>
		<rect x="609" y="32.8" width="32.2" height="83"/>
	</g>
	<g>
		<g>
			<rect x="131" class="st0" width="32.2" height="27.2"/>
			<rect x="131" y="32.8" class="st0" width="32.2" height="83"/>
			<rect x="212.5" class="st0" width="32.2" height="27.2"/>
			<rect x="212.5" y="32.8" class="st0" width="32.2" height="83"/>
			<path class="st0" d="M401.8,115.8c-2.4-5.9-2.6-12-2.6-18.2V68.5c0-11.9,1.3-22.6-9.6-30.2c-8.1-5.9-20.6-7.2-30.4-7.2
				c-18.7,0-38.3,5.4-43.2,26l29.6,2.8c1-7,6.3-9.3,12.7-9.3c7.8,0,9.8,2.9,9.8,10.4v0.6c-10.9,0.6-22.1,1.9-32.7,5.2
				c-11.5,3.6-21.8,12.4-21.8,25.5c0,16.6,13.5,25,28.9,25c11.4,0,20.6-3.6,27.1-13.2c0,3.9,0.3,7.8,1.1,11.5h31.1 M368,78.6
				c0,9.1-0.2,19.3-12.4,19.3c-5,0-8.4-2.3-8.4-7.6c0-10.1,13-12.5,20.8-13.3V78.6z"/>
			<path class="st0" d="M431.1,49.8v-17h-27.5v83h32.2V79.7c0-4.9,0-10.2,2.3-14.3c2.6-4.7,8-5.7,13.2-5.7c2.1,0,4.2,0.3,6.2,0.8
				V31.4l-4.4-0.3c-12.8-1-18.9,7.2-21.6,18.7L431.1,49.8"/>
			<path class="st0" d="M544,32.8h-23.7L505.8,77l-13.6-44.2h-34.9l29.1,75.1c0.8,2.3,2.1,5,2.1,7.5c0,6.5-9.7,6.3-14.1,6.3l-11.7-1
				v23.1l2.8,0.2l13.7,0.6c18.5,0,26.8-6.5,33-23.7L544,32.8"/>
			<polyline class="st0" points="121.5,0 76.4,0 61.1,61.4 60.8,61.4 44.8,0 0,0 0,115.8 25.7,115.8 25.7,33.1 26.1,33.1 
				47.1,115.8 68.9,115.8 89.3,33.1 89.6,33.1 89.6,115.8 121.5,115.8 121.5,0 			"/>
			<rect x="172.8" class="st0" width="31.7" height="115.8"/>
			<path class="st0" d="M261.9,53.9v31.4c0,8.9-0.2,16.9,6.2,23.7c6.3,6.8,14.6,9.6,23.2,8.5l19-2.4V91.9c-3.1,0.8-6.2,1.5-9.3,1.5
				c-7.6,0-7-4.7-7-10.7V53.9h16.3V32.8h-16.6V5.3l-27.9,1l-2.4,26.5h-13.5v21.1H261.9"/>
		</g>
	</g>
</g>
</svg>
