<svg xmlns="http://www.w3.org/2000/svg" viewBox="0 0 998 194"><title>TheTrumpet Logo</title><path d="M982.55,119c-2.65,13.28-5.78,18.11-13.32,18.11-6.71,0-9.23-4-9.23-12.48V67h29V49H961V4.87l-38,5.91V49H897.79a42.08,42.08,0,0,1,15.76,18H923v53.13c0,25.34,12.56,33.87,35.84,33.87,24.5,0,39.35-7,40.16-35H982.55Z" transform="translate(-1 -1)" style="fill:#ae1a1f"/><path d="M913,95.2c0-32.08-19.48-46.85-46.21-46.85-30,0-51.6,20.81-51.6,57.06,0,31.67,18.86,51.15,52.85,51.15,23.35,0,38.74-9.91,43.77-37.56h-16.4c-3.62,10.76-10,18.34-21.57,18.34-16.58,0-20.61-13.39-21-29.34h59.78C912.77,104.79,913,97.91,913,95.2ZM876,93H852.93c0-17.62,2.85-24.45,11.87-24.45,7.85,0,11.2,6.56,11.2,20.3Z" transform="translate(-1 -1)" style="fill:#ae1a1f"/><path d="M769.2,48c-17.56,0-32.2,17-32.2,17V49H685.36c4.71,4.3,7.88,10.3,9.46,18H704V177H692v18h65V177H741V147.34c4.85,6.42,13.32,8.33,25.72,8.33,28.51,0,43.18-20.14,43.18-54.55C809.89,67.13,796.05,48,769.2,48Zm1.08,54.44c.1,20.1-1.86,34.19-14.43,34.19-9.69,0-14.85-3.72-14.85-18V91.47c0-14.51,3.92-23.24,14.85-23.24C768.83,68.23,770.38,84.33,770.28,102.46Z" transform="translate(-1 -1)" style="fill:#ae1a1f"/><path d="M660.25,47.92c-15.29,0-23.76,9.92-29.75,20-3.72-13.2-13.64-20-27.89-20-18.18,0-27.06,9.09-31.61,20V49H525V67h12v69H525v19h57V135.91l-7,1V91.69c0-16.58,5.42-23.1,12.29-23.1,7.29,0,7.71,8.39,7.71,18.34V137h-7v18h52V137h-8V88.58c0-14.51,6-20,12.08-20,7.29,0,7.92,8.39,7.92,18.34V137l-6-1v19h51V136h-7V80.82C690,56.69,679.26,47.92,660.25,47.92Z" transform="translate(-1 -1)" style="fill:#ae1a1f"/><path d="M506,137V49H459V67l9,1v45c0,16.77-5.75,22.67-13.76,22.67-8.83,0-9.24-8.17-9.24-18.11V49H392.38a33.49,33.49,0,0,1,8.49,15.26c.25,1,.68,3.74.68,3.74H407v56c0,24.38,12.56,33,31.92,33,20.39,0,27.54-9.4,32.08-20.23V155h47V137Z" transform="translate(-1 -1)" style="fill:#ae1a1f"/><path d="M306,137H293v18h75V137H344V102.14s2.41-25.45,8.35-30.75c3.87-3.35,9.07-3.15,11-2.06,2.77,1.28,3.64,5.74,3.64,5.74l-7.47,1.13c1,11.81,6.23,16.81,17.06,17.48,5.53-.08,15.7-1.11,18.53-14.76,1.11-5.47.55-8-.36-12-3-12.5-12.44-19.62-22.83-19.61-18,0-25.82,12.11-30,21.35V49H294.23c.63,3.42,1.24,6.82,1.86,10.63l1.3,8.37H306Z" transform="translate(-1 -1)" style="fill:#ae1a1f"/><path d="M311,1H186V40h19.43c4-12.55,10.1-17.26,23.56-17.26V137H210v18h77V137H268V22.74c13.66,0,19.37,3.46,23.41,17.26H311Z" transform="translate(-1 -1)" style="fill:#ae1a1f"/><path d="M206,98.56c0-20.64-12.53-30.14-29.73-30.14-19.33,0-33.19,13.39-33.19,36.71,0,20.37,12.13,32.9,34,32.9,15,0,24.92-6.38,28.16-24H194.7c-2.33,6.79-6.41,11.67-13.88,11.67-10.67,0-13.26-8.61-13.52-18.67h38.45C205.89,104.73,206,100.3,206,98.56ZM183,96H168.16c0-11.33,1.83-15.72,7.64-15.72,5.05,0,7.2,4.22,7.2,13.06Z" transform="translate(-1 -1)" style="fill:#bbbdbf"/><path d="M99,33V78.08c3.51-6.07,9.12-10,18.37-10C128.74,68.05,137,73,137,89.52l.14,36.48H142v12H109V126h4V91.2c0-6.78-.14-11.86-4.85-11.86S100,82.87,100,94.3l.06,31.7H105v12H68V125h8V45H68V33Z" transform="translate(-1 -1)" style="fill:#bbbdbf"/><path d="M1,81H17v34.39c0,16.4,8.1,21.92,23.11,21.92,15.8,0,25.37-5.2,25.89-23.31H55.46c-1.7,8.54-3.7,11.65-8.54,11.65-4.3,0-5.91-2.56-5.91-8V81H60V69H41V41L17,44.42V69H1Z" transform="translate(-1 -1)" style="fill:#bbbdbf"/></svg>