<?xml version="1.0" encoding="UTF-8" standalone="no"?>
<!-- Generator: Adobe Illustrator 22.1.0, SVG Export Plug-In . SVG Version: 6.00 Build 0)  -->

<svg
   xmlns:dc="http://purl.org/dc/elements/1.1/"
   xmlns:cc="http://creativecommons.org/ns#"
   xmlns:rdf="http://www.w3.org/1999/02/22-rdf-syntax-ns#"
   xmlns:svg="http://www.w3.org/2000/svg"
   xmlns="http://www.w3.org/2000/svg"
   xmlns:sodipodi="http://sodipodi.sourceforge.net/DTD/sodipodi-0.dtd"
   xmlns:inkscape="http://www.inkscape.org/namespaces/inkscape"
   version="1.1"
   x="0px"
   y="0px"
   viewBox="0 0 1200 858"
   style="enable-background:new 0 0 1200 858;"
   xml:space="preserve"
   id="svg1608"
   sodipodi:docname="logo-mobile-en.svg"
   inkscape:version="0.92.3 (d244b95, 2018-08-02)"><metadata
   id="metadata1614"><rdf:RDF><cc:Work
       rdf:about=""><dc:format>image/svg+xml</dc:format><dc:type
         rdf:resource="http://purl.org/dc/dcmitype/StillImage" /><dc:title></dc:title></cc:Work></rdf:RDF></metadata><defs
   id="defs1612" /><sodipodi:namedview
   pagecolor="#ffffff"
   bordercolor="#666666"
   borderopacity="1"
   objecttolerance="10"
   gridtolerance="10"
   guidetolerance="10"
   inkscape:pageopacity="0"
   inkscape:pageshadow="2"
   inkscape:window-width="1863"
   inkscape:window-height="1176"
   id="namedview1610"
   showgrid="false"
   inkscape:zoom="1.5559646"
   inkscape:cx="1006.0604"
   inkscape:cy="37.392507"
   inkscape:window-x="57"
   inkscape:window-y="24"
   inkscape:window-maximized="1"
   inkscape:current-layer="Layer_1" />
<style
   type="text/css"
   id="style1530">
	.st0{display:none;}
	.st1{display:inline;fill:#512F70;}
	.st2{fill:#512F70;}
</style>
<g
   id="Layer_2"
   class="st0">
	<rect
   x="119.5"
   y="101"
   class="st1"
   width="961"
   height="680"
   id="rect1532" />
</g>
<g
   id="Layer_1"
   transform="matrix(1.1318149,0,0,1.1318149,-80.811581,-73.708458)">
	<g
   id="g1571">
		<g
   id="g1541">
			<g
   id="g1539">
				<path
   class="st2"
   d="M 71.4,494.7 V 65.1 H 100 L 286.2,277 472.7,65.1 h 28.6 V 494.7 H 415.4 L 415.1,245.5 286.2,388.7 157.4,245.5 v 249.2 z"
   id="path1535"
   inkscape:connector-curvature="0"
   style="fill:#512f70" />
				<polygon
   class="st2"
   points="587.2,414.5 816.9,414.5 816.9,494.7 1131.9,494.7 1131.9,414.5 902.8,414.5 902.8,316.8 1075,316.8 1075,236.9 902.8,236.9 902.8,145.3 1132.5,145.3 1132.5,65.1 816.9,65.4 816.9,145.3 587.2,145.3 587.2,236.9 759.3,236.9 759.3,316.8 587.2,316.8 "
   id="polygon1537"
   style="fill:#512f70" />
			</g>
		</g>
		<g
   id="g1569">
			<path
   class="st2"
   d="m 71.4,657.6 v -81.4 h 5.4 l 35.3,40.2 35.3,-40.2 h 5.4 v 81.4 H 136.5 L 136.4,610.4 112,637.5 87.6,610.4 v 47.2 z"
   id="path1543"
   inkscape:connector-curvature="0"
   style="fill:#512f70" />
			<path
   class="st2"
   d="m 169,576.1 h 16.2 v 81.4 H 169 Z"
   id="path1545"
   inkscape:connector-curvature="0"
   style="fill:#512f70" />
			<path
   class="st2"
   d="M 201.6,657.6 V 576.2 H 233 c 25.3,0 38,13.6 38,40.7 0,27.1 -12.7,40.7 -38,40.7 H 201.6 Z M 233,641.3 c 14.4,0 21.7,-8.2 21.7,-24.5 0,-16.3 -7.3,-24.4 -21.7,-24.4 h -15.1 v 48.9 z"
   id="path1547"
   inkscape:connector-curvature="0"
   style="fill:#512f70" />
			<path
   class="st2"
   d="m 288.4,657.6 v -81.4 h 31.4 c 25.3,0 38,13.6 38,40.7 0,27.1 -12.7,40.7 -38,40.7 z m 31.4,-16.3 c 14.4,0 21.7,-8.2 21.7,-24.5 0,-16.3 -7.3,-24.4 -21.7,-24.4 h -15.1 v 48.9 z"
   id="path1549"
   inkscape:connector-curvature="0"
   style="fill:#512f70" />
			<path
   class="st2"
   d="m 391.7,576.2 v 66.2 h 43.4 v 15.2 h -59.7 v -81.4 z"
   id="path1551"
   inkscape:connector-curvature="0"
   style="fill:#512f70" />
			<path
   class="st2"
   d="m 448.2,657.6 v -81.3 l 59.8,-0.1 v 15.2 h -43.5 v 17.4 h 32.6 v 15.1 h -32.6 v 18.5 h 43.4 v 15.2 z"
   id="path1553"
   inkscape:connector-curvature="0"
   style="fill:#512f70" />
			<path
   class="st2"
   d="m 562.2,657.6 v -81.3 l 59.8,-0.1 v 15.2 h -43.5 v 17.4 h 32.6 v 15.1 h -32.6 v 18.5 h 43.4 v 15.2 z"
   id="path1555"
   inkscape:connector-curvature="0"
   style="fill:#512f70" />
			<path
   class="st2"
   d="m 634.1,657.6 32.6,-81.4 H 683 l 32.5,81.3 -17.3,0.1 -4.9,-12.5 h -36.9 l -4.9,12.5 z m 41.1,-59.7 -12.4,30.9 h 24.4 z"
   id="path1557"
   inkscape:connector-curvature="0"
   style="fill:#512f70" />
			<path
   class="st2"
   d="m 771.6,578.9 c 4.2,1.8 8,4.5 11.7,8.1 l -10.9,10.9 c -3.6,-4.3 -8.7,-6.5 -15.2,-6.5 -6.5,0 -10.7,1.5 -12.5,4.6 -1.8,3.1 -1.8,5.7 0,7.9 1.8,2.2 6,3.8 12.5,4.9 6.9,0.7 13.1,3 18.7,6.8 5.6,3.8 8.4,9.9 8.4,18.2 0,6.5 -3,12.1 -9,16.8 -6,4.7 -13,7.1 -20.9,7.1 -7.6,0 -13.9,-1.1 -18.9,-3.3 -5.1,-2.2 -9.4,-5.1 -13,-8.7 l 10.9,-10.9 c 3.6,4.3 9.8,6.9 18.4,7.6 7.2,0 11.7,-1.5 13.5,-4.6 1.8,-3.1 1.8,-6.1 0,-9.2 -1.8,-3.1 -6.3,-5 -13.5,-5.7 -6.5,-0.7 -12.5,-2.7 -17.9,-6 -5.4,-3.3 -8.1,-8.9 -8.1,-16.8 0,-7.2 3.1,-13 9.3,-17.3 6.2,-4.4 12.5,-6.5 19,-6.5 7.5,-0.1 13.3,0.8 17.5,2.6 z"
   id="path1559"
   inkscape:connector-curvature="0"
   style="fill:#512f70" />
			<path
   class="st2"
   d="m 865.3,576.2 v 15.2 h -27.1 v 66.2 h -16.3 v -66.2 h -27.1 v -15.2 z"
   id="path1561"
   inkscape:connector-curvature="0"
   style="fill:#512f70" />
			<path
   class="st2"
   d="m 915.2,657.6 v -81.3 l 59.8,-0.1 v 15.2 h -43.5 v 17.4 H 964 v 15.1 h -32.6 v 18.5 h 43.4 v 15.2 z"
   id="path1563"
   inkscape:connector-curvature="0"
   style="fill:#512f70" />
			<path
   class="st2"
   d="m 986.6,576.2 h 19.1 l 18.9,26.6 19.3,-26.6 h 18.7 l -29.8,40.7 v 40.7 h -16.3 v -40.7 z"
   id="path1565"
   inkscape:connector-curvature="0"
   style="fill:#512f70" />
			<path
   class="st2"
   d="m 1074.4,657.6 v -81.3 l 59.8,-0.1 v 15.2 h -43.5 v 17.4 h 32.6 v 15.1 h -32.6 v 18.5 h 43.4 v 15.2 z"
   id="path1567"
   inkscape:connector-curvature="0"
   style="fill:#512f70" />
		</g>
	</g>
	
<path
   style="fill:#ffffff;stroke-width:0.90889829"
   d="M 0.8313414,242.91684 V 0.24098819 L 16.509837,0.26370874 32.188333,0.28642919 137.54862,120.23829 c 57.94815,65.97352 105.45937,119.95185 105.58049,119.95185 0.12112,0 47.74039,-53.98856 105.8206,-119.97458 L 454.55009,0.24098819 h 15.81648 15.81647 V 242.91684 485.59268 H 438.01143 389.83982 V 345.22154 c 0,-77.20413 -0.30676,-140.55021 -0.68168,-140.76905 -0.37492,-0.21885 -33.40201,35.98313 -73.39354,80.44884 l -72.71186,80.84674 -2.27225,-2.67119 c -1.24973,-1.46915 -33.97007,-37.91027 -72.71186,-80.98026 L 97.629011,203.78754 97.398932,344.69011 97.168845,485.59268 H 49.000094 0.8313414 Z"
   id="path1662"
   inkscape:connector-curvature="0"
   transform="matrix(0.8835367,0,0,0.8835367,71.399997,65.124128)" /><path
   style="fill:#ffffff;stroke-width:0.90889829"
   d="M 844.28897,440.14777 V 394.70285 H 714.31651 584.34405 v -54.5339 -54.53389 h 97.25212 97.25212 V 239.73569 193.83633 H 681.59617 584.34405 V 142.48357 91.130819 H 714.31651 844.28897 V 46.287544 1.444269 l 31.5055,-0.6016404 C 893.12249,0.51172636 973.28732,0.24098819 1053.9385,0.24098819 h 146.6386 V 45.231454 90.22192 H 1070.6046 940.63219 v 52.26165 52.26166 h 97.25211 97.2521 v 44.99046 44.99047 h -97.2521 -97.25211 v 55.44279 55.4428 h 129.51801 129.518 v 44.99047 44.99046 H 1021.9786 844.28897 Z"
   id="path1664"
   inkscape:connector-curvature="0"
   transform="matrix(0.8835367,0,0,0.8835367,71.399997,65.124128)" /><path
   style="fill:#ffffff;stroke-width:0.90889829"
   d="m 0.8313414,624.65412 v -45.44491 h 2.6751179 c 2.3530258,0 5.0068024,2.64533 22.0407837,21.97066 10.651117,12.08387 19.796516,22.11175 20.323109,22.28419 0.526594,0.17244 9.729189,-9.70681 20.450212,-21.9539 17.918018,-20.46851 19.731406,-22.26877 22.446689,-22.28419 l 2.953919,-0.0168 v 45.44491 45.44492 h -8.634534 -8.634534 l -0.09624,-18.40519 c -0.05293,-10.12282 -0.359686,-22.06367 -0.681674,-26.5352 L 73.088757,617.02857 59.575518,632.10096 46.06228,647.17335 36.474897,636.59541 C 21.88872,620.50221 18.973373,617.38294 18.518436,617.38294 c -0.229915,0 -0.418027,11.86112 -0.418027,26.35805 v 26.35805 H 9.4658753 0.8313414 Z"
   id="path1666"
   inkscape:connector-curvature="0"
   transform="matrix(0.8835367,0,0,0.8835367,71.399997,65.124128)" /><path
   style="fill:#ffffff;stroke-width:0.90889829"
   d="m 110.80804,624.19968 v -45.89937 h 8.63453 8.63453 v 45.89937 45.89936 h -8.63453 -8.63453 z"
   id="path1668"
   inkscape:connector-curvature="0"
   transform="matrix(0.8835367,0,0,0.8835367,71.399997,65.124128)" /><path
   style="fill:#ffffff;stroke-width:0.90889829"
   d="M 148.07287,624.58817 V 579.0773 l 24.31303,0.32018 c 22.81193,0.30042 24.63581,0.44886 29.54109,2.40422 15.47442,6.16847 23.4239,20.5525 23.38645,42.31614 -0.0278,16.13591 -3.17153,26.3046 -10.58149,34.22645 -9.11142,9.74084 -16.85101,11.71673 -45.98165,11.73897 l -20.67743,0.0158 z m 45.89936,26.06356 c 7.45184,-3.18477 11.47322,-9.00237 13.24137,-19.15587 1.95913,-11.25012 -0.67211,-22.90277 -6.48392,-28.71458 -4.88476,-4.88476 -10.32809,-6.303 -24.19148,-6.303 h -11.19627 v 28.29235 28.29236 l 12.49736,-0.42874 c 8.98202,-0.30814 13.51999,-0.8658 16.13294,-1.98252 z"
   id="path1670"
   inkscape:connector-curvature="0"
   transform="matrix(0.8835367,0,0,0.8835367,71.399997,65.124128)" /><path
   style="fill:#ffffff;stroke-width:0.90889829"
   d="m 246.23388,624.65412 v -45.44491 h 22.07705 c 28.6783,0 34.91232,1.49873 43.98907,10.57548 7.65685,7.65685 11.19024,18.8174 11.19024,35.34542 0,19.90087 -6.55471,33.50414 -19.29668,40.04721 -7.96607,4.09062 -13.99223,4.89377 -36.82779,4.90829 l -21.13189,0.0134 z m 45.89937,25.99976 c 8.01442,-3.42046 12.69972,-10.98128 13.73982,-22.17242 1.28314,-13.80605 -3.18179,-24.78186 -11.89409,-29.23841 -4.09528,-2.09483 -5.72721,-2.33947 -17.49629,-2.62277 l -12.97974,-0.31245 v 28.37758 28.37758 l 12.49735,-0.42874 c 8.97136,-0.30778 13.5231,-0.86652 16.13295,-1.98037 z"
   id="path1672"
   inkscape:connector-curvature="0"
   transform="matrix(0.8835367,0,0,0.8835367,71.399997,65.124128)" /><path
   style="fill:#ffffff;stroke-width:0.90889829"
   d="m 344.3949,624.65412 v -45.44491 h 9.08898 9.08899 v 37.26483 37.26483 h 24.54025 24.54026 v 8.18008 8.18009 H 378.02414 344.3949 Z"
   id="path1674"
   inkscape:connector-curvature="0"
   transform="matrix(0.8835367,0,0,0.8835367,71.399997,65.124128)" /><path
   style="fill:#ffffff;stroke-width:0.90889829"
   d="m 427.10465,624.65412 v -45.44491 h 33.17479 33.17478 v 8.18008 8.18009 h -24.54025 -24.54026 v 9.99788 9.99788 h 18.63242 18.63242 v 8.18009 8.18008 h -18.63242 -18.63242 v 10.90678 10.90678 h 24.54026 24.54025 v 8.18008 8.18009 h -33.17478 -33.17479 z"
   id="path1676"
   inkscape:connector-curvature="0"
   transform="matrix(0.8835367,0,0,0.8835367,71.399997,65.124128)" /><path
   style="fill:#ffffff;stroke-width:0.90889829"
   d="m 556.16821,624.65412 v -45.44491 h 33.17478 33.17479 v 8.18008 8.18009 h -24.54025 -24.54026 v 9.99788 9.99788 h 18.63242 18.63241 v 8.18009 8.18008 h -18.63241 -18.63242 v 10.90678 10.90678 h 24.54026 24.54025 v 8.18008 8.18009 h -33.17479 -33.17478 z"
   id="path1678"
   inkscape:connector-curvature="0"
   transform="matrix(0.8835367,0,0,0.8835367,71.399997,65.124128)" /><path
   style="fill:#ffffff;stroke-width:0.90889829"
   d="m 638.12336,668.91405 c 0.16508,-0.6876 8.27573,-21.14436 18.02366,-45.45947 l 17.72352,-44.20928 9.13997,-0.0181 9.13996,-0.018 17.89976,44.76717 c 9.84487,24.62195 17.89976,45.08647 17.89976,45.47671 0,0.39025 -4.13711,0.59298 -9.19358,0.45052 l -9.19358,-0.25902 -2.39488,-5.91796 c -1.31718,-3.25489 -2.72576,-6.42467 -3.13018,-7.04397 -1.06241,-1.62687 -41.10388,-1.61725 -42.15501,0.0101 -0.4036,0.62487 -1.76695,3.79465 -3.02966,7.04396 l -2.29584,5.90784 -9.36702,0.25983 c -7.58223,0.21032 -9.30984,0.0216 -9.06688,-0.99037 z M 697.04744,637.67 c 0,-1.1629 -13.17829,-34.81388 -13.63347,-34.8133 -0.24995,3.1e-4 -3.08215,6.64313 -6.29379,14.76182 -3.21164,8.11868 -6.38691,16.0905 -7.05616,17.71516 l -1.21682,2.95392 h 14.10012 c 7.75507,0 14.10012,-0.27792 14.10012,-0.6176 z"
   id="path1680"
   inkscape:connector-curvature="0"
   transform="matrix(0.8835367,0,0,0.8835367,71.399997,65.124128)" /><path
   style="fill:#ffffff;stroke-width:0.90889829"
   d="m 759.76143,669.16133 c -4.99933,-1.03555 -15.86631,-6.38954 -19.4459,-9.58069 l -2.63128,-2.34574 5.69258,-5.74363 5.69259,-5.74364 3.75543,2.61541 c 7.64768,5.3261 22.95602,6.91857 29.47721,3.06641 5.20923,-3.07716 6.36488,-10.14616 2.42433,-14.82924 -2.68993,-3.1968 -5.24226,-4.14634 -16.30591,-6.0663 -19.04465,-3.30496 -27.11125,-10.82108 -27.04078,-25.19545 0.0415,-8.47327 3.28634,-14.22 11.02451,-19.52505 8.02598,-5.50236 13.66047,-6.91503 25.61615,-6.42243 8.71515,0.35908 10.38237,0.71224 15.52105,3.28779 3.1664,1.58703 7.09872,4.01189 8.73849,5.38859 l 2.98139,2.50308 -5.80577,5.75319 -5.80577,5.75319 -4.20115,-2.96124 c -3.74024,-2.63636 -5.027,-3.00458 -11.72881,-3.35634 -11.3582,-0.59615 -17.35243,2.81924 -17.35243,9.88707 0,5.47517 3.86062,7.50933 21.3364,11.24215 11.89502,2.54078 21.24788,9.59346 23.50716,17.72597 1.4554,5.23886 1.0505,13.71561 -0.85566,17.91384 -2.36958,5.2189 -8.23827,10.64731 -15.23444,14.09151 -5.33531,2.62657 -6.78048,2.9181 -15.57517,3.14198 -5.3318,0.13573 -11.5347,-0.13447 -13.78422,-0.60043 z"
   id="path1682"
   inkscape:connector-curvature="0"
   transform="matrix(0.8835367,0,0,0.8835367,71.399997,65.124128)" /><path
   style="fill:#ffffff;stroke-width:0.90889829"
   d="m 849.74236,632.83421 v -37.26483 h -15.45127 -15.45127 v -8.18009 -8.18008 h 39.53707 39.53708 v 8.18008 8.18009 h -14.99682 -14.99682 v 37.26483 37.26483 h -9.08899 -9.08898 z"
   id="path1684"
   inkscape:connector-curvature="0"
   transform="matrix(0.8835367,0,0,0.8835367,71.399997,65.124128)" /><path
   style="fill:#ffffff;stroke-width:0.90889829"
   d="m 955.17456,624.65412 v -45.44491 h 33.62924 33.6292 v 8.18008 8.18009 h -24.54022 -24.54025 v 9.99788 9.99788 h 18.17796 18.17801 v 8.18009 8.18008 h -18.17801 -18.17796 v 10.90678 10.90678 h 24.54025 24.54022 v 8.18008 8.18009 h -33.6292 -33.62924 z"
   id="path1686"
   inkscape:connector-curvature="0"
   transform="matrix(0.8835367,0,0,0.8835367,71.399997,65.124128)" /><path
   style="fill:#ffffff;stroke-width:0.90889829"
   d="m 1069.6957,646.95127 v -23.14776 l -12.8788,-17.52543 c -7.0833,-9.63899 -14.4583,-19.67271 -16.3888,-22.29715 l -3.51,-4.77172 h 10.2802 10.2802 l 10.3429,14.54237 c 5.6886,7.99831 10.6507,14.54237 11.0269,14.54237 0.3763,0 5.4476,-6.54406 11.2696,-14.54237 l 10.5855,-14.54237 h 10.0228 10.0227 l -3.4777,4.77172 c -1.9128,2.62444 -9.3097,12.72464 -16.4376,22.44489 l -12.9599,17.67317 v 23.00003 23.00002 h -9.089 -9.089 z"
   id="path1688"
   inkscape:connector-curvature="0"
   transform="matrix(0.8835367,0,0,0.8835367,71.399997,65.124128)" /><path
   style="fill:#ffffff;stroke-width:0.90889829"
   d="m 1136.0453,624.65412 v -45.44491 h 33.1748 33.1748 v 8.18008 8.18009 h -24.5403 -24.5402 v 9.99788 9.99788 h 18.6324 18.6324 v 8.18009 8.18008 h -18.6324 -18.6324 v 10.90678 10.90678 h 24.5402 24.5403 v 8.18008 8.18009 h -33.1748 -33.1748 z"
   id="path1690"
   inkscape:connector-curvature="0"
   transform="matrix(0.8835367,0,0,0.8835367,71.399997,65.124128)" /></g>
</svg>