
<svg version="1.1" id="Layer_1" xmlns="http://www.w3.org/2000/svg" x="0px" y="0px"  viewBox="0 0 401 54.6" style="enable-background:new 0 0 401 54.6;" xml:space="preserve">
	<style type="text/css" >
  <![CDATA[
		svg {
      width:100%;
      height:100%;
    }
  ]]>
</style>
<g>
	<path d="M0,22.2h3V3.1H0V0.4h11.1c1.8,0,3.1,0.2,4.3,0.7C17.4,2,18.8,4,18.8,6.6c0,2.4-1.2,4.3-3.1,5.3V12c2.6,0.8,4.1,3.2,4.1,5.9
		c0,3.2-2,5.6-4.5,6.5c-1.2,0.4-2.3,0.5-3.7,0.5H0V22.2z M11.7,10.7c2.2,0,3.6-1.5,3.6-3.7c0-1.4-0.6-2.6-1.6-3.2
		c-0.7-0.3-1.5-0.5-2.5-0.5H6.5v7.4H11.7z M11.7,22c0.7,0,1.5-0.1,2.2-0.3c1.4-0.6,2.3-2.1,2.3-3.9c0-2.5-1.7-4.2-4.2-4.2H6.5V22
		H11.7z"/>
	<path d="M25.4,3.1h-3.1V0.4h9.6v2.7h-3.1v12.6c0,1.6,0.3,3,0.9,4c1,1.6,2.9,2.5,5.3,2.5c2.3,0,4.3-0.9,5.3-2.6
		c0.6-1,0.9-2.4,0.9-3.9V3.1h-3.1V0.4h9.6v2.7h-3v12.7c0,2.3-0.6,4.4-1.7,6c-1.7,2.4-4.6,3.6-8,3.6c-3.5,0-6.4-1.3-8-3.6
		c-1.1-1.6-1.6-3.6-1.6-6V3.1z"/>
	<path d="M53.3,17.5v1.8c0,1.8,2.3,2.9,4.9,2.9c2.8,0,4.8-1.3,4.8-3.7c0-2.8-2.9-3.8-5.9-5c-3.2-1.2-6.5-2.6-6.5-6.9
		C50.6,2,54.3,0,58.5,0c3.7,0,7.4,1.4,7.4,4.1v2.9h-3.2V5.2c0-1.4-2.2-2.2-4.2-2.2c-2.4,0-4.3,1.1-4.3,3.4c0,2.6,2.5,3.5,5.2,4.5
		c3.6,1.4,7.2,2.7,7.2,7.3c0,4.7-3.8,7.1-8.3,7.1c-3.8,0-8.1-1.7-8.1-5.2v-2.6H53.3z"/>
	<path d="M69.6,22.2h3V3.1h-3V0.4h9.6v2.7h-3.1v19.1h3.1v2.7h-9.6V22.2z"/>
	<path d="M82.3,22.2h3V3.1h-3V0.4h6.5l12,17.5c0.4,0.7,0.8,1.8,0.8,1.8h0.1c0,0-0.2-1.2-0.2-2V3.1h-3.1V0.4h9.7v2.7H105v21.8h-3.4
		l-12-17.5c-0.4-0.7-0.8-1.8-0.8-1.8h-0.1c0,0,0.2,1.2,0.1,2v14.6H92v2.7h-9.7V22.2z"/>
	<path d="M110.8,22.2h3V3.1h-3V0.4h17.7v5.7h-3V3.3h-8.2v7.9h8.7V14h-8.7V22h8.8v-2.9h3v5.8h-18.3V22.2z"/>
	<path d="M135.3,17.5v1.8c0,1.8,2.3,2.9,4.9,2.9c2.8,0,4.8-1.3,4.8-3.7c0-2.8-2.9-3.8-5.9-5c-3.2-1.2-6.5-2.6-6.5-6.9
		c0-4.6,3.7-6.6,7.8-6.6c3.7,0,7.4,1.4,7.4,4.1v2.9h-3.2V5.2c0-1.4-2.2-2.2-4.2-2.2c-2.4,0-4.3,1.1-4.3,3.4c0,2.6,2.5,3.5,5.2,4.5
		c3.6,1.4,7.2,2.7,7.2,7.3c0,4.7-3.8,7.1-8.3,7.1c-3.8,0-8.1-1.7-8.1-5.2v-2.6H135.3z"/>
	<path d="M154.8,17.5v1.8c0,1.8,2.3,2.9,4.9,2.9c2.8,0,4.8-1.3,4.8-3.7c0-2.8-2.9-3.8-5.9-5c-3.2-1.2-6.5-2.6-6.5-6.9
		c0-4.6,3.7-6.6,7.8-6.6c3.7,0,7.4,1.4,7.4,4.1v2.9h-3.2V5.2c0-1.4-2.2-2.2-4.2-2.2c-2.4,0-4.3,1.1-4.3,3.4c0,2.6,2.5,3.5,5.2,4.5
		c3.6,1.4,7.2,2.7,7.2,7.3c0,4.7-3.8,7.1-8.3,7.1c-3.8,0-8.1-1.7-8.1-5.2v-2.6H154.8z"/>
	<path d="M179.3,22.2h3V3.1h-3V0.4h6.5l12,17.5c0.4,0.7,0.8,1.8,0.8,1.8h0.1c0,0-0.2-1.2-0.2-2V3.1h-3.1V0.4h9.7v2.7H202v21.8h-3.4
		l-12-17.5c-0.4-0.7-0.8-1.8-0.8-1.8h-0.1c0,0,0.2,1.2,0.1,2v14.6h3.2v2.7h-9.7V22.2z"/>
	<path d="M208.6,22.2h3V3.1h-3V0.4h17.7v5.7h-3V3.3h-8.2v7.9h8.7V14h-8.7V22h8.8v-2.9h3v5.8h-18.3V22.2z"/>
	<path d="M229.6,0.4h8.7v2.7h-2.9l3.8,16c0.2,0.9,0.3,1.8,0.3,1.8h0.1c0,0,0.1-1,0.3-1.8L245,0.4h2.9l5.1,18.7
		c0.2,0.9,0.3,1.8,0.3,1.8h0.1c0,0,0.1-1,0.2-1.8l3.8-16h-2.9V0.4h8.7v2.7H261l-5.5,21.8h-3.9l-4.8-17.3c-0.2-0.9-0.3-1.9-0.3-1.9
		h-0.1c0,0-0.1,1.1-0.3,1.9l-4.8,17.3h-3.9l-5.4-21.8h-2.4V0.4z"/>
	<path d="M269.1,17.5v1.8c0,1.8,2.3,2.9,4.9,2.9c2.8,0,4.8-1.3,4.8-3.7c0-2.8-2.9-3.8-5.9-5c-3.2-1.2-6.5-2.6-6.5-6.9
		c0-4.6,3.7-6.6,7.8-6.6c3.7,0,7.4,1.4,7.4,4.1v2.9h-3.2V5.2c0-1.4-2.2-2.2-4.2-2.2c-2.4,0-4.3,1.1-4.3,3.4c0,2.6,2.5,3.5,5.2,4.5
		c3.6,1.4,7.2,2.7,7.2,7.3c0,4.7-3.8,7.1-8.3,7.1c-3.8,0-8.1-1.7-8.1-5.2v-2.6H269.1z"/>
	<path d="M295.3,22.2h3V3.1h-3V0.4h10.4c2,0,3.6,0.1,5.2,0.6c4.7,1.5,7.7,5.7,7.7,11.6c0,5.9-2.9,10-7.7,11.6
		c-1.6,0.5-3.2,0.7-5.2,0.7h-10.5V22.2z M305.5,22c1.6,0,2.9-0.1,4.2-0.6c3.3-1.1,5.3-4.3,5.3-8.8c0-4.5-2-7.7-5.3-8.8
		c-1.3-0.5-2.6-0.6-4.2-0.6h-3.7V22H305.5z"/>
	<path d="M320.6,22.2h2.4l7.8-21.7h3.9l7.8,21.7h2.4v2.7h-8.5v-2.7h2.6l-1.9-5.4h-8.7l-1.9,5.4h2.6v2.7h-8.5V22.2z M336.2,14l-3-8.5
		c-0.3-1-0.4-1.9-0.4-1.9h-0.1c0,0-0.1,0.9-0.4,1.9l-3,8.5H336.2z"/>
	<path d="M347.4,22.2h3V3.1h-3V0.4h9.6v2.7h-3.1v19.1h3.1v2.7h-9.6V22.2z"/>
	<path d="M361,22.2h3V3.3h-3V0.4h9.6v2.8h-3.1V22h8.5v-3.9h3v6.8H361V22.2z"/>
	<path d="M385.3,22.2h3.1v-7.7l-6.9-11.4h-2.3V0.4h8.4v2.7h-2.6l4.5,7.7c0.3,0.5,0.5,1,0.5,1h0.1c0,0,0.2-0.5,0.5-1l4.5-7.7h-2.5
		V0.4h8.3v2.7h-2.3l-6.9,11.4v7.7h3.1v2.7h-9.6V22.2z"/>
</g>
<g>
	<path style="fill:#6B6B6B;" d="M0.8,48.7c0.2,0.2,0.6,0.3,1,0.5c0.4,0.2,1,0.2,1.5,0.2c0.8,0,1.4-0.2,1.9-0.6c0.5-0.4,0.9-1,1-1.7
		c0.1-0.5,0-1-0.2-1.4S5.6,45,5.3,44.6c-0.3-0.3-0.7-0.7-1.1-1C3.7,43.3,3.4,43,3,42.6c-0.3-0.4-0.6-0.8-0.8-1.3
		c-0.2-0.5-0.2-1.1-0.1-1.8c0.2-1.1,0.7-2,1.5-2.5c0.8-0.5,1.7-0.8,2.8-0.8c0.7,0,1.3,0.1,1.8,0.2c0.5,0.1,0.9,0.3,1.2,0.5l-0.7,1.3
		c-0.2-0.1-0.5-0.3-1-0.4c-0.4-0.1-0.9-0.2-1.5-0.2c-0.7,0-1.3,0.2-1.7,0.5c-0.4,0.4-0.7,0.8-0.8,1.3c-0.1,0.5,0,0.9,0.2,1.3
		c0.2,0.4,0.5,0.7,0.8,1c0.3,0.3,0.7,0.7,1.1,1c0.4,0.3,0.8,0.7,1.1,1.1c0.3,0.4,0.6,0.9,0.8,1.4c0.2,0.5,0.2,1.1,0.1,1.8
		c-0.2,1.2-0.7,2.1-1.5,2.8c-0.8,0.7-1.9,1-3.1,1c-0.8,0-1.5-0.1-2-0.2C0.7,50.4,0.3,50.2,0,50L0.8,48.7z"/>
	<path style="fill:#6B6B6B;" d="M13.6,50.5l1.1-6c0.1-0.5,0.2-1,0.2-1.4c0-0.4,0-0.7,0-0.9c-0.1-0.2-0.2-0.4-0.3-0.5
		c-0.2-0.1-0.4-0.2-0.7-0.2c-0.5,0-0.9,0.2-1.3,0.5c-0.4,0.4-0.7,0.8-0.9,1.2l-1.3,7.3H8.9l1.8-10.1h1l0.1,1.1h0.1
		c0.4-0.4,0.7-0.7,1.2-0.9c0.4-0.2,1-0.4,1.6-0.4c0.5,0,0.9,0.1,1.2,0.3c0.3,0.2,0.5,0.6,0.6,1.2c0.3-0.5,0.7-0.8,1.2-1.1
		c0.5-0.3,1-0.4,1.6-0.4c0.4,0,0.8,0.1,1.1,0.2s0.5,0.3,0.7,0.6c0.1,0.3,0.2,0.7,0.2,1.2c0,0.5,0,1.1-0.2,1.8l-1.2,6.6h-1.5l1.1-6.4
		c0.2-0.9,0.2-1.5,0.1-2c-0.1-0.4-0.4-0.6-1-0.6c-0.5,0-0.9,0.2-1.3,0.5c-0.4,0.3-0.6,0.7-0.9,1.3l-1.3,7.3H13.6z"/>
	<path style="fill:#6B6B6B;" d="M23.4,41c0.4-0.2,0.9-0.4,1.5-0.6c0.6-0.1,1.2-0.2,1.8-0.2c0.6,0,1,0.1,1.3,0.3
		c0.3,0.2,0.5,0.4,0.7,0.7c0.1,0.3,0.2,0.6,0.2,1c0,0.4,0,0.8-0.1,1.2c-0.1,0.8-0.3,1.6-0.5,2.4s-0.3,1.5-0.4,2.2
		c-0.1,0.5-0.2,1-0.2,1.4c0,0.4-0.1,0.9,0,1.2h-1.1l-0.1-1.2h-0.1c-0.3,0.4-0.6,0.7-1,0.9s-1,0.4-1.6,0.4c-0.7,0-1.3-0.3-1.6-0.8
		s-0.5-1.2-0.3-2.1c0.1-0.6,0.3-1.1,0.5-1.5c0.3-0.4,0.6-0.7,1-0.9s0.8-0.4,1.4-0.5c0.5-0.1,1.1-0.2,1.7-0.2c0.1,0,0.3,0,0.4,0
		s0.3,0,0.4,0c0.1-0.4,0.2-0.8,0.3-1.1c0.1-0.8,0.1-1.3-0.1-1.6c-0.2-0.3-0.6-0.5-1.2-0.5c-0.4,0-0.8,0.1-1.3,0.2
		c-0.5,0.1-0.9,0.3-1.2,0.4L23.4,41z M26.9,45.9c-0.1,0-0.3,0-0.4,0c-0.1,0-0.3,0-0.4,0c-0.3,0-0.6,0-1,0.1
		c-0.3,0.1-0.6,0.1-0.9,0.3s-0.5,0.3-0.7,0.5c-0.2,0.2-0.3,0.5-0.4,0.9c-0.1,0.5,0,1,0.2,1.3c0.2,0.3,0.5,0.4,0.9,0.4
		c0.6,0,1-0.1,1.4-0.4c0.4-0.3,0.6-0.6,0.8-0.9L26.9,45.9z"/>
	<path style="fill:#6B6B6B;" d="M31.7,48.1c-0.1,0.5-0.1,0.8,0,1c0.1,0.2,0.3,0.3,0.5,0.3c0.3,0,0.6-0.1,1-0.2l-0.1,1.2
		c-0.2,0.1-0.5,0.2-0.8,0.3c-0.3,0.1-0.6,0.1-0.9,0.1c-0.5,0-0.9-0.2-1.2-0.5c-0.3-0.3-0.3-0.9-0.2-1.7l2.2-12.2h1.5L31.7,48.1z"/>
	<path style="fill:#6B6B6B;" d="M36.2,48.1c-0.1,0.5-0.1,0.8,0,1c0.1,0.2,0.3,0.3,0.5,0.3c0.3,0,0.6-0.1,1-0.2l-0.1,1.2
		c-0.2,0.1-0.5,0.2-0.8,0.3c-0.3,0.1-0.6,0.1-0.9,0.1c-0.5,0-0.9-0.2-1.2-0.5c-0.3-0.3-0.3-0.9-0.2-1.7l2.2-12.2h1.5L36.2,48.1z"/>
	<path style="fill:#6B6B6B;" d="M51.8,39.6c-0.1,0.4-0.2,0.7-0.3,1.1c-0.1,0.4-0.3,0.7-0.6,1c-0.2,0.3-0.5,0.6-0.8,0.8
		c-0.3,0.2-0.7,0.4-1.1,0.5l0,0.1c0.3,0.1,0.6,0.2,0.9,0.3c0.3,0.2,0.5,0.4,0.7,0.6c0.2,0.3,0.3,0.6,0.4,1c0.1,0.4,0,0.9,0,1.4
		c-0.1,0.7-0.4,1.4-0.7,1.9c-0.3,0.5-0.7,1-1.2,1.3c-0.5,0.3-1,0.6-1.5,0.7c-0.5,0.2-1.1,0.2-1.7,0.2c-0.2,0-0.4,0-0.7,0
		c-0.3,0-0.5,0-0.8,0c-0.3,0-0.6,0-0.8-0.1c-0.3,0-0.5-0.1-0.7-0.2l2.5-13.9c0.4-0.1,0.9-0.1,1.5-0.2c0.6-0.1,1.1-0.1,1.8-0.1
		c0.5,0,0.9,0,1.4,0.1c0.4,0.1,0.8,0.3,1.1,0.5c0.3,0.2,0.6,0.6,0.7,1C52,38.3,52,38.9,51.8,39.6z M46.6,42.7c0.2,0,0.4,0,0.6,0
		c0.2,0,0.4,0,0.6-0.1c0.5-0.2,1-0.5,1.5-1c0.4-0.5,0.7-1,0.8-1.7c0.1-0.4,0.1-0.8,0-1.1c-0.1-0.3-0.2-0.5-0.4-0.7
		c-0.2-0.2-0.4-0.3-0.7-0.4c-0.3-0.1-0.6-0.1-0.9-0.1c-0.4,0-0.7,0-1,0c-0.3,0-0.5,0-0.7,0.1l-0.9,5H46.6z M46.3,49.3
		c0.4,0,0.7-0.1,1-0.2c0.3-0.1,0.6-0.3,0.9-0.5c0.3-0.2,0.5-0.5,0.7-0.8c0.2-0.3,0.3-0.7,0.4-1.2c0.1-0.6,0.1-1,0-1.3
		c-0.1-0.3-0.3-0.6-0.5-0.8c-0.2-0.2-0.5-0.3-0.9-0.4c-0.3-0.1-0.7-0.1-1-0.1h-1.4l-0.9,5.2c0.1,0,0.2,0,0.3,0.1c0.1,0,0.3,0,0.4,0
		c0.2,0,0.3,0,0.5,0S46.2,49.3,46.3,49.3z"/>
	<path style="fill:#6B6B6B;" d="M55.2,40.4l-1.1,6.2c-0.2,1-0.2,1.8-0.1,2.2c0.1,0.4,0.5,0.7,1,0.7c0.3,0,0.5-0.1,0.8-0.2
		c0.2-0.1,0.5-0.3,0.7-0.5c0.2-0.2,0.4-0.4,0.6-0.6c0.2-0.2,0.3-0.5,0.5-0.7l1.2-7h1.5L59,47.7c-0.1,0.5-0.2,1-0.2,1.5
		c-0.1,0.5-0.1,1-0.1,1.4h-1l-0.1-1.4h-0.1c-0.3,0.4-0.7,0.8-1.2,1.2c-0.5,0.3-1.1,0.5-1.7,0.5c-0.4,0-0.8-0.1-1.1-0.2
		c-0.3-0.1-0.5-0.3-0.7-0.6c-0.2-0.3-0.3-0.7-0.3-1.2c0-0.5,0-1.1,0.2-1.9l1.2-6.5H55.2z"/>
	<path style="fill:#6B6B6B;" d="M60.8,48.9c0.2,0.2,0.5,0.3,0.9,0.4c0.3,0.1,0.7,0.2,1.1,0.2c0.4,0,0.8-0.1,1.2-0.3
		c0.3-0.2,0.6-0.6,0.7-1.1c0.1-0.4,0-0.8-0.1-1c-0.1-0.3-0.3-0.5-0.6-0.7c-0.3-0.2-0.5-0.4-0.8-0.6c-0.3-0.2-0.6-0.4-0.8-0.7
		c-0.2-0.3-0.4-0.6-0.6-0.9c-0.1-0.3-0.1-0.8,0-1.3c0.2-0.9,0.5-1.5,1-1.9s1.2-0.7,2.1-0.7c0.6,0,1,0.1,1.4,0.2
		c0.4,0.1,0.7,0.2,1,0.4L66.6,42c-0.2-0.1-0.5-0.2-0.8-0.3c-0.3-0.1-0.7-0.1-1-0.1c-0.5,0-0.9,0.1-1.1,0.3c-0.3,0.2-0.4,0.5-0.5,0.9
		c-0.1,0.3,0,0.6,0.1,0.9c0.1,0.2,0.3,0.5,0.6,0.6c0.3,0.2,0.5,0.4,0.8,0.6c0.3,0.2,0.6,0.4,0.8,0.7s0.4,0.6,0.5,1
		c0.1,0.4,0.1,0.9,0,1.4c-0.1,0.4-0.2,0.7-0.4,1.1c-0.2,0.3-0.4,0.6-0.7,0.9c-0.3,0.2-0.6,0.4-1,0.6c-0.4,0.1-0.8,0.2-1.3,0.2
		c-0.6,0-1.1-0.1-1.5-0.2c-0.4-0.1-0.7-0.3-1-0.5L60.8,48.9z"/>
	<path style="fill:#6B6B6B;" d="M69.6,37.4c0.1-0.3,0.2-0.6,0.4-0.8c0.2-0.2,0.5-0.3,0.8-0.3c0.3,0,0.5,0.1,0.7,0.3
		c0.2,0.2,0.2,0.5,0.2,0.8c-0.1,0.3-0.2,0.6-0.4,0.8c-0.2,0.2-0.5,0.3-0.8,0.3c-0.3,0-0.5-0.1-0.7-0.3
		C69.6,37.9,69.6,37.7,69.6,37.4z M69.3,40.4h1.5L69,50.5h-1.5L69.3,40.4z"/>
	<path style="fill:#6B6B6B;" d="M76.7,50.5l1.1-6.2c0.2-1,0.2-1.7,0-2.2c-0.2-0.5-0.5-0.7-1.1-0.7c-0.5,0-1,0.2-1.4,0.5
		c-0.4,0.3-0.7,0.7-1,1.2L73,50.5h-1.5l1.8-10.1h1.1l0.1,1.1h0.1c0.3-0.4,0.7-0.7,1.2-0.9c0.5-0.3,1-0.4,1.6-0.4
		c0.4,0,0.8,0.1,1.1,0.2c0.3,0.1,0.5,0.3,0.7,0.6c0.2,0.3,0.3,0.7,0.3,1.2c0,0.5,0,1.1-0.2,1.8l-1.2,6.5H76.7z"/>
	<path style="fill:#6B6B6B;" d="M86.3,49.8c-0.4,0.3-0.8,0.5-1.4,0.7c-0.5,0.2-1.1,0.2-1.6,0.2c-0.6,0-1.2-0.1-1.6-0.4
		c-0.4-0.2-0.7-0.6-1-1.1c-0.2-0.5-0.3-1-0.4-1.7c0-0.6,0-1.4,0.2-2.2c0.3-1.7,0.9-3,1.6-3.9c0.8-0.9,1.8-1.4,2.9-1.4
		c0.4,0,0.7,0,1.1,0.1c0.4,0.1,0.7,0.3,0.9,0.6c0.2,0.3,0.4,0.7,0.5,1.2c0.1,0.5,0.1,1.2-0.1,2c0,0.2-0.1,0.5-0.2,0.7
		c-0.1,0.3-0.1,0.5-0.2,0.8h-5.1C82,46.2,82,46.7,82,47.2c0,0.5,0.1,0.9,0.2,1.2c0.1,0.3,0.4,0.6,0.6,0.8c0.3,0.2,0.7,0.3,1.1,0.3
		c0.4,0,0.7-0.1,1.1-0.2c0.4-0.1,0.7-0.3,0.9-0.5L86.3,49.8z M86.2,44.4c0.2-1,0.2-1.8,0-2.2c-0.2-0.5-0.6-0.7-1.1-0.7
		c-0.6,0-1.2,0.2-1.6,0.7c-0.4,0.5-0.8,1.2-1,2.2H86.2z"/>
	<path style="fill:#6B6B6B;" d="M88.4,48.9c0.2,0.2,0.5,0.3,0.9,0.4c0.3,0.1,0.7,0.2,1.1,0.2c0.4,0,0.8-0.1,1.2-0.3
		c0.3-0.2,0.6-0.6,0.7-1.1c0.1-0.4,0-0.8-0.1-1c-0.1-0.3-0.3-0.5-0.6-0.7c-0.3-0.2-0.5-0.4-0.8-0.6c-0.3-0.2-0.6-0.4-0.8-0.7
		c-0.2-0.3-0.4-0.6-0.6-0.9c-0.1-0.3-0.1-0.8,0-1.3c0.2-0.9,0.5-1.5,1-1.9s1.2-0.7,2.1-0.7c0.6,0,1,0.1,1.4,0.2
		c0.4,0.1,0.7,0.2,1,0.4L94.2,42c-0.2-0.1-0.5-0.2-0.8-0.3c-0.3-0.1-0.7-0.1-1-0.1c-0.5,0-0.9,0.1-1.1,0.3c-0.3,0.2-0.4,0.5-0.5,0.9
		c-0.1,0.3,0,0.6,0.1,0.9c0.1,0.2,0.3,0.5,0.6,0.6c0.3,0.2,0.5,0.4,0.8,0.6c0.3,0.2,0.6,0.4,0.8,0.7s0.4,0.6,0.5,1
		c0.1,0.4,0.1,0.9,0,1.4c-0.1,0.4-0.2,0.7-0.4,1.1c-0.2,0.3-0.4,0.6-0.7,0.9c-0.3,0.2-0.6,0.4-1,0.6c-0.4,0.1-0.8,0.2-1.3,0.2
		c-0.6,0-1.1-0.1-1.5-0.2c-0.4-0.1-0.7-0.3-1-0.5L88.4,48.9z"/>
	<path style="fill:#6B6B6B;" d="M95.1,48.9c0.2,0.2,0.5,0.3,0.9,0.4c0.3,0.1,0.7,0.2,1.1,0.2c0.4,0,0.8-0.1,1.2-0.3
		c0.3-0.2,0.6-0.6,0.7-1.1c0.1-0.4,0-0.8-0.1-1c-0.1-0.3-0.3-0.5-0.6-0.7c-0.3-0.2-0.5-0.4-0.8-0.6c-0.3-0.2-0.6-0.4-0.8-0.7
		c-0.2-0.3-0.4-0.6-0.6-0.9c-0.1-0.3-0.1-0.8,0-1.3c0.2-0.9,0.5-1.5,1-1.9c0.5-0.4,1.2-0.7,2.1-0.7c0.6,0,1,0.1,1.4,0.2
		c0.4,0.1,0.7,0.2,1,0.4l-0.6,1.2c-0.2-0.1-0.5-0.2-0.8-0.3c-0.3-0.1-0.7-0.1-1-0.1c-0.5,0-0.9,0.1-1.1,0.3
		c-0.3,0.2-0.4,0.5-0.5,0.9c-0.1,0.3,0,0.6,0.1,0.9c0.1,0.2,0.3,0.5,0.6,0.6c0.3,0.2,0.5,0.4,0.8,0.6c0.3,0.2,0.6,0.4,0.8,0.7
		c0.2,0.3,0.4,0.6,0.5,1c0.1,0.4,0.1,0.9,0,1.4c-0.1,0.4-0.2,0.7-0.4,1.1c-0.2,0.3-0.4,0.6-0.7,0.9c-0.3,0.2-0.6,0.4-1,0.6
		c-0.4,0.1-0.8,0.2-1.3,0.2c-0.6,0-1.1-0.1-1.5-0.2c-0.4-0.1-0.7-0.3-1-0.5L95.1,48.9z"/>
	<path style="fill:#6B6B6B;" d="M106,48.7c0.2,0.2,0.6,0.3,1,0.5c0.4,0.2,1,0.2,1.5,0.2c0.8,0,1.4-0.2,1.9-0.6c0.5-0.4,0.9-1,1-1.7
		c0.1-0.5,0-1-0.2-1.4s-0.5-0.8-0.8-1.1c-0.3-0.3-0.7-0.7-1.1-1c-0.4-0.3-0.8-0.7-1.1-1.1c-0.3-0.4-0.6-0.8-0.8-1.3
		c-0.2-0.5-0.2-1.1-0.1-1.8c0.2-1.1,0.7-2,1.5-2.5c0.8-0.5,1.7-0.8,2.8-0.8c0.7,0,1.3,0.1,1.8,0.2c0.5,0.1,0.9,0.3,1.2,0.5l-0.7,1.3
		c-0.2-0.1-0.5-0.3-1-0.4c-0.4-0.1-0.9-0.2-1.5-0.2c-0.7,0-1.3,0.2-1.7,0.5c-0.4,0.4-0.7,0.8-0.8,1.3c-0.1,0.5,0,0.9,0.2,1.3
		c0.2,0.4,0.5,0.7,0.8,1c0.3,0.3,0.7,0.7,1.1,1c0.4,0.3,0.8,0.7,1.1,1.1c0.3,0.4,0.6,0.9,0.8,1.4c0.2,0.5,0.2,1.1,0.1,1.8
		c-0.2,1.2-0.7,2.1-1.5,2.8c-0.8,0.7-1.9,1-3.1,1c-0.8,0-1.5-0.1-2-0.2c-0.5-0.1-0.9-0.3-1.2-0.5L106,48.7z"/>
	<path style="fill:#6B6B6B;" d="M114.5,45.5c0.3-1.8,0.9-3.2,1.6-4c0.8-0.9,1.7-1.3,2.9-1.3c1.2,0,2.1,0.4,2.5,1.3
		c0.4,0.9,0.5,2.2,0.2,4c-0.3,1.8-0.9,3.2-1.7,4c-0.8,0.8-1.7,1.3-2.9,1.3c-1.2,0-2.1-0.4-2.5-1.3C114.3,48.6,114.2,47.3,114.5,45.5
		z M116.1,45.5c-0.1,0.6-0.2,1.1-0.2,1.6c0,0.5,0,0.9,0.1,1.3c0.1,0.4,0.3,0.6,0.5,0.8c0.2,0.2,0.5,0.3,0.9,0.3
		c0.7,0,1.3-0.3,1.7-0.9c0.5-0.6,0.8-1.6,1.1-3c0.1-0.6,0.2-1.1,0.2-1.6c0-0.5,0-0.9-0.1-1.3c-0.1-0.3-0.3-0.6-0.5-0.8
		c-0.2-0.2-0.5-0.3-0.9-0.3c-0.7,0-1.3,0.3-1.7,0.9C116.7,43.1,116.3,44.1,116.1,45.5z"/>
	<path style="fill:#6B6B6B;" d="M124.6,48.1c-0.1,0.5-0.1,0.8,0,1c0.1,0.2,0.3,0.3,0.5,0.3c0.3,0,0.6-0.1,1-0.2l-0.1,1.2
		c-0.2,0.1-0.5,0.2-0.8,0.3c-0.3,0.1-0.6,0.1-0.9,0.1c-0.5,0-0.9-0.2-1.2-0.5c-0.3-0.3-0.3-0.9-0.2-1.7l2.2-12.2h1.5L124.6,48.1z"/>
	<path style="fill:#6B6B6B;" d="M130.2,40.4l-1.1,6.2c-0.2,1-0.2,1.8-0.1,2.2c0.1,0.4,0.5,0.7,1,0.7c0.3,0,0.5-0.1,0.8-0.2
		c0.2-0.1,0.5-0.3,0.7-0.5c0.2-0.2,0.4-0.4,0.6-0.6c0.2-0.2,0.3-0.5,0.5-0.7l1.2-7h1.5l-1.3,7.2c-0.1,0.5-0.2,1-0.2,1.5
		c-0.1,0.5-0.1,1-0.1,1.4h-1l-0.1-1.4h-0.1c-0.3,0.4-0.7,0.8-1.2,1.2c-0.5,0.3-1.1,0.5-1.7,0.5c-0.4,0-0.8-0.1-1.1-0.2
		c-0.3-0.1-0.5-0.3-0.7-0.6c-0.2-0.3-0.3-0.7-0.3-1.2c0-0.5,0-1.1,0.2-1.9l1.2-6.5H130.2z"/>
	<path style="fill:#6B6B6B;" d="M136.5,40.4h1.2l0.4-2l1.5-0.5l-0.4,2.5h2.2l-0.2,1.3h-2.2l-1.1,6c-0.1,0.6-0.1,1,0,1.3
		c0.1,0.3,0.3,0.4,0.6,0.4c0.3,0,0.5,0,0.7-0.1c0.2-0.1,0.4-0.1,0.7-0.2l0.1,1.2c-0.3,0.1-0.7,0.3-1,0.4c-0.4,0.1-0.8,0.1-1.1,0.1
		c-0.7,0-1.1-0.2-1.3-0.7c-0.2-0.4-0.2-1.1-0.1-2.1l1.1-6.2h-1.2L136.5,40.4z"/>
	<path style="fill:#6B6B6B;" d="M143.3,37.4c0.1-0.3,0.2-0.6,0.4-0.8c0.2-0.2,0.5-0.3,0.8-0.3c0.3,0,0.5,0.1,0.7,0.3
		c0.2,0.2,0.2,0.5,0.2,0.8c-0.1,0.3-0.2,0.6-0.4,0.8c-0.2,0.2-0.5,0.3-0.8,0.3c-0.3,0-0.5-0.1-0.7-0.3
		C143.3,37.9,143.3,37.7,143.3,37.4z M143.1,40.4h1.5l-1.8,10.1h-1.5L143.1,40.4z"/>
	<path style="fill:#6B6B6B;" d="M145.7,45.5c0.3-1.8,0.9-3.2,1.6-4c0.8-0.9,1.7-1.3,2.9-1.3c1.2,0,2.1,0.4,2.5,1.3
		c0.4,0.9,0.5,2.2,0.2,4c-0.3,1.8-0.9,3.2-1.7,4c-0.8,0.8-1.7,1.3-2.9,1.3c-1.2,0-2.1-0.4-2.5-1.3C145.4,48.6,145.4,47.3,145.7,45.5
		z M147.2,45.5c-0.1,0.6-0.2,1.1-0.2,1.6c0,0.5,0,0.9,0.1,1.3c0.1,0.4,0.3,0.6,0.5,0.8c0.2,0.2,0.5,0.3,0.9,0.3
		c0.7,0,1.3-0.3,1.7-0.9c0.5-0.6,0.8-1.6,1.1-3c0.1-0.6,0.2-1.1,0.2-1.6c0-0.5,0-0.9-0.1-1.3c-0.1-0.3-0.3-0.6-0.5-0.8
		c-0.2-0.2-0.5-0.3-0.9-0.3c-0.7,0-1.3,0.3-1.7,0.9C147.8,43.1,147.4,44.1,147.2,45.5z"/>
	<path style="fill:#6B6B6B;" d="M158.9,50.5l1.1-6.2c0.2-1,0.2-1.7,0-2.2c-0.2-0.5-0.5-0.7-1.1-0.7c-0.5,0-1,0.2-1.4,0.5
		c-0.4,0.3-0.7,0.7-1,1.2l-1.3,7.4h-1.5l1.8-10.1h1.1l0.1,1.1h0.1c0.3-0.4,0.7-0.7,1.2-0.9c0.5-0.3,1-0.4,1.6-0.4
		c0.4,0,0.8,0.1,1.1,0.2c0.3,0.1,0.5,0.3,0.7,0.6c0.2,0.3,0.3,0.7,0.3,1.2c0,0.5,0,1.1-0.2,1.8l-1.2,6.5H158.9z"/>
	<path style="fill:#6B6B6B;" d="M162.5,48.9c0.2,0.2,0.5,0.3,0.9,0.4c0.3,0.1,0.7,0.2,1.1,0.2c0.4,0,0.8-0.1,1.2-0.3
		c0.3-0.2,0.6-0.6,0.7-1.1c0.1-0.4,0-0.8-0.1-1c-0.1-0.3-0.3-0.5-0.6-0.7c-0.3-0.2-0.5-0.4-0.8-0.6c-0.3-0.2-0.6-0.4-0.8-0.7
		c-0.2-0.3-0.4-0.6-0.6-0.9c-0.1-0.3-0.1-0.8,0-1.3c0.2-0.9,0.5-1.5,1-1.9s1.2-0.7,2.1-0.7c0.6,0,1,0.1,1.4,0.2
		c0.4,0.1,0.7,0.2,1,0.4l-0.6,1.2c-0.2-0.1-0.5-0.2-0.8-0.3c-0.3-0.1-0.7-0.1-1-0.1c-0.5,0-0.9,0.1-1.1,0.3
		c-0.3,0.2-0.4,0.5-0.5,0.9c-0.1,0.3,0,0.6,0.1,0.9c0.1,0.2,0.3,0.5,0.6,0.6c0.3,0.2,0.5,0.4,0.8,0.6c0.3,0.2,0.6,0.4,0.8,0.7
		s0.4,0.6,0.5,1c0.1,0.4,0.1,0.9,0,1.4c-0.1,0.4-0.2,0.7-0.4,1.1c-0.2,0.3-0.4,0.6-0.7,0.9c-0.3,0.2-0.6,0.4-1,0.6
		c-0.4,0.1-0.8,0.2-1.3,0.2c-0.6,0-1.1-0.1-1.5-0.2c-0.4-0.1-0.7-0.3-1-0.5L162.5,48.9z"/>
	<path style="fill:#6B6B6B;" d="M173.9,46.7c0.1-0.5,0.3-1,0.5-1.5c0.2-0.5,0.5-0.9,0.9-1.3c0.3-0.4,0.7-0.8,1.1-1.1
		c0.4-0.3,0.8-0.6,1.2-0.9c-0.2-0.5-0.3-1-0.4-1.5c-0.1-0.5-0.1-1.1,0-1.6c0.1-0.3,0.2-0.6,0.3-1c0.1-0.3,0.3-0.6,0.6-0.8
		c0.2-0.2,0.5-0.4,0.9-0.6c0.3-0.1,0.7-0.2,1.2-0.2c0.5,0,0.8,0.1,1.1,0.2c0.3,0.1,0.5,0.3,0.7,0.5c0.2,0.2,0.2,0.5,0.3,0.7
		c0,0.3,0,0.6,0,0.9c-0.1,0.6-0.4,1.2-0.9,1.8c-0.5,0.6-1.1,1.2-2,1.8c0.1,0.4,0.2,0.8,0.4,1.2c0.1,0.4,0.3,0.8,0.5,1.2
		s0.4,0.8,0.6,1.2c0.2,0.4,0.4,0.8,0.6,1.1c0.3-0.3,0.6-0.8,0.9-1.4c0.3-0.6,0.6-1.1,0.8-1.6l1.1,0.5c-0.1,0.2-0.2,0.5-0.4,0.8
		c-0.2,0.3-0.4,0.7-0.6,1c-0.2,0.3-0.4,0.6-0.6,0.9c-0.2,0.3-0.4,0.6-0.6,0.8c0.4,0.5,0.7,0.9,0.9,1.2c0.3,0.3,0.5,0.5,0.8,0.8
		l-1.1,1.1c-0.5-0.4-1.1-1-1.7-1.9c-0.2,0.2-0.5,0.5-0.8,0.7c-0.3,0.2-0.6,0.4-0.9,0.6c-0.3,0.2-0.7,0.3-1,0.4
		c-0.4,0.1-0.8,0.2-1.2,0.2c-0.5,0-1-0.1-1.4-0.3c-0.4-0.2-0.8-0.4-1.1-0.8c-0.3-0.3-0.5-0.8-0.6-1.3
		C173.8,48,173.8,47.4,173.9,46.7z M180.2,47.9c-0.2-0.4-0.5-0.8-0.7-1.3c-0.2-0.4-0.4-0.9-0.6-1.3c-0.2-0.4-0.4-0.9-0.5-1.3
		c-0.1-0.4-0.3-0.8-0.4-1.2c-0.3,0.3-0.6,0.5-0.9,0.8c-0.3,0.3-0.6,0.6-0.8,0.9c-0.2,0.3-0.4,0.6-0.6,1c-0.2,0.4-0.3,0.8-0.4,1.2
		c-0.1,0.4-0.1,0.8,0,1.2c0.1,0.3,0.2,0.6,0.4,0.9c0.2,0.2,0.4,0.4,0.7,0.5c0.3,0.1,0.6,0.2,0.9,0.2c0.3,0,0.5,0,0.8-0.1
		c0.3-0.1,0.5-0.2,0.8-0.4c0.2-0.1,0.5-0.3,0.7-0.5C179.9,48.3,180.1,48.1,180.2,47.9z M178.6,38.7c-0.1,0.4-0.1,0.8,0,1.2
		c0.1,0.4,0.2,0.8,0.3,1.2c0.6-0.5,1.1-0.9,1.4-1.3c0.3-0.4,0.4-0.7,0.5-1.1c0.1-0.4,0-0.7-0.1-1c-0.1-0.3-0.4-0.4-0.8-0.4
		c-0.4,0-0.7,0.1-0.9,0.4C178.8,38,178.7,38.3,178.6,38.7z"/>
	<path style="fill:#6B6B6B;" d="M192.1,36.4h1.5l-2.5,14.1h-1.5L192.1,36.4z"/>
	<path style="fill:#6B6B6B;" d="M198.9,50.5l1.1-6.2c0.2-1,0.2-1.7,0-2.2c-0.2-0.5-0.5-0.7-1.1-0.7c-0.5,0-1,0.2-1.4,0.5
		c-0.4,0.3-0.7,0.7-1,1.2l-1.3,7.4h-1.5l1.8-10.1h1.1l0.1,1.1h0.1c0.3-0.4,0.7-0.7,1.2-0.9c0.5-0.3,1-0.4,1.6-0.4
		c0.4,0,0.8,0.1,1.1,0.2c0.3,0.1,0.5,0.3,0.7,0.6c0.2,0.3,0.3,0.7,0.3,1.2c0,0.5,0,1.1-0.2,1.8l-1.2,6.5H198.9z"/>
	<path style="fill:#6B6B6B;" d="M202.6,48.9c0.2,0.2,0.5,0.3,0.9,0.4c0.3,0.1,0.7,0.2,1.1,0.2c0.4,0,0.8-0.1,1.2-0.3
		c0.3-0.2,0.6-0.6,0.7-1.1c0.1-0.4,0-0.8-0.1-1c-0.1-0.3-0.3-0.5-0.6-0.7c-0.3-0.2-0.5-0.4-0.8-0.6c-0.3-0.2-0.6-0.4-0.8-0.7
		c-0.2-0.3-0.4-0.6-0.6-0.9c-0.1-0.3-0.1-0.8,0-1.3c0.2-0.9,0.5-1.5,1-1.9c0.5-0.4,1.2-0.7,2.1-0.7c0.6,0,1,0.1,1.4,0.2
		c0.4,0.1,0.7,0.2,1,0.4l-0.6,1.2c-0.2-0.1-0.5-0.2-0.8-0.3c-0.3-0.1-0.7-0.1-1-0.1c-0.5,0-0.9,0.1-1.1,0.3
		c-0.3,0.2-0.4,0.5-0.5,0.9c-0.1,0.3,0,0.6,0.1,0.9c0.1,0.2,0.3,0.5,0.6,0.6c0.3,0.2,0.5,0.4,0.8,0.6c0.3,0.2,0.6,0.4,0.8,0.7
		c0.2,0.3,0.4,0.6,0.5,1c0.1,0.4,0.1,0.9,0,1.4c-0.1,0.4-0.2,0.7-0.4,1.1c-0.2,0.3-0.4,0.6-0.7,0.9c-0.3,0.2-0.6,0.4-1,0.6
		c-0.4,0.1-0.8,0.2-1.3,0.2c-0.6,0-1.1-0.1-1.5-0.2c-0.4-0.1-0.7-0.3-1-0.5L202.6,48.9z"/>
	<path style="fill:#6B6B6B;" d="M210.8,40.4h1l0,1.1h0.1c0.7-0.9,1.5-1.3,2.6-1.3c1.1,0,1.8,0.4,2.2,1.2c0.4,0.8,0.4,2.1,0.1,3.9
		c-0.2,0.8-0.4,1.6-0.7,2.3c-0.3,0.7-0.6,1.3-1.1,1.7c-0.4,0.5-0.9,0.8-1.4,1.1c-0.5,0.2-1,0.4-1.6,0.4c-0.4,0-0.7,0-0.9-0.1
		c-0.2,0-0.5-0.1-0.7-0.3l-0.7,4.2h-1.5L210.8,40.4z M210.8,48.9c0.2,0.2,0.3,0.3,0.6,0.4c0.2,0.1,0.5,0.1,0.9,0.1
		c0.7,0,1.3-0.4,1.9-1.1c0.5-0.7,0.9-1.8,1.2-3.1c0.1-0.6,0.2-1.1,0.2-1.5c0-0.5,0-0.9-0.1-1.2c-0.1-0.3-0.3-0.6-0.5-0.8
		c-0.2-0.2-0.5-0.3-0.9-0.3c-1,0-1.7,0.6-2.2,1.8L210.8,48.9z"/>
	<path style="fill:#6B6B6B;" d="M219.9,37.4c0.1-0.3,0.2-0.6,0.4-0.8c0.2-0.2,0.5-0.3,0.8-0.3c0.3,0,0.5,0.1,0.7,0.3
		c0.2,0.2,0.2,0.5,0.2,0.8c-0.1,0.3-0.2,0.6-0.4,0.8c-0.2,0.2-0.5,0.3-0.8,0.3c-0.3,0-0.5-0.1-0.7-0.3
		C219.9,37.9,219.9,37.7,219.9,37.4z M219.7,40.4h1.5l-1.8,10.1h-1.5L219.7,40.4z"/>
	<path style="fill:#6B6B6B;" d="M223.6,40.4h1l0.1,1.1h0.1c0.3-0.4,0.6-0.7,0.9-0.9c0.3-0.2,0.7-0.3,1.2-0.3c0.3,0,0.6,0.1,1,0.2
		l-0.5,1.5c-0.3-0.1-0.6-0.2-0.9-0.2c-0.4,0-0.8,0.1-1.1,0.4c-0.3,0.2-0.5,0.6-0.7,1l-1.3,7.4h-1.5L223.6,40.4z"/>
	<path style="fill:#6B6B6B;" d="M228.7,41c0.4-0.2,0.9-0.4,1.5-0.6s1.2-0.2,1.8-0.2c0.6,0,1,0.1,1.3,0.3c0.3,0.2,0.5,0.4,0.7,0.7
		c0.1,0.3,0.2,0.6,0.2,1c0,0.4,0,0.8-0.1,1.2c-0.1,0.8-0.3,1.6-0.5,2.4s-0.3,1.5-0.4,2.2c-0.1,0.5-0.2,1-0.2,1.4
		c0,0.4-0.1,0.9,0,1.2h-1.1l-0.1-1.2h-0.1c-0.3,0.4-0.6,0.7-1,0.9s-1,0.4-1.6,0.4c-0.7,0-1.3-0.3-1.6-0.8s-0.5-1.2-0.3-2.1
		c0.1-0.6,0.3-1.1,0.5-1.5s0.6-0.7,1-0.9s0.8-0.4,1.4-0.5c0.5-0.1,1.1-0.2,1.7-0.2c0.1,0,0.3,0,0.4,0c0.1,0,0.3,0,0.4,0
		c0.1-0.4,0.2-0.8,0.3-1.1c0.1-0.8,0.1-1.3-0.1-1.6c-0.2-0.3-0.6-0.5-1.2-0.5c-0.4,0-0.8,0.1-1.3,0.2c-0.5,0.1-0.9,0.3-1.2,0.4
		L228.7,41z M232.2,45.9c-0.1,0-0.3,0-0.4,0c-0.1,0-0.3,0-0.4,0c-0.3,0-0.6,0-1,0.1c-0.3,0.1-0.6,0.1-0.9,0.3s-0.5,0.3-0.7,0.5
		c-0.2,0.2-0.3,0.5-0.4,0.9c-0.1,0.5,0,1,0.2,1.3c0.2,0.3,0.5,0.4,0.9,0.4c0.6,0,1-0.1,1.4-0.4c0.4-0.3,0.6-0.6,0.8-0.9L232.2,45.9z
		"/>
	<path style="fill:#6B6B6B;" d="M235.8,40.4h1.2l0.4-2l1.5-0.5l-0.4,2.5h2.2l-0.2,1.3h-2.2l-1.1,6c-0.1,0.6-0.1,1,0,1.3
		s0.3,0.4,0.6,0.4c0.3,0,0.5,0,0.7-0.1c0.2-0.1,0.4-0.1,0.7-0.2l0.1,1.2c-0.3,0.1-0.7,0.3-1,0.4c-0.4,0.1-0.8,0.1-1.1,0.1
		c-0.7,0-1.1-0.2-1.3-0.7c-0.2-0.4-0.2-1.1-0.1-2.1l1.1-6.2h-1.2L235.8,40.4z"/>
	<path style="fill:#6B6B6B;" d="M242.7,37.4c0.1-0.3,0.2-0.6,0.4-0.8c0.2-0.2,0.5-0.3,0.8-0.3c0.3,0,0.5,0.1,0.7,0.3
		c0.2,0.2,0.2,0.5,0.2,0.8c-0.1,0.3-0.2,0.6-0.4,0.8c-0.2,0.2-0.5,0.3-0.8,0.3c-0.3,0-0.5-0.1-0.7-0.3
		C242.7,37.9,242.6,37.7,242.7,37.4z M242.4,40.4h1.5l-1.8,10.1h-1.5L242.4,40.4z"/>
	<path style="fill:#6B6B6B;" d="M245,45.5c0.3-1.8,0.9-3.2,1.6-4c0.8-0.9,1.7-1.3,2.9-1.3c1.2,0,2.1,0.4,2.5,1.3
		c0.4,0.9,0.5,2.2,0.2,4c-0.3,1.8-0.9,3.2-1.7,4c-0.8,0.8-1.7,1.3-2.9,1.3c-1.2,0-2.1-0.4-2.5-1.3C244.8,48.6,244.7,47.3,245,45.5z
		 M246.5,45.5c-0.1,0.6-0.2,1.1-0.2,1.6c0,0.5,0,0.9,0.1,1.3c0.1,0.4,0.3,0.6,0.5,0.8c0.2,0.2,0.5,0.3,0.9,0.3
		c0.7,0,1.3-0.3,1.7-0.9c0.5-0.6,0.8-1.6,1.1-3c0.1-0.6,0.2-1.1,0.2-1.6c0-0.5,0-0.9-0.1-1.3c-0.1-0.3-0.3-0.6-0.5-0.8
		c-0.2-0.2-0.5-0.3-0.9-0.3c-0.7,0-1.3,0.3-1.7,0.9C247.1,43.1,246.8,44.1,246.5,45.5z"/>
	<path style="fill:#6B6B6B;" d="M258.3,50.5l1.1-6.2c0.2-1,0.2-1.7,0-2.2c-0.2-0.5-0.5-0.7-1.1-0.7c-0.5,0-1,0.2-1.4,0.5
		c-0.4,0.3-0.7,0.7-1,1.2l-1.3,7.4h-1.5l1.8-10.1h1.1l0.1,1.1h0.1c0.3-0.4,0.7-0.7,1.2-0.9s1-0.4,1.6-0.4c0.4,0,0.8,0.1,1.1,0.2
		c0.3,0.1,0.5,0.3,0.7,0.6c0.2,0.3,0.3,0.7,0.3,1.2c0,0.5,0,1.1-0.2,1.8l-1.2,6.5H258.3z"/>
</g>
</svg>
