<?xml version="1.0" encoding="UTF-8"?>
<svg width="375px" height="187px" viewBox="0 0 375 187" version="1.1" xmlns="http://www.w3.org/2000/svg" xmlns:xlink="http://www.w3.org/1999/xlink">
    <!-- Generator: Sketch 52.3 (67297) - http://www.bohemiancoding.com/sketch -->
    <title>Group 2</title>
    <desc>Created with Sketch.</desc>
    <g id="exploration" stroke="none" stroke-width="1" fill="none" fill-rule="evenodd">
        <g id="Up-Next-Cards" transform="translate(-132.000000, -1104.000000)">
            <g id="Group" transform="translate(319.500000, 1087.500000) scale(1, -1) translate(-319.500000, -1087.500000) translate(132.000000, 884.000000)">
                <g id="Group-2" transform="translate(-63.000000, -183.000000)">
                    <g id="Group-3">
                        <path d="M83.2031532,237.614673 C78.1842802,209.684929 123.688483,217.679508 146.263807,198.623673 C165.113222,182.712878 157.739673,137.545842 188.355535,135.104694 C255.639006,129.739863 317.648741,166.937035 326.858155,218.186902 C330.895895,240.656695 293.010555,250.883145 278.449337,268.32977 C259.798834,290.676001 259.489741,317.684187 221.705774,320.696882 C188.146251,323.372742 179.387323,301.597555 154.349171,286.6339 C129.188345,271.596929 87.8191131,263.302228 83.2031532,237.614673 Z" id="Oval" fill="#FFB900" transform="translate(204.988627, 227.756038) rotate(-3.000000) translate(-204.988627, -227.756038) "></path>
                        <path d="M241.032171,356.670485 C328.269548,409.591342 419.251791,304.556545 412.468301,225.354314 C405.684812,146.152083 317.932033,76.5321471 216.466984,69.8538348 C115.001934,63.1755226 226.176356,125.776811 232.959846,204.979042 C239.743335,284.181273 153.794795,303.749629 241.032171,356.670485 Z" id="Oval" fill="#FEE7A8" transform="translate(293.394699, 220.177827) rotate(-15.000000) translate(-293.394699, -220.177827) "></path>
                        <path d="M577.146067,130.657883 C586.842124,223.013315 496.696836,223.624445 398.903772,281.464981 C301.110708,339.305516 325.027654,290.633253 240.662727,319.785106 C204.14745,332.402766 184.411504,254.861842 194.636214,225.41677 C213.638832,170.69312 313.042289,165.990674 376.624025,128.384718 C474.417089,70.5441831 567.450009,38.3024506 577.146067,130.657883 Z" id="Oval" fill="#222244" transform="translate(384.906450, 196.905038) rotate(26.000000) translate(-384.906450, -196.905038) "></path>
                        <path d="M264.396057,329.049236 C218.068661,370.149267 222.299294,282.946528 161.998808,231.256793 C101.698321,179.567059 -0.298716543,182.964181 46.0286797,141.86415 C92.356076,100.764118 178.795053,109.348769 239.09554,161.038503 C299.396026,212.728237 310.723453,287.949205 264.396057,329.049236 Z" id="Oval" fill="#FF7254" transform="translate(163.610372, 227.803659) rotate(-58.000000) translate(-163.610372, -227.803659) "></path>
                    </g>
                </g>
            </g>
        </g>
    </g>
</svg>