<svg fill="none" height="1120" viewBox="0 0 1147 1120" width="1147" xmlns="http://www.w3.org/2000/svg"><g clip-rule="evenodd" fill-rule="evenodd"><path d="m984.264 293h84.056v.091h78.26v240.583h-240.58v-240.583h78.264zm-54.459 23.897h54.459v38.167c-19.188 13.048-31.791 35.058-31.791 60.011 0 .681.009 1.36.028 2.036l-22.696 11.931zm95.185 25.659c-5.76 0-11.37.672-16.74 1.942v-27.51h36.08v28.176c-6.16-1.7-12.64-2.608-19.34-2.608zm43.33-25.659v40.022c9.35 6.976 16.96 16.153 22.06 26.763l32.4-24.39v-42.395zm-138.515 139.853v53.119h54.46v-34.783c-11.843-8.053-21.178-19.52-26.589-32.986zm78.445 28.901v23.783h36.08v-24.448c-6.16 1.699-12.64 2.607-19.34 2.607-5.76 0-11.37-.672-16.74-1.942zm60.07-12.421v36.639h54.46v-119.878l-25.51 19.201c.16 1.94.24 3.902.24 5.883 0 23.806-11.47 44.934-29.19 58.155zm-2.5-71.059c-5.47-17.337-21.69-29.905-40.83-29.905-18.37 0-34.038 11.573-40.112 27.826l13.306-6.994 18.446 16.899 10.18-32.662 30.74 31.062zm-81.604 25.978c5.526 17.248 21.694 29.734 40.774 29.734 16.39 0 30.64-9.217 37.83-22.752l-7.63 5.744-17.11-17.285-9.53 30.592-34.219-31.35z" fill="#f3f3ef"/><path d="m844.583.0974121h-240.583v240.5825879h240.583zm-216.778 213.9735879v-190.1682h192.972v183.1842l-43.113-75.172-38.166 66.547-51.369-89.541zm60.324-54.992 31.703 55.262h-63.406zm89.535 23.006-18.81 32.798h37.621zm-27.765-107.8114c0-8.7268 7.075-15.8012 15.801-15.8012 8.727 0 15.802 7.0744 15.802 15.8012s-7.075 15.8013-15.802 15.8013c-8.726 0-15.801-7.0745-15.801-15.8013zm15.801-39.6066c-21.874 0-39.606 17.7325-39.606 39.6066 0 21.8742 17.732 39.6064 39.606 39.6064 21.875 0 39.607-17.7322 39.607-39.6064 0-21.8741-17.732-39.6066-39.607-39.6066z" fill="#b8dcf5"/><path d="m604 293h240.583v240.583h-240.583zm23.805 23.805v192.972h192.972v-192.972z" fill="#ffdbdb"/><path d="m774.269 391.348v-70.333l-100.592 48.754v56.588c-15.178 4.997-26.135 19.288-26.135 36.139 0 21.008 17.03 38.038 38.038 38.038 21.007 0 38.037-17.03 38.037-38.038 0-16.851-10.957-31.143-26.135-36.139v-41.672l52.981-25.678v32.34c-15.178 4.997-26.135 19.288-26.135 36.139 0 21.008 17.03 38.038 38.038 38.038 21.007 0 38.037-17.03 38.037-38.038 0-16.851-10.957-31.142-26.134-36.138zm-11.903 21.906c-7.861 0-14.233 6.372-14.233 14.232s6.372 14.232 14.233 14.232c7.86 0 14.232-6.372 14.232-14.232s-6.372-14.232-14.232-14.232zm-76.786 35.01c-7.861 0-14.233 6.372-14.233 14.232s6.372 14.232 14.233 14.232c7.86 0 14.232-6.372 14.232-14.232s-6.372-14.232-14.232-14.232z" fill="#ffdbdb"/><path d="m604 586h240.583v240.583h-240.583zm23.805 23.805v192.972h192.972v-192.972zm71.437 88.523-46.739-46.698 16.826-16.84 63.586 63.53-65.985 65.986-16.833-16.833zm27.085 66.031h77.129v-23.805h-77.129z" fill="#ffeade"/><path d="m604 879h240.583v240.58h-240.583zm23.805 23.805v56.272h42.636l3.668-10.681.002-.004.001-.003c3.568-10.421 13.353-17.359 24.302-17.359h54.673c11.111 0 20.981 7.116 24.452 17.71l.003.008 3.366 10.329h39.869v-56.272zm192.972 80.077h-32.112l5.946 18.248.003.01c8.419 25.97-5.055 52.48-28.116 62.55l14.647 32.09h39.632zm-192.972 112.898v-112.898h34.462l-5.998 17.468h-.002c-8.703 25.29 3.632 51.38 25.542 62.28l-15.131 33.15zm77.676-27.87h36.844l13.4 27.87h-63.814zm-7.067-113.075c-.816 0-1.523.512-1.781 1.267l-1.762 5.131 27.063 20.982c2.652 1.593 5.911 1.721 8.667.343l26.639-19.276-2.324-7.132c0-.001-.001-.003-.001-.005-.258-.779-.977-1.31-1.828-1.31zm66.574 32.224 6.981 21.421c0 .01.001.01.002.01h.001c5.689 17.57-7.414 35.61-25.897 35.61h-41.581c-18.662 0-31.779-18.39-25.717-36l7.925-23.078 21.459 16.638.391.26c10.292 6.76 23.532 7.23 34.308 1.07l.555-.32zm-56.522 36.921c0 4.15-3.359 7.51-7.502 7.51s-7.502-3.36-7.502-7.51c0-4.14 3.359-7.5 7.502-7.5s7.502 3.36 7.502 7.5zm45.65 7.51c4.144 0 7.503-3.36 7.503-7.51 0-4.14-3.359-7.5-7.503-7.5-4.143 0-7.502 3.36-7.502 7.5 0 4.15 3.359 7.51 7.502 7.51z" fill="#e0f6ce"/><path d="m.097168 293h240.582832v240.583h-240.582832zm23.805332 23.805v192.972h192.9715v-192.972zm63.7073 55.715c9.9656 0 18.0442-8.079 18.0442-18.045 0-9.965-8.0786-18.044-18.0442-18.044s-18.0444 8.079-18.0444 18.044c0 9.966 8.0788 18.045 18.0444 18.045zm18.0442 40.746c0 9.966-8.0786 18.045-18.0442 18.045s-18.0444-8.079-18.0444-18.045c0-9.965 8.0788-18.044 18.0444-18.044s18.0442 8.079 18.0442 18.044zm-18.0442 76.885c9.9656 0 18.0442-8.079 18.0442-18.045 0-9.965-8.0786-18.044-18.0442-18.044s-18.0444 8.079-18.0444 18.044c0 9.966 8.0788 18.045 18.0444 18.045zm83.6022-135.676c0 9.966-8.079 18.045-18.045 18.045-9.965 0-18.044-8.079-18.044-18.045 0-9.965 8.079-18.044 18.044-18.044 9.966 0 18.045 8.079 18.045 18.044zm-18.045 76.836c9.966 0 18.045-8.079 18.045-18.045 0-9.965-8.079-18.044-18.045-18.044-9.965 0-18.044 8.079-18.044 18.044 0 9.966 8.079 18.045 18.044 18.045zm18.045 40.796c0 9.965-8.079 18.044-18.045 18.044-9.965 0-18.044-8.079-18.044-18.044 0-9.966 8.079-18.045 18.044-18.045 9.966 0 18.045 8.079 18.045 18.045z" fill="#e0f6ce"/><path d="m302 293h240.583v240.583h-240.583zm23.805 23.805v192.972h192.972v-192.972zm43.633 44.014h20.956v-24.674h23.805v24.674h14.295v-24.674h23.806v24.674h25.146v22.86h26.198v23.806h-26.198v14.295h26.198v23.805h-26.198v23.241h-25.147v27.341h-23.805v-27.341h-14.295v27.341h-23.806v-27.341h-20.955v-23.241h-24.674v-23.805h24.674v-14.295h-24.674v-23.806h24.674zm23.805 23.805v60.397h60.397v-60.397zm48.007 12.39h-35.616v35.617h35.616z" fill="#e5fdfa"/></g><path d="m323.875 759.861c1.569 0 1.569-2.452 0-2.452-1.57 0-1.57 2.452 0 2.452z" fill="#ffe7a9"/><path clip-rule="evenodd" d="m312 586h240.583v240.583h-240.583zm23.805 23.805v192.972h61.874c-.057-.137-.114-.273-.169-.409-.053-.131-.105-.262-.156-.392-2.885-7.378-2.874-15.063-2.87-17.563v-.227-10.678c-3.174-2.483-7.334-6.011-11.537-10.379-8.114-8.434-18.63-22.31-18.94-39.358-6.343-11.209-10.007-24.167-10.007-38 0-37.236 26.148-68.342 61.092-75.966zm192.972 192.972h-62.757c2.808-5.957 4.043-12.593 4.043-18.591v-10.786c3.093-2.486 7.142-6.016 11.229-10.387 7.969-8.519 18.167-22.44 18.378-39.474 6.266-11.152 9.888-24.014 9.888-37.768v-.008-.008c-.049-37.223-26.196-68.327-61.14-75.95h80.359zm-150.972-117.006c0-29.809 24.141-53.949 53.95-53.949 29.804 0 53.955 24.137 53.998 53.959-.002 13.641-5.158 26.083-13.642 35.65h-80.674c-8.469-9.528-13.632-22.004-13.632-35.66zm24.195 59.229c4.608 6.076 11.049 10.684 18.5 13.001v28.999c0 3.866 3.134 7 7 7h8c3.866 0 7-3.134 7-7v-28.999c7.451-2.317 13.892-6.925 18.5-13.001z" fill="#ffe7a9" fill-rule="evenodd"/></svg>