<?xml version="1.0" encoding="utf-8"?>
<!-- Generator: Adobe Illustrator 19.1.0, SVG Export Plug-In . SVG Version: 6.00 Build 0)  -->
<svg version="1.1" id="Layer_1" xmlns="http://www.w3.org/2000/svg" xmlns:xlink="http://www.w3.org/1999/xlink" x="0px" y="0px"
	 viewBox="0 0 27 27" style="enable-background:new 0 0 27 27;" xml:space="preserve">
<style type="text/css">
	.st0{fill:#306199;}
	.st1{fill:#FFFFFF;}
</style>
<circle class="st0" cx="13.5" cy="13.5" r="13.5"/>
<g id="XMLID_834_">
	<path id="XMLID_835_" class="st1" d="M10.2,14h1.5v6.3c0,0.1,0.1,0.2,0.2,0.2h2.6c0.1,0,0.2-0.1,0.2-0.2V14h1.8
		c0.1,0,0.2-0.1,0.2-0.2l0.3-2.3c0-0.1,0-0.1-0.1-0.2c0,0-0.1-0.1-0.2-0.1h-2V9.8c0-0.4,0.2-0.7,0.7-0.7c0.1,0,1.3,0,1.3,0
		C16.9,9.1,17,9,17,8.9V6.7c0-0.1-0.1-0.2-0.2-0.2H15c0,0,0,0-0.1,0c-0.3,0-1.4,0.1-2.3,0.9c-1,0.9-0.8,2-0.8,2.1v1.7h-1.6
		c-0.1,0-0.2,0.1-0.2,0.2v2.3C10,13.9,10.1,14,10.2,14z"/>
</g>
</svg>
