<svg xmlns="http://www.w3.org/2000/svg" viewBox="0 0 395 65.3"><style>.st0{fill:#213a70}</style><path class="st0" d="M70.1 19.1v7.8c0 1.4.1 2.4.1 2.8.1.5.2.8.3.9s.4.3.7.4c.4.1 1.2.2 2.6.2l.2.1v1l-.2.2c-3.3-.1-5.2-.2-5.6-.2-.4 0-2.3.1-5.6.2l-.2-.2v-1l.2-.1c1.2-.1 2-.1 2.4-.2.4-.1.7-.2.8-.3.1-.1.2-.4.3-.8.1-.4.1-1.3.1-2.7v-17c0-1.5 0-2.4-.1-2.9s0-.7-.1-.8c-.1-.1-.4-.3-.7-.4-.4-.1-1.3-.2-2.6-.2l-.2-.1v-1l.2-.1c5.5.1 8.7.1 9.7.1 3.1 0 6.3 0 9.5-.1l.1.1c-.2.6-.3 1.4-.4 2.2-.1.8-.1 2-.2 3.5l-.2.2h-.9l-.1-.2c0-.1-.1-.6-.2-1.5-.1-.7-.2-1.4-.3-2-1.4-.5-3.2-.7-5.6-.7-1.1 0-2.3.1-3.7.2-.1 1-.2 3.5-.2 7.4v3.4h3.4c1.1 0 2.1 0 2.8-.1.8-.1 1.3-.2 1.4-.2.2-.1.3-.2.4-.4.1-.2.2-.7.2-1.4l.1-1.1.1-.2h1l.2.2-.1 4.3c0 .5 0 1.2.1 2.1.1 1.1.1 1.9.1 2.5l-.2.2h-1l-.2-.2-.1-1.7c0-.6-.1-1.1-.2-1.4-.1-.3-.2-.5-.4-.6-.2-.1-.7-.2-1.4-.3h-3.3c-1.3 0-2.3 0-3 .1zM90.3 13.6l.4.3c-.1.8-.1 2.1-.2 4L92 16c.5-.6.9-1.1 1.3-1.4.4-.3.8-.6 1.3-.8.5-.2 1-.3 1.5-.3.6 0 1.1.1 1.6.4l.1.3c-.2 1.7-.3 3.2-.4 4.6h-.9C96 17.6 95.2 17 94 17c-.8 0-1.5.3-2.1.8-.6.5-1 1.2-1.2 1.9-.2.8-.3 1.8-.3 2.9v2.2c0 .4 0 1.3.1 2.9.1 1.5.1 2.4.2 2.6.1.2.1.4.3.5.1.1.3.2.5.2s1.1.1 2.8.2l.2.2v.8l-.2.2c-1.7-.1-3.5-.2-5.4-.2-1.5 0-3.1.1-4.7.2l-.2-.2v-.8l.2-.2c1.3-.1 2-.1 2.1-.2s.3-.1.4-.2c.1-.1.2-.3.3-.6 0-.3.1-1.1.2-2.5s.1-2.5.1-3.2v-3.8c0-.5 0-1.2-.1-2.1-.2-1-.2-1.5-.2-1.8 0-.2-.1-.4-.3-.5s-.5-.1-1-.1h-1.6l-.2-.2v-.8l.2-.2c2.4-.2 4.5-.7 6.2-1.4zM106 13.6l.4.3c-.1 1.7-.2 3.9-.2 6.5v4.4c0 .3 0 1.2.1 2.8.1 1.6.1 2.5.2 2.7.1.3.1.4.3.6.1.1.3.2.4.2.2 0 .9.1 2.1.2l.2.2v.8l-.2.2c-1.6-.1-3.2-.2-4.7-.2s-3.1.1-4.7.2l-.2-.2v-.8l.2-.2c1.3-.1 2-.1 2.1-.2s.3-.1.4-.2c.1-.1.2-.3.3-.6 0-.3.1-1.1.2-2.5s.1-2.5.1-3.2v-3.8c0-.5 0-1.2-.1-2.1-.1-.9-.1-1.4-.1-1.7 0-.2-.1-.4-.3-.5-.2-.1-.5-.1-1-.1h-1.6l-.2-.2v-.8l.2-.2c2.3-.4 4.4-.9 6.1-1.6zm-1.6-8.7c.6 0 1.1.2 1.6.6.4.4.6.9.6 1.6 0 .6-.2 1.1-.6 1.5-.4.4-.9.6-1.6.6-.6 0-1.1-.2-1.6-.6s-.7-.9-.7-1.6.2-1.1.7-1.6c.5-.3 1-.5 1.6-.5zM126.8 29.3l-.6 1.4c-1.4.9-2.6 1.4-3.6 1.7-1.1.3-2 .4-2.8.4-1.6 0-3-.3-4.4-.9s-2.5-1.6-3.4-3.1c-.9-1.5-1.3-3.2-1.3-5.3 0-1.4.2-2.6.5-3.7s.7-1.9 1.1-2.4c.4-.5 1-1.1 1.9-1.8.9-.6 1.8-1.2 2.8-1.6s2.1-.6 3.2-.6c1.6 0 2.9.4 4.1 1.1 1.2.7 2 1.7 2.5 2.8.5 1.1.7 2.4.7 3.6 0 .4 0 .8-.1 1.2l-.2.2c-.9.2-2.1.3-3.6.4s-2.5.1-3 .1h-6.3c0 2.7.7 4.7 2 5.9 1.3 1.3 3 1.9 4.9 1.9.9 0 1.8-.2 2.6-.5s1.7-.7 2.7-1.3l.3.5zm-12.5-7.9c.2 0 1.1.1 2.7.1 1.6.1 2.7.1 3.5.1 1.8 0 2.9 0 3.3-.1v-.7c0-2-.4-3.5-1.2-4.5s-1.9-1.5-3.4-1.5-2.8.6-3.6 1.7c-.8 1-1.3 2.7-1.3 4.9zM135.2 13.6l.4.3c-.1.9-.1 2-.2 3.4 1-.9 2-1.7 3-2.6.3-.2.5-.4.8-.5l1.2-.4c.6-.1 1.1-.2 1.7-.2 1 0 1.9.2 2.9.6.9.4 1.6.9 2.1 1.4.5.6.8 1.2 1 2 .2.8.3 1.7.3 2.8v3.4c0 .2 0 1.8.1 4.9 0 1.2.2 2 .4 2.2s1.1.4 2.4.4l.2.2v.8l-.2.2c-1.7-.1-2.8-.2-3.4-.2-.3 0-1.3.1-2.8.2l-.2-.2c.2-1.7.3-3.9.3-6.6V23c0-1.5 0-2.6-.1-3.3-.1-.7-.3-1.3-.7-1.8-.4-.6-.9-1-1.5-1.3-.6-.3-1.3-.5-2.2-.5-.7 0-1.3.1-1.7.2s-1 .4-1.6.8c-.6.4-1 .8-1.3 1.2s-.5.7-.5 1c-.1.3-.1 1-.1 2v3.4c0 .3 0 1.2.1 2.8.1 1.6.1 2.5.2 2.7.1.3.1.4.3.6.1.1.3.2.4.2.2 0 .9.1 2.1.2l.2.2v.8l-.2.2c-1.6-.1-3.2-.2-4.7-.2s-3.1.1-4.7.2l-.2-.2v-.8l.2-.2c1.3-.1 2-.1 2.1-.2.2 0 .3-.1.4-.2.1-.1.2-.3.3-.6 0-.3.1-1.1.2-2.5s.1-2.5.1-3.2v-3.8c0-.5 0-1.2-.1-2.1s-.1-1.4-.1-1.7c0-.2-.1-.4-.3-.5-.2-.1-.5-.1-1-.1h-1.6l-.2-.2v-.8l.2-.2c2.2-.3 4.3-.8 6-1.5zM164.1 5.8v-.9l.2-.2c2.5-.3 4.6-.8 6.3-1.4l.4.2c-.1 1.5-.2 4.5-.2 9v12.8c0 1.3 0 2.5.1 3.4 0 1 .1 1.6.2 1.7.1.2.3.3.6.4.3.1 1 .2 2.3.3l.2.2v.7l-.2.2c-1.4-.1-2.5-.1-3.3-.1-.7 0-1.7 0-3 .1l-.2-.2c0-1.3.1-2.2.1-2.7v-.7c-.7.5-1.4 1.1-2.1 1.7-1.1.9-1.7 1.5-2.1 1.8-.6.3-1.4.4-2.6.4-1.8 0-3.3-.4-4.6-1.3-1.3-.9-2.1-2-2.7-3.4s-.8-2.8-.8-4.2c0-1.5.3-2.9.8-4.2s1.3-2.3 2.4-3c1-.6 2.1-1.3 3.3-1.9 1.2-.7 2.4-1 3.6-1 1.7 0 3.2.4 4.7 1.2l-.1-4.3c0-1.5-.1-2.6-.1-3.1-.1-.6-.1-.9-.2-1.1-.1-.1-.2-.2-.4-.2s-1-.1-2.4-.1l-.2-.1zm3.3 12.3c-.8-.9-1.7-1.6-2.7-2.1-1-.5-2-.7-3-.7-1.1 0-2.1.3-3.1.9-.9.6-1.6 1.5-2 2.6-.4 1.2-.6 2.4-.6 3.8 0 2.3.6 4.1 1.7 5.5s2.6 2.1 4.3 2.1c.9 0 1.8-.2 2.5-.7.7-.4 1.3-1 1.8-1.8.5-.7.8-1.5.8-2.2.1-.7.1-2.1.1-4.1v-3.3zM177.3 26.5h.8l.2.2c0 1.1.1 2 .2 2.8.4.6 1.1 1.1 2.1 1.5 1 .4 2 .6 2.9.6 1.4 0 2.5-.4 3.3-1.1.8-.7 1.2-1.6 1.2-2.7 0-.6-.1-1-.4-1.5s-.8-.7-1.4-1-1.7-.6-3.2-.9c-1.3-.3-2.3-.6-2.8-.7s-1-.5-1.5-.9-.9-.9-1.1-1.5c-.3-.6-.4-1.3-.4-2 0-1.7.7-3.1 2.1-4.2 1.4-1 3.1-1.6 5.2-1.6.9 0 1.8.1 2.8.4 1 .2 1.8.5 2.3.7l.2.3c-.1.5-.2 1.9-.2 4.1l-.2.2h-.8l-.2-.2c-.1-.8-.1-1.3-.2-1.7-.1-.3-.3-.7-.7-1-.4-.4-.9-.7-1.6-.9-.7-.3-1.4-.4-2.2-.4-.8 0-1.5.1-2 .4-.5.2-1 .6-1.3 1.1-.3.5-.5 1-.5 1.7 0 .5.1.9.3 1.3.2.4.5.7.9.9.4.2.9.4 1.3.5l2.1.5c1.8.4 3.1.8 3.9 1.2.8.3 1.4.8 1.8 1.5s.6 1.5.6 2.4c0 1.8-.7 3.3-2.2 4.6-1.5 1.3-3.4 1.9-5.7 1.9-.8 0-1.8-.1-3.1-.3-1.2-.2-2.3-.4-3.1-.6l-.1-.3.2-1.3c.1-.4.1-.8.1-1.2v-2.6l.4-.2zM229.4 28.9l-.7 1.8c-2.9 1.5-6 2.2-9.2 2.2-4.7 0-8.5-1.3-11.4-4-2.9-2.7-4.4-6.1-4.4-10.5 0-3 .7-5.6 2.2-7.8 1.5-2.2 3.4-3.9 5.8-5s5.1-1.6 8.1-1.6c1.7 0 3.4.2 5.1.5 1.7.4 3.1.8 4.2 1.3l.1.2c-.3.7-.6 2.5-.8 5.4l-.1.2h-.9l-.2-.2-.2-3.3c-.9-.8-2.1-1.3-3.4-1.8-1.3-.4-2.7-.6-4.2-.6-2.2 0-4.2.5-5.9 1.4-1.7.9-3.1 2.3-4.1 4.1-1 1.8-1.4 4-1.4 6.6 0 2.6.6 4.9 1.7 6.8s2.7 3.5 4.6 4.5 4.2 1.6 6.9 1.6c1.2 0 2.3-.1 3.3-.3 1.1-.2 2-.5 2.7-.8.7-.3 1.4-.7 2-1.2l.2.5zM230.9 23.3c0-1.5.3-3 1-4.5.6-1.4 1.7-2.7 3.3-3.7s3.5-1.6 5.6-1.6c2.7 0 5 .9 6.7 2.6s2.6 3.9 2.6 6.6c0 3-1 5.4-3 7.4-2 1.9-4.3 2.9-7.1 2.9-1.8 0-3.4-.5-4.9-1.5-1.4-1-2.5-2.2-3.2-3.6-.7-1.4-1-3-1-4.6zm3.7-1.4c0 1.8.2 3.4.7 4.9.5 1.4 1.2 2.6 2.2 3.5 1 .9 2.2 1.3 3.5 1.3 1.5 0 2.8-.6 3.8-1.8 1-1.2 1.5-3 1.5-5.5 0-2.8-.5-5-1.6-6.8-1.1-1.8-2.6-2.7-4.7-2.7-1.7 0-3 .6-4 1.8-.9 1.3-1.4 3-1.4 5.3zM257.9 13.6l.4.3c-.1.9-.1 1.9-.2 3.1l1.9-1.7c.5-.5.9-.8 1-.9.2-.1.6-.3 1.2-.5s1.3-.3 2-.3c1.3 0 2.4.3 3.4 1 1 .6 1.7 1.5 2.2 2.7 1.8-1.7 2.8-2.6 3.1-2.8.3-.2.8-.4 1.4-.6.6-.2 1.3-.3 1.9-.3 1 0 2 .2 2.8.7.9.4 1.5 1 2 1.7s.8 1.5.9 2.3c.1.8.1 2 .1 3.4v2c0 .2 0 1.8.1 4.9 0 1.2.2 2 .4 2.2.2.2 1 .4 2.4.4l.2.2v.8l-.2.2c-1.7-.1-2.8-.2-3.4-.2-.3 0-1.3.1-2.8.2l-.3-.2c.2-1.7.3-3.9.3-6.6v-2.3c0-2.1-.1-3.5-.3-4.3-.2-.8-.6-1.5-1.4-2-.7-.5-1.6-.8-2.6-.8-.7 0-1.4.1-2 .4-.6.3-1.2.7-1.6 1.2-.5.6-.8 1.1-.8 1.5-.1.5-.1 1.3-.1 2.6v2.4c0 .6 0 1.6.1 3.2s.1 2.5.2 2.7c.1.3.1.4.3.6.1.1.3.2.4.2s.9.1 2.1.2l.2.2v.8l-.2.2c-1.6-.1-3.2-.2-4.7-.2-1.4 0-3 .1-4.7.2l-.2-.2v-.8l.2-.2c1.3-.1 2-.1 2.1-.2.2 0 .3-.1.4-.2.1-.1.2-.3.3-.6 0-.3.1-1.1.2-2.5s.1-2.5.1-3.2v-2.2c0-1.5-.1-2.6-.3-3.4-.2-.8-.6-1.5-1.3-2s-1.5-.8-2.5-.8c-.8 0-1.5.2-2.1.5s-1.2.7-1.6 1.1-.7.9-.8 1.3-.1 1.2-.1 2.5v2.9c0 .6 0 1.6.1 3.2s.1 2.5.2 2.7c.1.3.1.4.3.6.1.1.3.2.4.2.2 0 .9.1 2.1.2l.2.2v.8l-.2.2c-1.6-.1-3.2-.2-4.7-.2s-3.1.1-4.7.2l-.2-.2v-.8l.2-.2c1.3-.1 2-.1 2.1-.2.2 0 .3-.1.4-.2.1-.1.2-.3.3-.6 0-.3.1-1.1.2-2.5s.1-2.5.1-3.2v-3.8c0-.5 0-1.2-.1-2.1s-.1-1.4-.1-1.7c0-.2-.1-.4-.3-.5-.2-.1-.5-.1-1-.1h-1.6l-.2-.2v-.8l.2-.2c2.4-.4 4.5-.9 6.2-1.6zM293.7 13.6l.4.3c-.1.9-.1 1.9-.2 3.1l1.9-1.7c.5-.5.9-.8 1-.9.2-.1.6-.3 1.2-.5s1.3-.3 2-.3c1.3 0 2.4.3 3.4 1 1 .6 1.7 1.5 2.2 2.7 1.8-1.7 2.8-2.6 3.1-2.8.3-.2.8-.4 1.4-.6.6-.2 1.3-.3 1.9-.3 1 0 2 .2 2.8.7s1.5 1 2 1.7.8 1.5.9 2.3c.1.8.1 2 .1 3.4v2c0 .2 0 1.8.1 4.9 0 1.2.2 2 .4 2.2.2.2 1 .4 2.4.4l.2.2v.8l-.2.2c-1.7-.1-2.8-.2-3.4-.2-.3 0-1.3.1-2.8.2l-.3-.2c.2-1.7.3-3.9.3-6.6v-2.3c0-2.1-.1-3.5-.3-4.3-.2-.8-.6-1.5-1.4-2-.7-.5-1.6-.8-2.6-.8-.7 0-1.4.1-2 .4-.6.3-1.2.7-1.6 1.2-.5.6-.8 1.1-.8 1.5-.1.5-.1 1.3-.1 2.6v2.4c0 .6 0 1.6.1 3.2s.1 2.5.2 2.7c.1.3.1.4.3.6s.3.2.4.2.9.1 2.1.2l.2.2v.8l-.2.2c-1.6-.1-3.2-.2-4.7-.2-1.4 0-3 .1-4.7.2l-.2-.2v-.8l.2-.2c1.3-.1 2-.1 2.1-.2.2 0 .3-.1.4-.2.1-.1.2-.3.3-.6 0-.3.1-1.1.2-2.5s.1-2.5.1-3.2v-2.2c0-1.5-.1-2.6-.3-3.4-.2-.8-.6-1.5-1.3-2s-1.5-.8-2.5-.8c-.8 0-1.5.2-2.1.5s-1.2.7-1.6 1.1-.7.9-.8 1.3c-.1.4-.1 1.2-.1 2.5v2.9c0 .6 0 1.6.1 3.2s.1 2.5.2 2.7c.1.3.1.4.3.6.1.1.3.2.4.2s.9.1 2.1.2l.2.2v.8l-.2.2c-1.6-.1-3.2-.2-4.7-.2s-3.1.1-4.7.2l-.2-.2v-.8l.2-.2c1.3-.1 2-.1 2.1-.2.2 0 .3-.1.4-.2.1-.1.2-.3.3-.6 0-.3.1-1.1.2-2.5s.1-2.5.1-3.2v-3.8c0-.5 0-1.2-.1-2.1s-.1-1.4-.1-1.7-.1-.4-.3-.5-.5-.1-1-.1h-1.6l-.2-.2v-.8l.2-.2c2.4-.4 4.5-.9 6.2-1.6zM329.6 13.6l.4.3c-.1 1.7-.2 3.9-.2 6.5v4.4c0 .3 0 1.2.1 2.8.1 1.6.1 2.5.2 2.7.1.3.1.4.3.6.1.1.3.2.4.2.2 0 .9.1 2.1.2l.2.2v.8l-.2.2c-1.6-.1-3.2-.2-4.7-.2s-3.1.1-4.7.2l-.2-.2v-.8l.2-.2c1.3-.1 2-.1 2.1-.2s.3-.1.4-.2c.1-.1.2-.3.3-.6 0-.3.1-1.1.2-2.5s.1-2.5.1-3.2v-3.8c0-.5 0-1.2-.1-2.1s-.1-1.4-.1-1.7-.1-.4-.3-.5-.5-.1-1-.1h-1.6l-.2-.2v-.8l.2-.2c2.3-.4 4.4-.9 6.1-1.6zm-1.7-8.7c.6 0 1.1.2 1.6.6.4.4.6.9.6 1.6 0 .6-.2 1.1-.6 1.5-.4.4-.9.6-1.6.6-.6 0-1.1-.2-1.6-.6-.4-.4-.7-.9-.7-1.6s.2-1.1.7-1.6c.5-.3 1-.5 1.6-.5zM357.1 15.1l-.4 1.6-.2.2h-5l-.1 7.9c0 1.9.1 3.2.2 3.7.1.6.4 1 .8 1.2.4.3.9.4 1.6.4.9 0 1.7-.2 2.4-.7l.5.7c-.3.2-1.1.9-2.2 1.9-.7.3-1.4.5-2.1.5-2.9 0-4.4-1.4-4.4-4.3l.1-3.3v-8.2h-8.5l-.1 7.9c0 1.9.1 3.2.2 3.7.1.6.4 1 .8 1.2.4.3.9.4 1.6.4.9 0 1.7-.2 2.4-.7l.5.7c-.3.2-1.1.9-2.2 1.9-.7.3-1.4.5-2.1.5-2.9 0-4.4-1.4-4.4-4.3l.1-3.3V17h-.8c-.6 0-1.3 0-2 .1l-.2-.2v-.5l.1-.2c1.2-.5 2.2-.9 3-1.3 0-3.4 0-5.4-.1-5.9 1.3-.5 2.4-1 3.3-1.5l.5.4c-.1.8-.3 3.2-.5 7h8.6c0-3.7 0-5.7-.1-5.9 1.3-.5 2.4-1 3.3-1.5l.5.4c-.1.8-.3 3.2-.5 7.1h2.1c1.5 0 2.6 0 3.3-.1v.2zM374.2 29.3l-.6 1.4c-1.4.9-2.6 1.4-3.6 1.7-1.1.3-2 .4-2.8.4-1.6 0-3-.3-4.4-.9-1.4-.6-2.5-1.6-3.4-3.1-.9-1.5-1.3-3.2-1.3-5.3 0-1.4.2-2.6.5-3.7s.7-1.9 1.1-2.4c.4-.5 1-1.1 1.9-1.8.9-.6 1.8-1.2 2.8-1.6s2.1-.6 3.2-.6c1.6 0 2.9.4 4.1 1.1 1.2.7 2 1.7 2.5 2.8.5 1.1.7 2.4.7 3.6 0 .4 0 .8-.1 1.2l-.2.2c-.9.2-2.1.3-3.6.4-1.5.1-2.5.1-3 .1h-6.3c0 2.7.7 4.7 2 5.9 1.3 1.3 3 1.9 4.9 1.9.9 0 1.8-.2 2.6-.5s1.7-.7 2.7-1.3l.3.5zm-12.5-7.9c.2 0 1.1.1 2.7.1 1.6.1 2.7.1 3.5.1 1.8 0 2.9 0 3.3-.1v-.7c0-2-.4-3.5-1.2-4.5-.8-1-1.9-1.5-3.4-1.5s-2.8.6-3.6 1.7c-.9 1-1.3 2.7-1.3 4.9zM393.3 29.3l-.6 1.4c-1.4.9-2.6 1.4-3.6 1.7-1.1.3-2 .4-2.8.4-1.6 0-3-.3-4.4-.9-1.4-.6-2.5-1.6-3.4-3.1-.9-1.5-1.3-3.2-1.3-5.3 0-1.4.2-2.6.5-3.7s.7-1.9 1.1-2.4c.4-.5 1-1.1 1.9-1.8.9-.6 1.8-1.2 2.8-1.6s2.1-.6 3.2-.6c1.6 0 2.9.4 4.1 1.1 1.2.7 2 1.7 2.5 2.8.5 1.1.7 2.4.7 3.6 0 .4 0 .8-.1 1.2l-.2.2c-.9.2-2.1.3-3.6.4-1.5.1-2.5.1-3 .1h-6.3c0 2.7.7 4.7 2 5.9 1.3 1.3 3 1.9 4.9 1.9.9 0 1.8-.2 2.6-.5s1.7-.7 2.7-1.3l.3.5zm-12.5-7.9c.2 0 1.1.1 2.7.1 1.6.1 2.7.1 3.5.1 1.8 0 2.9 0 3.3-.1v-.7c0-2-.4-3.5-1.2-4.5-.8-1-1.9-1.5-3.4-1.5s-2.8.6-3.6 1.7c-.9 1-1.3 2.7-1.3 4.9z"/><g><path class="st0" d="M62 56c0-.9.1-1.7.4-2.5.3-.8.7-1.5 1.3-2.1.6-.7 1.4-1.2 2.2-1.5.9-.4 1.9-.5 2.9-.5 2 0 3.6.6 4.9 1.7s1.8 2.6 1.8 4.5c0 1.3-.3 2.6-.9 3.6-.6 1.1-1.4 1.9-2.5 2.5-1.1.6-2.3.9-3.7.9-1 0-1.9-.2-2.7-.5-.8-.3-1.5-.8-2.1-1.5-.6-.6-1-1.4-1.3-2.2-.1-.9-.3-1.7-.3-2.4zm1.9-.6c0 .7.1 1.5.4 2.3.2.8.6 1.6 1.1 2.2.5.6 1 1 1.6 1.3.6.3 1.3.4 2.1.4.9 0 1.7-.2 2.5-.6.7-.4 1.3-1.1 1.6-2 .4-.9.6-1.9.6-3 0-1.2-.2-2.3-.6-3.3-.4-1-1-1.7-1.8-2.1-.8-.4-1.7-.7-2.6-.7-1.4 0-2.6.5-3.4 1.4-1.1 1-1.5 2.3-1.5 4.1zM79.7 62.2l-.1-.5.1-.1c.4 0 .7 0 .9-.1.2 0 .4-.1.4-.2.1-.1.1-.2.1-.4s0-.6.1-1.3V51c0-.3-.1-.5-.2-.7-.1-.1-.3-.2-.5-.3-.2 0-.5-.1-1-.1v.1-.4l.1-.1h3.1l2.9 3.7 4.2 5.3 1.5 1.8v-6.9V52c0-.7 0-1.1-.1-1.3 0-.2-.1-.3-.2-.4-.1-.1-.2-.1-.4-.1s-.5-.1-.8-.1l-.1-.1v-.4l.1-.1H93.7l.1.1v.4l-.1.1c-.4 0-.7 0-.9.1-.2 0-.3.1-.4.2-.1.1-.1.2-.1.4s0 .6-.1 1.2v10.5c-.3-.1-.8-.2-1.5-.4l-.6-.8-2.1-2.2-6-7.6v8.4c0 .7 0 1.1.1 1.3 0 .1.1.3.1.3s.2.1.3.2c.2 0 .5.1 1 .1l.1.1v.4l-.1.1c-.3 0-.8-.1-1.5-.1-.9-.2-1.7-.1-2.3-.1zM106.4 62.2l-.1-.5.1-.1c.4 0 .7 0 .9-.1.2 0 .4-.1.4-.2.1-.1.1-.2.1-.4s0-.6.1-1.3V51c0-.3-.1-.5-.2-.7-.1-.1-.3-.2-.5-.3-.2 0-.5-.1-1-.1l-.1-.1v-.4l.1-.1h3.1l2.9 3.7 4.2 5.3 1.5 1.8v-6.9-1.4c0-.7 0-1.1-.1-1.3 0-.2-.1-.3-.2-.4-.1-.1-.2-.1-.4-.1s-.5-.1-.8-.1l-.1-.1v-.4l.1-.1H120.3l.1.1v.6l-.1.1c-.4 0-.7 0-.9.1-.2 0-.3.1-.4.2-.1.1-.1.2-.1.4s0 .6-.1 1.2v10.5c-.3-.1-.8-.2-1.5-.4l-.6-.8-1.9-2.3-6.1-7.6v8.4c0 .7 0 1.1.1 1.3 0 .1.1.3.1.3s.2.1.3.2c.2 0 .5.1 1 .1l.1.1v.4l-.1.1c-.3 0-.8-.1-1.5-.1-.9-.1-1.7 0-2.3 0zM124.2 62.2l-.1-.5.1-.1c.4 0 .7 0 .8-.1.1 0 .2-.1.3-.2.1-.1.3-.5.6-1.1l.9-2 2.4-5.5c.5-1.1.9-2.2 1.4-3.2h.6l3.8 9 .5 1.2c.1.3.3.7.5 1.1.2.4.3.6.4.7.1.1.2.1.3.2.1 0 .4.1.7.1l.1.1v.5l-.1.1c-.6-.1-1.2-.1-1.7-.1-1 0-2 .1-3 .1l-.1-.1v-.5l.1-.1c.7 0 1.1 0 1.3-.1.2 0 .3-.1.3-.3 0-.1 0-.3-.1-.5l-1.1-2.7h-5.2l-1 2.3c-.2.4-.3.7-.3.9 0 .1.1.3.2.3.2.1.6.1 1.2.1l.1.1v.5l-.1.1c-.8 0-1.4-.1-2-.1-.5-.3-1.2-.2-1.8-.2zm4-5h4.5l-2.2-5.4-2.3 5.4zM151.1 49.5v2.9l-.1.1h-.4l-.1-.1-.1-.8c0-.4-.1-.7-.1-.8 0-.1-.1-.2-.1-.2-.1 0-.3-.1-.6-.1h-2.8c0 1.3-.1 2.1-.1 2.3V61c0 .2.1.3.1.4.1.1.2.1.3.2.2 0 .6.1 1.2.1l.1.1v.4l-.1.1c-1.5 0-2.4-.1-2.6-.1-.2 0-1 0-2.5.1l-.1-.1v-.4l.1-.1c.6 0 .9-.1 1.1-.1.2 0 .3-.1.4-.1.1-.1.1-.2.2-.4 0-.2.1-.6.1-1.2v-7.1c0-.1 0-.9-.1-2.3h-2.7c-.4 0-.6.1-.7.2-.1.1-.1.4-.2 1l-.1.8-.1.1h-.4l-.1-.1c0-1.4 0-2.4-.1-2.8l.1-.1c1 0 2.8.1 5.2.1 2.6-.1 4.3-.1 5.3-.2zM155.6 49.5h2.5c.2 0 1.1 0 2.6-.1l.1.1v.5l-.1.1c-.4 0-.7 0-1 .1-.2 0-.4.1-.5.1s-.2.2-.2.5V59.7c0 .7 0 1.1.1 1.3s.1.3.1.4c.1.1.2.1.3.2.2 0 .6.1 1.2.1l.1.1v.4l-.1.1s-.6 0-1.6-.1h-1c-.2 0-1 0-2.6.1l-.1-.1v-.4l.1-.1c.6 0 .9-.1 1.1-.1.2 0 .3-.1.4-.1.1-.1.1-.2.2-.4 0-.2.1-.6.1-1.2v-7.7-1.3c0-.2-.1-.3-.1-.4-.1-.1-.2-.1-.3-.2s-.6-.1-1.2-.1l-.1-.1v-.6zM164.7 56c0-.9.1-1.7.4-2.5.3-.8.7-1.5 1.3-2.1.6-.7 1.4-1.2 2.2-1.5.9-.4 1.9-.5 2.9-.5 2 0 3.6.6 4.9 1.7s1.8 2.6 1.8 4.5c0 1.3-.3 2.6-.9 3.6-.6 1.1-1.4 1.9-2.5 2.5-1.1.6-2.3.9-3.7.9-1 0-1.9-.2-2.7-.5-.8-.3-1.5-.8-2.1-1.5-.6-.6-1-1.4-1.3-2.2-.2-.9-.3-1.7-.3-2.4zm1.8-.6c0 .7.1 1.5.4 2.3.2.8.6 1.6 1.1 2.2.5.6 1 1 1.6 1.3.6.3 1.3.4 2.1.4.9 0 1.7-.2 2.5-.6.7-.4 1.3-1.1 1.6-2s.6-1.9.6-3c0-1.2-.2-2.3-.6-3.3-.4-1-1-1.7-1.8-2.1-.8-.4-1.7-.7-2.6-.7-1.4 0-2.6.5-3.4 1.4-1.1 1-1.5 2.3-1.5 4.1zM182.3 62.2l-.1-.5.1-.1c.4 0 .7 0 .9-.1.2 0 .4-.1.4-.2.1-.1.1-.2.1-.4s0-.6.1-1.3V51c0-.3-.1-.5-.2-.7-.1-.1-.3-.2-.5-.3-.2 0-.5-.1-1-.1l-.1-.1v-.4l.1-.1h3.1l2.9 3.7 4.2 5.3 1.5 1.8v-6.9-1.4c0-.7 0-1.1-.1-1.3 0-.2-.1-.3-.2-.4-.1-.1-.2-.1-.4-.1s-.5-.1-.8-.1l-.1-.1v-.4l.1-.1H196.2l.1.1v.6l-.1.1c-.4 0-.7 0-.9.1-.2 0-.3.1-.4.2-.1.1-.1.2-.1.4s0 .6-.1 1.2v10.5c-.3-.1-.8-.2-1.5-.4l-.6-.8-1.9-2.3-6.1-7.6v8.4c0 .7 0 1.1.1 1.3 0 .1.1.3.1.3 0 .1.2.1.3.2.2 0 .5.1 1 .1l.1.1v.4l-.1.1c-.3 0-.8-.1-1.5-.1-.9-.1-1.7 0-2.3 0zM200.1 62.2l-.1-.5.1-.1c.4 0 .7 0 .8-.1.1 0 .2-.1.3-.2.1-.1.3-.5.6-1.1l.9-2 2.4-5.5c.5-1.1.9-2.2 1.4-3.2h.6l3.8 9 .5 1.2c.1.3.3.7.5 1.1.2.4.3.6.4.7.1.1.2.1.3.2.1 0 .4.1.7.1l.1.1v.5l-.1.1c-.6-.1-1.2-.1-1.7-.1-1 0-2 .1-3 .1l-.1-.1v-.5l.1-.1c.7 0 1.1 0 1.3-.1.2 0 .3-.1.3-.3 0-.1 0-.3-.1-.5L209 58h-5.2l-1 2.3c-.2.4-.3.7-.3.9 0 .1.1.3.2.3s.6.1 1.2.1l.1.1v.5l-.1.1c-.8 0-1.4-.1-2-.1-.5-.1-1.2 0-1.8 0zm4-5h4.5l-2.2-5.4-2.3 5.4zM217.4 49.6h2.6c.2 0 1.1 0 2.6-.1l.1.1v.4l-.1.1c-.4 0-.7 0-1 .1-.2 0-.4.1-.5.1s-.2.2-.2.5v10.7h1.8c1.5 0 2.4 0 2.7-.1.4 0 .7-.1 1-.3.1-.1.2-.5.3-1 .1-.5.2-.8.2-.9l.1-.1h.4l.1.1c0 .2-.1.7-.1 1.4-.1.7-.1 1.2-.1 1.7l-.1.1c-1.1 0-2.6-.1-4.5-.1h-2.6c-.6 0-1.2 0-1.8.1l-.1-.1V62l.1-.1.6-.3s.1-.4.1-1.2c0-.7.1-1.6.1-2.6v-5.5V51c0-.2-.1-.3-.1-.4-.1-.1-.2-.1-.3-.2s-.6-.1-1.2-.1l-.1-.1v-.6zM240.1 49.6h2.6c.2 0 1.1 0 2.6-.1l.1.1v.4l-.1.1c-.4 0-.7 0-1 .1-.2 0-.4.1-.5.1s-.2.2-.2.5v10.7h1.8c1.5 0 2.4 0 2.7-.1.4 0 .7-.1 1-.3.1-.1.2-.5.3-1 .1-.5.2-.8.2-.9l.1-.1h.4l.1.1c0 .2-.1.7-.1 1.4-.1.7-.1 1.2-.1 1.7l-.1.1c-1.1 0-2.6-.1-4.5-.1h-2.6c-.6 0-1.2 0-1.8.1l-.1-.1V62l.1-.1.6-.3s.1-.4.1-1.2c0-.7.1-1.6.1-2.6v-5.5V51c0-.2-.1-.3-.1-.4-.1-.1-.2-.1-.3-.2s-.6-.1-1.2-.1l-.1-.1v-.6zM254.8 49.6h4c2 0 3.7 0 5.2-.1v.1c-.1.6-.3 1.5-.3 2.7l-.1.1h-.4l-.1-.1v-.1c0-.5 0-1-.1-1.4-.4-.2-.9-.3-1.6-.3-.7-.1-1.2-.1-1.5-.1-.5 0-1.1 0-1.8.1v4.8c.6 0 1.2.1 1.8.1.5 0 1 0 1.4-.1.4 0 .6-.1.6-.1.1 0 .1-.1.1-.2s.1-.3.1-.6v-.6l.1-.1h.4l.1.1v4l-.1.1h-.4l-.1-.1-.1-.5c-.1-.4-.1-.7-.1-.7 0-.1-.1-.2-.2-.2-.1-.1-.3-.1-.7-.1-.4 0-.8-.1-1.5-.1h-1.6v5.3h1.6c1.4 0 2.4 0 2.7-.1.4 0 .7-.1 1-.3.1-.1.1-.5.3-1 .1-.5.2-.8.2-.9l.1-.1h.4l.1.1c-.1.3-.1.7-.2 1.3-.1.6-.1 1.2-.1 1.6l-.1.1c-1.1 0-2.6-.1-4.5-.1H257c-.6 0-1.2 0-1.8.1l-.1-.1v-.3l.1-.1.6-.3c.1 0 .1-.6.1-1.6v-7.6-1.1c0-.3 0-.5-.1-.6s-.1-.2-.1-.3c0 0-.1-.1-.2-.1s-.2-.1-.4-.1l-.7-.1-.1-.1v-.2zM281.9 57.3v.4l-.4.3c-.1.1-.2.1-.2.2s0 .2-.1.5v1.2c0 .5 0 1.1.1 1.7l-.1.1c-1.6.6-3.3.9-5 .9-1.3 0-2.5-.3-3.6-.8s-1.9-1.2-2.5-2.2-.9-2.2-.9-3.5c0-2.1.7-3.7 2.1-4.9 1.4-1.2 3.2-1.8 5.5-1.8 1.7 0 3.2.3 4.5.8l.1.1c-.1.4-.2 1.2-.4 2.5l-.1.1h-.4l-.1-.1v-.9c0-.3 0-.5-.1-.5 0-.1-.1-.1-.2-.2s-.4-.2-.8-.4-.9-.3-1.3-.4-.9-.1-1.4-.1c-1.1 0-2.1.2-2.9.7-.8.5-1.5 1.1-1.9 2-.4.9-.6 1.8-.6 2.9 0 1.1.2 2.1.7 3.1.5.9 1.1 1.7 2 2.2.9.5 1.9.8 3 .8.5 0 1 0 1.5-.1s.9-.2 1.3-.4c.1-.2.1-.6.1-1.2v-1c0-.5 0-.8-.1-.9-.1-.1-.2-.2-.4-.2s-.7-.1-1.5-.1l-.1-.1v-.4l.1-.1h2.8c0-.2.5-.3 1.3-.2zM286.1 49.5h2.5c.2 0 1.1 0 2.6-.1l.1.1v.5l-.1.1c-.4 0-.7 0-1 .1-.2 0-.4.1-.5.1s-.2.2-.2.5V59.7c0 .7 0 1.1.1 1.3s.1.3.1.4c.1.1.2.1.3.2.2 0 .6.1 1.2.1l.1.1v.4l-.1.1s-.6 0-1.6-.1h-1c-.2 0-1 0-2.6.1l-.1-.1v-.4l.1-.1c.6 0 .9-.1 1.1-.1.2 0 .3-.1.4-.1.1-.1.1-.2.2-.4 0-.2.1-.6.1-1.2v-7.7-1.3c0-.2-.1-.3-.1-.4-.1-.1-.2-.1-.3-.2-.2 0-.6-.1-1.2-.1l-.2-.2.1-.5zM295.8 59.1l.5-.1.1.1c0 .8.1 1.2.1 1.4.1.2.2.3.5.5s.6.3 1.1.5c.4.1.9.2 1.4.2.6 0 1.2-.1 1.7-.3.5-.2.9-.6 1.2-1 .3-.5.4-1 .4-1.5 0-.4-.1-.7-.2-1-.1-.3-.3-.5-.6-.7-.2-.2-.5-.3-.8-.4-.3-.1-.8-.2-1.4-.3-.6-.1-1.1-.2-1.4-.3-.3-.1-.7-.2-1-.4-.3-.2-.6-.4-.8-.6-.2-.2-.4-.6-.5-.9-.1-.4-.2-.7-.2-1.2 0-1.1.4-2 1.2-2.7.8-.7 1.8-1.1 3.1-1.1.5 0 1.1.1 1.7.2.6.1 1.2.3 1.7.6l.1.1c-.1.5-.2 1.3-.2 2.3l-.1.1h-.5l-.1-.1c0-.7 0-1.2-.1-1.4 0-.2-.3-.4-.8-.7-.5-.3-1.1-.4-1.7-.4-.5 0-1 .1-1.4.3-.4.2-.8.5-1 1s-.3.9-.3 1.3.1.7.2.9.3.5.5.6c.2.2.5.3.8.4.3.1.8.2 1.6.3 1.1.1 1.8.3 2.3.5.5.2.9.5 1.2 1 .3.5.4 1 .4 1.7 0 1.3-.5 2.3-1.6 3.2-1 .8-2.3 1.3-3.8 1.3-1.2 0-2.3-.2-3.2-.7l-.1-.1v-2.6zM308.2 49.6h2.6c.2 0 1.1 0 2.6-.1l.1.1v.4l-.1.1c-.4 0-.7 0-1 .1-.2 0-.4.1-.5.1s-.2.2-.2.5v10.7h1.8c1.5 0 2.4 0 2.7-.1.4 0 .7-.1 1-.3.1-.1.2-.5.3-1 .1-.5.2-.8.2-.9l.1-.1h.4l.1.1c0 .2-.1.7-.1 1.4-.1.7-.1 1.2-.1 1.7l-.1.1c-1.1 0-2.6-.1-4.5-.1h-2.6c-.6 0-1.2 0-1.8.1l-.1-.1V62l.1-.1.6-.3s.1-.4.1-1.2c0-.7.1-1.6.1-2.6v-5.5V51c0-.2-.1-.3-.1-.4-.1-.1-.2-.1-.3-.2-.2 0-.6-.1-1.2-.1l-.1-.1v-.6zM322.9 62.2l-.1-.5.1-.1c.4 0 .7 0 .8-.1.1 0 .2-.1.3-.2.1-.1.3-.5.6-1.1l.9-2 2.4-5.5c.5-1.1.9-2.2 1.4-3.2h.6l3.8 9 .5 1.2c.1.3.3.7.5 1.1.2.4.3.6.4.7.1.1.2.1.3.2.1 0 .4.1.7.1l.1.1v.5l-.1.1c-.6-.1-1.2-.1-1.7-.1-1 0-2 .1-3 .1l-.1-.1v-.5l.1-.1c.7 0 1.1 0 1.3-.1.2 0 .3-.1.3-.3 0-.1 0-.3-.1-.5l-1.1-2.7h-5.2l-1 2.3c-.2.4-.3.7-.3.9 0 .1.1.3.2.3.2.1.6.1 1.2.1l.1.1v.5l-.1.1c-.8 0-1.4-.1-2-.1-.5-.3-1.2-.2-1.8-.2zm4-5h4.5l-2.2-5.4-2.3 5.4zM349.8 49.5v2.9l-.1.1h-.4l-.1-.1-.1-.8c0-.4-.1-.7-.1-.8 0-.1-.1-.2-.1-.2-.1 0-.3-.1-.6-.1h-2.8c0 1.3-.1 2.1-.1 2.3V61c0 .2.1.3.1.4.1.1.2.1.3.2.2 0 .6.1 1.2.1l.1.1v.4l-.1.1c-1.5 0-2.4-.1-2.6-.1-.2 0-1 0-2.5.1l-.1-.1v-.4l.1-.1c.6 0 .9-.1 1.1-.1.2 0 .3-.1.4-.1.1-.1.1-.2.2-.4 0-.2.1-.6.1-1.2v-7.1c0-.1 0-.9-.1-2.3h-2.7c-.4 0-.6.1-.7.2-.1.1-.1.4-.2 1l-.1.8-.1.1h-.4l-.1-.1c0-1.4 0-2.4-.1-2.8l.1-.1c1 0 2.8.1 5.2.1 2.6-.1 4.3-.1 5.3-.2zM354.3 49.5h2.5c.2 0 1.1 0 2.6-.1l.1.1v.5l-.1.1c-.4 0-.7 0-1 .1-.2 0-.4.1-.5.1s-.2.2-.2.5V59.7c0 .7 0 1.1.1 1.3 0 .2.1.3.1.4.1.1.2.1.3.2.2 0 .6.1 1.2.1l.1.1v.4l-.1.1s-.6 0-1.6-.1h-1c-.2 0-1 0-2.6.1l-.1-.1v-.4l.1-.1c.6 0 .9-.1 1.1-.1.2 0 .3-.1.4-.1.1-.1.1-.2.2-.4 0-.2.1-.6.1-1.2v-7.7-1.3c0-.2-.1-.3-.1-.4-.1-.1-.2-.1-.3-.2-.2 0-.6-.1-1.2-.1l-.1-.1v-.6zM363.3 56c0-.9.1-1.7.4-2.5.3-.8.7-1.5 1.3-2.1.6-.7 1.4-1.2 2.2-1.5.9-.4 1.9-.5 2.9-.5 2 0 3.6.6 4.9 1.7 1.2 1.1 1.8 2.6 1.8 4.5 0 1.3-.3 2.6-.9 3.6s-1.4 1.9-2.5 2.5c-1.1.6-2.3.9-3.7.9-1 0-1.9-.2-2.7-.5-.8-.3-1.5-.8-2.1-1.5-.6-.6-1-1.4-1.3-2.2-.1-.9-.3-1.7-.3-2.4zm1.9-.6c0 .7.1 1.5.4 2.3.2.8.6 1.6 1.1 2.2.5.6 1 1 1.6 1.3.6.3 1.3.4 2.1.4.9 0 1.7-.2 2.5-.6.7-.4 1.3-1.1 1.6-2s.6-1.9.6-3c0-1.2-.2-2.3-.6-3.3-.4-1-1-1.7-1.8-2.1-.8-.4-1.7-.7-2.6-.7-1.4 0-2.6.5-3.4 1.4-1.1 1-1.5 2.3-1.5 4.1zM380.9 62.2l-.1-.5.1-.1c.4 0 .7 0 .9-.1.2 0 .4-.1.4-.2.1-.1.1-.2.1-.4s0-.6.1-1.3V51c0-.3-.1-.5-.2-.7-.1-.1-.3-.2-.5-.3-.2 0-.5-.1-1-.1l-.1-.1v-.4l.1-.1h3.1l2.9 3.7 4.2 5.3 1.5 1.8v-6.9-1.4c0-.7 0-1.1-.1-1.3 0-.2-.1-.3-.2-.4-.1-.1-.2-.1-.4-.1s-.5-.1-.8-.1l.1.1v-.4l.1-.1H395l.1.1v.4l-.1.1c-.4 0-.7 0-.9.1-.2 0-.3.1-.4.2-.1.1-.1.2-.1.4s0 .6-.1 1.2v10.5c-.3-.1-.8-.2-1.5-.4l-.6-.8-1.9-2.3-6.1-7.6v8.4c0 .7 0 1.1.1 1.3 0 .1.1.3.1.3 0 .1.2.1.3.2.2 0 .5.1 1 .1l.1.1v.4l-.1.1c-.3 0-.8-.1-1.5-.1-1-.1-1.8 0-2.5 0z"/></g><g><path class="st0" d="M0 0v29.5s1.9-3.3 7.4-3.6c5.6-.3 7.5.2 7.5.2s-.4-11.6 5.1-18S35-.1 35-.1"/><path class="st0" d="M42.8 26.3V2.9S42.6 1 39.3.6c-5.3-.7-17 4.6-16.1 15.2.9 10.6 8.7 10.5 9.7 10.5h9.9zM42.7 28.1v37.2H3.9s10.6-3.8 13.4-7.9c2.8-4.1 4.8-6.3 6.5-15.5 1.7-9.1 9.9-12.5 18.9-13.8"/><path class="st0" d="M15.6 41.9c-.3-8.2-5.5-14.7-15.5-10.8L0 65.2S16.2 60 15.6 41.9"/></g></svg>
