<?xml version="1.0" encoding="utf-8"?>
<!-- Generator: Adobe Illustrator 15.0.0, SVG Export Plug-In  -->
<!DOCTYPE svg PUBLIC "-//W3C//DTD SVG 1.1//EN" "http://www.w3.org/Graphics/SVG/1.1/DTD/svg11.dtd" [
	<!ENTITY ns_flows "http://ns.adobe.com/Flows/1.0/">
]>
<svg version="1.1"
	 xmlns="http://www.w3.org/2000/svg" xmlns:xlink="http://www.w3.org/1999/xlink" xmlns:a="http://ns.adobe.com/AdobeSVGViewerExtensions/3.0/"
	 x="0px" y="0px" width="40px" height="40px" viewBox="0 0 40 40" enable-background="new 0 0 40 40" xml:space="preserve">
<defs>
</defs>
<path fill="#fff" d="M25.072,28.806c-2.6,1.851-5.773,2.938-9.2,2.938C7.106,31.745,0,24.638,0,15.872S7.106,0,15.872,0
	s15.872,7.106,15.872,15.872c0,3.428-1.088,6.602-2.941,9.202L39.229,35.5c1.032,1.025,1.021,2.669,0,3.687l-0.043,0.045
	c-1.017,1.018-2.669,1.02-3.688,0L25.072,28.806L25.072,28.806z M15.872,28.007c6.702,0,12.135-5.433,12.135-12.135
	S22.574,3.734,15.872,3.734c-6.705,0-12.139,5.436-12.139,12.138S9.167,28.007,15.872,28.007L15.872,28.007z"/>
</svg>
