<?xml version="1.0" encoding="utf-8"?>
<!-- Generator: Adobe Illustrator 15.0.0, SVG Export Plug-In . SVG Version: 6.00 Build 0)  -->
<!DOCTYPE svg PUBLIC "-//W3C//DTD SVG 1.1//EN" "http://www.w3.org/Graphics/SVG/1.1/DTD/svg11.dtd">
<svg version="1.1" id="Layer_1" xmlns="http://www.w3.org/2000/svg" xmlns:xlink="http://www.w3.org/1999/xlink" x="0px" y="0px"
	 width="30px" height="30px" viewBox="0 0 30 30" enable-background="new 0 0 30 30" xml:space="preserve">
<g>
	<g>
		<path fill="#CE0099" d="M17.125,14.688l-2.938-2.125c-0.125-0.062-0.25-0.062-0.375,0s-0.188,0.188-0.188,0.312v4.25
			c0,0.125,0.062,0.25,0.188,0.312C13.875,17.5,13.938,17.5,14,17.5s0.125,0,0.188-0.062l2.938-2.125
			C17.25,15.25,17.312,15.125,17.25,15C17.25,14.875,17.188,14.75,17.125,14.688z M15,0C6.716,0,0,6.716,0,15s6.716,15,15,15
			s15-6.716,15-15S23.284,0,15,0z M22,18.438c-0.062,0.062-0.062,0.125-0.062,0.188v0.062c-0.188,0.562-0.688,0.938-1.312,0.938
			h0.125c0,0-2.5,0.375-5.75,0.375c-3.312,0-5.75-0.375-5.75-0.375h0.125c-0.625,0-1.125-0.375-1.312-0.938v-0.062
			C8,18.562,8,18.5,8,18.438C7.938,17.812,7.75,16.5,7.75,15S7.938,12.188,8,11.562c0.062-0.062,0.062-0.125,0.062-0.188v-0.062
			c0.188-0.562,0.688-0.938,1.312-0.938H9.25c0,0,2.5-0.375,5.75-0.375c3.312,0,5.75,0.375,5.75,0.375h-0.125
			c0.625,0,1.125,0.375,1.312,0.938v0.062C22,11.438,22,11.5,22,11.562c0.125,0.625,0.25,1.938,0.25,3.438S22.062,17.812,22,18.438z
			"/>
	</g>
</g>
</svg>
