<?xml version="1.0" encoding="utf-8"?>
<!-- Generator: Adobe Illustrator 15.0.0, SVG Export Plug-In . SVG Version: 6.00 Build 0)  -->
<!DOCTYPE svg PUBLIC "-//W3C//DTD SVG 1.1//EN" "http://www.w3.org/Graphics/SVG/1.1/DTD/svg11.dtd">
<svg version="1.1" id="Layer_1" xmlns="http://www.w3.org/2000/svg" xmlns:xlink="http://www.w3.org/1999/xlink" x="0px" y="0px"
	 width="30px" height="29.998px" viewBox="13.347 14.781 30 29.998" enable-background="new 13.347 14.781 30 29.998"
	 xml:space="preserve">
<path fill="#CE0099" d="M28.348,14.781c-8.285,0-15,6.716-15,15s6.715,14.998,15,14.998c8.283,0,15-6.715,15-14.998
	S36.631,14.781,28.348,14.781z M32.316,29.718h-2.598c0,4.15,0,9.264,0,9.264h-3.85c0,0,0-5.061,0-9.264h-1.831v-3.27h1.831V24.33
	c0-1.518,0.72-3.886,3.886-3.886l2.851,0.011v3.178c0,0-1.732,0-2.068,0c-0.338,0-0.816,0.168-0.816,0.89v1.927h2.936L32.316,29.718
	z"/>
</svg>
