<?xml version="1.0" encoding="utf-8"?>
<!-- Generator: Adobe Illustrator 15.0.0, SVG Export Plug-In . SVG Version: 6.00 Build 0)  -->
<!DOCTYPE svg PUBLIC "-//W3C//DTD SVG 1.1//EN" "http://www.w3.org/Graphics/SVG/1.1/DTD/svg11.dtd">
<svg version="1.1" id="Layer_1" xmlns="http://www.w3.org/2000/svg" xmlns:xlink="http://www.w3.org/1999/xlink" x="0px" y="0px"
	 width="30px" height="30px" viewBox="0 0 30 30" enable-background="new 0 0 30 30" xml:space="preserve">
<path fill="#CE0099" d="M15,0C6.716,0,0,6.715,0,15.001c0,6.142,3.692,11.418,8.978,13.737c-0.042-1.048-0.007-2.304,0.262-3.443
	c0.288-1.218,1.93-8.174,1.93-8.174s-0.479-0.957-0.479-2.373c0-2.223,1.289-3.883,2.893-3.883c1.365,0,2.023,1.024,2.023,2.251
	c0,1.372-0.875,3.424-1.324,5.323c-0.376,1.592,0.798,2.89,2.367,2.89c2.842,0,4.757-3.649,4.757-7.976
	c0-3.287-2.215-5.748-6.241-5.748c-4.551,0-7.385,3.393-7.385,7.184c0,1.307,0.385,2.228,0.989,2.942
	c0.276,0.326,0.316,0.459,0.216,0.834c-0.072,0.276-0.237,0.942-0.306,1.205c-0.1,0.381-0.408,0.517-0.751,0.376
	c-2.096-0.855-3.072-3.15-3.072-5.731c0-4.261,3.593-9.37,10.72-9.37c5.727,0,9.496,4.145,9.496,8.594
	c0,5.883-3.271,10.279-8.093,10.279c-1.619,0-3.143-0.876-3.664-1.868c0,0-0.871,3.456-1.055,4.122
	c-0.318,1.157-0.941,2.312-1.511,3.214C12.099,29.783,13.523,30,15.001,30C23.283,30,30,23.285,30,15.001
	C29.999,6.715,23.282,0,15,0z"/>
</svg>
