<?xml version="1.0" encoding="utf-8"?>
<!-- Generator: Adobe Illustrator 15.0.0, SVG Export Plug-In . SVG Version: 6.00 Build 0)  -->
<!DOCTYPE svg PUBLIC "-//W3C//DTD SVG 1.1//EN" "http://www.w3.org/Graphics/SVG/1.1/DTD/svg11.dtd">
<svg version="1.1" id="Layer_1" xmlns="http://www.w3.org/2000/svg" xmlns:xlink="http://www.w3.org/1999/xlink" x="0px" y="0px"
	 width="30px" height="30px" viewBox="13.347 14.781 30 30" enable-background="new 13.347 14.781 30 30" xml:space="preserve">
<g>
	<path fill="#CE0099" d="M25.553,28.672c0.383,0,0.706-0.15,0.956-0.438c0.394-0.445,0.565-1.178,0.464-1.957
		c-0.185-1.394-1.178-2.551-2.216-2.582h-0.041c-0.368,0-0.696,0.15-0.944,0.437c-0.389,0.442-0.551,1.14-0.448,1.917
		c0.182,1.391,1.196,2.592,2.214,2.624L25.553,28.672L25.553,28.672z"/>
	<path fill="#CE0099" d="M26.688,32.867c-0.104-0.068-0.209-0.143-0.317-0.217c-0.32-0.1-0.661-0.149-1.009-0.154h-0.043
		c-1.6,0-3.002,0.97-3.002,2.074c0,1.201,1.201,2.144,2.735,2.144c2.023,0,3.05-0.696,3.05-2.073c0-0.131-0.017-0.266-0.047-0.398
		C27.918,33.705,27.427,33.371,26.688,32.867z"/>
	<path fill="#CE0099" d="M28.348,14.781c-8.287,0-15,6.715-15,14.999s6.715,15.001,15,15.001c8.283,0,15-6.717,15-15.001
		C43.346,21.496,36.63,14.781,28.348,14.781z M26.982,37.943c-0.599,0.172-1.244,0.261-1.922,0.261
		c-0.754,0-1.479-0.088-2.156-0.259c-1.309-0.329-2.278-0.956-2.729-1.764c-0.195-0.351-0.294-0.722-0.294-1.105
		c0-0.396,0.095-0.801,0.282-1.199c0.718-1.527,2.609-2.557,4.704-2.557c0.021,0,0.042,0,0.062,0
		c-0.17-0.301-0.253-0.609-0.253-0.937c0-0.163,0.021-0.329,0.063-0.495c-2.196-0.053-3.842-1.66-3.842-3.781
		c0-1.5,1.197-2.959,2.91-3.549c0.514-0.177,1.035-0.267,1.549-0.267h4.699c0.16,0,0.301,0.104,0.352,0.255
		c0.052,0.154-0.006,0.32-0.135,0.414l-1.051,0.76c-0.063,0.045-0.141,0.07-0.219,0.07h-0.375c0.486,0.582,0.771,1.411,0.771,2.344
		c0,1.03-0.521,2.004-1.469,2.746c-0.731,0.57-0.762,0.727-0.762,1.053c0.01,0.181,0.521,0.764,1.082,1.16
		c1.311,0.928,1.799,1.836,1.799,3.355C30.049,36.03,28.844,37.402,26.982,37.943z M37.594,29.883c0,0.204-0.167,0.368-0.369,0.368
		h-2.67v2.672c0,0.205-0.166,0.369-0.369,0.369h-0.762c-0.203,0-0.369-0.164-0.369-0.369v-2.672h-2.672
		c-0.201,0-0.369-0.164-0.369-0.368v-0.762c0-0.203,0.168-0.37,0.369-0.37h2.672v-2.67c0-0.205,0.164-0.369,0.369-0.369h0.76
		c0.205,0,0.371,0.165,0.371,0.369v2.67h2.67c0.202,0,0.368,0.167,0.368,0.37L37.594,29.883L37.594,29.883z"/>
</g>
</svg>
