<?xml version="1.0" encoding="utf-8"?>
<!-- Generator: Adobe Illustrator 21.0.0, SVG Export Plug-In . SVG Version: 6.00 Build 0)  -->
<svg version="1.1" id="Layer_1" xmlns="http://www.w3.org/2000/svg" xmlns:xlink="http://www.w3.org/1999/xlink" x="0px" y="0px"
	 viewBox="0 0 434.5 86.3" style="enable-background:new 0 0 434.5 86.3;" xml:space="preserve">
<style type="text/css">
	.st0{fill:#00527E;}
</style>
<g>
	<g>
		<path class="st0" d="M0,86.4h16.3c24.4,0,26.4-18.2,26.4-43.2C42.7,17,40.2,0,13.7,0H0V86.4z M15.8,13.4
			c9.9,0.1,10.4,3.6,10.4,29.7c0,26.2-0.5,29.8-10.4,29.9C15.8,73,15.8,13.4,15.8,13.4z"/>
		<path class="st0" d="M82.6,59.2V53c0-12.1-3.8-29.5-18-29.6c-11,0-19.5,8.4-19.5,31.4s8.5,31.4,19.5,31.4
			c9.6,0,16.1-5.7,18.2-17.1l-9.8-2.9c-1.3,4.1-2.3,8.4-7.4,8.4c-2.9,0-5.5-2.2-5.5-12.7v-2.7C60,59.2,82.6,59.2,82.6,59.2z
			 M60.2,48.3v-1.7c0-9.3,1.2-12.2,4.4-12.2c3.4,0,4.7,3.4,4.7,12.2v1.7H60.2z"/>
		<path class="st0" d="M147.8,59.2V53c0-12.1-3.8-29.5-18-29.6c-11,0-19.5,8.4-19.5,31.4s8.5,31.4,19.5,31.4
			c9.6,0,16.1-5.7,18.2-17.1l-9.8-2.9c-1.3,4.1-2.3,8.4-7.4,8.4c-2.9,0-5.5-2.2-5.5-12.7v-2.7C125.2,59.2,147.8,59.2,147.8,59.2z
			 M125.3,48.3v-1.7c0-9.3,1.2-12.2,4.4-12.2c3.4,0,4.7,3.4,4.7,12.2v1.7H125.3z"/>
		<path class="st0" d="M263.1,59.2V53c0-12.1-3.8-29.5-18-29.6c-11,0-19.5,8.4-19.5,31.4s8.5,31.4,19.5,31.4
			c9.6,0,16.1-5.7,18.2-17.1l-9.8-2.9c-1.3,4.1-2.3,8.4-7.4,8.4c-2.9,0-5.5-2.2-5.5-12.7v-2.7C240.7,59.2,263.1,59.2,263.1,59.2z
			 M240.8,48.3v-1.7c0-9.3,1.2-12.2,4.4-12.2c3.4,0,4.7,3.4,4.7,12.2v1.7H240.8z"/>
		<path class="st0" d="M89.4,86.3h14V36.7h8.1V25.9h-8.1v-9c0-3.4,1.9-5.7,7.2-5.7h1.5V0.4c-2.4-0.5-5.8-0.7-8.1-0.7
			c-9.8,0-14.4,5.2-14.4,13.6v12.6h-6.9v10.8h6.9v49.6H89.4z"/>
		<path class="st0" d="M150.6,86.3h14V38.4c1-1.2,2.8-2.3,4.7-2.3c2.4,0,4,1.5,4,6.1v44.1h14V37.1c0-8-3.1-12.6-9.8-12.6
			c-5.2,0-9.4,3.4-12.7,6.8h-0.2v-5.8h-14V86.3z"/>
		<path class="st0" d="M222.6,39.7c-0.8-9.1-5.7-16.2-15.5-16.2s-16.7,7.2-16.7,16.9c0,20.6,21.7,21.2,21.7,30.8c0,2.8-1.8,5-4.7,5
			c-4.6,0-6-2.7-7-9.2l-11,1.7c1.2,10.8,5.9,17.7,17.4,17.7c10.9,0,17.9-7.4,17.9-17.9c0-18.5-22.7-19.5-22.7-29.5
			c0-2.7,1.6-5.2,4.2-5.2c4.8,0,5.7,4,6.2,7.8L222.6,39.7z"/>
	</g>
	<g>
		<polygon points="266.4,86.3 279.6,86.3 279.6,34 279.9,34 296.6,86.3 309,86.3 309,0 296.4,0 296.4,45.6 296,45.6 281.6,0 
			266.4,0 		"/>
		<path d="M348.6,59.2V53c0-12.1-3.8-29.5-18-29.6c-11,0-19.5,8.4-19.5,31.4s8.5,31.4,19.5,31.4c9.6,0,16.1-5.7,18.2-17.1l-9.8-2.9
			c-1.3,4.1-2.3,8.4-7.4,8.4c-2.9,0-5.5-2.2-5.5-12.7v-2.7C326.2,59.2,348.6,59.2,348.6,59.2z M326.2,48.3v-1.7
			c0-9.3,1.2-12.2,4.4-12.2c3.4,0,4.7,3.4,4.7,12.2v1.7H326.2z"/>
		<polygon points="356.2,85.3 368.2,85.3 373.9,50.1 374.1,50.1 379.5,85.3 391.4,85.3 400.5,24.4 390.2,24.4 385.9,56.7 
			385.6,56.7 380.6,24.4 369.6,24.4 364.2,56.7 364,56.7 360.5,24.4 347.9,24.4 		"/>
		<path d="M432.4,39.7c-0.9-9.1-5.7-16.2-15.6-16.2S400,30.7,400,40.4c0,20.6,22,21.2,22,30.8c0,2.8-1.8,5-4.8,5
			c-4.6,0-6.1-2.7-7.1-9.2L399,68.7c1.2,10.8,6,17.7,17.6,17.7c11,0,18-7.4,18-17.9c0-18.5-22.9-19.5-22.9-29.5
			c0-2.7,1.6-5.2,4.3-5.2c4.9,0,5.7,4,6.2,7.8L432.4,39.7z"/>
	</g>
</g>
</svg>
