<?xml version="1.0" encoding="utf-8"?>
<!-- Generator: Adobe Illustrator 21.0.0, SVG Export Plug-In . SVG Version: 6.00 Build 0)  -->
<svg version="1.1" id="Layer_1" xmlns="http://www.w3.org/2000/svg" xmlns:xlink="http://www.w3.org/1999/xlink" x="0px" y="0px"
	 viewBox="0 0 32 32" style="enable-background:new 0 0 32 32;" xml:space="preserve">
<style type="text/css">
	.st0{fill:#FFFFFF;}
</style>
<title>linkedin-blue</title>
<path class="st0" d="M7.3,10.6v20.6H0.4V10.6L7.3,10.6z M7.7,4.3c0,1-0.3,1.9-1,2.5c-0.8,0.7-1.8,1.1-2.8,1c-1,0.1-2.1-0.3-2.9-1
	C0.3,6.1,0,5.2,0,4.3c0-1,0.4-1.9,1.1-2.5c0.8-0.7,1.8-1,2.8-1c1-0.1,2,0.3,2.8,1C7.3,2.4,7.7,3.3,7.7,4.3L7.7,4.3z M32,19.5v11.8
	h-6.9v-11c0.1-1.2-0.2-2.4-0.8-3.4c-0.6-0.8-1.6-1.3-2.6-1.2c-0.8,0-1.6,0.2-2.2,0.7c-0.6,0.5-1,1.1-1.3,1.8
	c-0.2,0.5-0.3,1.1-0.2,1.7v11.5h-6.9c0-5.5,0-10,0-13.5s0-5.5,0-6.2v-1h6.9v3c0.3-0.4,0.5-0.8,0.9-1.2c0.4-0.4,0.8-0.8,1.2-1.1
	c0.5-0.4,1.1-0.7,1.8-0.9c0.8-0.2,1.6-0.3,2.4-0.3c2.2-0.1,4.3,0.8,5.7,2.4C31.3,14.1,32,16.4,32,19.5z"/>
</svg>
