<?xml version="1.0" encoding="utf-8"?>
<!-- Generator: Adobe Illustrator 15.0.0, SVG Export Plug-In . SVG Version: 6.00 Build 0)  -->
<!DOCTYPE svg PUBLIC "-//W3C//DTD SVG 1.1//EN" "http://www.w3.org/Graphics/SVG/1.1/DTD/svg11.dtd">
<svg version="1.1" id="Layer_1" xmlns="http://www.w3.org/2000/svg" xmlns:xlink="http://www.w3.org/1999/xlink" x="0px" y="0px"
	 width="30px" height="30px" viewBox="0 0 30 30" enable-background="new 0 0 30 30" xml:space="preserve">
<path fill="#CE0099" d="M15,0C6.716,0,0,6.716,0,15s6.716,15,15,15s15-6.716,15-15S23.284,0,15,0z M21.433,23.48
	c-0.841,0.397-1.604,0.675-2.285,0.835c-0.682,0.159-1.42,0.238-2.213,0.238c-0.899,0-1.694-0.112-2.387-0.341
	c-0.691-0.229-1.281-0.552-1.771-0.972c-0.488-0.421-0.827-0.868-1.016-1.344c-0.188-0.473-0.282-1.159-0.282-2.059v-6.908H9.303
	v-2.786c0.773-0.251,1.437-0.612,1.986-1.08c0.554-0.47,0.995-1.033,1.328-1.69c0.335-0.658,0.564-1.494,0.69-2.511h2.801v0.001
	V9.84h4.672v3.092h-4.672v5.05c0,1.142,0.06,1.874,0.181,2.198c0.121,0.323,0.345,0.581,0.676,0.775
	c0.436,0.262,0.933,0.394,1.494,0.394c0.996,0,1.988-0.326,2.974-0.974V23.48z"/>
</svg>
