<?xml version="1.0" encoding="utf-8"?>
<!-- Generator: Adobe Illustrator 15.0.0, SVG Export Plug-In . SVG Version: 6.00 Build 0)  -->
<!DOCTYPE svg PUBLIC "-//W3C//DTD SVG 1.1//EN" "http://www.w3.org/Graphics/SVG/1.1/DTD/svg11.dtd">
<svg version="1.1" id="Layer_1" xmlns="http://www.w3.org/2000/svg" xmlns:xlink="http://www.w3.org/1999/xlink" x="0px" y="0px"
	 width="30px" height="29.998px" viewBox="0 0 30 29.998" enable-background="new 0 0 30 29.998" xml:space="preserve">
<path fill="#CE0099" d="M15,0C6.715,0,0,6.717,0,15s6.715,14.998,15,14.998c8.284,0,15-6.715,15-14.998S23.283,0,15,0z
	 M9.247,19.646c-2.607,0-4.721-2.111-4.721-4.72s2.113-4.721,4.721-4.721c2.608,0,4.722,2.112,4.722,4.721
	C13.968,17.535,11.855,19.646,9.247,19.646z M21.094,19.646c-2.607,0-4.721-2.111-4.721-4.72s2.113-4.721,4.721-4.721
	c2.606,0,4.721,2.112,4.721,4.721S23.7,19.646,21.094,19.646z"/>
</svg>
