<?xml version="1.0" encoding="utf-8"?>
<!-- Generator: Adobe Illustrator 15.0.0, SVG Export Plug-In . SVG Version: 6.00 Build 0)  -->
<!DOCTYPE svg PUBLIC "-//W3C//DTD SVG 1.1//EN" "http://www.w3.org/Graphics/SVG/1.1/DTD/svg11.dtd">
<svg version="1.1" id="Layer_1" xmlns="http://www.w3.org/2000/svg" xmlns:xlink="http://www.w3.org/1999/xlink" x="0px" y="0px"
	 width="30px" height="30px" viewBox="13.348 14.781 30 30" enable-background="new 13.348 14.781 30 30" xml:space="preserve">
<path fill="#CE0099" d="M28.348,14.781c-8.285,0-15,6.717-15,15.001s6.716,14.999,15,14.999c8.284,0,15-6.715,15-14.999
	S36.632,14.781,28.348,14.781z M35.904,26.757c0.008,0.162,0.011,0.325,0.011,0.489c0,4.996-3.804,10.755-10.755,10.755
	c-2.135,0-4.122-0.626-5.795-1.698c0.296,0.035,0.596,0.053,0.9,0.053c1.771,0,3.401-0.604,4.695-1.617
	c-1.654-0.031-3.049-1.124-3.531-2.627c0.23,0.047,0.467,0.068,0.711,0.068c0.346,0,0.68-0.046,0.996-0.133
	c-1.729-0.347-3.033-1.876-3.033-3.706c0-0.016,0-0.032,0-0.049c0.51,0.283,1.092,0.453,1.713,0.474
	c-1.016-0.68-1.683-1.834-1.683-3.146c0-0.693,0.187-1.344,0.513-1.901c1.865,2.287,4.649,3.792,7.791,3.95
	c-0.063-0.275-0.098-0.566-0.098-0.861c0-2.086,1.692-3.781,3.781-3.781c1.087,0,2.068,0.459,2.759,1.193
	c0.861-0.169,1.67-0.484,2.399-0.917c-0.282,0.884-0.881,1.624-1.662,2.091c0.766-0.091,1.494-0.293,2.172-0.595
	C37.284,25.559,36.643,26.225,35.904,26.757z"/>
</svg>
