<?xml version="1.0" encoding="utf-8"?>
<!-- Generator: Adobe Illustrator 22.1.0, SVG Export Plug-In . SVG Version: 6.00 Build 0)  -->
<svg version="1.1" id="Layer_1" xmlns="http://www.w3.org/2000/svg" xmlns:xlink="http://www.w3.org/1999/xlink" x="0px" y="0px"
	 viewBox="0 0 100 100" style="enable-background:new 0 0 100 100;" xml:space="preserve">
<style type="text/css">
	.st0{fill:#101316;}
</style>
<path class="st0" d="M6,32v59.9c0,4.5,3.6,8.1,8,8.1h72c4.4,0,8-3.6,8-8.1V32H6z M28,94H12V78h16V94z M28,74H12V58h16V74z M28,54H12
	V38h16V54z M48,94H32V78h16V94z M48,74H32V58h16V74z M48,54H32V38h16V54z M68,94H52V78h16V94z M68,74H52V58h16V74z M68,54H52V38h16
	V54z M88,94H72V78h16V94z M88,74H72V58h16V74z M88,54H72V38h16V54z"/>
<path class="st0" d="M86,12H73V3c0-1.7-1.3-3-3-3c-1.7,0-3,1.3-3,3v9H33V3c0-1.7-1.3-3-3-3c-1.7,0-3,1.3-3,3v9H14
	c-4.4,0-8,3.6-8,8.1V27l0,0v1h88v-1l0,0v-6.9C94,15.6,90.4,12,86,12z M30,26c-3.3,0-6-2.7-6-6c0-2.2,1.2-4.2,3-5.2V20
	c0,1.7,1.3,3,3,3c1.7,0,3-1.3,3-3v-5.2c1.8,1,3,3,3,5.2C36,23.3,33.3,26,30,26z M70,26c-3.3,0-6-2.7-6-6c0-2.2,1.2-4.2,3-5.2V20
	c0,1.7,1.3,3,3,3c1.7,0,3-1.3,3-3v-5.2c1.8,1,3,3,3,5.2C76,23.3,73.3,26,70,26z"/>
</svg>
