<?xml version="1.0" encoding="utf-8"?>
<!-- Generator: Adobe Illustrator 22.0.1, SVG Export Plug-In . SVG Version: 6.00 Build 0)  -->
<svg version="1.1" id="Layer_1" xmlns="http://www.w3.org/2000/svg" xmlns:xlink="http://www.w3.org/1999/xlink" x="0px" y="0px"
	 viewBox="0 0 1421.4 203.3" style="enable-background:new 0 0 1421.4 203.3;" xml:space="preserve">
<style type="text/css">
	.st0{fill:#D52A28;}
	.st1{fill:#FFFFFF;}
</style>
<g>
	<path class="st1" d="M107.9,78c-0.3,0-0.5,0-0.8,0s-0.5,0-0.8,0H82.3v43.4h24c0.2,0,0.5,0,0.7,0c0.2,0,0.5,0,0.7,0h0.8v-0.1
		c9.7-0.9,17.3-10.2,17.3-21.7c0-11.4-7.6-20.8-17.3-21.7v0H107.9z"/>
	<path class="st1" d="M54.3,123.2V50c0,0,38.2,0,52,0s18.2,2.9,18.2,2.9l31.3-30.2c-15.7-11.3-35.1-18-55.9-18
		C47,4.7,4,47.7,4,100.7c0,21,6.7,40.4,18.1,56.1L54.3,123.2z"/>
	<path class="st1" d="M177.2,43.7l-30.1,30c0,0,1.4,2.9,3.5,8.3c2.1,5.4,4.2,13.8,2.8,23.4s-4,21.1-13.6,30.9s-18.9,12.9-30.5,13.1
		c-11.6,0.2-37.8,0-37.8,0l-28.6,28.3c16,11.9,35.7,18.9,57.2,18.9c53,0,95.9-43,95.9-95.9C195.9,79.3,188.9,59.6,177.2,43.7z"/>
</g>
<g>
	<path class="st1" d="M295.3,137.9c-5.4,4-13.4,6-24,6c-10.4,0-18.8-1.3-25.2-3.9v-9.5c7.6,2.9,15.7,4.3,24.3,4.3
		c7.7,0,13.4-1,17-3.1c3.6-2.1,5.4-5.7,5.4-10.9c0-3.2-0.8-5.8-2.3-7.7c-1.5-2-3.9-3.6-7.1-4.9c-3.2-1.3-8-2.8-14.2-4.2
		c-9.2-2.3-15.6-5.2-19.4-8.7c-3.7-3.6-5.6-8.4-5.6-14.6c0-7.3,2.6-12.9,7.9-17c5.2-4,13-6,23.2-6c4.5,0,8.9,0.3,13.1,1
		c4.2,0.7,7.6,1.4,10.1,2.3v9.4c-6.6-2.3-13.7-3.5-21.5-3.5c-7.4,0-12.9,1.1-16.6,3.2c-3.7,2.2-5.5,5.7-5.5,10.7
		c0,2.9,0.6,5.2,2,6.9c1.3,1.7,3.5,3.2,6.6,4.5c3.1,1.3,7.6,2.6,13.7,4.1c9.8,2.3,16.6,5.5,20.5,9.4c3.9,3.9,5.9,9,5.9,15.3
		C303.5,128.2,300.7,133.9,295.3,137.9z"/>
	<path class="st1" d="M378.3,129.1c4.2-3.8,6.3-9.5,6.3-17V58.9h10.7v53c0,10.4-3,18.3-9,23.8c-6,5.5-14.7,8.2-26.1,8.2
		c-11.4,0-20.2-2.7-26.2-8.2c-6-5.5-9-13.4-9-23.8v-53h10.7V112c0,7.5,2.1,13.2,6.4,17c4.2,3.8,10.3,5.7,18.2,5.7
		C368,134.8,374.1,132.9,378.3,129.1z"/>
	<path class="st1" d="M474.5,105.2c-5,4.7-11.8,7.1-20.3,7.1h-24.2v30.3h-10.7V58.9h35.4c9,0,15.8,2.4,20.4,7.3
		c4.6,4.9,6.9,11.5,6.9,19.7C481.9,94.1,479.4,100.5,474.5,105.2z M466.5,99.2c3.2-3.2,4.8-7.6,4.8-13.3c0-6-1.5-10.6-4.5-13.8
		c-3-3.2-7.6-4.8-13.6-4.8h-23.1V104h22.5C458.6,104,463.3,102.4,466.5,99.2z"/>
	<path class="st1" d="M554.7,105.2c-5,4.7-11.8,7.1-20.3,7.1h-24.2v30.3h-10.7V58.9h35.4c9,0,15.8,2.4,20.4,7.3
		c4.6,4.9,6.9,11.5,6.9,19.7C562.1,94.1,559.7,100.5,554.7,105.2z M546.7,99.2c3.2-3.2,4.8-7.6,4.8-13.3c0-6-1.5-10.6-4.5-13.8
		c-3-3.2-7.6-4.8-13.6-4.8h-23.1V104h22.5C538.8,104,543.5,102.4,546.7,99.2z"/>
	<path class="st1" d="M636.9,134.3v8.3h-55.2V58.9h10.7v75.4H636.9z"/>
	<path class="st1" d="M664.8,111.4l-29.9-52.5h11l24.2,43.4l24.2-43.4h11l-29.9,52.5v31.2h-10.7V111.4z"/>
	<path class="st1" d="M779.5,131v9.5c-7.3,2.3-15.3,3.4-24.2,3.4c-13.2,0-23.2-3.7-30-11c-6.8-7.4-10.2-17.5-10.2-30.3
		c0-14.2,3.3-25.3,9.8-33.2c6.5-7.9,16.6-11.8,30.2-11.8c8.9,0,17,1.3,24.3,3.9v9.4c-7.4-2.8-15.2-4.2-23.4-4.2
		c-10.8,0-18.6,3-23.3,9.1c-4.7,6.1-7,15-7,26.8c0,21.5,10.2,32.2,30.5,32.2C765.1,134.8,772.8,133.5,779.5,131z"/>
	<path class="st1" d="M856.5,104.9h-44.2v37.7h-10.7V58.9h10.7v37.7h44.2V58.9h10.7v83.7h-10.7V104.9z"/>
	<path class="st1" d="M900.3,142.6h-11l31.8-83.7h12.5l31.7,83.7h-10.9l-8.8-23h-36.4L900.3,142.6z M910.9,111.1h32.6l-16.4-43
		L910.9,111.1z"/>
	<path class="st1" d="M987.4,58.9H998v83.7h-10.7V58.9z"/>
	<path class="st1" d="M1033.4,142.6h-10.7V58.9h9.6l47.7,67.3V58.9h10.7v83.7h-9.8l-47.6-67.2V142.6z"/>
	<path class="st1" d="M1121.3,58.9h37.4c13.3,0,23.5,3.4,30.4,10.1c6.9,6.7,10.3,17.5,10.3,32.3c0,14.1-3.4,24.5-10.3,31.3
		c-6.9,6.7-17,10.1-30.4,10.1h-37.4V58.9z M1155.6,123.9c4.3,0,7.8-0.6,10.5-1.9c2.7-1.3,4.7-3.5,6.2-6.8s2.1-7.9,2.1-14
		c0-6.2-0.6-10.9-1.9-14.4c-1.3-3.4-3.3-5.8-6-7.2c-2.7-1.4-6.3-2.1-10.9-2.1h-9.9v46.3H1155.6z"/>
	<path class="st1" d="M1215,58.9h24.4v83.7H1215V58.9z"/>
	<path class="st1" d="M1252.4,58.9h25.5l19.5,55.4l19.5-55.4h25.6l-32.1,83.7h-25.9L1252.4,58.9z"/>
	<path class="st1" d="M1352.9,58.9h63.4v18.7h-39v13.7h34.2v19h-34.2v13.7h39v18.7h-63.4V58.9z"/>
</g>
</svg>
