<svg id="email-newsletter-logos" xmlns="http://www.w3.org/2000/svg" width="263.72" height="46.25" viewBox="0 0 263.72 46.25"><defs><style>.cls-1{fill:#fff;}.cls-2{fill:#fff5ca;}.cls-3{fill:#c20017;}.cls-4{fill:#036;}</style></defs><title>fn-newsletter-logos</title><g id="fox-news-first"><path id="white" class="cls-1" d="M239.2,40.62a13.24,13.24,0,1,0-.09-26.47l-.66,0a13.23,13.23,0,0,0,.71,26.45Z"/><path id="yellow" class="cls-2" d="M239.16,28.11h0a.75.75,0,0,0,.55-.27.54.54,0,0,0,.11-.18.64.64,0,0,0,.06-.28.72.72,0,0,0-.22-.51.71.71,0,0,0-.5-.21h0a.72.72,0,0,0-.5.22.68.68,0,0,0-.21.51.71.71,0,0,0,.21.51A.75.75,0,0,0,239.16,28.11Z"/><path id="red" class="cls-3" d="M9,36h2.24V46H9.47V42.71l.17-4.39L6.7,46H5.46L2.53,38.33l.17,4.38V46H1V36H3.22l2.87,7.63Zm15.63,2.13a6.14,6.14,0,0,1,.52,2.55v.55a6,6,0,0,1-.51,2.57,3.9,3.9,0,0,1-1.44,1.7,4.27,4.27,0,0,1-4.33,0,4,4,0,0,1-1.46-1.69,5.91,5.91,0,0,1-.52-2.52v-.56a6.11,6.11,0,0,1,.51-2.57,4,4,0,0,1,1.46-1.71A4,4,0,0,1,21,35.9a4,4,0,0,1,2.15.59A3.82,3.82,0,0,1,24.58,38.17Zm-1.21,2.59a4.33,4.33,0,0,0-.63-2.54,2.21,2.21,0,0,0-3.53,0,4.26,4.26,0,0,0-.64,2.48v.57a4.3,4.3,0,0,0,.64,2.54,2.21,2.21,0,0,0,3.54,0,4.41,4.41,0,0,0,.62-2.56Zm12.64,1,2.24,4.14V46H36.39l-2-3.83H32.47V46H30.74V36h3.5a4.11,4.11,0,0,1,2.66.77,2.75,2.75,0,0,1,.93,2.24,2.79,2.79,0,0,1-.48,1.67A3.06,3.06,0,0,1,36,41.76Zm-.4-1.43a1.55,1.55,0,0,0,.5-1.21,1.68,1.68,0,0,0-.46-1.24,1.93,1.93,0,0,0-1.36-.45H32.47v3.34h1.78A2,2,0,0,0,35.61,40.33Zm14,2.8L45.12,36H43.4V46h1.72V38.93L49.56,46h1.73V36H49.58ZM57.36,46h1.72V36H57.36Zm14-2.86L66.86,36H65.13V46h1.73V38.93L71.29,46H73V36H71.31Zm11.53-.93h2v1.95a2.48,2.48,0,0,1-1.88.6,2.24,2.24,0,0,1-1.89-.89,4,4,0,0,1-.68-2.51v-.76a4.28,4.28,0,0,1,.62-2.46,2.05,2.05,0,0,1,1.77-.83,1.9,1.9,0,0,1,2.08,1.79h1.7a3.51,3.51,0,0,0-1.18-2.36,4,4,0,0,0-2.64-.83,3.72,3.72,0,0,0-3,1.27,5.27,5.27,0,0,0-1.08,3.52v.78a5.65,5.65,0,0,0,.54,2.47,3.83,3.83,0,0,0,1.49,1.62,4.25,4.25,0,0,0,2.21.57,6.19,6.19,0,0,0,2.18-.36,3.34,3.34,0,0,0,1.49-1.07V40.89H82.84Zm23.18-2h-4.45V36H99.84V46h1.73V41.58H106V46h1.72V36H106Zm9.42,1.37h4.08V40.18h-4.08V37.43h4.73V36h-6.46V46h6.51V44.61h-4.78ZM130,36l3.76,10h-1.8l-.81-2.32h-3.86L126.45,46h-1.79l3.76-10Zm.66,6.24-1.44-4.13-1.44,4.13Zm15-4a5.24,5.24,0,0,1,.57,2.48v.5a5.26,5.26,0,0,1-.57,2.49A3.94,3.94,0,0,1,144,45.41a4.77,4.77,0,0,1-2.38.58h-2.87V36h2.94a4.52,4.52,0,0,1,2.34.59A4,4,0,0,1,145.64,38.29Zm-1.17,2.47a3.79,3.79,0,0,0-.71-2.47,2.48,2.48,0,0,0-2-.86h-1.21v7.18h1.13a2.59,2.59,0,0,0,2.09-.85,3.74,3.74,0,0,0,.74-2.44ZM153.58,36h-1.73V46h6.25V44.61h-4.52Zm9.86,10h1.73V36h-1.73Zm13.95-2.86L172.94,36h-1.73V46h1.73V38.93L177.38,46h1.73V36h-1.72Zm9.41-1.58h4.09V40.18H186.8V37.43h4.73V36h-6.46V46h6.51V44.61H186.8Zm15.68-.48a7.39,7.39,0,0,0-1.87-.79,5.83,5.83,0,0,1-1.66-.71,1.09,1.09,0,0,1-.51-.91,1.2,1.2,0,0,1,.47-1,2.47,2.47,0,0,1,2.71.07,1.55,1.55,0,0,1,.49,1.22h1.72a2.82,2.82,0,0,0-.46-1.57,3.11,3.11,0,0,0-1.28-1.09,4.37,4.37,0,0,0-1.85-.38,4,4,0,0,0-2.55.78,2.43,2.43,0,0,0-1,2,2.55,2.55,0,0,0,1.36,2.23,7.75,7.75,0,0,0,1.91.81,5.41,5.41,0,0,1,1.67.72,1.18,1.18,0,0,1,.46,1,1.2,1.2,0,0,1-.45,1,2.18,2.18,0,0,1-1.36.36,2.47,2.47,0,0,1-1.61-.46,1.63,1.63,0,0,1-.56-1.32H196.4a2.71,2.71,0,0,0,.51,1.64,3.34,3.34,0,0,0,1.4,1.11,4.85,4.85,0,0,0,2,.4,4.15,4.15,0,0,0,2.59-.74,2.38,2.38,0,0,0,1-2,2.6,2.6,0,0,0-.33-1.33A2.93,2.93,0,0,0,202.48,41.07ZM227,45.2l.05,0a.54.54,0,0,0,.15-.15l1.63-2.85c-.25-.17-.48-.35-.71-.53l-1.69,2.94a.44.44,0,0,0,.16.6h0a.47.47,0,0,0,.19.06h.06A.42.42,0,0,0,227,45.2ZM252,44.51l-1.7-2.92-.71.53L251.2,45h0a.4.4,0,0,0,.15.14l.05,0,.14,0h.06a.36.36,0,0,0,.2-.06A.44.44,0,0,0,252,44.51ZM239.16,7.68h2.43V5.81l-5,0V7.69h2.56Zm-16.26.84a.49.49,0,0,0-.06.7l.09.11.77-.63-.1-.11a.49.49,0,0,0-.38-.18A.5.5,0,0,0,222.9,8.52Zm7.54.55a4.21,4.21,0,0,0-2.6-1.23,2.82,2.82,0,0,0-.41,0,4.17,4.17,0,0,0-2.67,1l-.31.26h0l-1.33,1.1-.05,0a4.2,4.2,0,0,0-.79,5.62ZM256,15.7a4.21,4.21,0,0,0-.83-5.62l0,0h0l-1.34-1.1h0l-.32-.25a4.13,4.13,0,0,0-2.65-.94,3.17,3.17,0,0,0-.43,0A4.18,4.18,0,0,0,247.76,9ZM222.1,27.44a17.09,17.09,0,0,1,17-17.11h.06a17.06,17.06,0,0,1,.05,34.11h-.05A17.08,17.08,0,0,1,222.1,27.44Zm17.1,14.18a14.24,14.24,0,0,0,0-28.47h0l-.71,0a14.24,14.24,0,0,0,.76,28.45h0ZM223,26.19a.42.42,0,0,0,.38.45h0a.41.41,0,0,0,.41-.39,16.8,16.8,0,0,1,.33-2.24.42.42,0,0,0-.31-.5h-.09a.43.43,0,0,0-.41.32A15.92,15.92,0,0,0,223,26.19Zm7.62-12.61a16.27,16.27,0,0,0-6.45,7.62.42.42,0,0,0,.23.55.4.4,0,0,0,.15,0,.42.42,0,0,0,.39-.26A15.36,15.36,0,0,1,239.11,12a.42.42,0,0,0,0-.83h0A16.23,16.23,0,0,0,230.59,13.58ZM240,8.42h-1.8v1.2c.31,0,.63,0,.94,0h.06l.8,0Zm14.55.19.77.62.09-.11a.45.45,0,0,0,.11-.37.44.44,0,0,0-.18-.33.45.45,0,0,0-.31-.11.51.51,0,0,0-.39.18Z"/><path id="blue" class="cls-4" d="M6,26.23H0L4.43.63H21.08L20.25,5.4H9.63l-1,5.89h9.65L17.44,16H7.79ZM32.41,24a9.16,9.16,0,0,1-6.82,2.62,7.89,7.89,0,0,1-4.38-1.26,7.17,7.17,0,0,1-2.73-3.42A10.28,10.28,0,0,1,17.83,17,11.83,11.83,0,0,1,21,9.56a9.09,9.09,0,0,1,6.88-2.7,8.05,8.05,0,0,1,4.42,1.27,7.2,7.2,0,0,1,2.73,3.46,10.55,10.55,0,0,1,.62,4.92l0,.38A11.28,11.28,0,0,1,32.41,24Zm-2.43-9a4.33,4.33,0,0,0-.59-2.52,2.14,2.14,0,0,0-1.83-1,3,3,0,0,0-2.63,1.3A8.56,8.56,0,0,0,23.62,17l-.05,1Q23.32,22,26,22q3.41.11,3.95-5.52Zm14.16-2.51L42.4,7.21H36.58l3.33,9-6.82,10h6.32l3.71-5.59,2,5.59h5.76l-3.48-9.49L53.9,7.21H47.64ZM83.34.63h-6L74.54,16.79,68.44.63H62.57l-4.43,25.6h6L67,10.07l6.12,16.16H78.9Zm15.4,10.8a10.13,10.13,0,0,1,.52,4.76l-.33,2.41H87.61A3.66,3.66,0,0,0,88.45,21a3.1,3.1,0,0,0,2.36,1,6,6,0,0,0,4.52-1.93l2.42,3.2a7.09,7.09,0,0,1-3,2.4,10.57,10.57,0,0,1-4.21.9h-.31a8.85,8.85,0,0,1-4.55-1.2,7.65,7.65,0,0,1-3-3.31,8.89,8.89,0,0,1-.81-4.67l0-.49a11.74,11.74,0,0,1,3.26-7.43A9,9,0,0,1,92,6.86,7.3,7.3,0,0,1,96.19,8.1,6.91,6.91,0,0,1,98.74,11.43Zm-4.89,1.8a2,2,0,0,0-2.22-1.8,2.91,2.91,0,0,0-2.13.77,6.37,6.37,0,0,0-1.57,2.69h5.78l.1-.51A3.74,3.74,0,0,0,93.85,13.23Zm31-6h-5.66l-3.82,11.2-1-11.2h-4l-4.87,11.32.18-11.32h-5.44l1.06,19h4.9l5-11.22,1.09,11.22h4.87ZM135.48,16a14.69,14.69,0,0,0-3.78-1.35c-1.88-.35-2.71-1-2.51-2a2,2,0,0,1,.89-1.38,2.9,2.9,0,0,1,1.64-.52q2.06,0,2,2.25l5.77,0a5.6,5.6,0,0,0-2.12-4.5,8.58,8.58,0,0,0-5.44-1.7,9.16,9.16,0,0,0-5.72,1.68A5.49,5.49,0,0,0,123.75,13a4.47,4.47,0,0,0,1.34,3.46,9.54,9.54,0,0,0,4.48,2.27l1.25.32c1.35.39,2,1,1.79,1.74a2.08,2.08,0,0,1-1,1.36,3.31,3.31,0,0,1-1.82.48,2.22,2.22,0,0,1-2.54-2.49l-5.37,0a5.91,5.91,0,0,0,1,3.33,6.89,6.89,0,0,0,2.76,2.3,9,9,0,0,0,3.83.86,11.17,11.17,0,0,0,4.4-.76,7.29,7.29,0,0,0,3.1-2.16,5.08,5.08,0,0,0,1.13-3.07,4.73,4.73,0,0,0-.65-2.71A5.66,5.66,0,0,0,135.48,16ZM152.27,1.58h14.47l.12-.95H151.48l-4.43,25.6H148l2.18-12.59H162.9l.14-1H150.33Zm12.89,24.65h1l3.27-19h-.95ZM170.91,1.3a.81.81,0,0,0-.18-.7.81.81,0,0,0-.66-.32,1,1,0,0,0-.7.3,1.12,1.12,0,0,0-.37.65.81.81,0,0,0,.17.69.85.85,0,0,0,.65.31,1.05,1.05,0,0,0,.71-.29A1,1,0,0,0,170.91,1.3Zm2.7,12.48a8.36,8.36,0,0,1,2.71-4.23,6.6,6.6,0,0,1,4.38-1.74l1.14.08.23-.82a4.46,4.46,0,0,0-1.34-.21A6.8,6.8,0,0,0,176.9,8,9.44,9.44,0,0,0,174,11.16l.74-3.95h-.95l-3.27,19h.95Zm15.85-6.92a8,8,0,0,0-4.57,1.32,4.89,4.89,0,0,0-2.28,3.48c-.33,2.22.85,3.78,3.55,4.65l2,.57c3.63.92,5.24,2.49,4.81,4.69a4.25,4.25,0,0,1-2.07,2.89,7.88,7.88,0,0,1-4.18,1.17,6.15,6.15,0,0,1-3.95-1.13,3.57,3.57,0,0,1-1.31-3.11h-.93A4,4,0,0,0,182,25.15a7.23,7.23,0,0,0,4.69,1.43,8.44,8.44,0,0,0,4.84-1.36,5.13,5.13,0,0,0,2.35-3.63q.51-3.45-3.58-4.94l-.88-.3-2.62-.76c-2.51-.78-3.59-2.11-3.24-4a4.15,4.15,0,0,1,2-2.78,7.28,7.28,0,0,1,3.92-1,5.35,5.35,0,0,1,3.71,1.24,3.59,3.59,0,0,1,1.18,3.24h.94a4.45,4.45,0,0,0-1.37-4A6.4,6.4,0,0,0,189.46,6.86Zm13.09-4.78h-1l-.88,5.13h-3.42l-.15,1h3.4l-2.32,13.51a8.77,8.77,0,0,0-.13,1.83c.09,2.05,1.12,3.08,3.12,3.08a7.69,7.69,0,0,0,1.91-.21l0-.9c-1,.11-1.59.16-1.92.16a2,2,0,0,1-1.65-.69,2.68,2.68,0,0,1-.49-1.88l.07-1,2.4-13.93h4.22l.13-1h-4.17ZM228.13,31.4a.37.37,0,0,0,.23-.47.36.36,0,0,0-.46-.24l-.8.27a.36.36,0,0,0-.24.46.37.37,0,0,0,.35.26l.12,0Zm14.5-14.83.12,0a.37.37,0,0,0,.35-.26l.26-.8a.38.38,0,0,0-.24-.47.38.38,0,0,0-.47.24l-.26.8A.38.38,0,0,0,242.63,16.57Zm-1.15-.31h.08a.36.36,0,0,0,.36-.29l.18-.83a.36.36,0,0,0-.29-.43.36.36,0,0,0-.44.28l-.17.83A.36.36,0,0,0,241.48,16.26Zm-1.17-.18h0a.36.36,0,0,0,.36-.33l.09-.84a.37.37,0,0,0-.33-.4.38.38,0,0,0-.41.33l-.08.84A.37.37,0,0,0,240.31,16.08Zm3.78,2.69a.45.45,0,0,0,.19.05.37.37,0,0,0,.32-.19l1.13-2a.37.37,0,0,0-.64-.37l-1.13,2A.37.37,0,0,0,244.09,18.77Zm-5,.23h0a.37.37,0,0,0,.37-.37V14.81a.38.38,0,0,0-.37-.37h0a.37.37,0,0,0-.37.37v3.82A.37.37,0,0,0,239.13,19Zm.14,21.32h0a.37.37,0,0,0,.27-.35v-.85h0v-3a.36.36,0,0,0-.37-.37.38.38,0,0,0-.37.37v1.54h0V40a.36.36,0,0,0,.29.36h.15Zm-3.59-2.12a.39.39,0,0,0-.47.24l-.25.8a.37.37,0,0,0,.24.47h.11a.37.37,0,0,0,.35-.25l.26-.8A.38.38,0,0,0,235.68,38.2Zm12.65-17.52a.36.36,0,0,0,.3.15.33.33,0,0,0,.21-.07l.68-.5a.36.36,0,0,0,.08-.52.37.37,0,0,0-.51-.08l-.68.5A.37.37,0,0,0,248.33,20.68Zm-2.52-2.51a.33.33,0,0,0,.21.07.36.36,0,0,0,.3-.15l.5-.68a.37.37,0,0,0-.6-.44l-.5.69A.36.36,0,0,0,245.81,18.17Zm1.77,1.59a.36.36,0,0,0,.27.12.35.35,0,0,0,.25-.1l.62-.56a.38.38,0,0,0,0-.53.37.37,0,0,0-.52,0l-.63.56A.38.38,0,0,0,247.58,19.76Zm-.85-.84A.38.38,0,0,0,247,19a.39.39,0,0,0,.28-.12l.56-.63a.38.38,0,0,0,0-.52.37.37,0,0,0-.52,0l-.57.63A.38.38,0,0,0,246.73,18.92ZM234,16.83a.38.38,0,0,0,.34.22.4.4,0,0,0,.15,0,.37.37,0,0,0,.19-.49l-.34-.77a.37.37,0,0,0-.68.31Zm13.73,5.56a.37.37,0,0,0,.32.19.45.45,0,0,0,.19,0l2-1.15a.36.36,0,0,0,.14-.5.38.38,0,0,0-.51-.14l-2,1.15A.37.37,0,0,0,247.74,22.39Zm-14.08-3.72a.36.36,0,0,0,.32.18.34.34,0,0,0,.19-.05.37.37,0,0,0,.13-.5l-1.14-2a.37.37,0,0,0-.51-.13.35.35,0,0,0-.13.5Zm-1.73-.54a.39.39,0,0,0,.3.16.37.37,0,0,0,.22-.08.36.36,0,0,0,.08-.51L232,17a.37.37,0,0,0-.59.43Zm-.92.81a.36.36,0,0,0,.27.12.38.38,0,0,0,.25-.09.38.38,0,0,0,0-.53l-.56-.62a.38.38,0,0,0-.52,0,.37.37,0,0,0,0,.53Zm4.14-2.58a.37.37,0,0,0,.35.25l.11,0a.37.37,0,0,0,.24-.47l-.26-.8a.37.37,0,0,0-.71.24Zm1.17-.36a.37.37,0,0,0,.36.29h.08a.36.36,0,0,0,.28-.44l-.17-.82a.37.37,0,0,0-.73.15Zm-4.86,4.05,6.89,6.12a1.4,1.4,0,0,1,.8-.25h0a1.4,1.4,0,0,1,.8.25l4.88-4.37a.37.37,0,0,1,.52,0,.36.36,0,0,1,0,.52l-4.87,4.37a1.49,1.49,0,0,1,.16.66,1.47,1.47,0,0,1-1.46,1.47h0a1.46,1.46,0,0,1-1-.43,1.42,1.42,0,0,1-.43-1,1.53,1.53,0,0,1,.15-.67L231,20.6a.37.37,0,0,1,0-.52A.36.36,0,0,1,231.46,20.05Zm7,7.34a.71.71,0,0,0,.21.51.75.75,0,0,0,.51.21h0a.75.75,0,0,0,.55-.27.54.54,0,0,0,.11-.18.64.64,0,0,0,.06-.28.72.72,0,0,0-.22-.51.71.71,0,0,0-.5-.21h0a.72.72,0,0,0-.5.22A.68.68,0,0,0,238.44,27.39ZM255.7,3.17a.37.37,0,1,0,.06.74,3.57,3.57,0,0,1,3.89,3.23.38.38,0,0,0,.37.34h0a.37.37,0,0,0,.33-.41,4.32,4.32,0,0,0-4.69-3.9Zm4.76-1.06A9.06,9.06,0,0,0,253.79,0a.37.37,0,0,0-.33.4.37.37,0,0,0,.4.34A8.38,8.38,0,0,1,263,8.36a.37.37,0,0,0,.37.33h0a.37.37,0,0,0,.34-.4A9,9,0,0,0,260.46,2.11Zm-22.57,14h0a.37.37,0,0,0,.33-.41l-.09-.84a.36.36,0,0,0-.41-.32.35.35,0,0,0-.32.4l.09.84A.37.37,0,0,0,237.89,16.09Zm13.35,14.79-.8-.26a.37.37,0,0,0-.23.71l.8.26h.12a.38.38,0,0,0,.35-.25A.37.37,0,0,0,251.24,30.88Zm-3.93,4.95a.38.38,0,0,0-.52,0,.37.37,0,0,0,0,.53l.57.62a.36.36,0,0,0,.27.12.38.38,0,0,0,.25-.09.38.38,0,0,0,0-.53Zm2.94-2.51-2-1.13a.37.37,0,1,0-.37.64l2,1.13a.41.41,0,0,0,.18,0,.39.39,0,0,0,.33-.19A.36.36,0,0,0,250.25,33.32Zm-5.6,2.78a.37.37,0,0,0-.64.37l1.15,2a.36.36,0,0,0,.32.18.31.31,0,0,0,.18,0,.37.37,0,0,0,.14-.5Zm3.5-1.17a.37.37,0,1,0-.5.55l.63.56a.35.35,0,0,0,.25.1.36.36,0,0,0,.27-.12.37.37,0,0,0,0-.53Zm.74-1a.37.37,0,1,0-.44.6l.69.49a.33.33,0,0,0,.21.07.36.36,0,0,0,.3-.15.38.38,0,0,0-.08-.52Zm-2.51,2.69a.37.37,0,0,0-.52-.09.38.38,0,0,0-.08.52l.5.68a.37.37,0,0,0,.3.15.36.36,0,0,0,.22-.07.37.37,0,0,0,.08-.51ZM242,38.77a.37.37,0,1,0-.72.16l.18.82a.37.37,0,0,0,.36.3h.08a.37.37,0,0,0,.28-.44Zm7.53-16a.37.37,0,0,0,.34.22.4.4,0,0,0,.15,0l.77-.35a.37.37,0,0,0-.3-.67l-.77.34A.37.37,0,0,0,249.52,22.73ZM222.62,4.05a.37.37,0,1,0,0-.74,4.32,4.32,0,0,0-4.39,4.23.36.36,0,0,0,.36.38h0a.37.37,0,0,0,.37-.36,3.57,3.57,0,0,1,3.64-3.51ZM224.43.51a.35.35,0,0,0-.36-.37h-.17a9.14,9.14,0,0,0-9.13,9,.38.38,0,0,0,.37.38h0a.38.38,0,0,0,.37-.37A8.38,8.38,0,0,1,224.06.88.36.36,0,0,0,224.43.51ZM244.3,37.94a.36.36,0,0,0-.49-.19.37.37,0,0,0-.19.49L244,39a.39.39,0,0,0,.34.22.42.42,0,0,0,.15,0,.36.36,0,0,0,.18-.49Zm-3.92.74a.37.37,0,0,0-.33.41l.09.83a.37.37,0,0,0,.37.33h0a.37.37,0,0,0,.33-.41l-.09-.83A.37.37,0,0,0,240.38,38.68Zm-2.38,0a.36.36,0,0,0-.4.33l-.09.84a.37.37,0,0,0,.33.4h0a.37.37,0,0,0,.37-.33l.09-.84A.37.37,0,0,0,238,38.69Zm12.81-6.57-.77-.34a.38.38,0,0,0-.49.19.37.37,0,0,0,.19.49l.77.34.15,0a.37.37,0,0,0,.34-.22A.37.37,0,0,0,250.81,32.12Zm0-6.37a.38.38,0,0,0-.33.41.37.37,0,0,0,.37.33h0l.84-.09A.38.38,0,0,0,252,26a.38.38,0,0,0-.41-.33Zm-.59-2.38a.38.38,0,0,0-.24.47.37.37,0,0,0,.35.26l.12,0,.8-.27a.36.36,0,0,0,.23-.46.36.36,0,0,0-.46-.24Zm.36,1.18a.37.37,0,0,0,.07.73h.08l.83-.18a.37.37,0,1,0-.16-.72ZM251.73,27h-3.82a.37.37,0,0,0-.37.37.38.38,0,0,0,.37.37h3.82a.37.37,0,0,0,.37-.38A.37.37,0,0,0,251.73,27ZM236.83,38.5a.38.38,0,0,0-.44.29l-.17.83a.36.36,0,0,0,.29.43h.07a.36.36,0,0,0,.36-.29l.18-.83A.38.38,0,0,0,236.83,38.5Zm14.71-8.9-.83-.17a.36.36,0,0,0-.43.28.37.37,0,0,0,.28.44l.83.17h.07a.37.37,0,0,0,.08-.73Zm-21.37-9.76a.38.38,0,0,0,.24.09.37.37,0,0,0,.25-.64l-.63-.56a.37.37,0,0,0-.52,0,.39.39,0,0,0,0,.53Zm21.53,8.45-.84-.08a.37.37,0,1,0-.07.73l.84.09h0a.37.37,0,0,0,0-.74ZM243.75,17a.32.32,0,0,0,.14,0,.36.36,0,0,0,.34-.22l.34-.77a.37.37,0,1,0-.67-.3l-.34.77A.36.36,0,0,0,243.75,17Zm-9.53,19a.38.38,0,0,0-.51.14l-1.13,2a.36.36,0,0,0,.14.5.31.31,0,0,0,.18,0,.38.38,0,0,0,.33-.18l1.13-2A.37.37,0,0,0,234.22,36Zm-3.48-1a.37.37,0,0,0-.52,0l-.63.56a.38.38,0,0,0,0,.53.36.36,0,0,0,.27.12.35.35,0,0,0,.25-.1l.62-.56A.38.38,0,0,0,230.74,35Zm-.75-.92a.38.38,0,0,0-.52-.08l-.68.5a.37.37,0,0,0-.08.52.38.38,0,0,0,.3.15.47.47,0,0,0,.22-.07l.68-.5A.38.38,0,0,0,230,34.09Zm4.58,3.69a.36.36,0,0,0-.49.19l-.34.77a.38.38,0,0,0,.19.49.4.4,0,0,0,.15,0,.39.39,0,0,0,.34-.22l.34-.77A.37.37,0,0,0,234.57,37.78Zm-2.06-1.18a.37.37,0,0,0-.52.08l-.49.68a.38.38,0,0,0,.08.52.36.36,0,0,0,.22.07.37.37,0,0,0,.3-.15l.49-.69A.37.37,0,0,0,232.51,36.6Zm-3.08-15.78a.33.33,0,0,0,.21.07.39.39,0,0,0,.31-.15.38.38,0,0,0-.09-.52l-.68-.49a.37.37,0,1,0-.43.6Zm13.74,17.59a.37.37,0,0,0-.47-.23.36.36,0,0,0-.23.47l.26.8a.37.37,0,0,0,.35.25l.12,0a.36.36,0,0,0,.23-.47ZM227,30.4l.82-.18a.37.37,0,1,0-.16-.72l-.82.18a.38.38,0,0,0-.29.44.38.38,0,0,0,.37.29ZM228.79,32a.37.37,0,0,0-.49-.19l-.76.35a.37.37,0,0,0-.19.49.38.38,0,0,0,.34.21.4.4,0,0,0,.15,0l.77-.34A.37.37,0,0,0,228.79,32Zm1.78.34a.37.37,0,0,0-.5-.14l-2,1.14a.38.38,0,0,0-.13.51.37.37,0,0,0,.32.19.3.3,0,0,0,.18-.06l2-1.14A.35.35,0,0,0,230.57,32.38Zm1,3.47a.37.37,0,0,0-.52,0l-.56.63a.36.36,0,0,0,0,.52.35.35,0,0,0,.52,0l.56-.63A.37.37,0,0,0,231.58,35.85Zm-5-9.37.84.08h0a.37.37,0,0,0,.36-.34.36.36,0,0,0-.33-.4l-.83-.09a.37.37,0,1,0-.08.74Zm.46-2.59.81.26.11,0a.36.36,0,0,0,.35-.26.37.37,0,0,0-.24-.47l-.8-.26a.39.39,0,0,0-.47.24A.38.38,0,0,0,227.07,23.89Zm-.49,3.9h3.82a.36.36,0,0,0,.37-.37.37.37,0,0,0-.37-.37h-3.82a.38.38,0,0,0-.37.37A.37.37,0,0,0,226.58,27.79Zm.93-5.14.77.34a.37.37,0,0,0,.15,0,.37.37,0,0,0,.33-.22.36.36,0,0,0-.19-.49L227.8,22a.36.36,0,0,0-.48.19A.37.37,0,0,0,227.51,22.65Zm.55-1.2,2,1.13a.31.31,0,0,0,.18.05.36.36,0,0,0,.32-.18.38.38,0,0,0-.13-.51l-2-1.13a.37.37,0,0,0-.37.64Zm-1.29,3.72.83.17h.08a.37.37,0,0,0,.07-.73l-.82-.17a.37.37,0,0,0-.16.72Zm-.07,3.94.83-.09a.38.38,0,0,0,.33-.41.37.37,0,0,0-.41-.33l-.83.09a.37.37,0,0,0-.33.41.37.37,0,0,0,.37.33Zm24.87-15.7-.42.51A18,18,0,0,1,252,40.1c-.3.3-.61.57-.92.84L252.82,44A1.39,1.39,0,0,1,253,45.1a1.45,1.45,0,0,1-.67.88,1.41,1.41,0,0,1-.72.19,1.46,1.46,0,0,1-1.25-.71l-1.61-2.78a18,18,0,0,1-9.51,2.76h-.05a18,18,0,0,1-9.46-2.71l-1.61,2.8a1.44,1.44,0,0,1-1.25.72,1.38,1.38,0,0,1-.71-.19,1.45,1.45,0,0,1-.54-2L227.36,41a18,18,0,0,1-.26-27l-.43-.5-3.76,3.11-.84.69-.62-.9a5.17,5.17,0,0,1-.89-3.44A5.24,5.24,0,0,1,222,9.79a1.5,1.5,0,0,1,.26-2,1.5,1.5,0,0,1,2,.12,5.22,5.22,0,0,1,3.13-1l.51,0a5.25,5.25,0,0,1,3.21,1.53l.76.78-.84.69L227.24,13l.43.49a18,18,0,0,1,9.49-4.05V8.69H235.6V4.83h1l5,0h1V8.67H241v.75a17.94,17.94,0,0,1,9.62,4l.42-.5-3.87-3.15-.84-.69.76-.78a5.22,5.22,0,0,1,3.2-1.55,4.78,4.78,0,0,1,.53,0,5.21,5.21,0,0,1,3.11,1A1.48,1.48,0,0,1,255,7.31a1.5,1.5,0,0,1,1.21,2.38,5.23,5.23,0,0,1,.6,6.57l-.61.9-.85-.69Zm-28.35-5a.49.49,0,0,0-.38.81l.09.11.77-.63-.1-.11A.49.49,0,0,0,223.22,8.41Zm-.94,7.39,8.16-6.73a4.21,4.21,0,0,0-2.6-1.23,2.82,2.82,0,0,0-.41,0,4.17,4.17,0,0,0-2.67,1l-.31.26h0l-1.33,1.1-.05,0a4.2,4.2,0,0,0-.79,5.62ZM251.6,45.17a.36.36,0,0,0,.2-.06.44.44,0,0,0,.16-.6l-1.7-2.92-.71.53L251.2,45h0a.4.4,0,0,0,.15.14l.05,0,.14,0Zm-24.78.08h.06a.42.42,0,0,0,.15,0l.05,0a.54.54,0,0,0,.15-.15l1.63-2.85c-.25-.17-.48-.35-.71-.53l-1.69,2.94a.44.44,0,0,0,.16.6h0A.47.47,0,0,0,226.82,45.25Zm12.34-.81h.05a17.06,17.06,0,0,0-.05-34.11h-.06a17.06,17.06,0,0,0,.06,34.11ZM237.78,7.68h3.81V5.81l-5,0V7.69Zm2.17.74h-1.8v1.2c.31,0,.63,0,.94,0h.06l.8,0Zm10.4-.65A4.18,4.18,0,0,0,247.76,9L256,15.7a4.21,4.21,0,0,0-.83-5.62l0,0h0l-1.34-1.1h0l-.32-.25a4.13,4.13,0,0,0-2.65-.94A3.17,3.17,0,0,0,250.35,7.77Zm4.24.72-.09.12.77.62.09-.11a.45.45,0,0,0,.11-.37.44.44,0,0,0-.18-.33.45.45,0,0,0-.31-.11A.51.51,0,0,0,254.59,8.49Zm-28,8.58a16.17,16.17,0,0,0-2.47,4.13.42.42,0,0,0,.23.55.4.4,0,0,0,.15,0,.42.42,0,0,0,.39-.26A15.36,15.36,0,0,1,239.11,12a.42.42,0,0,0,0-.83h0a16.17,16.17,0,0,0-12.5,5.92Zm-3.26,9.57h0a.41.41,0,0,0,.41-.39,16.8,16.8,0,0,1,.33-2.24.42.42,0,0,0-.31-.5h-.09a.43.43,0,0,0-.41.32,15.92,15.92,0,0,0-.34,2.37A.42.42,0,0,0,223.35,26.64Zm15.81,15a14.24,14.24,0,0,1-.76-28.45l.71,0h0a14.24,14.24,0,0,1,0,28.47h0m0-1a13.24,13.24,0,1,0-.09-26.47l-.66,0a13.23,13.23,0,0,0,.71,26.45Z"/></g></svg>