<svg xmlns="http://www.w3.org/2000/svg" width="617" height="80.1" viewBox="0 0 617 80.1"><path d="M196.2,1.4h23.5V6.5h-18v8.6h15.9v5.1H201.7V33.1h-5.5Z" fill="#fff"/><path d="M220.9,21.2a12.7,12.7,0,1,1,25.4-.1v.1a12.7,12.7,0,0,1-25.4,0Zm19.9,0c0-4.3-3-7.8-7.3-7.8-4.4,0-7.2,3.4-7.2,7.6v.1a7.285,7.285,0,0,0,7.3,7.6C238,28.7,240.8,25.3,240.8,21.2Z" fill="#fff"/><path d="M249.3,24.3V9.2h5.5V22.7c0,3.7,1.8,5.8,5.1,5.8,3.2,0,5.4-2.2,5.4-5.9V9.2h5.5V33h-5.5V29.3a8.367,8.367,0,0,1-7.4,4.2c-5.5,0-8.6-3.6-8.6-9.2Z" fill="#fff"/><path d="M275.3,9.2h5.5v3.7a8.572,8.572,0,0,1,7.4-4.2c5.4,0,8.5,3.6,8.5,9.1V33h-5.5V19.5c0-3.7-1.8-5.8-5.1-5.8-3.2,0-5.4,2.2-5.4,5.9V33h-5.5V9.2Z" fill="#fff"/><path d="M299.8,21.1c0-8,5.4-12.5,11.1-12.5a9.614,9.614,0,0,1,8.1,4.2V0h5.5V32.9H319v-4c-1.8,2.5-4.2,4.5-8.1,4.5-5.6.1-11.1-4.4-11.1-12.3Zm19.3,0c0-4.7-3.2-7.7-6.9-7.7s-6.9,2.9-6.9,7.6v.1c0,4.6,3.2,7.6,6.9,7.6C315.8,28.7,319.1,25.7,319.1,21.1Z" fill="#fff"/><path d="M327.5,26.1c0-5.2,4-7.8,9.8-7.8a19.091,19.091,0,0,1,6.4,1v-.6c0-3.4-2.1-5.2-5.9-5.2A16.552,16.552,0,0,0,331,15l-1.4-4.3a19.99,19.99,0,0,1,9-1.9c3.6,0,6.2.9,7.9,2.7,1.8,1.7,2.6,4.2,2.6,7.4V33h-5.3V30a9.8,9.8,0,0,1-7.8,3.5c-4.5,0-8.5-2.6-8.5-7.4Zm16.3-1.7V22.8a15.961,15.961,0,0,0-5.4-.9c-3.5,0-5.6,1.5-5.6,4,0,2.3,2,3.6,4.6,3.6C341.1,29.5,343.8,27.4,343.8,24.4Z" fill="#fff"/><path d="M354.2,26.4V13.9h-3V9.2h3V2.7h5.5V9.2h6.4v4.7h-6.4V25.6c0,2.1,1.1,3,2.9,3a8.075,8.075,0,0,0,3.4-.8v4.5a9.122,9.122,0,0,1-4.9,1.2C357,33.4,354.2,31.6,354.2,26.4Z" fill="#fff"/><path d="M369.4.3h5.9V5.5h-5.9Zm.3,8.9h5.5V33h-5.5Z" fill="#fff"/><path d="M378.7,21.2a12.7,12.7,0,0,1,25.4-.1v.1a12.7,12.7,0,0,1-25.4,0Zm19.9,0c0-4.3-3-7.8-7.3-7.8-4.4,0-7.2,3.4-7.2,7.6v.1a7.285,7.285,0,0,0,7.3,7.6C395.8,28.7,398.6,25.3,398.6,21.2Z" fill="#fff"/><path d="M407.4,9.2h5.5v3.7a8.572,8.572,0,0,1,7.4-4.2c5.4,0,8.5,3.6,8.5,9.1V33h-5.5V19.5c0-3.7-1.8-5.8-5.1-5.8-3.2,0-5.4,2.2-5.4,5.9V33h-5.5V9.2Z" fill="#fff"/><path d="M447.2,13.7c.7-3.3,1.7-5.9,3.7-7.9,2.2-2.2,4.8-3.4,6.5-3.4,1.8,0,2.9,1.1,2.8,2a2.7,2.7,0,0,1-1.4,2.1c-.4.2-.8.3-1.1-.1-1-1.2-2-1.9-2.8-1.9-1,0-2,1-3.3,9.1h4.8l-.9,1.5-4.2.3c-.7,4.1-1.2,7.4-2.3,12.1-1.5,7-3.3,9.8-6,12.2-1.8,1.6-3.4,2.3-4.6,2.3-1.3,0-2.7-.9-2.7-1.9a3.378,3.378,0,0,1,1.3-2.2.761.761,0,0,1,.9-.1,5.343,5.343,0,0,0,3,1.3,1.5,1.5,0,0,0,1.5-1c.3-.6,1-2.2,2.2-9.3,1-5.7,1.5-9.5,2.2-13.6h-3.3l-.2-.5,1.4-1.4h2.5Z" fill="#fff"/><path d="M454.9,25.7a12.533,12.533,0,0,1,6.2-11.2,11.408,11.408,0,0,1,5.1-1.5c3.9,0,6,2.5,6,6.6a13.534,13.534,0,0,1-4.5,10.1,11.386,11.386,0,0,1-6.9,2.7c-4.5,0-5.9-3.5-5.9-6.7Zm8.8,4.7c1.8-.8,3.9-5.2,3.9-10.9,0-3.2-1.2-4.7-2.8-4.7a5.02,5.02,0,0,0-1.2.2c-1.3.6-3.9,4.1-3.9,10.7,0,3.2,1.3,4.8,2.9,4.8a2.079,2.079,0,0,0,1.1-.1Z" fill="#fff"/><path d="M474.9,17.3c2.3-2.5,5-4.2,6.5-4.2,1.2,0,1.5,1.5.8,4.8l-.4,1.9h.2c2-3.8,4.2-6.7,6-6.7a2.265,2.265,0,0,1,1.9,1.1,1.959,1.959,0,0,1-.1,2.3,6.947,6.947,0,0,1-1.3,1.5c-.4.3-.7.3-1,0a2.449,2.449,0,0,0-1.6-.8c-.5,0-1,.2-1.8,1.5a22.651,22.651,0,0,0-2.6,4.8c-.5,2.4-1.2,5.6-1.6,8a24.819,24.819,0,0,0-4.1.8l-.3-.4c1-4.4,2-9,2.9-13.4.2-1.4.2-1.9-.1-1.9a6.646,6.646,0,0,0-2.7,1.7Z" fill="#fff"/><path d="M196.2,47.6h23.4v5H201.7v8.2h15.8v5H201.7v8.5h18.1v5H196.2Z" fill="#fff"/><path d="M221.8,67.4a12.233,12.233,0,0,1,12.4-12.5,11.968,11.968,0,0,1,9.5,4.1l-3.4,3.7c-1.7-1.8-3.4-3-6.1-3-4,0-6.9,3.4-6.9,7.6v.1c0,4.2,2.9,7.6,7.1,7.6a8.488,8.488,0,0,0,6.2-2.9l3.3,3.2a12.032,12.032,0,0,1-9.7,4.5,12.21,12.21,0,0,1-12.4-12.4Z" fill="#fff"/><path d="M244.6,67.4a12.7,12.7,0,0,1,25.4-.1v.1a12.7,12.7,0,0,1-25.4,0Zm19.9,0c0-4.3-3-7.8-7.3-7.8-4.4,0-7.2,3.4-7.2,7.6v.1a7.285,7.285,0,0,0,7.3,7.6c4.4.1,7.2-3.4,7.2-7.5Z" fill="#fff"/><path d="M273.3,55.4h5.5v3.7a8.572,8.572,0,0,1,7.4-4.2c5.4,0,8.5,3.6,8.5,9.1V79.2h-5.5V65.7c0-3.7-1.8-5.8-5.1-5.8-3.2,0-5.4,2.2-5.4,5.9V79.2h-5.5V55.4Z" fill="#fff"/><path d="M297.7,67.4a12.7,12.7,0,0,1,25.4-.1v.1a12.7,12.7,0,0,1-25.4,0Zm19.9,0c0-4.3-3-7.8-7.3-7.8-4.4,0-7.2,3.4-7.2,7.6v.1a7.285,7.285,0,0,0,7.3,7.6C314.8,75,317.6,71.5,317.6,67.4Z" fill="#fff"/><path d="M326.4,55.4h5.5V59c1.5-2.1,3.6-4.1,7.3-4.1a7.528,7.528,0,0,1,7.1,4.2,9.617,9.617,0,0,1,8-4.2c5.2,0,8.3,3.3,8.3,9.1V79.2h-5.5V65.7c0-3.8-1.8-5.8-4.8-5.8s-5.1,2.1-5.1,5.9V79.2h-5.5V65.6c0-3.7-1.8-5.8-4.8-5.8s-5.1,2.3-5.1,5.9V79.1h-5.5V55.4Z" fill="#fff"/><path d="M367.1,46.5H373v5.2h-5.9Zm.2,8.9h5.5V79.2h-5.5Z" fill="#fff"/><path d="M376.4,67.4a12.233,12.233,0,0,1,12.4-12.5,11.968,11.968,0,0,1,9.5,4.1l-3.4,3.7c-1.7-1.8-3.4-3-6.1-3-4,0-6.9,3.4-6.9,7.6v.1c0,4.2,2.9,7.6,7.1,7.6a8.488,8.488,0,0,0,6.2-2.9l3.3,3.2a12.032,12.032,0,0,1-9.7,4.5,12.21,12.21,0,0,1-12.4-12.4Z" fill="#fff"/><path d="M413.1,47.6h23.4v5H418.6v8.2h15.9v5H418.7v8.5h18.1v5H413.2V47.6Z" fill="#fff"/><path d="M438.8,67.3c0-8,5.4-12.5,11.1-12.5A9.614,9.614,0,0,1,458,59V46.3h5.5V79.2H458v-4c-1.8,2.5-4.2,4.5-8.1,4.5-5.7,0-11.1-4.5-11.1-12.4Zm19.2,0c0-4.7-3.2-7.7-6.9-7.7s-6.9,2.9-6.9,7.6v.1c0,4.6,3.2,7.6,6.9,7.6C454.8,75,458,71.9,458,67.3Z" fill="#fff"/><path d="M467.7,70.5V55.4h5.5V68.9c0,3.7,1.8,5.8,5.1,5.8,3.2,0,5.4-2.2,5.4-5.9V55.4h5.5V79.2h-5.5V75.5a8.367,8.367,0,0,1-7.4,4.2C470.8,79.7,467.7,76.1,467.7,70.5Z" fill="#fff"/><path d="M492.4,67.4a12.233,12.233,0,0,1,12.4-12.5,11.968,11.968,0,0,1,9.5,4.1l-3.4,3.7c-1.7-1.8-3.4-3-6.1-3-4,0-6.9,3.4-6.9,7.6v.1c0,4.2,2.9,7.6,7.1,7.6a8.488,8.488,0,0,0,6.2-2.9l3.3,3.2a12.031,12.031,0,0,1-9.7,4.5,12.21,12.21,0,0,1-12.4-12.4Z" fill="#fff"/><path d="M515.7,72.4c0-5.2,4-7.8,9.8-7.8a19.091,19.091,0,0,1,6.4,1V65c0-3.4-2.1-5.2-5.9-5.2a16.552,16.552,0,0,0-6.8,1.5L517.8,57a19.99,19.99,0,0,1,9-1.9c3.6,0,6.2.9,7.9,2.7,1.8,1.7,2.6,4.2,2.6,7.4V79.3H532v-3a9.8,9.8,0,0,1-7.8,3.5c-4.6-.1-8.5-2.7-8.5-7.4ZM532,70.6V69a15.961,15.961,0,0,0-5.4-.9c-3.5,0-5.6,1.5-5.6,4v.1c0,2.3,2,3.6,4.6,3.6C529.2,75.7,532,73.7,532,70.6Z" fill="#fff"/><path d="M542.4,72.6V60.1h-3V55.4h3V48.9h5.5v6.5h6.4v4.7h-6.4V71.8c0,2.1,1.1,3,2.9,3a8.075,8.075,0,0,0,3.4-.8v4.5a9.122,9.122,0,0,1-4.9,1.2c-4.1-.1-6.9-1.8-6.9-7.1Z" fill="#fff"/><path d="M557.6,46.5h5.9v5.2h-5.9Zm.2,8.9h5.5V79.2h-5.5Z" fill="#fff"/><path d="M566.9,67.4a12.7,12.7,0,0,1,25.4-.1v.1a12.7,12.7,0,0,1-25.4,0Zm19.9,0c0-4.3-3-7.8-7.3-7.8-4.4,0-7.2,3.4-7.2,7.6v.1a7.285,7.285,0,0,0,7.3,7.6C584,75,586.8,71.5,586.8,67.4Z" fill="#fff"/><path d="M595.6,55.4h5.5v3.7a8.572,8.572,0,0,1,7.4-4.2c5.4,0,8.5,3.6,8.5,9.1V79.2h-5.5V65.7c0-3.7-1.8-5.8-5.1-5.8-3.2,0-5.4,2.2-5.4,5.9V79.2h-5.5V55.4Z" fill="#fff"/><path d="M0,1.4H52V22.9H28.8l-.2,7.3H52V50.7H28.6V79.2H0Z" fill="#fff"/><path d="M59.3,1.4h51.8V22.8H88v7.3h23.1V50.6h-23V58h23V79.2H59.3Z" fill="#fff"/><path d="M118.4,1.4h51.9V22.8H147.1v7.3h23.2V50.6H147.2V58h23.1V79.2H118.4Z" fill="#fff"/></svg>