<?xml version="1.0" encoding="utf-8"?>
<!-- Generator: Adobe Illustrator 16.0.0, SVG Export Plug-In . SVG Version: 6.00 Build 0)  -->
<!DOCTYPE svg PUBLIC "-//W3C//DTD SVG 1.1//EN" "http://www.w3.org/Graphics/SVG/1.1/DTD/svg11.dtd">
<svg version="1.1" id="Calque_1" xmlns="http://www.w3.org/2000/svg" xmlns:xlink="http://www.w3.org/1999/xlink" x="0px" y="0px"
	 width="32px" height="32px" viewBox="0 0 32 32" enable-background="new 0 0 32 32" xml:space="preserve">
<g id="Style_3_copy_4">
	<path fill="#FFFFFF" d="M12.684,19.477c-1.061,0-1.924-0.862-1.924-1.924c0-1.06,0.863-1.923,1.924-1.923s1.924,0.863,1.924,1.923
		C14.607,18.614,13.744,19.477,12.684,19.477z M26.607,18.136c0.028,0.219,0.044,0.436,0.044,0.646c0,4.001-4.786,7.256-10.67,7.256
		S5.313,22.783,5.313,18.782c0-0.218,0.016-0.445,0.047-0.675C4.605,17.551,4.16,16.68,4.16,15.741c0-1.627,1.323-2.95,2.949-2.95
		c0.635,0,1.252,0.206,1.76,0.584c1.829-1.111,4.16-1.76,6.611-1.838l1.88-5.341l4.503,1.076c0.424-0.803,1.254-1.311,2.175-1.311
		c1.356,0,2.462,1.104,2.462,2.462s-1.105,2.462-2.462,2.462c-1.276,0-2.333-0.979-2.451-2.227l-3.318-0.793l-1.299,3.692
		c2.277,0.144,4.438,0.785,6.144,1.828c0.511-0.386,1.134-0.598,1.776-0.598c1.627,0,2.95,1.325,2.95,2.95
		C27.842,16.699,27.383,17.58,26.607,18.136z M5.574,15.741c0,0.295,0.086,0.581,0.244,0.827c0.39-0.824,0.998-1.6,1.79-2.283
		c-0.159-0.054-0.327-0.081-0.498-0.081C6.262,14.205,5.574,14.893,5.574,15.741z M25.236,18.782c0-3.222-4.152-5.842-9.256-5.842
		s-9.256,2.621-9.256,5.842s4.152,5.843,9.256,5.843C21.085,24.625,25.236,22.006,25.236,18.782z M24.365,14.297
		c0.797,0.689,1.407,1.475,1.793,2.308c0.174-0.253,0.27-0.554,0.27-0.863c0-0.849-0.69-1.537-1.536-1.537
		C24.709,14.205,24.534,14.235,24.365,14.297z M22.991,8.426c0,0.579,0.471,1.048,1.048,1.048s1.048-0.471,1.048-1.048
		c0-0.579-0.471-1.047-1.048-1.047S22.991,7.847,22.991,8.426z M19.533,20.981c-0.19,0-0.37,0.076-0.5,0.206
		c-0.037,0.039-0.963,0.909-3.072,0.909c-2.082,0-2.923-0.872-2.926-0.874c-0.133-0.154-0.328-0.242-0.531-0.242
		c-0.169,0-0.332,0.06-0.461,0.169c-0.143,0.123-0.229,0.294-0.244,0.483c-0.015,0.188,0.045,0.37,0.168,0.514
		c0.033,0.039,0.342,0.388,0.992,0.719c0.837,0.427,1.846,0.644,3.002,0.644c1.148,0,2.172-0.213,3.039-0.633
		c0.673-0.325,1.008-0.663,1.043-0.701c0.268-0.277,0.259-0.725-0.018-0.993C19.894,21.053,19.718,20.981,19.533,20.981z
		 M19.511,15.628c-1.062,0-1.925,0.863-1.925,1.924c0,1.062,0.863,1.925,1.925,1.925c1.061,0,1.923-0.863,1.923-1.925
		C21.434,16.491,20.571,15.628,19.511,15.628z"/>
</g>
</svg>
