<?xml version="1.0" encoding="utf-8"?>
<!-- Generator: Adobe Illustrator 19.0.0, SVG Export Plug-In . SVG Version: 6.00 Build 0)  -->
<svg version="1.1" id="Layer_1" xmlns="http://www.w3.org/2000/svg" xmlns:xlink="http://www.w3.org/1999/xlink" x="0px" y="0px"
	 viewBox="0 0 257 40" style="enable-background:new 0 0 257 40;" xml:space="preserve">
<style type="text/css">
	.st0{fill:#FFFFFF;}
</style>
<g id="XMLID_48_">
	<path id="XMLID_49_" class="st0" d="M0.6,36V22h2.8v5.5H9V22h2.8v14H9v-5.9H3.5V36H0.6z"/>
	<path id="XMLID_51_" class="st0" d="M18,35.7c-0.8-0.4-1.5-1-2-1.7c-0.5-0.7-0.9-1.5-1.2-2.3c-0.3-0.9-0.4-1.8-0.4-2.7
		s0.1-1.8,0.4-2.7c0.3-0.9,0.7-1.7,1.2-2.3c0.5-0.7,1.2-1.2,2-1.7c0.8-0.4,1.8-0.6,2.8-0.6c1.1,0,2,0.2,2.9,0.6c0.8,0.4,1.5,1,2,1.7
		c0.5,0.7,1,1.5,1.2,2.3c0.3,0.9,0.4,1.8,0.4,2.7s-0.1,1.8-0.4,2.7c-0.3,0.9-0.7,1.7-1.2,2.3c-0.5,0.7-1.2,1.2-2,1.7
		c-0.8,0.4-1.8,0.6-2.9,0.6C19.8,36.3,18.8,36.1,18,35.7z M18.2,32.3c0.3,0.4,0.7,0.8,1.1,1.1s1,0.4,1.5,0.4s1.1-0.1,1.6-0.4
		c0.5-0.3,0.8-0.6,1.1-1.1c0.3-0.4,0.5-1,0.7-1.5c0.2-0.6,0.2-1.2,0.2-1.8c0-0.6-0.1-1.2-0.2-1.8c-0.2-0.6-0.4-1.1-0.7-1.5
		c-0.3-0.4-0.7-0.8-1.1-1.1c-0.5-0.3-1-0.4-1.6-0.4s-1.1,0.1-1.5,0.4s-0.8,0.6-1.1,1.1c-0.3,0.4-0.5,1-0.7,1.5
		c-0.2,0.6-0.2,1.2-0.2,1.8c0,0.6,0.1,1.2,0.2,1.8C17.7,31.4,17.9,31.9,18.2,32.3z"/>
	<path id="XMLID_54_" class="st0" d="M31,32.3c0.3,0.5,0.8,0.9,1.3,1.2c0.5,0.3,1.2,0.4,1.8,0.4c0.7,0,1.3-0.1,1.7-0.4
		c0.4-0.3,0.6-0.7,0.6-1.1c0-0.3,0-0.6-0.1-0.8c-0.1-0.2-0.3-0.4-0.5-0.6c-0.2-0.2-0.6-0.4-1-0.6c-0.4-0.2-1-0.4-1.6-0.6
		c-0.6-0.2-1.1-0.4-1.6-0.7c-0.5-0.2-0.9-0.5-1.2-0.8c-0.3-0.3-0.6-0.7-0.8-1.1c-0.2-0.4-0.3-0.9-0.3-1.5c0-0.6,0.1-1.1,0.3-1.6
		c0.2-0.5,0.5-0.9,0.9-1.2s0.9-0.6,1.5-0.8s1.3-0.3,2.2-0.3c0.7,0,1.3,0.1,1.8,0.2c0.5,0.1,1,0.3,1.4,0.5c0.4,0.2,0.7,0.5,1,0.8
		c0.3,0.3,0.5,0.6,0.7,0.9l-2,1.4c-0.3-0.4-0.7-0.8-1.1-1.1c-0.4-0.3-1-0.4-1.8-0.4c-0.7,0-1.3,0.1-1.6,0.4s-0.6,0.6-0.6,1
		c0,0.5,0.2,0.9,0.7,1.2c0.5,0.3,1.2,0.6,2.1,1c0.7,0.3,1.3,0.5,1.9,0.8c0.5,0.3,1,0.6,1.4,1c0.4,0.4,0.6,0.8,0.8,1.2s0.3,1,0.3,1.6
		c0,0.7-0.1,1.3-0.4,1.8c-0.3,0.5-0.7,0.9-1.1,1.3c-0.5,0.3-1,0.6-1.6,0.8c-0.6,0.2-1.2,0.3-1.9,0.3c-2.5,0-4.3-0.9-5.4-2.6L31,32.3
		z"/>
	<path id="XMLID_56_" class="st0" d="M41.6,36V22H46c0.7,0,1.4,0,2,0.1c0.6,0.1,1.2,0.3,1.7,0.5c0.7,0.3,1.2,0.8,1.6,1.5
		c0.3,0.7,0.5,1.4,0.5,2.1c0,0.4-0.1,0.8-0.2,1.3c-0.1,0.4-0.3,0.8-0.5,1.2s-0.5,0.7-0.8,1c-0.3,0.3-0.7,0.5-1,0.7
		c-0.5,0.2-1,0.3-1.5,0.4s-1,0.1-1.5,0.1h-1.9v5H41.6z M44.4,28.5H46c0.4,0,0.8,0,1.1-0.1c0.3,0,0.6-0.1,0.9-0.2
		c0.4-0.2,0.7-0.4,0.9-0.8c0.2-0.3,0.3-0.7,0.3-1c0-0.4-0.1-0.8-0.3-1.1s-0.5-0.6-0.9-0.7c-0.2-0.1-0.5-0.1-0.8-0.2
		c-0.3,0-0.6-0.1-1-0.1h-1.7V28.5z"/>
	<path id="XMLID_59_" class="st0" d="M54,36V22h2.8v14H54z"/>
	<path id="XMLID_61_" class="st0" d="M62.8,36V24.5h-4.2V22h11.2v2.5h-4.2V36H62.8z"/>
	<path id="XMLID_63_" class="st0" d="M69.9,36l5.8-14h2l5.8,14h-3l-1.1-2.8h-5.4L72.8,36H69.9z M74.8,30.8h3.6l-1.8-4.6L74.8,30.8z"
		/>
	<path id="XMLID_66_" class="st0" d="M85.1,36V22H88v11.5H95V36H85.1z"/>
	<path id="XMLID_68_" class="st0" d="M100.9,36V22h4.4c0.7,0,1.4,0,2,0.1c0.6,0.1,1.2,0.3,1.7,0.5c0.7,0.3,1.2,0.8,1.6,1.5
		c0.3,0.7,0.5,1.4,0.5,2.1c0,0.4-0.1,0.8-0.2,1.3c-0.1,0.4-0.3,0.8-0.5,1.2s-0.5,0.7-0.8,1c-0.3,0.3-0.7,0.5-1,0.7
		c-0.5,0.2-1,0.3-1.5,0.4s-1,0.1-1.5,0.1h-1.9v5H100.9z M103.7,28.5h1.6c0.4,0,0.8,0,1.1-0.1c0.3,0,0.6-0.1,0.9-0.2
		c0.4-0.2,0.7-0.4,0.9-0.8c0.2-0.3,0.3-0.7,0.3-1c0-0.4-0.1-0.8-0.3-1.1s-0.5-0.6-0.9-0.7c-0.2-0.1-0.5-0.1-0.8-0.2
		c-0.3,0-0.6-0.1-1-0.1h-1.7V28.5z"/>
	<path id="XMLID_71_" class="st0" d="M113.4,36V22h2.8v5.5h5.6V22h2.8v14h-2.8v-5.9h-5.6V36H113.4z"/>
	<path id="XMLID_73_" class="st0" d="M126.2,36l5.8-14h2l5.8,14h-3l-1.1-2.8h-5.4l-1.2,2.8H126.2z M131.1,30.8h3.6l-1.8-4.6
		L131.1,30.8z"/>
	<path id="XMLID_76_" class="st0" d="M141.4,36V22h5.7c0.6,0,1.2,0.1,1.8,0.2c0.6,0.1,1.1,0.3,1.6,0.7c0.5,0.3,0.9,0.7,1.2,1.3
		c0.3,0.5,0.5,1.2,0.5,2c0,0.5-0.1,1-0.2,1.4c-0.1,0.5-0.3,0.9-0.6,1.3c-0.3,0.4-0.6,0.7-1,1c-0.4,0.3-0.9,0.5-1.5,0.7l3.6,5.4h-3.2
		l-3.5-5.3h-1.5V36H141.4z M144.2,28.3h2.2c1,0,1.8-0.2,2.2-0.5c0.5-0.3,0.7-0.8,0.7-1.4c0-0.7-0.2-1.2-0.7-1.5
		c-0.4-0.3-1.2-0.5-2.3-0.5h-2.2V28.3z"/>
	<path id="XMLID_79_" class="st0" d="M154.5,36V22h2.9l4.1,9.3l3.7-9.3h2.9v14h-2.8v-7.8l-3.4,7.9h-1l-3.7-8V36H154.5z"/>
	<path id="XMLID_81_" class="st0" d="M169.8,36l5.8-14h2l5.8,14h-3l-1.1-2.8h-5.4l-1.2,2.8H169.8z M174.7,30.8h3.6l-1.8-4.6
		L174.7,30.8z"/>
	<path id="XMLID_84_" class="st0" d="M195.7,33.2c-0.6,1.1-1.3,1.9-2.1,2.4c-0.8,0.5-1.8,0.7-2.9,0.7c-0.9,0-1.8-0.2-2.5-0.5
		c-0.8-0.3-1.4-0.8-2-1.4s-1-1.4-1.3-2.3s-0.5-1.9-0.5-3.1c0-1.3,0.2-2.3,0.5-3.3c0.3-0.9,0.8-1.7,1.4-2.3c0.6-0.6,1.2-1.1,2-1.4
		c0.7-0.3,1.5-0.4,2.3-0.4c0.6,0,1.2,0.1,1.7,0.2c0.5,0.1,1,0.4,1.4,0.6c0.4,0.3,0.8,0.6,1.1,1c0.3,0.4,0.6,0.9,0.8,1.4l-2.3,1.3
		c-0.3-0.6-0.6-1.1-1-1.5c-0.4-0.4-1-0.6-1.7-0.6c-0.4,0-0.9,0.1-1.3,0.3c-0.4,0.2-0.8,0.5-1.1,0.9c-0.3,0.4-0.6,0.9-0.7,1.5
		s-0.3,1.3-0.3,2.2c0,0.7,0.1,1.4,0.3,2c0.2,0.6,0.4,1.1,0.7,1.5c0.3,0.4,0.7,0.7,1.1,0.9c0.4,0.2,0.9,0.3,1.4,0.3
		c0.3,0,0.5,0,0.8-0.1c0.2-0.1,0.5-0.2,0.7-0.3c0.2-0.1,0.4-0.3,0.7-0.6c0.2-0.2,0.4-0.6,0.6-1L195.7,33.2z"/>
	<path id="XMLID_86_" class="st0" d="M200.9,36v-5.6l-4.7-8.4h3.2l3,5.6l2.9-5.6h3.1l-4.6,8.4V36H200.9z"/>
</g>
<g id="XMLID_5_">
	<path id="XMLID_6_" class="st0" d="M0.8,15.1V4.4H7v1.1H2.1v3.4h3.5V10H2.1V14h5.3v1.1H0.8z"/>
	<path id="XMLID_8_" class="st0" d="M10.3,11.3c0,0.9,0.2,1.6,0.7,2.1c0.5,0.5,1.1,0.8,2,0.8c0.8,0,1.5-0.2,2-0.7
		c0.5-0.5,0.7-1.2,0.7-2.1V4.4h1.3v7.1c0,0.6-0.1,1.2-0.3,1.6S16,14,15.7,14.3c-0.4,0.3-0.8,0.6-1.3,0.7c-0.5,0.2-1,0.2-1.5,0.2
		c-0.6,0-1.1-0.1-1.5-0.2c-0.5-0.2-0.9-0.4-1.2-0.7c-0.4-0.3-0.6-0.7-0.8-1.2S9,12.1,9,11.5V4.4h1.3V11.3z"/>
	<path id="XMLID_10_" class="st0" d="M19.4,15.1V4.4h3.4c1.2,0,2.1,0.3,2.6,0.8c0.6,0.5,0.8,1.2,0.8,2.1c0,0.5-0.1,0.9-0.2,1.2
		c-0.1,0.3-0.3,0.6-0.6,0.9c-0.2,0.2-0.5,0.4-0.8,0.6c-0.3,0.1-0.7,0.3-1,0.3l2.9,4.8h-1.5l-2.9-4.7h-1.6v4.7H19.4z M20.7,9.3h2.1
		c1.5,0,2.2-0.7,2.2-2c0-0.6-0.2-1.1-0.5-1.4c-0.4-0.3-0.9-0.4-1.6-0.4h-2.2V9.3z"/>
	<path id="XMLID_13_" class="st0" d="M30.3,14.8c-0.6-0.3-1-0.7-1.4-1.3c-0.4-0.5-0.6-1.1-0.8-1.8c-0.2-0.7-0.3-1.3-0.3-2
		c0-0.7,0.1-1.4,0.3-2c0.2-0.7,0.4-1.3,0.8-1.8c0.4-0.5,0.8-0.9,1.4-1.3c0.6-0.3,1.2-0.5,2-0.5c0.8,0,1.5,0.2,2,0.5
		c0.6,0.3,1,0.7,1.4,1.3c0.4,0.5,0.6,1.1,0.8,1.8c0.2,0.7,0.3,1.3,0.3,2c0,0.7-0.1,1.4-0.3,2c-0.2,0.7-0.4,1.3-0.8,1.8
		c-0.4,0.5-0.8,0.9-1.4,1.3s-1.2,0.5-2,0.5C31.5,15.3,30.8,15.1,30.3,14.8z M29.9,12.8c0.3,0.4,0.6,0.7,1,1c0.4,0.3,0.9,0.4,1.4,0.4
		s1-0.1,1.4-0.4c0.4-0.3,0.7-0.6,1-1c0.3-0.4,0.4-0.9,0.6-1.4c0.1-0.5,0.2-1.1,0.2-1.6c0-0.5-0.1-1.1-0.2-1.6
		c-0.1-0.5-0.3-1-0.6-1.4c-0.3-0.4-0.6-0.7-1-1c-0.4-0.3-0.9-0.4-1.4-0.4s-1,0.1-1.4,0.4c-0.4,0.3-0.7,0.6-1,1
		c-0.3,0.4-0.5,0.9-0.6,1.4c-0.1,0.5-0.2,1.1-0.2,1.6c0,0.6,0.1,1.1,0.2,1.6C29.4,11.9,29.6,12.4,29.9,12.8z"/>
	<path id="XMLID_16_" class="st0" d="M38.9,15.1V4.4h3.3c1.2,0,2.1,0.3,2.7,0.8c0.6,0.5,0.9,1.3,0.9,2.4c0,1-0.3,1.8-0.9,2.4
		s-1.5,0.8-2.7,0.8h-2v4.3H38.9z M40.2,9.7h2.1c0.7,0,1.2-0.2,1.6-0.5c0.4-0.3,0.6-0.8,0.6-1.6c0-0.7-0.2-1.3-0.6-1.6
		S43,5.5,42.3,5.5h-2.1V9.7z"/>
	<path id="XMLID_19_" class="st0" d="M47.6,15.1V4.4h6.2v1.1h-4.9v3.4h3.5V10h-3.6V14h5.3v1.1H47.6z"/>
	<path id="XMLID_21_" class="st0" d="M54.6,15.1l4.1-10.7h0.8l4.2,10.7h-1.4L61,11.8h-3.9l-1.2,3.3H54.6z M57.6,10.6h3l-1.6-4.1
		L57.6,10.6z"/>
	<path id="XMLID_24_" class="st0" d="M65,15.1V4.4h1.3l5.4,8v-8h1.3v10.7H72l-5.7-8.5v8.5H65z"/>
	<path id="XMLID_26_" class="st0" d="M76.9,16.1c0.6-0.1,1.1-0.3,1.5-0.6c0.3-0.3,0.5-0.7,0.5-1.2v-10h1.3v10c0,0.9-0.3,1.5-0.8,2
		c-0.5,0.5-1.3,0.7-2.2,0.8L76.9,16.1z"/>
	<path id="XMLID_28_" class="st0" d="M84.6,14.8c-0.6-0.3-1-0.7-1.4-1.3c-0.4-0.5-0.6-1.1-0.8-1.8c-0.2-0.7-0.3-1.3-0.3-2
		c0-0.7,0.1-1.4,0.3-2c0.2-0.7,0.4-1.3,0.8-1.8s0.8-0.9,1.4-1.3c0.6-0.3,1.2-0.5,2-0.5c0.8,0,1.5,0.2,2,0.5c0.6,0.3,1,0.7,1.4,1.3
		s0.6,1.1,0.8,1.8c0.2,0.7,0.3,1.3,0.3,2c0,0.7-0.1,1.4-0.3,2c-0.2,0.7-0.4,1.3-0.8,1.8c-0.4,0.5-0.8,0.9-1.4,1.3s-1.2,0.5-2,0.5
		C85.9,15.3,85.2,15.1,84.6,14.8z M84.3,12.8c0.3,0.4,0.6,0.7,1,1c0.4,0.3,0.9,0.4,1.4,0.4s1-0.1,1.4-0.4c0.4-0.3,0.7-0.6,1-1
		s0.4-0.9,0.6-1.4c0.1-0.5,0.2-1.1,0.2-1.6c0-0.5-0.1-1.1-0.2-1.6c-0.1-0.5-0.3-1-0.6-1.4s-0.6-0.7-1-1c-0.4-0.3-0.9-0.4-1.4-0.4
		s-1,0.1-1.4,0.4c-0.4,0.3-0.7,0.6-1,1c-0.3,0.4-0.5,0.9-0.6,1.4c-0.1,0.5-0.2,1.1-0.2,1.6c0,0.6,0.1,1.1,0.2,1.6
		C83.8,11.9,84,12.4,84.3,12.8z"/>
	<path id="XMLID_31_" class="st0" d="M94.5,11.3c0,0.9,0.2,1.6,0.7,2.1c0.5,0.5,1.1,0.8,2,0.8c0.8,0,1.5-0.2,2-0.7
		c0.5-0.5,0.7-1.2,0.7-2.1V4.4h1.3v7.1c0,0.6-0.1,1.2-0.3,1.6s-0.5,0.9-0.9,1.2c-0.4,0.3-0.8,0.6-1.3,0.7c-0.5,0.2-1,0.2-1.5,0.2
		c-0.6,0-1.1-0.1-1.5-0.2c-0.5-0.2-0.9-0.4-1.2-0.7c-0.4-0.3-0.6-0.7-0.8-1.2c-0.2-0.5-0.3-1-0.3-1.6V4.4h1.3V11.3z"/>
	<path id="XMLID_33_" class="st0" d="M103.6,15.1V4.4h3.4c1.2,0,2.1,0.3,2.6,0.8c0.6,0.5,0.8,1.2,0.8,2.1c0,0.5-0.1,0.9-0.2,1.2
		c-0.1,0.3-0.3,0.6-0.6,0.9c-0.2,0.2-0.5,0.4-0.8,0.6s-0.7,0.3-1,0.3l2.9,4.8h-1.5l-2.9-4.7h-1.6v4.7H103.6z M104.9,9.3h2.1
		c1.5,0,2.2-0.7,2.2-2c0-0.6-0.2-1.1-0.5-1.4c-0.4-0.3-0.9-0.4-1.6-0.4h-2.2V9.3z"/>
	<path id="XMLID_36_" class="st0" d="M112.5,15.1V4.4h1.3l5.4,8v-8h1.3v10.7h-0.9l-5.7-8.5v8.5H112.5z"/>
	<path id="XMLID_38_" class="st0" d="M121.8,15.1l4.1-10.7h0.8l4.2,10.7h-1.4l-1.3-3.3h-3.9l-1.2,3.3H121.8z M124.7,10.6h3l-1.6-4.1
		L124.7,10.6z"/>
	<path id="XMLID_41_" class="st0" d="M132.2,15.1V4.4h1.3V14h4.9v1.1H132.2z"/>
	<path id="XMLID_43_" class="st0" d="M145.2,14.8c-0.6-0.3-1-0.7-1.4-1.3c-0.4-0.5-0.6-1.1-0.8-1.8c-0.2-0.7-0.3-1.3-0.3-2
		c0-0.7,0.1-1.4,0.3-2c0.2-0.7,0.4-1.3,0.8-1.8s0.8-0.9,1.4-1.3c0.6-0.3,1.2-0.5,2-0.5c0.8,0,1.5,0.2,2,0.5c0.6,0.3,1,0.7,1.4,1.3
		s0.6,1.1,0.8,1.8c0.2,0.7,0.3,1.3,0.3,2c0,0.7-0.1,1.4-0.3,2c-0.2,0.7-0.4,1.3-0.8,1.8c-0.4,0.5-0.8,0.9-1.4,1.3s-1.2,0.5-2,0.5
		C146.5,15.3,145.8,15.1,145.2,14.8z M144.9,12.8c0.3,0.4,0.6,0.7,1,1c0.4,0.3,0.9,0.4,1.4,0.4s1-0.1,1.4-0.4c0.4-0.3,0.7-0.6,1-1
		s0.4-0.9,0.6-1.4c0.1-0.5,0.2-1.1,0.2-1.6c0-0.5-0.1-1.1-0.2-1.6c-0.1-0.5-0.3-1-0.6-1.4s-0.6-0.7-1-1c-0.4-0.3-0.9-0.4-1.4-0.4
		s-1,0.1-1.4,0.4c-0.4,0.3-0.7,0.6-1,1c-0.3,0.4-0.5,0.9-0.6,1.4c-0.1,0.5-0.2,1.1-0.2,1.6c0,0.6,0.1,1.1,0.2,1.6
		C144.4,11.9,144.6,12.4,144.9,12.8z"/>
	<path id="XMLID_46_" class="st0" d="M153.9,15.1V4.4h6v1.1h-4.8v3.6h3.5v1.1h-3.5v4.9H153.9z"/>
</g>
</svg>
