<?xml version="1.0" encoding="UTF-8"?>
<svg width="150px" height="150px" viewBox="0 0 150 150" version="1.1" xmlns="http://www.w3.org/2000/svg" xmlns:xlink="http://www.w3.org/1999/xlink">
    <!-- Generator: Sketch 50.2 (55047) - http://www.bohemiancoding.com/sketch -->
    <title>WhatsApp_2_@1x</title>
    <desc>Created with Sketch.</desc>
    <defs></defs>
    <g id="Page-1" stroke="none" stroke-width="1" fill="none" fill-rule="evenodd">
        <g id="if_whatsapp_386747" fill="#FFFFFF">
            <path d="M150.000003,73.0697475 C150.000003,113.423137 117.032778,146.136323 76.3635144,146.136323 C63.4520169,146.136323 51.3222256,142.835693 40.7685519,137.045715 L4.99999999e-06,150 L13.2891575,110.79594 C6.58489625,99.78327 2.7243875,86.8707112 2.7243875,73.069215 C2.7243875,32.713185 35.6926869,0 76.3629894,0 C117.032778,0.000375 150.000003,32.7137138 150.000003,73.0697475 Z M76.3635144,11.636985 C42.2231694,11.636985 14.4532775,39.196665 14.4532775,73.0697475 C14.4532775,86.5099575 18.8345769,98.960355 26.2455481,109.086731 L18.5123844,131.898547 L42.3034531,124.337036 C52.0801756,130.754497 63.7879381,134.498805 76.3629894,134.498805 C110.499108,134.498805 138.273224,106.941769 138.273224,73.069215 C138.273224,39.196665 110.499629,11.636985 76.3635144,11.636985 Z M113.546737,89.89563 C113.093028,89.1498337 111.889799,88.7008725 110.087647,87.806655 C108.281253,86.91138 99.4040319,82.5770887 97.7523969,81.9812962 C96.0954781,81.3839175 94.8906894,81.0839062 93.6880044,82.8755137 C92.4863844,84.6718687 89.0272944,88.7008725 87.9719806,89.89563 C86.9187819,91.0925025 85.8687444,91.2419775 84.0623469,90.3456412 C82.2601794,89.45037 76.4416831,87.5599912 69.5467494,81.457335 C64.1814406,76.7105288 60.5580819,70.85031 59.5048831,69.0555337 C58.4516806,67.2633975 59.3934331,66.2947087 60.2961069,65.4031275 C61.1084544,64.5976425 62.1014431,63.30993 63.0051669,62.2667625 C63.9078369,61.2188362 64.2078481,60.4735725 64.8083956,59.27829 C65.4131656,58.082475 65.1084031,57.0377212 64.6589206,56.1392775 C64.2078481,55.2455887 60.5966431,46.4306963 59.0923644,42.8459025 C57.5880969,39.2611012 56.0880519,39.85848 55.0327344,39.85848 C53.9789994,39.85848 52.7768506,39.7084725 51.5715331,39.7084725 C50.3677944,39.7084725 48.4113969,40.1579625 46.7581756,41.9485125 C45.1044219,43.7422312 40.4426581,48.0733537 40.4426581,56.8861312 C40.4426581,65.700495 46.9087044,74.21538 47.8124319,75.4096087 C48.7140481,76.6011937 60.2955744,95.2741463 78.6442231,102.447964 C96.9997306,109.615444 96.9997306,107.22699 100.309342,106.924339 C103.614731,106.629082 110.985562,102.595327 112.492462,98.4115688 C113.995687,94.2304538 113.995687,90.6419588 113.546737,89.89563 Z" id="WhatsApp_2_"></path>
        </g>
    </g>
</svg>