<?xml version="1.0" encoding="UTF-8" standalone="no"?>
<svg width="64px" height="64px" viewBox="0 0 64 64" version="1.1" xmlns="http://www.w3.org/2000/svg" xmlns:xlink="http://www.w3.org/1999/xlink">
    <!-- Generator: Sketch 40.3 (33839) - http://www.bohemiancoding.com/sketch -->
    <title>location-map</title>
    <desc>Created with Sketch.</desc>
    <defs>
        <linearGradient x1="50%" y1="4.86288265%" x2="50%" y2="100%" id="linearGradient-1">
            <stop stop-color="#FFFFFF" offset="0%"></stop>
            <stop stop-color="#E8E8E8" offset="100%"></stop>
        </linearGradient>
        <linearGradient x1="50%" y1="0%" x2="50%" y2="100%" id="linearGradient-2">
            <stop stop-color="#F0725D" offset="0%"></stop>
            <stop stop-color="#DC3E30" offset="100%"></stop>
        </linearGradient>
    </defs>
    <g id="Page-1" stroke="none" stroke-width="1" fill="none" fill-rule="evenodd">
        <g id="Artboard" transform="translate(-590.000000, -362.000000)">
            <g id="Group-19" transform="translate(20.000000, 20.000000)">
                <rect id="Rectangle-Copy-29" x="570" y="342" width="64" height="64"></rect>
            </g>
            <g id="Group-13" transform="translate(601.000000, 379.000000)">
                <path d="M2.73187467,29.8858162 C1.57781609,29.8834711 0.64536489,28.9476489 0.64844277,27.7909522 L0.725829478,2.61638206 C0.728614226,1.46247004 1.66751432,0.531337937 2.8211332,0.535148647 L39.8190145,0.647271433 C40.9732196,0.649030222 41.9047914,1.58690435 41.9018601,2.74184233 L41.8243268,27.9161193 C41.8211024,29.0710573 40.8824954,30.0033619 39.7291697,29.9999909 L2.73187467,29.8858162" id="Fill-3" fill="url(#linearGradient-1)"></path>
                <polyline id="Fill-4" fill="#FFFFFF" points="3.30084285 27.5935281 3.37368602 4.16616813 39.2456493 4.27565273 39.1744184 27.7027196 3.30084285 27.5935281"></polyline>
                <path d="M27.9844177,2.53254646 C27.9829521,2.86378502 27.7132711,3.13156062 27.3812997,3.13170718 L15.2434585,3.09316039 C14.9114871,3.09360009 14.6442978,2.82113439 14.6450306,2.49136149 C14.6457635,2.15924354 14.9150047,1.89264047 15.2469761,1.89146794 L27.3845242,1.93104069 C27.7162024,1.93148039 27.9847109,2.2021873 27.9844177,2.53254646" id="Fill-5" fill="#DFDFDF"></path>
                <path d="M9.33656632,5.07810012 C10.1294869,5.43088384 10.7350966,6.1286833 10.9605147,6.9815493 L13.6510218,5.92202562 L12.980337,5.07810012 L9.33656632,5.07810012" id="Fill-6" fill="#A9CF71"></path>
                <path d="M10.2462998,7.72390474 C10.2462998,8.87547171 9.31238298,9.8088023 8.16096257,9.8088023 C7.00954217,9.8088023 6.07621158,8.87547171 6.07621158,7.72390474 C6.07621158,6.57233778 7.00954217,5.63871405 8.16096257,5.63871405 C9.31238298,5.63871405 10.2462998,6.57233778 10.2462998,7.72390474" id="Fill-7" fill="#A9CF71"></path>
                <polyline id="Fill-8" fill="#A9CF71" points="26.3515289 27.2813431 34.6628319 27.2813431 35.185925 26.8060304 34.7466675 19.6361813 28.4469792 12.9052966 21.3534908 18.3990199 24.877957 26.0745208 26.3515289 27.2813431"></polyline>
                <path d="M36.675326,5.07810012 L36.4824455,10.0245471 C36.7955099,10.0619213 37.0934781,10.1466363 37.3697545,10.2715103 L38.2789017,8.7309579 L38.2789017,5.07810012 L36.675326,5.07810012" id="Fill-9" fill="#A9CF71"></path>
                <path d="M35.5494081,10.0551793 L35.7247007,5.57305261 L32.1907077,9.217263 L33.8296058,11.034385 C34.2698892,10.5360615 34.8696362,10.1831312 35.5494081,10.0551793" id="Fill-10" fill="#A9CF71"></path>
                <path d="M38.2789017,12.2261109 C37.9460509,11.3552174 37.1046171,10.7355374 36.1161778,10.7355374 C34.8366589,10.7355374 33.7992666,11.7726366 33.7992666,13.052302 C33.7992666,14.3318208 34.8366589,15.36892 36.1161778,15.36892 C37.1046171,15.36892 37.9460509,14.7492401 38.2789017,13.8781999 L38.2789017,12.2261109" id="Fill-11" fill="#A9CF71"></path>
                <polyline id="Fill-12" fill="#DED6C8" points="25.0375671 8.03682259 27.6347119 5.98827333 30.5781915 9.58001319 28.2958699 11.9077702 25.0375671 8.03682259"></polyline>
                <path d="M14.1042031,6.69325451 L11.0529976,7.87120331 C10.9902675,9.12932356 10.1234777,10.1752166 8.95681451,10.5080674 L9.20304494,12.7456865 L16.3145609,11.1495856 L14.1042031,6.69325451" id="Fill-13" fill="#DED6C8"></path>
                <polyline id="Fill-14" fill="#DED6C8" points="38.2789017 22.5562104 35.8725855 20.73689 36.1705536 27.2813431 38.2789017 27.2813431 38.2789017 22.5562104"></polyline>
                <path d="M33.0659983,13.052302 C33.0659983,12.8267373 33.0916473,12.6070353 33.1378155,12.3953944 L31.1905432,10.1385752 L29.046433,12.3067221 L35.3456817,19.0776193 L35.2806065,15.9858151 C34.0025533,15.6223321 33.0659983,14.4470215 33.0659983,13.052302" id="Fill-15" fill="#DED6C8"></path>
                <path d="M38.2789017,16.5845362 L37.1856679,15.9093078 C36.896054,16.0180596 36.584895,16.0838676 36.2602519,16.0989639 L36.2602519,19.5436983 L38.2789017,21.0199084 L38.2789017,16.5845362" id="Fill-16" fill="#DED6C8"></path>
                <path d="M4.08071912,25.4457538 L7.89860991,23.4158184 C6.51048585,22.6337437 5.20854244,21.541829 4.08071912,20.3037882 L4.08071912,25.4457538" id="Fill-17" fill="#DED6C8"></path>
                <path d="M9.26064527,18.3814321 L8.53294641,13.4332263 L4.08071912,12.402283 L4.08071912,14.3592286 C4.15400198,14.4946554 4.22611233,14.6318409 4.29617075,14.7722509 C5.81898872,17.817154 9.04827152,21.0414536 11.8895948,21.2934001 L12.2796063,21.0863027 L9.26064527,18.3814321" id="Fill-18" fill="#DED6C8"></path>
                <path d="M18.7148679,27.2813431 L16.5414447,25.3960681 L14.9755364,24.0738986 C13.9853383,24.5304508 13.0272381,24.6702746 12.2271357,24.6702746 C12.1183839,24.6702746 12.0071406,24.6676364 11.8964834,24.66236 C10.9449787,24.6170712 9.9940602,24.378169 9.06879073,23.9906492 L4.53683168,26.5086485 L5.81986811,27.2813431 L18.7148679,27.2813431" id="Fill-19" fill="#DED6C8"></path>
                <path d="M13.0250396,20.7405541 L14.8499295,20.0310294 C15.076227,19.7758584 15.2932909,19.4838995 15.5017073,19.1509022 C16.3240877,17.835035 17.0896005,16.2298471 17.8636141,14.4952416 L16.6831737,11.978708 L9.43842951,13.575102 L10.0953371,17.8935147 L13.0250396,20.7405541" id="Fill-20" fill="#DED6C8"></path>
                <path d="M8.16096257,10.6197505 C6.56149072,10.6197505 5.26497024,9.32323003 5.26497024,7.72390474 C5.26497024,6.54302463 5.97317587,5.52878975 6.98682448,5.07810012 L4.08071912,5.07810012 L4.08071912,11.5615819 L8.44398101,12.5198287 L8.18148178,10.6193108 L8.16096257,10.6197505" id="Fill-21" fill="#DED6C8"></path>
                <path d="M18.6950815,12.6052765 C18.9474677,12.026635 19.2033715,11.4408117 19.4644051,10.8530832 L18.1394508,11.4818502 L18.6767608,12.6463149 C18.6829166,12.6325377 18.6889258,12.6189071 18.6950815,12.6052765" id="Fill-22" fill="#DED6C8"></path>
                <path d="M24.2484572,8.58219368 C23.3714078,10.2890982 22.5685207,12.1280585 21.7745742,13.9479652 C21.362871,14.8911157 20.959229,15.8149195 20.5519228,16.7053063 L20.9225876,17.5081934 L27.8744934,12.3067221 L24.3319997,8.54247437 L24.2484572,8.58219368" id="Fill-23" fill="#DED6C8"></path>
                <path d="M26.3418556,5.07810012 C25.9475937,5.62874758 25.5706267,6.2133983 25.2093421,6.82780185 L27.1016523,5.33634895 L26.8631899,5.07810012 L26.3418556,5.07810012" id="Fill-24" fill="#DED6C8"></path>
                <polyline id="Fill-25" fill="#DED6C8" points="28.4567991 5.07810012 31.5663377 8.52532618 34.9092089 5.07810012 28.4567991 5.07810012"></polyline>
                <path d="M16.1741509,5.07810012 L15.369505,5.88186661 L17.7267217,10.7104747 L20.0065517,9.64977848 C20.5888574,8.37890701 21.20458,7.11419129 21.8767305,5.90443773 L21.0989061,5.07810012 L16.1741509,5.07810012" id="Fill-26" fill="#DED6C8"></path>
                <path d="M24.0431186,27.2813431 L23.7060174,27.0053598 L19.985886,18.9668156 L19.330444,19.2133392 C19.013862,19.8136724 18.6892189,20.3889429 18.3505055,20.9312361 C17.5559727,22.2022542 16.6713019,23.0596637 15.7851655,23.6293647 L20.0314679,27.2813431 L24.0431186,27.2813431" id="Fill-27" fill="#DED6C8"></path>
                <path d="M23.4531915,7.74559647 C23.2113581,7.38914861 22.9116311,6.75041514 22.5093082,6.43954922 C21.3619916,8.52254143 20.3780959,10.775843 19.4387561,12.9284539 C19.3368929,13.16164 19.2357625,13.3933604 19.134339,13.6239083 C19.5697858,14.2566326 19.8692196,14.953113 20.1317189,15.666595 C20.4299801,15.0001606 20.7282414,14.3174574 21.0311928,13.6236152 C21.8647121,11.7135706 22.7074651,9.7831533 23.6381575,7.99505135 C23.5739617,7.91429363 23.5115247,7.83177712 23.4531915,7.74559647" id="Fill-28" fill="#45BFE2"></path>
                <path d="M23.3039876,5.07810012 C23.2307047,5.19681837 23.1568356,5.31407095 23.0850184,5.43454799 C23.5785052,5.78953019 23.9406691,6.38282828 24.2534404,6.86033944 C24.6047585,6.2390473 24.9720522,5.64516295 25.355175,5.07810012 L23.3039876,5.07810012" id="Fill-29" fill="#45BFE2"></path>
                <path d="M18.2489354,15.6130985 C17.581182,17.0743588 16.9100575,18.4276003 16.1895403,19.5804863 C15.753947,20.2776995 15.2695472,20.8295195 14.7416174,21.2403433 C15.2118003,21.5951789 15.5342449,22.0832428 15.8177031,22.6101466 C16.4564365,22.1106506 17.0838844,21.4275077 17.6626725,20.5013588 C18.1634876,19.7002305 18.6354293,18.8206896 19.095206,17.8869193 C18.8206884,17.1260966 18.5795877,16.3470997 18.2489354,15.6130985" id="Fill-30" fill="#45BFE2"></path>
                <path d="M13.5866795,21.9316938 C13.5642549,21.9249518 13.5431494,21.9174769 13.5226302,21.9092693 C13.048197,22.0710778 12.5463559,22.1411363 12.018133,22.1168063 C9.03112333,21.9749307 5.86515692,19.0424435 4.08071912,16.0626156 L4.08071912,19.0741017 C6.18100608,21.641054 9.0624884,23.7158385 11.935763,23.8522912 C12.0304445,23.8568347 12.1277642,23.8594729 12.2271357,23.8594729 C13.0130212,23.8594729 13.9336006,23.7064583 14.8707419,23.220886 C14.5736531,22.6684798 14.2100235,22.1175392 13.5866795,21.9316938" id="Fill-31" fill="#45BFE2"></path>
                <path d="M28.4435904,5.65065916 L28.4175017,5.65065916 C25.7327838,5.65329734 23.5581148,7.83280308 23.5614125,10.5181072 C23.5619255,11.1017319 24.0530673,12.3843287 24.5142363,13.637539 C25.1583195,15.3895857 28.0463972,22.1392309 28.4323781,22.5949038 L28.4458621,22.6101466 L28.4586134,22.5949038 C28.8434217,22.1379118 31.4835103,15.6646163 32.3657627,13.6289649 C32.8966238,12.4038219 33.3114781,11.0894937 33.3108918,10.5063086 C33.3078872,7.82173737 31.1288212,5.64714158 28.4435904,5.65065916" id="Fill-32" fill="url(#linearGradient-2)"></path>
                <path d="M28.4402926,14.1272884 C26.4969776,14.1294868 24.9212494,12.5563235 24.9180982,10.6144009 C24.916999,8.67145221 26.4898691,7.09506447 28.4318651,7.09308583 C30.3745206,7.09096062 31.9512015,8.66353766 31.9542794,10.6064863 C31.9555985,12.5484823 30.3828016,14.1250899 28.4402926,14.1272884" id="Fill-33" fill="#FFFFFF"></path>
            </g>
        </g>
    </g>
</svg>