<?xml version="1.0" encoding="utf-8"?>
<svg version="1.1" id="Calque_1" xmlns="http://www.w3.org/2000/svg" xmlns:xlink="http://www.w3.org/1999/xlink" x="0px" y="0px"
	 viewBox="0 0 32 32" style="enable-background:new 0 0 32 32;" xml:space="preserve">
<style type="text/css">
	.u-color--daylymotion{fill:#FFFFFF;}
</style>
<path class="u-color--daylymotion" d="M20.2,12.3c-1.2-1.5-2.8-2.2-4.9-2.2c-2.2,0-4.2,0.8-5.8,2.4c-1.8,1.7-2.8,4-2.8,6.5c0,2.7,1,5.1,3,6.8
	c1.5,1.4,3.3,2.1,5.4,2.1c2.1,0,3.6-0.5,5.1-2v2h4.9V3.6l-5.1,1.1V12.3z M16.3,23.2L16.3,23.2c-2.6,0-4.5-1.8-4.5-4.3
	c0-2.3,1.9-4.3,4.3-4.3c2.4,0,4.2,1.9,4.2,4.4C20.3,21.3,18.5,23.2,16.3,23.2z"/>
</svg>
