<svg xmlns="http://www.w3.org/2000/svg" viewBox="0 0 504 360"><path stroke-width="1.07" stroke="#c4c8cc" d="M210.82 19.6l.12.2.12.2.11.21.12.2.11.21.12.2.11.2.12.21.12.2.11.2.12.21.11.2.12.21.11.2.12.2.12.21.11.2.12.2.11.21.12.2.11.21.12.2.12.2.11.21.12.2.11.2.12.21.11.2.12.21.12.2.11.2.12.21.11.2.12.2.11.21.12.2.12.2.11.21.12.2.11.21.12.2.12.2.11.21.12.2.11.2.12.21.11.2.12.21.12.2.11.2.12.21.11.2.12.2.11.21.12.2.12.21.11.2.12.2.11.21.12.2.11.2.12.21.12.2.11.21.12.2.11.2.12.21.11.2.12.2.12.21.11.2.12.21.11.2.12.2.12.21.11.2.12.2.11.21.12.2.11.21.12.2.12.2.11.21.12.2.11.2.12.21.11.2.12.21.12.2.11.2.12.21.11.2.12.2.11.21.12.2.12.21.11.2.12.2.11.21"/><path stroke-width="1.07" stroke="#c4c8cc" stroke-opacity=".98" d="M233.94 304.82h-.95l-.24-.01h-1.43l-.24-.01h-1.19l-.24-.01h-1.43l-.24-.01h-1.2l-.23-.01h-1.43l-.24-.01h-1.43l-.24-.01h-1.2l-.23-.01h-1.43l-.24-.01h-1.2l-.23-.01h-1.44l-.23-.01h-1.2l-.23-.01h-1.44l-.23-.01h-1.2l-.24-.01h-1.43l-.23-.01h-.48"/><path stroke-width="1.07" stroke="#c4c8cc" stroke-opacity=".92" d="M210.82 19.6l-.29-.04-.29-.03-.29-.03-.29-.03-.29-.04-.29-.03-.29-.03-.29-.03-.29-.04-.29-.03-.29-.03-.29-.04-.29-.03-.29-.03-.29-.03-.29-.04-.29-.03-.29-.03-.29-.03-.3-.04-.29-.03-.29-.03-.29-.03-.29-.04-.29-.03-.29-.03-.29-.03-.29-.04-.29-.03-.29-.03-.29-.04-.29-.03-.29-.03-.29-.03-.29-.04-.29-.03-.29-.03-.29-.03-.29-.04-.29-.03-.29-.03-.29-.03-.3-.04-.29-.03-.29-.03-.29-.04-.29-.03-.29-.03-.29-.03-.29-.04-.29-.03-.29-.03-.29-.03-.29-.04-.29-.03-.29-.03-.29-.03-.29-.04-.29-.03-.29-.03-.29-.04-.29-.03-.29-.03-.29-.03-.29-.04-.3-.03-.29-.03-.29-.03-.29-.04-.29-.03-.29-.03-.29-.03-.29-.04-.29-.03-.29-.03-.29-.04-.29-.03-.29-.03-.29-.03-.29-.04-.29-.03-.29-.03-.29-.03-.29-.04-.29-.03-.29-.03-.29-.03-.29-.04-.3-.03-.29-.03-.29-.04-.29-.03-.29-.03-.29-.03-.29-.04-.29-.03-.29-.03-.29-.03-.29-.04"/><path stroke-width="1.07" stroke="#c4c8cc" stroke-opacity=".56" d="M264.04 58.29l-.01.22-.02.22-.01.23-.02.22-.01.22-.02.23-.02.22-.01.22-.02.22-.01.23-.02.22-.01.22-.02.23-.01.22-.02.22-.01.22-.02.23-.02.22-.01.22-.02.22-.01.23-.02.22-.01.22-.02.23-.01.22-.02.22-.02.22-.01.23-.02.22-.01.22-.02.23-.01.22-.02.22-.01.22-.02.23-.01.22-.02.22-.02.22-.01.23-.02.22-.01.22-.02.23-.01.22-.02.22-.01.22-.02.23-.02.22-.01.22-.02.23-.01.22-.02.22-.01.22-.02.23-.01.22-.02.22-.01.22-.02.23-.02.22-.01.22-.02.23-.01.22-.02.22-.01.22-.02.23-.01.22-.02.22-.02.23-.01.22-.02.22-.01.22-.02.23-.01.22-.02.22-.01.22-.02.23-.01.22-.02.22-.02.23-.01.22-.02.22-.01.22-.02.23-.01.22-.02.22-.01.23-.02.22-.02.22-.01.22-.02.23-.01.22-.02.22-.01.22-.02.23-.01.22-.02.22-.01.23-.02.22-.02.22-.01.22"/><path stroke-width="1.07" stroke="#c4c8cc" stroke-opacity=".53" d="M195.68 262.18l-.43.13-.42.13-.43.13-.43.13-.43.13-.43.13-.43.13-.42.13-.43.13-.43.13-.43.13-.43.13-.42.13-.43.13-.43.13-.43.13-.43.13-.43.13-.42.13-.43.12-.43.13-.43.13-.43.13-.42.13-.43.13-.43.13-.43.13-.43.13-.43.13-.42.13-.43.13-.43.13-.43.13-.43.13-.42.13-.43.13-.43.13-.43.13-.43.13-.43.13-.42.13-.43.13-.43.13-.43.13-.43.13-.42.13-.43.13-.43.13-.43.13-.43.13-.43.13-.42.13-.43.13-.43.13-.43.13-.43.13-.43.13-.42.13-.43.13-.43.13-.43.13-.43.13-.42.13-.43.13-.43.13-.43.13-.43.13-.43.13-.42.13-.43.13-.43.13-.43.13-.43.13-.42.13-.43.13-.43.13-.43.13-.43.13-.43.13-.42.13-.43.13-.43.13-.43.13-.43.13-.42.13-.43.13-.43.13-.43.13-.43.13-.43.13-.42.13-.43.13-.43.13-.43.13-.43.13-.42.13-.43.13-.43.13-.43.13"/><path stroke-width="1.07" stroke="#c4c8cc" stroke-opacity=".5" d="M195.68 262.18l-.39-.44-.39-.44-.4-.44-.39-.43-.39-.44-.39-.44-.39-.44-.4-.44-.39-.43-.39-.44-.39-.44-.4-.44-.39-.44-.39-.43-.39-.44-.4-.44-.39-.44-.39-.44-.39-.43-.39-.44-.4-.44-.39-.44-.39-.43-.39-.44-.4-.44-.39-.44-.39-.44-.39-.43-.4-.44-.39-.44-.39-.44-.39-.44-.39-.43-.4-.44-.39-.44-.39-.44-.39-.44-.4-.43-.39-.44-.39-.44-.39-.44-.4-.44-.39-.43-.39-.44-.39-.44-.39-.44-.4-.43-.39-.44-.39-.44-.39-.44-.4-.44-.39-.43-.39-.44-.39-.44-.4-.44-.39-.44-.39-.43-.39-.44-.39-.44-.4-.44-.39-.44-.39-.43-.39-.44-.4-.44-.39-.44-.39-.43-.39-.44-.4-.44-.39-.44-.39-.44-.39-.43-.4-.44-.39-.44-.39-.44-.39-.44-.39-.43-.4-.44-.39-.44-.39-.44-.39-.44-.4-.43-.39-.44-.39-.44-.39-.44-.4-.44-.39-.43-.39-.44-.39-.44-.39-.44-.4-.43-.39-.44-.39-.44-.39-.44-.4-.44-.39-.43-.39-.44-.39-.44-.4-.44-.39-.44"/><path stroke-width="1.07" stroke="#c4c8cc" stroke-opacity=".44" d="M235.14 264.28l-.43-.31-.42-.31-.43-.31-.43-.31-.43-.31-.42-.3-.43-.31-.43-.31-.43-.31-.42-.31-.43-.31-.43-.31-.43-.31-.42-.31-.43-.31-.43-.3-.43-.31-.43-.31-.42-.31-.43-.31-.43-.31-.43-.31-.42-.31-.43-.31-.43-.31-.43-.31-.42-.3-.43-.31-.43-.31-.43-.31-.42-.31-.43-.31-.43-.31-.43-.31-.42-.31-.43-.31-.43-.3-.43-.31-.43-.31-.42-.31-.43-.31-.43-.31-.43-.31-.42-.31-.43-.31-.43-.31-.43-.3-.42-.31-.43-.31-.43-.31-.43-.31-.42-.31-.43-.31-.43-.31-.43-.31-.42-.31-.43-.3-.43-.31-.43-.31-.42-.31-.43-.31-.43-.31-.43-.31-.43-.31-.42-.31-.43-.31-.43-.31-.43-.3-.42-.31-.43-.31-.43-.31-.43-.31-.42-.31-.43-.31-.43-.31-.43-.31-.42-.31-.43-.3-.43-.31-.43-.31-.42-.31-.43-.31-.43-.31-.43-.31-.42-.31-.43-.31-.43-.31-.43-.3-.43-.31-.42-.31-.43-.31-.43-.31-.43-.31-.42-.31-.43-.31-.43-.31-.43-.31-.42-.3-.43-.31"/><path stroke-width="1.07" stroke="#c4c8cc" stroke-opacity=".39" d="M20.15 207.7l.37.06.37.06.37.06.36.06.37.06.37.06.37.06.37.06.36.06.37.06.37.06.37.06.37.06.36.06.37.06.37.06.37.06.37.06.37.06.36.06.37.06.37.06.37.06.37.06.36.06.37.05.37.06.37.06.37.06.36.06.37.06.37.06.37.06.37.06.36.06.37.06.37.06.37.06.37.06.37.06.36.06.37.06.37.06.37.06.37.06.36.06.37.06.37.06.37.06.37.06.36.06.37.06.37.05.37.06.37.06.36.06.37.06.37.06.37.06.37.06.37.06.36.06.37.06.37.06.37.06.37.06.36.06.37.06.37.06.37.06.37.06.36.06.37.06.37.06.37.06.37.06.36.06.37.06.37.06.37.05.37.06.37.06.36.06.37.06.37.06.37.06.37.06.36.06.37.06.37.06.37.06.37.06.36.06.37.06.37.06.37.06.37.06.37.06.36.06"/><path stroke-width="1.07" stroke="#c4c8cc" stroke-opacity=".36" d="M64.28 176.59l-.36-.19-.35-.19-.35-.18-.36-.19-.35-.19-.35-.19-.36-.19-.35-.18-.35-.19-.35-.19-.36-.19-.35-.19-.35-.18-.36-.19-.35-.19-.35-.19-.36-.19-.35-.18-.35-.19-.35-.19-.36-.19-.35-.19-.35-.18-.36-.19-.35-.19-.35-.19-.36-.18-.35-.19-.35-.19-.35-.19-.36-.19-.35-.18-.35-.19-.36-.19-.35-.19-.35-.19-.35-.18-.36-.19-.35-.19-.35-.19-.36-.19-.35-.18-.35-.19-.36-.19-.35-.19-.35-.19-.35-.18-.36-.19-.35-.19-.35-.19-.36-.19-.35-.18-.35-.19-.36-.19-.35-.19-.35-.18-.35-.19-.36-.19-.35-.19-.35-.19-.36-.18-.35-.19-.35-.19-.35-.19-.36-.19-.35-.18-.35-.19-.36-.19-.35-.19-.35-.19-.36-.18-.35-.19-.35-.19-.35-.19-.36-.19-.35-.18-.35-.19-.36-.19-.35-.19-.35-.18-.36-.19-.35-.19-.35-.19-.35-.19-.36-.18-.35-.19-.35-.19-.36-.19-.35-.19-.35-.18-.36-.19-.35-.19-.35-.19-.35-.19-.36-.18-.35-.19-.35-.19-.36-.19-.35-.19"/><path stroke-width="1.07" stroke="#c4c8cc" stroke-opacity=".34" d="M194.62 343.64l-.22-.35-.22-.34-.22-.35-.22-.34-.21-.35-.22-.34-.22-.35-.22-.34-.22-.35-.22-.34-.22-.35-.22-.34-.22-.35-.21-.34-.22-.35-.22-.34-.22-.35-.22-.34-.22-.35-.22-.34-.22-.35-.21-.34-.22-.35-.22-.34-.22-.35-.22-.34-.22-.35-.22-.34-.22-.35-.21-.34-.22-.35-.22-.34-.22-.35-.22-.34-.22-.35-.22-.34-.22-.35-.22-.34-.21-.35-.22-.34-.22-.35-.22-.35-.22-.34-.22-.35-.22-.34-.22-.35-.21-.34-.22-.35-.22-.34-.22-.35-.22-.34-.22-.35-.22-.34-.22-.35-.22-.34-.21-.35-.22-.34-.22-.35-.22-.34-.22-.35-.22-.34-.22-.35-.22-.34-.21-.35-.22-.34-.22-.35-.22-.34-.22-.35-.22-.34-.22-.35-.22-.34-.21-.35-.22-.34-.22-.35-.22-.34-.22-.35-.22-.34-.22-.35-.22-.34-.22-.35-.21-.34-.22-.35-.22-.34-.22-.35-.22-.34-.22-.35-.22-.34-.22-.35-.21-.34-.22-.35-.22-.34-.22-.35-.22-.34-.22-.35-.22-.34-.22-.35-.21-.34-.22-.35-.22-.34"/><path stroke-width="1.07" stroke="#c4c8cc" stroke-opacity=".29" d="M195.68 262.18l.29.25.28.26.28.26.29.26.28.26.28.25.29.26.28.26.28.26.29.25.28.26.28.26.29.26.28.26.28.25.29.26.28.26.28.26.29.25.28.26.28.26.29.26.28.25.29.26.28.26.28.26.29.26.28.25.28.26.29.26.28.26.28.25.29.26.28.26.28.26.29.25.28.26.28.26.29.26.28.26.28.25.29.26.28.26.28.26.29.25.28.26.29.26.28.26.28.26.29.25.28.26.28.26.29.26.28.25.28.26.29.26.28.26.28.25.29.26.28.26.28.26.29.26.28.25.28.26.29.26.28.26.28.25.29.26.28.26.28.26.29.26.28.25.29.26.28.26.28.26.29.25.28.26.28.26.29.26.28.25.28.26.29.26.28.26.28.26.29.25.28.26.28.26.29.26.28.25.28.26.29.26.28.26.28.25.29.26.28.26.29.26.28.26.28.25.29.26M195.68 262.18l.4.02.4.02.4.02.4.02.39.02.4.02.4.03.4.02.4.02.4.02.4.02.39.02.4.02.4.02.4.03.4.02.4.02.4.02.39.02.4.02.4.02.4.02.4.03.4.02.4.02.4.02.39.02.4.02.4.02.4.02.4.03.4.02.4.02.39.02.4.02.4.02.4.02.4.02.4.03.4.02.39.02.4.02.4.02.4.02.4.02.4.02.4.03.39.02.4.02.4.02.4.02.4.02.4.02.4.02.39.03.4.02.4.02.4.02.4.02.4.02.4.02.39.02.4.02.4.03.4.02.4.02.4.02.4.02.39.02.4.02.4.02.4.03.4.02.4.02.4.02.39.02.4.02.4.02.4.02.4.03.4.02.4.02.39.02.4.02.4.02.4.02.4.02.4.03.4.02.39.02.4.02.4.02.4.02.4.02.4.02.4.03.39.02.4.02.4.02"/><path stroke-width="1.07" stroke="#c4c8cc" stroke-opacity=".28" d="M235.14 264.28l-.11.24-.12.23-.11.24-.12.24-.11.23-.12.24-.11.23-.12.24-.11.24-.12.23-.11.24-.12.24-.11.23-.12.24-.12.24-.11.23-.12.24-.11.24-.12.23-.11.24-.12.24-.11.23-.12.24-.11.24-.12.23-.11.24-.12.23-.11.24-.12.24-.11.23-.12.24-.11.24-.12.23-.11.24-.12.24-.11.23-.12.24-.11.24-.12.23-.11.24-.12.24-.11.23-.12.24-.11.23-.12.24-.11.24-.12.23-.11.24-.12.24-.11.23-.12.24-.11.24-.12.23-.11.24-.12.24-.11.23-.12.24-.11.24-.12.23-.12.24-.11.23-.12.24-.11.24-.12.23-.11.24-.12.24-.11.23-.12.24-.11.24-.12.23-.11.24-.12.24-.11.23-.12.24-.11.24-.12.23-.11.24-.12.24-.11.23-.12.24-.11.23-.12.24-.11.24-.12.23-.11.24-.12.24-.11.23-.12.24-.11.24-.12.23-.11.24-.12.24-.11.23-.12.24-.11.24-.12.23-.11.24-.12.23-.11.24"/><path stroke-width="1.07" stroke="#c4c8cc" stroke-opacity=".25" d="M156.84 218.82l-.39-.4-.39-.4-.4-.41-.39-.4-.39-.4-.4-.41-.39-.4-.4-.4-.39-.41-.39-.4-.4-.41-.39-.4-.39-.4-.4-.41-.39-.4-.39-.4-.4-.41-.39-.4-.39-.4-.4-.41-.39-.4-.39-.41-.4-.4-.39-.4-.39-.41-.4-.4-.39-.4-.39-.41-.4-.4-.39-.4-.39-.41-.4-.4-.39-.41-.4-.4-.39-.4-.39-.41-.4-.4-.39-.4-.39-.41-.4-.4-.39-.4-.39-.41-.4-.4-.39-.41-.39-.4-.4-.4-.39-.41-.39-.4-.4-.4-.39-.41-.39-.4-.4-.4-.39-.41-.39-.4-.4-.41-.39-.4-.39-.4-.4-.41-.39-.4-.39-.4-.4-.41-.39-.4-.4-.4-.39-.41-.39-.4-.4-.41-.39-.4-.39-.4-.4-.41-.39-.4-.39-.4-.4-.41-.39-.4-.39-.4-.4-.41-.39-.4-.39-.41-.4-.4-.39-.4-.39-.41-.4-.4-.39-.4-.39-.41-.4-.4-.39-.4-.39-.41-.4-.4-.39-.41-.4-.4-.39-.4-.39-.41-.4-.4-.39-.4-.39-.41-.4-.4-.39-.4-.39-.41-.4-.4-.39-.41M400.3 163.07l.05-.28.04-.28.04-.27.05-.28.04-.28.05-.28.04-.28.04-.28.05-.28.04-.27.05-.28.04-.28.04-.28.05-.28.04-.28.05-.28.04-.27.04-.28.05-.28.04-.28.05-.28.04-.28.04-.27.05-.28.04-.28.05-.28.04-.28.05-.28.04-.28.04-.27.05-.28.04-.28.05-.28.04-.28.04-.28.05-.28.04-.27.05-.28.04-.28.04-.28.05-.28.04-.28.05-.28.04-.27.04-.28.05-.28.04-.28.05-.28.04-.28.04-.28.05-.27.04-.28.05-.28.04-.28.04-.28.05-.28.04-.27.05-.28.04-.28.04-.28.05-.28.04-.28.05-.28.04-.27.04-.28.05-.28.04-.28.05-.28.04-.28.04-.28.05-.27.04-.28.05-.28.04-.28.05-.28.04-.28.04-.28.05-.27.04-.28.05-.28.04-.28.04-.28.05-.28.04-.27.05-.28.04-.28.04-.28.05-.28.04-.28.05-.28.04-.27.04-.28.05-.28.04-.28.05-.28.04-.28.04-.28.05-.27.04-.28"/><path stroke-width="1.07" stroke="#c4c8cc" stroke-opacity=".24" d="M145.72 131.53l.16.38.17.39.16.39.17.38.16.39.16.38.17.39.16.38.17.39.16.38.17.39.16.38.17.39.16.38.16.39.17.38.16.39.17.38.16.39.17.38.16.39.16.39.17.38.16.39.17.38.16.39.17.38.16.39.17.38.16.39.16.38.17.39.16.38.17.39.16.38.17.39.16.38.17.39.16.38.16.39.17.39.16.38.17.39.16.38.17.39.16.38.16.39.17.38.16.39.17.38.16.39.17.38.16.39.17.38.16.39.16.38.17.39.16.38.17.39.16.39.17.38.16.39.16.38.17.39.16.38.17.39.16.38.17.39.16.38.17.39.16.38.16.39.17.38.16.39.17.38.16.39.17.39.16.38.16.39.17.38.16.39.17.38.16.39.17.38.16.39.17.38.16.39.16.38.17.39.16.38.17.39.16.38.17.39.16.38.16.39.17.39.16.38.17.39.16.38"/><path stroke-width="1.07" stroke="#c4c8cc" stroke-opacity=".2" d="M274.12 239.22l.39-.31.39-.31.39-.31.39-.31.39-.31.39-.31.39-.31.39-.3.39-.31.39-.31.39-.31.39-.31.39-.31.39-.31.39-.31.39-.31.39-.31.39-.31.39-.31.39-.31.39-.3.39-.31.39-.31.39-.31.39-.31.39-.31.39-.31.39-.31.39-.31.39-.31.39-.31.39-.31.39-.3.39-.31.39-.31.39-.31.39-.31.39-.31.39-.31.39-.31.39-.31.39-.31.39-.31.39-.31.39-.31.39-.3.39-.31.39-.31.39-.31.39-.31.39-.31.39-.31.39-.31.39-.31.39-.31.39-.31.39-.31.39-.3.39-.31.39-.31.39-.31.39-.31.39-.31.39-.31.39-.31.39-.31.39-.31.39-.31.39-.31.39-.31.39-.3.39-.31.39-.31.39-.31.39-.31.39-.31.39-.31.39-.31.39-.31.39-.31.39-.31.39-.31.39-.3.39-.31.39-.31.39-.31.39-.31.39-.31.39-.31.39-.31.39-.31.39-.31.39-.31.39-.31.39-.3.39-.31.39-.31.39-.31.39-.31"/><path stroke-width="1.07" stroke="#c4c8cc" stroke-opacity=".19" d="M180.74 197.26l-.19-.28-.19-.28-.19-.28-.19-.28-.19-.28-.19-.28-.19-.28-.19-.27-.19-.28-.18-.28-.19-.28-.19-.28-.19-.28-.19-.28-.19-.27-.19-.28-.19-.28-.19-.28-.19-.28-.19-.28-.19-.28-.19-.27-.19-.28-.19-.28-.18-.28-.19-.28-.19-.28-.19-.28-.19-.28-.19-.27-.19-.28-.19-.28-.19-.28-.19-.28-.19-.28-.19-.28-.19-.27-.19-.28-.19-.28-.19-.28-.18-.28-.19-.28-.19-.28-.19-.27-.19-.28-.19-.28-.19-.28-.19-.28-.19-.28-.19-.28-.19-.27-.19-.28-.19-.28-.19-.28-.19-.28-.19-.28-.18-.28-.19-.28-.19-.27-.19-.28-.19-.28-.19-.28-.19-.28-.19-.28-.19-.28-.19-.27-.19-.28-.19-.28-.19-.28-.19-.28-.19-.28-.18-.28-.19-.27-.19-.28-.19-.28-.19-.28-.19-.28-.19-.28-.19-.28-.19-.28-.19-.27-.19-.28-.19-.28-.19-.28-.19-.28-.19-.28-.19-.28-.18-.27-.19-.28-.19-.28-.19-.28-.19-.28-.19-.28-.19-.28-.19-.27-.19-.28-.19-.28-.19-.28-.19-.28"/><path stroke-width="1.07" stroke="#c4c8cc" stroke-opacity=".18" d="M136.58 259.53l.17.15.17.16.17.16.17.15.17.16.17.16.16.15.17.16.17.16.17.15.17.16.17.16.17.15.17.16.16.16.17.15.17.16.17.16.17.15.17.16.17.16.17.15.16.16.17.16.17.15.17.16.17.16.17.15.17.16.17.16.16.15.17.16.17.16.17.15.17.16.17.16.17.15.17.16.17.16.16.15.17.16.17.16.17.15.17.16.17.16.17.15.17.16.16.16.17.15.17.16.17.16.17.15.17.16.17.16.17.15.16.16.17.16.17.15.17.16.17.16.17.15.17.16.17.16.16.15.17.16.17.16.17.15.17.16.17.16.17.15.17.16.16.16.17.15.17.16.17.16.17.15.17.16.17.16.17.15.16.16.17.16.17.15.17.16.17.16.17.15.17.16.17.16.16.15.17.16.17.16.17.15.17.16.17.16.17.15.17.16.16.16.17.15.17.16.17.16M156.84 218.82v.19l.01.19V220.53l.01.19v1.14l.01.19v1.14l.01.19v1.14l.01.19v1.14l.01.19v1.14l.01.19V228.7l.01.19v1.14l.01.19v1.14l.01.19v1.14l.01.19v1.14l.01.19v1.14l.01.19V236.87l.01.19V237.63M156.84 218.82l.05-.49.06-.5.05-.5.05-.49.05-.5.05-.49.06-.5.05-.5.05-.49.05-.5.05-.5.06-.49.05-.5.05-.5.05-.49.05-.5.06-.5.05-.49.05-.5.05-.5.05-.49.06-.5.05-.5.05-.49.05-.5.05-.49.06-.5.05-.5.05-.49.05-.5.05-.5.06-.49.05-.5.05-.5.05-.49.06-.5.05-.5.05-.49.05-.5.05-.5.06-.49.05-.5.05-.5.05-.49.05-.5.06-.49.05-.5.05-.5.05-.49.05-.5.06-.5.05-.49.05-.5.05-.5.05-.49.06-.5.05-.5.05-.49.05-.5.05-.5.06-.49.05-.5.05-.5.05-.49.05-.5.06-.49.05-.5.05-.5.05-.49.05-.5.06-.5.05-.49.05-.5.05-.5.05-.49.06-.5.05-.5.05-.49.05-.5.05-.5.06-.49.05-.5.05-.5.05-.49.05-.5.06-.49.05-.5.05-.5.05-.49.05-.5.06-.5.05-.49.05-.5.05-.5.05-.49.06-.5.05-.5.05-.49.05-.5M293.13 26.75l.21.14.21.15.21.14.21.15.22.14.21.15.21.15.21.14.21.15.21.14.21.15.21.14.22.15.21.15.21.14.21.15.21.14.21.15.21.14.21.15.21.14.22.15.21.15.21.14.21.15.21.14.21.15.21.14.21.15.21.15.22.14.21.15.21.14.21.15.21.14.21.15.21.15.21.14.21.15.22.14.21.15.21.14.21.15.21.15.21.14.21.15.21.14.21.15.22.14.21.15.21.14.21.15.21.15.21.14.21.15.21.14.21.15.22.14.21.15.21.15.21.14.21.15.21.14.21.15.21.14.21.15.22.15.21.14.21.15.21.14.21.15.21.14.21.15.21.15.21.14.22.15.21.14.21.15.21.14.21.15.21.14.21.15.21.15.21.14.22.15.21.14.21.15.21.14.21.15.21.15.21.14.21.15.21.14.22.15.21.14.21.15.21.15.21.14.21.15"/><path stroke-width="1.07" stroke="#c4c8cc" stroke-opacity=".17" d="M74.45 69.11l.22-.16.21-.16.22-.16.21-.16.22-.16.21-.16.22-.16.21-.16.22-.16.21-.16.22-.16.21-.16.22-.16.21-.16.21-.16.22-.16.21-.16.22-.16.21-.16.22-.16.21-.16.22-.16.21-.16.22-.16.21-.16.22-.16.21-.16.22-.16.21-.16.22-.16.21-.16.22-.16.21-.16.22-.16.21-.16.22-.16.21-.16.22-.16.21-.16.22-.16.21-.16.22-.16.21-.16.22-.16.21-.16.22-.16.21-.16.22-.16.21-.16.22-.16.21-.16.22-.16.21-.16.22-.16.21-.16.22-.16.21-.16.22-.16.21-.16.22-.16.21-.16.22-.16.21-.16.22-.16.21-.16.21-.16.22-.16.21-.16.22-.16.21-.16.22-.16.21-.16.22-.16.21-.16.22-.16.21-.16.22-.16.21-.16.22-.16.21-.16.22-.16.21-.16.22-.16.21-.16.22-.16.21-.16.22-.16.21-.16.22-.16.21-.16.22-.16.21-.16.22-.16.21-.16.22-.16.21-.16.22-.16.21-.16.22-.16M161.99 169.67l.28.04.28.05.27.04.28.04.28.05.27.04.28.04.28.05.27.04.28.04.28.05.27.04.28.04.28.05.28.04.27.04.28.05.28.04.27.04.28.05.28.04.27.05.28.04.28.04.27.05.28.04.28.04.28.05.27.04.28.04.28.05.27.04.28.04.28.05.27.04.28.04.28.05.27.04.28.04.28.05.27.04.28.04.28.05.28.04.27.04.28.05.28.04.27.04.28.05.28.04.27.04.28.05.28.04.27.04.28.05.28.04.27.04.28.05.28.04.28.04.27.05.28.04.28.04.27.05.28.04.28.04.27.05.28.04.28.04.27.05.28.04.28.04.27.05.28.04.28.04.28.05.27.04.28.04.28.05.27.04.28.04.28.05.27.04.28.04.28.05.27.04.28.04.28.05.28.04.27.04.28.05.28.04.27.04.28.05.28.04.27.04.28.05.28.04.27.04M50.79 137.99l.13.39.14.39.13.39.14.39.14.39.13.39.14.39.14.39.13.39.14.39.13.39.14.39.14.39.13.39.14.39.14.39.13.39.14.39.13.39.14.39.14.39.13.39.14.39.14.39.13.39.14.39.13.39.14.39.14.39.13.39.14.39.14.39.13.39.14.39.13.39.14.39.14.39.13.39.14.39.14.39.13.39.14.38.13.39.14.39.14.39.13.39.14.39.14.39.13.39.14.39.13.39.14.39.14.39.13.39.14.39.14.39.13.39.14.39.13.39.14.39.14.39.13.39.14.39.14.39.13.39.14.39.13.39.14.39.14.39.13.39.14.39.14.39.13.39.14.39.13.39.14.39.14.39.13.39.14.39.14.39.13.39.14.39.13.39.14.39.14.39.13.39.14.39.14.39.13.39.14.39.14.39.13.39.14.39.13.39.14.39.14.39.13.39.14.39.14.39"/><path stroke-width="1.07" stroke="#c4c8cc" stroke-opacity=".16" d="M331.46 144l-.25-.2-.25-.2-.25-.2-.25-.2-.25-.2-.25-.2-.25-.2-.25-.2-.25-.2-.25-.2-.25-.2-.25-.2-.25-.21-.25-.2-.25-.2-.25-.2-.25-.2-.25-.2-.25-.2-.25-.2-.25-.2-.25-.2-.25-.2-.25-.2-.25-.2-.25-.2-.25-.2-.25-.2-.25-.2-.25-.2-.25-.2-.25-.2-.25-.2-.25-.2-.25-.2-.25-.2-.25-.2-.25-.2-.25-.2-.25-.2-.25-.2-.25-.21-.25-.2-.25-.2-.25-.2-.25-.2-.25-.2-.25-.2-.25-.2-.25-.2-.25-.2-.25-.2-.25-.2-.25-.2-.25-.2-.25-.2-.25-.2-.25-.2-.25-.2-.25-.2-.25-.2-.25-.2-.25-.2-.25-.2-.25-.2-.25-.2-.25-.2-.25-.2-.25-.2-.25-.2-.25-.21-.25-.2-.25-.2-.25-.2-.25-.2-.25-.2-.25-.2-.25-.2-.25-.2-.25-.2-.25-.2-.25-.2-.25-.2-.25-.2-.25-.2-.25-.2-.25-.2-.25-.2-.25-.2-.25-.2-.25-.2-.25-.2-.25-.2-.25-.2-.25-.2-.25-.2-.25-.2-.25-.2-.25-.2M156.84 218.82l.24-.21.25-.22.24-.22.24-.22.24-.22.24-.21.24-.22.24-.22.24-.22.25-.21.24-.22.24-.22.24-.22.24-.22.24-.21.24-.22.25-.22.24-.22.24-.22.24-.21.24-.22.24-.22.24-.22.25-.21.24-.22.24-.22.24-.22.24-.22.24-.21.24-.22.25-.22.24-.22.24-.22.24-.21.24-.22.24-.22.24-.22.24-.21.25-.22.24-.22.24-.22.24-.22.24-.21.24-.22.24-.22.25-.22.24-.22.24-.21.24-.22.24-.22.24-.22.24-.22.25-.21.24-.22.24-.22.24-.22.24-.21.24-.22.24-.22.25-.22.24-.22.24-.21.24-.22.24-.22.24-.22.24-.22.24-.21.25-.22.24-.22.24-.22.24-.21.24-.22.24-.22.24-.22.25-.22.24-.21.24-.22.24-.22.24-.22.24-.22.24-.21.25-.22.24-.22.24-.22.24-.21.24-.22.24-.22.24-.22.25-.22.24-.21.24-.22.24-.22.24-.22.24-.22.24-.21.25-.22.24-.22.24-.22.24-.21M154.11 339.06l.19-.3.19-.3.19-.29.19-.3.19-.3.19-.3.19-.3.19-.3.2-.3.19-.3.19-.3.19-.29.19-.3.19-.3.19-.3.19-.3.19-.3.19-.3.19-.3.19-.29.19-.3.19-.3.19-.3.19-.3.19-.3.19-.3.19-.3.19-.3.19-.29.19-.3.19-.3.19-.3.19-.3.19-.3.19-.3.19-.3.2-.29.19-.3.19-.3.19-.3.19-.3.19-.3.19-.3.19-.3.19-.3.19-.29.19-.3.19-.3.19-.3.19-.3.19-.3.19-.3.19-.3.19-.29.19-.3.19-.3.19-.3.19-.3.19-.3.19-.3.19-.3.19-.3.19-.29.19-.3.2-.3.19-.3.19-.3.19-.3.19-.3.19-.3.19-.29.19-.3.19-.3.19-.3.19-.3.19-.3.19-.3.19-.3.19-.3.19-.29.19-.3.19-.3.19-.3.19-.3.19-.3.19-.3.19-.3.19-.29.19-.3.19-.3.19-.3.19-.3.2-.3.19-.3.19-.3.19-.3.19-.29.19-.3.19-.3M195.68 262.18l-.6-.03-.59-.03-.6-.02-.6-.03-.59-.03-.6-.02-.6-.03-.59-.03-.6-.02-.6-.03-.59-.03-.6-.02-.6-.03-.6-.03-.59-.02-.6-.03-.6-.03-.59-.02-.6-.03-.6-.03-.59-.03-.6-.02-.6-.03-.6-.03-.59-.02-.6-.03-.6-.03-.59-.02-.6-.03-.6-.03-.59-.02-.6-.03-.6-.03-.59-.02-.6-.03-.6-.03-.6-.02-.59-.03-.6-.03-.6-.02-.59-.03-.6-.03-.6-.02-.59-.03-.6-.03-.6-.02-.6-.03-.59-.03-.6-.02-.6-.03-.59-.03-.6-.03-.6-.02-.59-.03-.6-.03-.6-.02-.59-.03-.6-.03-.6-.02-.6-.03-.59-.03-.6-.02-.6-.03-.59-.03-.6-.02-.6-.03-.59-.03-.6-.02-.6-.03-.59-.03-.6-.02-.6-.03-.6-.03-.59-.02-.6-.03-.6-.03-.59-.02-.6-.03-.6-.03-.59-.02-.6-.03-.6-.03-.6-.03-.59-.02-.6-.03-.6-.03-.59-.02-.6-.03-.6-.03-.59-.02-.6-.03-.6-.03-.59-.02-.6-.03-.6-.03-.6-.02-.59-.03-.6-.03-.6-.02M223.75 287.69l.1.17.1.18.1.17.11.17.1.18.1.17.11.17.1.18.1.17.11.17.1.17.1.18.1.17.11.17.1.18.1.17.11.17.1.18.1.17.1.17.11.18.1.17.1.17.11.17.1.18.1.17.11.17.1.18.1.17.1.17.11.18.1.17.1.17.11.17.1.18.1.17.11.17.1.18.1.17.1.17.11.18.1.17.1.17.11.17.1.18.1.17.11.17.1.18.1.17.1.17.11.18.1.17.1.17.11.18.1.17.1.17.1.17.11.18.1.17.1.17.11.18.1.17.1.17.11.18.1.17.1.17.1.17.11.18.1.17.1.17.11.18.1.17.1.17.11.18.1.17.1.17.1.18.11.17.1.17.1.17.11.18.1.17.1.17.11.18.1.17.1.17.1.18.11.17.1.17.1.17.11.18.1.17.1.17.1.18.11.17.1.17.1.18.11.17.1.17"/><path stroke-width="1.07" stroke="#c4c8cc" stroke-opacity=".15" d="M223.75 287.69l-.14.17-.14.17-.13.18-.14.17-.13.17-.14.17-.13.17-.14.17-.13.17-.14.18-.14.17-.13.17-.14.17-.13.17-.14.17-.13.18-.14.17-.13.17-.14.17-.13.17-.14.17-.14.17-.13.18-.14.17-.13.17-.14.17-.13.17-.14.17-.13.18-.14.17-.14.17-.13.17-.14.17-.13.17-.14.17-.13.18-.14.17-.13.17-.14.17-.14.17-.13.17-.14.17-.13.18-.14.17-.13.17-.14.17-.13.17-.14.17-.14.18-.13.17-.14.17-.13.17-.14.17-.13.17-.14.17-.13.18-.14.17-.13.17-.14.17-.14.17-.13.17-.14.18-.13.17-.14.17-.13.17-.14.17-.13.17-.14.17-.14.18-.13.17-.14.17-.13.17-.14.17-.13.17-.14.17-.13.18-.14.17-.14.17-.13.17-.14.17-.13.17-.14.18-.13.17-.14.17-.13.17-.14.17-.14.17-.13.17-.14.18-.13.17-.14.17-.13.17-.14.17-.13.17-.14.18-.13.17-.14.17-.14.17-.13.17M331.46 144l.18-.24.18-.23.18-.24.18-.24.17-.24.18-.23.18-.24.18-.24.18-.23.17-.24.18-.24.18-.23.18-.24.18-.24.17-.24.18-.23.18-.24.18-.24.18-.23.17-.24.18-.24.18-.24.18-.23.17-.24.18-.24.18-.23.18-.24.18-.24.17-.23.18-.24.18-.24.18-.24.18-.23.17-.24.18-.24.18-.23.18-.24.18-.24.17-.23.18-.24.18-.24.18-.24.18-.23.17-.24.18-.24.18-.23.18-.24.17-.24.18-.23.18-.24.18-.24.18-.24.17-.23.18-.24.18-.24.18-.23.18-.24.17-.24.18-.23.18-.24.18-.24.18-.24.17-.23.18-.24.18-.24.18-.23.18-.24.17-.24.18-.23.18-.24.18-.24.17-.24.18-.23.18-.24.18-.24.18-.23.17-.24.18-.24.18-.24.18-.23.18-.24.17-.24.18-.23.18-.24.18-.24.18-.23.17-.24.18-.24.18-.24.18-.23.18-.24.17-.24.18-.23.18-.24.18-.24.17-.23.18-.24.18-.24.18-.24M189.4 173.96l.37-.27.36-.28.36-.28.36-.28.36-.27.36-.28.37-.28.36-.28.36-.27.36-.28.36-.28.37-.28.36-.27.36-.28.36-.28.36-.28.36-.27.37-.28.36-.28.36-.28.36-.27.36-.28.37-.28.36-.28.36-.27.36-.28.36-.28.36-.28.37-.27.36-.28.36-.28.36-.28.36-.27.37-.28.36-.28.36-.28.36-.27.36-.28.36-.28.37-.28.36-.27.36-.28.36-.28.36-.28.37-.27.36-.28.36-.28.36-.28.36-.27.36-.28.37-.28.36-.28.36-.27.36-.28.36-.28.36-.28.37-.27.36-.28.36-.28.36-.28.36-.27.37-.28.36-.28.36-.28.36-.27.36-.28.36-.28.37-.28.36-.27.36-.28.36-.28.36-.28.37-.27.36-.28.36-.28.36-.28.36-.27.36-.28.37-.28.36-.28.36-.27.36-.28.36-.28.37-.28.36-.27.36-.28.36-.28.36-.28.36-.27.37-.28.36-.28.36-.28.36-.27.36-.28.37-.28.36-.28.36-.27.36-.28.36-.28M195.68 262.18l-.03-.29-.03-.29-.03-.29-.02-.28-.03-.29-.03-.29-.03-.29-.03-.29-.03-.28-.03-.29-.03-.29-.03-.29-.03-.28-.02-.29-.03-.29-.03-.29-.03-.29-.03-.28-.03-.29-.03-.29-.03-.29-.03-.28-.03-.29-.02-.29-.03-.29-.03-.29-.03-.28-.03-.29-.03-.29-.03-.29-.03-.28-.03-.29-.03-.29-.02-.29-.03-.29-.03-.28-.03-.29-.03-.29-.03-.29-.03-.28-.03-.29-.03-.29-.03-.29-.03-.29-.02-.28-.03-.29-.03-.29-.03-.29-.03-.28-.03-.29-.03-.29-.03-.29-.03-.29-.03-.28-.02-.29-.03-.29-.03-.29-.03-.28-.03-.29-.03-.29-.03-.29-.03-.29-.03-.28-.03-.29-.02-.29-.03-.29-.03-.28-.03-.29-.03-.29-.03-.29-.03-.29-.03-.28-.03-.29-.03-.29-.02-.29-.03-.28-.03-.29-.03-.29-.03-.29-.03-.29-.03-.28-.03-.29-.03-.29-.03-.29-.02-.28-.03-.29-.03-.29-.03-.29-.03-.29-.03-.28-.03-.29-.03-.29-.03-.29-.03-.28-.03-.29-.02-.29-.03-.29-.03-.29-.03-.28M331.46 144l.08.36.09.36.08.35.08.36.08.36.08.36.08.36.08.36.08.35.08.36.08.36.08.36.08.36.08.36.08.36.08.35.08.36.08.36.08.36.08.36.08.36.08.35.08.36.08.36.08.36.08.36.08.36.08.35.08.36.08.36.08.36.08.36.08.36.08.35.08.36.08.36.08.36.08.36.08.36.08.36.08.35.08.36.08.36.08.36.08.36.08.36.08.35.08.36.09.36.08.36.08.36.08.36.08.35.08.36.08.36.08.36.08.36.08.36.08.35.08.36.08.36.08.36.08.36.08.36.08.36.08.35.08.36.08.36.08.36.08.36.08.36.08.35.08.36.08.36.08.36.08.36.08.36.08.35.08.36.08.36.08.36.08.36.08.36.08.35.08.36.08.36.08.36.08.36.08.36.08.36.08.35.08.36.08.36.08.36.08.36.09.36.08.35.08.36.08.36M175.55 67.08l-.27.02-.28.03-.27.02-.28.02-.27.02-.28.03-.27.02-.27.02-.28.02-.27.03-.28.02-.27.02-.28.02-.27.03-.28.02-.27.02-.27.02-.28.03-.27.02-.28.02-.27.02-.28.03-.27.02-.27.02-.28.02-.27.03-.28.02-.27.02-.28.02-.27.03-.28.02-.27.02-.27.02-.28.03-.27.02-.28.02-.27.02-.28.03-.27.02-.27.02-.28.02-.27.03-.28.02-.27.02-.28.02-.27.03-.27.02-.28.02-.27.02-.28.02-.27.03-.28.02-.27.02-.28.02-.27.03-.27.02-.28.02-.27.02-.28.03-.27.02-.28.02-.27.02-.27.03-.28.02-.27.02-.28.02-.27.03-.28.02-.27.02-.27.02-.28.03-.27.02-.28.02-.27.02-.28.03-.27.02-.28.02-.27.02-.27.03-.28.02-.27.02-.28.02-.27.03-.28.02-.27.02-.27.02-.28.03-.27.02-.28.02-.27.02-.28.03-.27.02-.28.02-.27.02-.27.03-.28.02-.27.02-.28.02-.27.03"/><path stroke-width="1.07" stroke="#c4c8cc" stroke-opacity=".14" d="M368.38 291.01l.16-.19.16-.2.17-.19.16-.2.16-.2.17-.19.16-.2.16-.19.17-.2.16-.19.16-.2.17-.19.16-.2.16-.2.17-.19.16-.2.16-.19.17-.2.16-.19.16-.2.17-.19.16-.2.16-.2.17-.19.16-.2.17-.19.16-.2.16-.19.17-.2.16-.2.16-.19.17-.2.16-.19.16-.2.17-.19.16-.2.16-.19.17-.2.16-.2.16-.19.17-.2.16-.19.16-.2.17-.19.16-.2.16-.19.17-.2.16-.2.16-.19.17-.2.16-.19.17-.2.16-.19.16-.2.17-.19.16-.2.16-.2.17-.19.16-.2.16-.19.17-.2.16-.19.16-.2.17-.19.16-.2.16-.2.17-.19.16-.2.16-.19.17-.2.16-.19.16-.2.17-.2.16-.19.17-.2.16-.19.16-.2.17-.19.16-.2.16-.19.17-.2.16-.2.16-.19.17-.2.16-.19.16-.2.17-.19.16-.2.16-.19.17-.2.16-.2.16-.19.17-.2.16-.19.16-.2.17-.19.16-.2.16-.19.17-.2M400.3 163.07l-.23.26-.23.25-.23.26-.23.25-.23.26-.23.25-.23.26-.23.25-.23.26-.23.25-.23.26-.23.25-.23.26-.23.25-.23.26-.23.25-.23.26-.23.26-.23.25-.23.26-.23.25-.23.26-.23.25-.23.26-.23.25-.23.26-.23.25-.23.26-.23.25-.23.26-.23.25-.23.26-.23.25-.23.26-.23.25-.23.26-.23.25-.23.26-.23.26-.23.25-.23.26-.23.25-.23.26-.23.25-.23.26-.23.25-.23.26-.23.25-.23.26-.23.25-.23.26-.23.25-.23.26-.23.25-.23.26-.23.25-.23.26-.23.25-.23.26-.23.26-.23.25-.23.26-.23.25-.23.26-.23.25-.23.26-.23.25-.23.26-.23.25-.23.26-.23.25-.23.26-.23.25-.23.26-.23.25-.23.26-.23.25-.23.26-.23.25-.23.26-.23.26-.23.25-.23.26-.23.25-.23.26-.23.25-.23.26-.23.25-.23.26-.23.25-.23.26-.23.25-.23.26-.23.25-.23.26-.23.25-.23.26-.23.25-.23.26M110.1 223.43l.47-.04.48-.05.47-.05.47-.04.47-.05.48-.05.47-.04.47-.05.47-.05.47-.04.48-.05.47-.05.47-.04.47-.05.47-.05.48-.04.47-.05.47-.05.47-.04.47-.05.48-.05.47-.04.47-.05.47-.04.48-.05.47-.05.47-.04.47-.05.47-.05.48-.04.47-.05.47-.05.47-.04.47-.05.48-.05.47-.04.47-.05.47-.05.48-.04.47-.05.47-.05.47-.04.47-.05.48-.05.47-.04.47-.05.47-.05.47-.04.48-.05.47-.05.47-.04.47-.05.47-.04.48-.05.47-.05.47-.04.47-.05.48-.05.47-.04.47-.05.47-.05.47-.04.48-.05.47-.05.47-.04.47-.05.47-.05.48-.04.47-.05.47-.05.47-.04.48-.05.47-.05.47-.04.47-.05.47-.05.48-.04.47-.05.47-.04.47-.05.47-.05.48-.04.47-.05.47-.05.47-.04.47-.05.48-.05.47-.04.47-.05.47-.05.48-.04.47-.05.47-.05.47-.04.47-.05.48-.05.47-.04.47-.05.47-.05M136.58 259.53l-.47.16-.47.17-.46.17-.47.17-.47.17-.47.16-.47.17-.47.17-.47.17-.47.16-.47.17-.47.17-.47.17-.47.17-.47.16-.47.17-.46.17-.47.17-.47.16-.47.17-.47.17-.47.17-.47.17-.47.16-.47.17-.47.17-.47.17-.47.16-.47.17-.47.17-.47.17-.46.16-.47.17-.47.17-.47.17-.47.17-.47.16-.47.17-.47.17-.47.17-.47.16-.47.17-.47.17-.47.17-.47.17-.47.16-.46.17-.47.17-.47.17-.47.16-.47.17-.47.17-.47.17-.47.17-.47.16-.47.17-.47.17-.47.17-.47.16-.47.17-.46.17-.47.17-.47.17-.47.16-.47.17-.47.17-.47.17-.47.16-.47.17-.47.17-.47.17-.47.17-.47.16-.47.17-.47.17-.46.17-.47.16-.47.17-.47.17-.47.17-.47.16-.47.17-.47.17-.47.17-.47.17-.47.16-.47.17-.47.17-.47.17-.46.16-.47.17-.47.17-.47.17-.47.17-.47.16-.47.17-.47.17-.47.17-.47.16M56.59 213.61l.54.1.54.1.54.1.55.09.54.1.54.1.54.1.54.1.54.1.54.1.54.1.54.1.54.1.54.1.54.1.54.1.54.09.54.1.54.1.54.1.54.1.54.1.54.1.55.1.54.1.54.1.54.1.54.1.54.1.54.09.54.1.54.1.54.1.54.1.54.1.54.1.54.1.54.1.54.1.54.1.54.1.54.1.54.09.55.1.54.1.54.1.54.1.54.1.54.1.54.1.54.1.54.1.54.1.54.1.54.1.54.09.54.1.54.1.54.1.54.1.54.1.54.1.54.1.55.1.54.1.54.1.54.1.54.1.54.1.54.09.54.1.54.1.54.1.54.1.54.1.54.1.54.1.54.1.54.1.54.1.54.1.54.1.54.09.54.1.55.1.54.1.54.1.54.1.54.1.54.1.54.1.54.1.54.1.54.1.54.1.54.09.54.1.54.1.54.1"/><path stroke-width="1.07" stroke="#c4c8cc" stroke-opacity=".13" d="M156.84 218.82l.37.15.36.15.36.15.37.15.36.15.36.15.37.16.36.15.36.15.37.15.36.15.36.15.37.15.36.15.36.15.37.15.36.15.36.15.36.15.37.15.36.15.36.15.37.15.36.15.36.15.37.15.36.15.36.15.37.15.36.15.36.15.37.15.36.15.36.15.37.15.36.15.36.15.37.15.36.15.36.15.37.15.36.15.36.15.37.15.36.15.36.15.37.15.36.15.36.15.37.15.36.15.36.15.37.15.36.15.36.15.37.15.36.15.36.15.37.15.36.15.36.15.37.15.36.15.36.15.37.15.36.15.36.15.37.15.36.15.36.15.37.15.36.15.36.15.37.15.36.15.36.15.37.15.36.15.36.15.37.15.36.15.36.15.37.15.36.15.36.15.37.15.36.15.36.15.37.15.36.16.36.15.37.15.36.15.36.15.37.15.36.15.36.15.37.15.36.15M110.1 223.43l-.46-.47-.46-.47-.47-.48-.46-.47-.46-.47-.46-.48-.47-.47-.46-.47-.46-.48-.47-.47-.46-.47-.46-.48-.47-.47-.46-.47-.46-.48-.46-.47-.47-.47-.46-.47-.46-.48-.47-.47-.46-.47-.46-.48-.46-.47-.47-.47-.46-.48-.46-.47-.47-.47-.46-.48-.46-.47-.46-.47-.47-.48-.46-.47-.46-.47-.47-.48-.46-.47-.46-.47-.46-.47-.47-.48-.46-.47-.46-.47-.47-.48-.46-.47-.46-.47-.47-.48-.46-.47-.46-.47-.46-.48-.47-.47-.46-.47-.46-.48-.47-.47-.46-.47-.46-.48-.46-.47-.47-.47-.46-.48-.46-.47-.47-.47-.46-.47-.46-.48-.46-.47-.47-.47-.46-.48-.46-.47-.47-.47-.46-.48-.46-.47-.46-.47-.47-.48-.46-.47-.46-.47-.47-.48-.46-.47-.46-.47-.47-.48-.46-.47-.46-.47-.46-.47-.47-.48-.46-.47-.46-.47-.47-.48-.46-.47-.46-.47-.46-.48-.47-.47-.46-.47-.46-.48-.47-.47-.46-.47-.46-.48-.46-.47-.47-.47-.46-.48-.46-.47-.47-.47-.46-.47-.46-.48-.46-.47M156.84 218.82l-.03.57-.04.57-.04.57-.03.57-.04.56-.03.57-.04.57-.03.57-.04.56-.04.57-.03.57-.04.57-.03.57-.04.56-.04.57-.03.57-.04.57-.03.56-.04.57-.04.57-.03.57-.04.57-.03.56-.04.57-.03.57-.04.57-.04.56-.03.57-.04.57-.03.57-.04.57-.04.56-.03.57-.04.57-.03.57-.04.57-.03.56-.04.57-.04.57-.03.57-.04.56-.03.57-.04.57-.04.57-.03.57-.04.56-.03.57-.04.57-.04.57-.03.56-.04.57-.03.57-.04.57-.03.57-.04.56-.04.57-.03.57-.04.57-.03.56-.04.57-.04.57-.03.57-.04.57-.03.56-.04.57-.04.57-.03.57-.04.56-.03.57-.04.57-.03.57-.04.57-.04.56-.03.57-.04.57-.03.57-.04.56-.04.57-.03.57-.04.57-.03.57-.04.56-.04.57-.03.57-.04.57-.03.57-.04.56-.03.57-.04.57-.04.57-.03.56-.04.57-.03.57-.04.57-.04.57-.03.56-.04.57-.03.57-.04.57M180.74 197.26l.09-.24.08-.24.09-.23.09-.24.09-.23.08-.24.09-.23.09-.24.09-.23.08-.24.09-.23.09-.24.09-.23.08-.24.09-.23.09-.24.09-.23.08-.24.09-.23.09-.24.09-.24.08-.23.09-.24.09-.23.09-.24.08-.23.09-.24.09-.23.09-.24.08-.23.09-.24.09-.23.09-.24.08-.23.09-.24.09-.23.09-.24.09-.23.08-.24.09-.24.09-.23.09-.24.08-.23.09-.24.09-.23.09-.24.08-.23.09-.24.09-.23.09-.24.08-.23.09-.24.09-.23.09-.24.08-.23.09-.24.09-.23.09-.24.08-.24.09-.23.09-.24.09-.23.08-.24.09-.23.09-.24.09-.23.08-.24.09-.23.09-.24.09-.23.08-.24.09-.23.09-.24.09-.23.08-.24.09-.23.09-.24.09-.24.08-.23.09-.24.09-.23.09-.24.08-.23.09-.24.09-.23.09-.24.08-.23.09-.24.09-.23.09-.24.08-.23.09-.24.09-.23.09-.24.08-.23.09-.24.09-.24.09-.23.08-.24M195.68 262.18l.15.43.15.43.15.42.14.43.15.43.15.43.15.43.15.43.14.43.15.43.15.43.15.43.15.43.14.43.15.43.15.42.15.43.14.43.15.43.15.43.15.43.15.43.14.43.15.43.15.43.15.43.15.43.14.43.15.42.15.43.15.43.15.43.14.43.15.43.15.43.15.43.15.43.14.43.15.43.15.43.15.43.15.42.14.43.15.43.15.43.15.43.15.43.14.43.15.43.15.43.15.43.15.43.14.43.15.43.15.42.15.43.14.43.15.43.15.43.15.43.15.43.14.43.15.43.15.43.15.43.15.43.14.43.15.43.15.42.15.43.15.43.14.43.15.43.15.43.15.43.15.43.14.43.15.43.15.43.15.43.15.43.14.42.15.43.15.43.15.43.15.43.14.43.15.43.15.43.15.43.14.43.15.43.15.43.15.43.15.42.14.43.15.43.15.43.15.43M235.14 264.28l.2.13.19.12.2.13.2.13.19.12.2.13.19.13.2.12.19.13.2.13.2.12.19.13.2.13.19.12.2.13.2.13.19.12.2.13.19.13.2.12.2.13.19.13.2.12.19.13.2.13.2.13.19.12.2.13.19.13.2.12.19.13.2.13.2.12.19.13.2.13.19.12.2.13.2.13.19.12.2.13.19.13.2.12.2.13.19.13.2.12.19.13.2.13.2.12.19.13.2.13.19.12.2.13.2.13.19.12.2.13.19.13.2.12.19.13.2.13.2.12.19.13.2.13.19.13.2.12.2.13.19.13.2.12.19.13.2.13.2.12.19.13.2.13.19.12.2.13.2.13.19.12.2.13.19.13.2.12.19.13.2.13.2.12.19.13.2.13.19.12.2.13.2.13.19.12.2.13.19.13.2.12.2.13.19.13.2.12.19.13.2.13.2.12.19.13.2.13M180.74 197.26l.12.36.12.37.12.37.13.37.12.37.12.36.12.37.12.37.13.37.12.36.12.37.12.37.12.37.13.37.12.36.12.37.12.37.12.37.13.37.12.36.12.37.12.37.12.37.13.37.12.36.12.37.12.37.12.37.12.37.13.36.12.37.12.37.12.37.12.37.13.36.12.37.12.37.12.37.12.37.13.36.12.37.12.37.12.37.12.37.13.36.12.37.12.37.12.37.12.37.12.36.13.37.12.37.12.37.12.37.12.36.13.37.12.37.12.37.12.37.12.36.13.37.12.37.12.37.12.37.12.36.13.37.12.37.12.37.12.37.12.36.13.37.12.37.12.37.12.37.12.36.12.37.13.37.12.37.12.37.12.36.12.37.13.37.12.37.12.37.12.36.12.37.13.37.12.37.12.37.12.36.12.37.13.37.12.37.12.37.12.36.12.37.12.37.13.37.12.37"/><path stroke-width="1.07" stroke="#c4c8cc" stroke-opacity=".12" d="M195.68 262.18l-.23.47-.23.48-.23.48-.23.48-.23.48-.23.47-.22.48-.23.48-.23.48-.23.47-.23.48-.23.48-.23.48-.23.48-.23.47-.23.48-.23.48-.23.48-.23.48-.23.47-.23.48-.23.48-.23.48-.23.47-.23.48-.23.48-.23.48-.23.48-.22.47-.23.48-.23.48-.23.48-.23.47-.23.48-.23.48-.23.48-.23.48-.23.47-.23.48-.23.48-.23.48-.23.47-.23.48-.23.48-.23.48-.23.48-.23.47-.23.48-.23.48-.23.48-.22.47-.23.48-.23.48-.23.48-.23.48-.23.47-.23.48-.23.48-.23.48-.23.47-.23.48-.23.48-.23.48-.23.48-.23.47-.23.48-.23.48-.23.48-.23.47-.23.48-.23.48-.22.48-.23.48-.23.47-.23.48-.23.48-.23.48-.23.47-.23.48-.23.48-.23.48-.23.48-.23.47-.23.48-.23.48-.23.48-.23.47-.23.48-.23.48-.23.48-.23.48-.23.47-.23.48-.22.48-.23.48-.23.47-.23.48-.23.48-.23.48M156.98 237.63l.36-.04.36-.04.37-.04.36-.04.36-.04.36-.04.36-.04.37-.04.36-.04.36-.04.36-.04.36-.04.37-.04.36-.04.36-.04.36-.04.36-.04.36-.04.37-.04.36-.04.36-.04.36-.04.36-.04.37-.04.36-.04.36-.04.36-.04.36-.03.37-.04.36-.04.36-.04.36-.04.36-.04.37-.04.36-.04.36-.04.36-.04.36-.04.36-.04.37-.04.36-.04.36-.04.36-.04.36-.04.37-.04.36-.04.36-.04.36-.04.36-.04.37-.04.36-.04.36-.04.36-.04.36-.04.37-.04.36-.04.36-.04.36-.04.36-.04.36-.04.37-.04.36-.04.36-.04.36-.04.36-.04.37-.04.36-.04.36-.04.36-.04.36-.04.37-.04.36-.04.36-.04.36-.04.36-.04.37-.04.36-.04.36-.04.36-.04.36-.04.36-.04.37-.04.36-.04.36-.04.36-.04.36-.04.37-.04.36-.04.36-.04.36-.04.36-.04.37-.03.36-.04.36-.04.36-.04.36-.04.36-.04.37-.04.36-.04M110.1 223.43l.87.39.86.39.87.4.86.39.86.39.87.39.86.39.87.39.86.39.87.4.86.39.87.39.86.39.86.39.87.39.86.39.87.4.86.39.87.39.86.39.87.39.86.39.86.39.87.39.86.4.87.39.86.39.87.39.86.39.87.39.86.39.86.4.87.39.86.39.87.39.86.39.87.39.86.39.87.4.86.39.86.39.87.39.86.39.87.39.86.39.87.39.86.4.87.39.86.39.86.39.87.39.86.39.87.39.86.4.87.39.86.39.87.39.86.39.86.39.87.39.86.4.87.39.86.39.87.39.86.39.87.39.86.39.86.39.87.4.86.39.87.39.86.39.87.39.86.39.87.39.86.4.86.39.87.39.86.39.87.39.86.39.87.39.86.4.87.39.86.39.86.39.87.39.86.39.87.39.86.39.87.4.86.39.87.39.86.39.86.39.87.39.86.39.87.4.86.39M391.57 215.97l-.14-.28-.14-.27-.14-.28-.14-.28-.15-.28-.14-.28-.14-.28-.14-.28-.14-.28-.15-.28-.14-.28-.14-.28-.14-.27-.14-.28-.15-.28-.14-.28-.14-.28-.14-.28-.14-.28-.14-.28-.15-.28-.14-.28-.14-.28-.14-.28-.14-.27-.15-.28-.14-.28-.14-.28-.14-.28-.14-.28-.15-.28-.14-.28-.14-.28-.14-.28-.14-.28-.14-.28-.15-.27-.14-.28-.14-.28-.14-.28-.14-.28-.15-.28-.14-.28-.14-.28-.14-.28-.14-.28-.15-.28-.14-.27-.14-.28-.14-.28-.14-.28-.15-.28-.14-.28-.14-.28-.14-.28-.14-.28-.14-.28-.15-.28-.14-.28-.14-.27-.14-.28-.14-.28-.15-.28-.14-.28-.14-.28-.14-.28-.14-.28-.15-.28-.14-.28-.14-.28-.14-.27-.14-.28-.15-.28-.14-.28-.14-.28-.14-.28-.14-.28-.14-.28-.15-.28-.14-.28-.14-.28-.14-.28-.14-.27-.15-.28-.14-.28-.14-.28-.14-.28-.14-.28-.15-.28-.14-.28-.14-.28-.14-.28-.14-.28-.14-.27-.15-.28-.14-.28-.14-.28-.14-.28-.14-.28M117.89 178.86l-.21-.35-.21-.35-.22-.35-.21-.35-.21-.36-.21-.35-.21-.35-.21-.35-.22-.35-.21-.36-.21-.35-.21-.35-.21-.35-.22-.35-.21-.36-.21-.35-.21-.35-.21-.35-.21-.35-.22-.36-.21-.35-.21-.35-.21-.35-.21-.35-.21-.36-.22-.35-.21-.35-.21-.35-.21-.36-.21-.35-.22-.35-.21-.35-.21-.35-.21-.36-.21-.35-.21-.35-.22-.35-.21-.35-.21-.36-.21-.35-.21-.35-.22-.35-.21-.35-.21-.36-.21-.35-.21-.35-.21-.35-.22-.35-.21-.36-.21-.35-.21-.35-.21-.35-.22-.36-.21-.35-.21-.35-.21-.35-.21-.35-.21-.36-.22-.35-.21-.35-.21-.35-.21-.35-.21-.36-.22-.35-.21-.35-.21-.35-.21-.35-.21-.36-.21-.35-.22-.35-.21-.35-.21-.35-.21-.36-.21-.35-.22-.35-.21-.35-.21-.35-.21-.36-.21-.35-.21-.35-.22-.35-.21-.36-.21-.35-.21-.35-.21-.35-.22-.35-.21-.36-.21-.35-.21-.35-.21-.35-.21-.35-.22-.36-.21-.35-.21-.35-.21-.35-.21-.35-.22-.36-.21-.35-.21-.35M423.18 179.3l-.23-.16-.23-.16-.23-.17-.24-.16-.23-.17-.23-.16-.23-.16-.23-.17-.23-.16-.23-.17-.23-.16-.23-.16-.23-.17-.24-.16-.23-.17-.23-.16-.23-.16-.23-.17-.23-.16-.23-.17-.23-.16-.23-.16-.24-.17-.23-.16-.23-.17-.23-.16-.23-.16-.23-.17-.23-.16-.23-.16-.23-.17-.24-.16-.23-.17-.23-.16-.23-.16-.23-.17-.23-.16-.23-.17-.23-.16-.23-.16-.24-.17-.23-.16-.23-.17-.23-.16-.23-.16-.23-.17-.23-.16-.23-.17-.23-.16-.23-.16-.24-.17-.23-.16-.23-.17-.23-.16-.23-.16-.23-.17-.23-.16-.23-.17-.23-.16-.24-.16-.23-.17-.23-.16-.23-.17-.23-.16-.23-.16-.23-.17-.23-.16-.23-.17-.24-.16-.23-.16-.23-.17-.23-.16-.23-.17-.23-.16-.23-.16-.23-.17-.23-.16-.24-.17-.23-.16-.23-.16-.23-.17-.23-.16-.23-.17-.23-.16-.23-.16-.23-.17-.24-.16-.23-.17-.23-.16-.23-.16-.23-.17-.23-.16-.23-.17-.23-.16-.23-.16-.23-.17-.24-.16-.23-.17-.23-.16"/><path stroke-width="1.07" stroke="#c4c8cc" stroke-opacity=".11" d="M110.1 223.43l-.43.16-.43.17-.43.16-.43.16-.43.16-.43.17-.43.16-.43.16-.43.16-.43.17-.43.16-.43.16-.43.16-.43.17-.43.16-.43.16-.43.16-.43.17-.43.16-.43.16-.43.16-.43.17-.43.16-.43.16-.43.16-.43.17-.43.16-.43.16-.43.16-.43.17-.43.16-.43.16-.43.16-.43.17-.43.16-.43.16-.43.16-.43.16-.43.17-.43.16-.43.16-.43.16-.43.17-.43.16-.43.16-.43.16-.43.17-.43.16-.43.16-.43.16-.43.17-.43.16-.43.16-.43.16-.43.17-.43.16-.43.16-.43.16-.43.17-.43.16-.43.16-.43.16-.43.17-.43.16-.43.16-.43.16-.43.17-.43.16-.43.16-.43.16-.43.17-.43.16-.43.16-.43.16-.43.17-.43.16-.43.16-.43.16-.43.16-.43.17-.43.16-.43.16-.44.16-.43.17-.43.16-.43.16-.43.16-.43.17-.43.16-.43.16-.43.16-.43.17-.43.16-.43.16-.43.16-.43.17-.43.16-.43.16-.43.16M195.68 262.18l.6.15.59.14.6.15.59.15.59.15.6.15.59.14.6.15.59.15.6.15.59.15.6.14.59.15.59.15.6.15.59.14.6.15.59.15.6.15.59.15.6.14.59.15.6.15.59.15.59.15.6.14.59.15.6.15.59.15.6.15.59.14.6.15.59.15.59.15.6.15.59.14.6.15.59.15.6.15.59.15.6.14.59.15.6.15.59.15.59.15.6.14.59.15.6.15.59.15.6.15.59.14.6.15.59.15.59.15.6.15.59.14.6.15.59.15.6.15.59.15.6.14.59.15.6.15.59.15.59.15.6.14.59.15.6.15.59.15.6.15.59.14.6.15.59.15.59.15.6.15.59.14.6.15.59.15.6.15.59.15.6.14.59.15.6.15.59.15.59.15.6.14.59.15.6.15.59.15.6.15.59.14.6.15.59.15.59.15.6.15.59.14.6.15.59.15.6.15M153.29 275.04l-.36.28-.36.29-.37.29-.36.28-.36.29-.36.29-.36.28-.37.29-.36.29-.36.29-.36.28-.36.29-.37.29-.36.28-.36.29-.36.29-.36.28-.37.29-.36.29-.36.28-.36.29-.37.29-.36.29-.36.28-.36.29-.36.29-.37.28-.36.29-.36.29-.36.28-.36.29-.37.29-.36.28-.36.29-.36.29-.36.28-.37.29-.36.29-.36.29-.36.28-.37.29-.36.29-.36.28-.36.29-.36.29-.37.28-.36.29-.36.29-.36.28-.36.29-.37.29-.36.28-.36.29-.36.29-.36.29-.37.28-.36.29-.36.29-.36.28-.37.29-.36.29-.36.28-.36.29-.36.29-.37.28-.36.29-.36.29-.36.29-.36.28-.37.29-.36.29-.36.28-.36.29-.36.29-.37.28-.36.29-.36.29-.36.28-.37.29-.36.29-.36.28-.36.29-.36.29-.37.29-.36.28-.36.29-.36.29-.36.28-.37.29-.36.29-.36.28-.36.29-.37.29-.36.28-.36.29-.36.29-.36.29-.37.28-.36.29M183.78 142.83l.05.31.06.31.06.32.05.31.06.32.06.31.05.32.06.31.06.32.05.31.06.32.06.31.06.31.05.32.06.31.06.32.05.31.06.32.06.31.05.32.06.31.06.32.05.31.06.31.06.32.05.31.06.32.06.31.05.32.06.31.06.32.06.31.05.32.06.31.06.31.05.32.06.31.06.32.05.31.06.32.06.31.05.32.06.31.06.32.05.31.06.31.06.32.05.31.06.32.06.31.06.32.05.31.06.32.06.31.05.31.06.32.06.31.05.32.06.31.06.32.05.31.06.32.06.31.05.32.06.31.06.31.05.32.06.31.06.32.06.31.05.32.06.31.06.32.05.31.06.32.06.31.05.31.06.32.06.31.05.32.06.31.06.32.05.31.06.32.06.31.05.32.06.31.06.31.06.32.05.31.06.32.06.31.05.32.06.31.06.32.05.31.06.32.06.31.05.31M346.01 71.52l.26.06.25.06.26.06.26.06.26.07.25.06.26.06.26.06.26.06.26.06.25.06.26.07.26.06.26.06.25.06.26.06.26.06.26.06.25.07.26.06.26.06.26.06.26.06.25.06.26.06.26.06.26.07.25.06.26.06.26.06.26.06.26.06.25.06.26.07.26.06.26.06.25.06.26.06.26.06.26.06.25.07.26.06.26.06.26.06.26.06.25.06.26.06.26.07.26.06.25.06.26.06.26.06.26.06.26.06.25.07.26.06.26.06.26.06.25.06.26.06.26.06.26.06.25.07.26.06.26.06.26.06.26.06.25.06.26.06.26.07.26.06.25.06.26.06.26.06.26.06.26.06.25.07.26.06.26.06.26.06.25.06.26.06.26.06.26.07.25.06.26.06.26.06.26.06.26.06.25.06.26.06.26.07.26.06.25.06.26.06.26.06.26.06.26.06.25.07M195.68 262.18l.79-.23.8-.24.79-.23.79-.23.79-.23.8-.23.79-.24.79-.23.79-.23.8-.23.79-.23.79-.24.79-.23.79-.23.8-.23.79-.23.79-.24.79-.23.8-.23.79-.23.79-.23.79-.23.8-.24.79-.23.79-.23.79-.23.79-.23.8-.24.79-.23.79-.23.79-.23.8-.23.79-.24.79-.23.79-.23.8-.23.79-.23.79-.24.79-.23.79-.23.8-.23.79-.23.79-.23.79-.24.8-.23.79-.23.79-.23.79-.23.8-.24.79-.23.79-.23.79-.23.8-.23.79-.24.79-.23.79-.23.79-.23.8-.23.79-.24.79-.23.79-.23.8-.23.79-.23.79-.23.79-.24.8-.23.79-.23.79-.23.79-.23.79-.24.8-.23.79-.23.79-.23.79-.23.8-.24.79-.23.79-.23.79-.23.8-.23.79-.24.79-.23.79-.23.79-.23.8-.23.79-.23.79-.24.79-.23.8-.23.79-.23.79-.23.79-.24.8-.23.79-.23.79-.23.79-.23.79-.24.8-.23.79-.23.79-.23M254.54 276.83l.27.1.28.1.28.11.28.1.27.1.28.11.28.1.27.1.28.1.28.11.28.1.27.1.28.11.28.1.27.1.28.1.28.11.28.1.27.1.28.11.28.1.27.1.28.1.28.11.28.1.27.1.28.11.28.1.27.1.28.1.28.11.28.1.27.1.28.1.28.11.27.1.28.1.28.11.28.1.27.1.28.1.28.11.27.1.28.1.28.11.28.1.27.1.28.1.28.11.27.1.28.1.28.11.28.1.27.1.28.1.28.11.27.1.28.1.28.11.28.1.27.1.28.1.28.11.27.1.28.1.28.11.28.1.27.1.28.1.28.11.27.1.28.1.28.11.28.1.27.1.28.1.28.11.27.1.28.1.28.11.28.1.27.1.28.1.28.11.27.1.28.1.28.11.28.1.27.1.28.1.28.11.27.1.28.1.28.11.28.1.27.1.28.1.28.11.27.1M183.78 142.83l-.22.27-.22.27-.22.27-.22.27-.22.27-.22.27-.22.27-.22.28-.22.27-.22.27-.22.27-.22.27-.22.27-.22.27-.22.27-.22.27-.22.28-.22.27-.22.27-.22.27-.22.27-.22.27-.22.27-.22.27-.22.27-.22.28-.22.27-.22.27-.22.27-.22.27-.22.27-.22.27-.23.27-.22.28-.22.27-.22.27-.22.27-.22.27-.22.27-.22.27-.22.27-.22.27-.22.28-.22.27-.22.27-.22.27-.22.27-.22.27-.22.27-.22.27-.22.28-.22.27-.22.27-.22.27-.22.27-.22.27-.22.27-.22.27-.22.27-.22.28-.22.27-.22.27-.22.27-.22.27-.22.27-.22.27-.22.27-.22.27-.22.28-.22.27-.22.27-.22.27-.22.27-.22.27-.22.27-.22.27-.22.28-.22.27-.22.27-.22.27-.22.27-.22.27-.22.27-.22.27-.22.27-.22.28-.22.27-.22.27-.22.27-.22.27-.22.27-.22.27-.22.27-.22.28-.22.27-.22.27-.22.27-.22.27-.22.27M195.68 262.18l.38-.29.38-.29.38-.28.38-.29.38-.29.38-.28.39-.29.38-.29.38-.29.38-.28.38-.29.38-.29.38-.28.38-.29.38-.29.38-.29.38-.28.38-.29.38-.29.38-.28.38-.29.38-.29.38-.28.38-.29.38-.29.38-.29.38-.28.38-.29.39-.29.38-.28.38-.29.38-.29.38-.28.38-.29.38-.29.38-.29.38-.28.38-.29.38-.29.38-.28.38-.29.38-.29.38-.28.38-.29.38-.29.38-.29.38-.28.38-.29.38-.29.39-.28.38-.29.38-.29.38-.28.38-.29.38-.29.38-.29.38-.28.38-.29.38-.29.38-.28.38-.29.38-.29.38-.28.38-.29.38-.29.38-.29.38-.28.38-.29.38-.29.38-.28.39-.29.38-.29.38-.29.38-.28.38-.29.38-.29.38-.28.38-.29.38-.29.38-.28.38-.29.38-.29.38-.29.38-.28.38-.29.38-.29.38-.28.38-.29.38-.29.38-.28.38-.29.38-.29.39-.29.38-.28.38-.29.38-.29.38-.28.38-.29.38-.29M274.12 239.22l.45.1.45.1.46.1.45.1.45.1.45.1.45.1.45.1.45.1.45.1.46.1.45.1.45.1.45.1.45.1.45.1.45.1.45.1.46.1.45.1.45.1.45.1.45.1.45.1.45.1.45.1.46.1.45.11.45.1.45.1.45.1.45.1.45.1.45.1.46.1.45.1.45.1.45.1.45.1.45.1.45.1.45.1.46.1.45.1.45.1.45.1.45.1.45.1.45.1.45.1.46.1.45.1.45.1.45.1.45.1.45.1.45.1.45.1.46.1.45.1.45.1.45.1.45.1.45.1.45.1.45.1.46.1.45.1.45.1.45.1.45.11.45.1.45.1.46.1.45.1.45.1.45.1.45.1.45.1.45.1.45.1.46.1.45.1.45.1.45.1.45.1.45.1.45.1.45.1.46.1.45.1.45.1.45.1.45.1.45.1.45.1.45.1.46.1.45.1M312.73 208.61l.27-.3.27-.29.27-.29.27-.3.27-.29.27-.3.27-.29.27-.3.27-.29.27-.29.26-.3.27-.29.27-.3.27-.29.27-.29.27-.3.27-.29.27-.3.27-.29.27-.3.27-.29.27-.29.27-.3.27-.29.27-.3.27-.29.27-.3.27-.29.26-.29.27-.3.27-.29.27-.3.27-.29.27-.3.27-.29.27-.29.27-.3.27-.29.27-.3.27-.29.27-.29.27-.3.27-.29.27-.3.27-.29.27-.3.26-.29.27-.29.27-.3.27-.29.27-.3.27-.29.27-.3.27-.29.27-.29.27-.3.27-.29.27-.3.27-.29.27-.29.27-.3.27-.29.27-.3.27-.29.26-.3.27-.29.27-.29.27-.3.27-.29.27-.3.27-.29.27-.3.27-.29.27-.29.27-.3.27-.29.27-.3.27-.29.27-.29.27-.3.27-.29.27-.3.26-.29.27-.3.27-.29.27-.29.27-.3.27-.29.27-.3.27-.29.27-.3.27-.29.27-.29.27-.3.27-.29.27-.3.27-.29.27-.3.27-.29"/><path stroke-width="1.07" stroke="#c4c8cc" stroke-opacity=".1" d="M156.84 218.82l.33-.45.33-.45.33-.46.33-.45.33-.45.33-.45.32-.46.33-.45.33-.45.33-.46.33-.45.33-.45.33-.46.33-.45.33-.45.32-.46.33-.45.33-.45.33-.46.33-.45.33-.45.33-.45.33-.46.33-.45.32-.45.33-.46.33-.45.33-.45.33-.46.33-.45.33-.45.33-.46.33-.45.33-.45.32-.46.33-.45.33-.45.33-.45.33-.46.33-.45.33-.45.33-.46.33-.45.32-.45.33-.46.33-.45.33-.45.33-.46.33-.45.33-.45.33-.46.33-.45.32-.45.33-.45.33-.46.33-.45.33-.45.33-.46.33-.45.33-.45.33-.46.32-.45.33-.45.33-.46.33-.45.33-.45.33-.46.33-.45.33-.45.33-.45.32-.46.33-.45.33-.45.33-.46.33-.45.33-.45.33-.46.33-.45.33-.45.32-.46.33-.45.33-.45.33-.46.33-.45.33-.45.33-.46.33-.45.33-.45.32-.45.33-.46.33-.45.33-.45.33-.46.33-.45.33-.45.33-.46.33-.45.33-.45.32-.46M339.41 179.48l.38.09.39.09.38.09.39.09.38.09.39.09.38.09.39.09.38.09.39.09.38.09.39.08.38.09.39.09.38.09.39.09.38.09.39.09.38.09.39.09.38.09.39.09.38.09.39.09.38.09.39.09.38.09.39.09.38.09.39.09.38.08.39.09.38.09.39.09.38.09.39.09.38.09.39.09.38.09.39.09.38.09.39.09.38.09.39.09.38.09.39.09.38.09.39.09.38.09.39.08.38.09.39.09.38.09.39.09.38.09.39.09.38.09.39.09.38.09.39.09.38.09.39.09.38.09.39.09.38.09.39.09.38.09.39.09.38.08.39.09.38.09.39.09.38.09.39.09.38.09.39.09.38.09.39.09.38.09.39.09.38.09.39.09.38.09.39.09.38.09.39.09.38.09.39.09.39.08.38.09.39.09.38.09.39.09.38.09.39.09.38.09.39.09.38.09.39.09M156.84 218.82l-.2.42-.21.41-.2.41-.21.41-.2.41-.21.41-.2.41-.2.41-.21.41-.2.42-.21.41-.2.41-.21.41-.2.41-.21.41-.2.41-.21.41-.2.41-.21.42-.2.41-.21.41-.2.41-.2.41-.21.41-.2.41-.21.41-.2.41-.21.42-.2.41-.21.41-.2.41-.21.41-.2.41-.21.41-.2.41-.2.42-.21.41-.2.41-.21.41-.2.41-.21.41-.2.41-.21.41-.2.41-.21.42-.2.41-.21.41-.2.41-.2.41-.21.41-.2.41-.21.41-.2.41-.21.42-.2.41-.21.41-.2.41-.21.41-.2.41-.21.41-.2.41-.21.41-.2.42-.2.41-.21.41-.2.41-.21.41-.2.41-.21.41-.2.41-.21.41-.2.42-.21.41-.2.41-.21.41-.2.41-.2.41-.21.41-.2.41-.21.42-.2.41-.21.41-.2.41-.21.41-.2.41-.21.41-.2.41-.21.41-.2.42-.2.41-.21.41-.2.41-.21.41-.2.41-.21.41-.2.41-.21.41-.2.42-.21.41M195.68 262.18l.39.43.38.43.39.43.39.43.38.43.39.43.39.43.38.43.39.43.39.43.38.44.39.43.39.43.38.43.39.43.38.43.39.43.39.43.38.43.39.43.39.43.38.43.39.43.39.44.38.43.39.43.39.43.38.43.39.43.39.43.38.43.39.43.38.43.39.43.39.43.38.43.39.44.39.43.38.43.39.43.39.43.38.43.39.43.39.43.38.43.39.43.38.43.39.43.39.43.38.44.39.43.39.43.38.43.39.43.39.43.38.43.39.43.39.43.38.43.39.43.38.43.39.43.39.43.38.44.39.43.39.43.38.43.39.43.39.43.38.43.39.43.39.43.38.43.39.43.38.43.39.43.39.44.38.43.39.43.39.43.38.43.39.43.39.43.38.43.39.43.39.43.38.43.39.43.39.43.38.44.39.43.38.43.39.43.39.43.38.43.39.43.39.43.38.43.39.43M235.14 264.28l.47.23.48.23.47.23.47.23.48.23.47.23.47.23.48.23.47.23.47.23.48.23.47.22.47.23.47.23.48.23.47.23.47.23.48.23.47.23.47.23.48.23.47.23.47.23.47.23.48.23.47.23.47.23.48.23.47.23.47.23.48.23.47.23.47.23.48.23.47.23.47.23.47.22.48.23.47.23.47.23.48.23.47.23.47.23.48.23.47.23.47.23.48.23.47.23.47.23.47.23.48.23.47.23.47.23.48.23.47.23.47.23.48.23.47.23.47.23.48.23.47.23.47.22.47.23.48.23.47.23.47.23.48.23.47.23.47.23.48.23.47.23.47.23.47.23.48.23.47.23.47.23.48.23.47.23.47.23.48.23.47.23.47.23.48.23.47.23.47.23.47.23.48.22.47.23.47.23.48.23.47.23.47.23.48.23.47.23.47.23.48.23.47.23.47.23.47.23M95.73 53.27l.24-.17.25-.17.25-.18.25-.17.24-.17.25-.18.25-.17.25-.17.24-.18.25-.17.25-.17.24-.18.25-.17.25-.17.25-.18.24-.17.25-.17.25-.18.25-.17.24-.17.25-.17.25-.18.25-.17.24-.17.25-.18.25-.17.25-.17.24-.18.25-.17.25-.17.24-.18.25-.17.25-.17.25-.18.24-.17.25-.17.25-.18.25-.17.24-.17.25-.18.25-.17.25-.17.24-.18.25-.17.25-.17.25-.18.24-.17.25-.17.25-.18.24-.17.25-.17.25-.18.25-.17.24-.17.25-.18.25-.17.25-.17.24-.18.25-.17.25-.17.25-.18.24-.17.25-.17.25-.17.24-.18.25-.17.25-.17.25-.18.24-.17.25-.17.25-.18.25-.17.24-.17.25-.18.25-.17.25-.17.24-.18.25-.17.25-.17.25-.18.24-.17.25-.17.25-.18.24-.17.25-.17.25-.18.25-.17.24-.17.25-.18.25-.17.25-.17.24-.18.25-.17.25-.17.25-.18.24-.17.25-.17.25-.18.24-.17M153.29 275.04l.2.34.2.35.2.35.2.35.19.35.2.34.2.35.2.35.2.35.2.35.2.34.19.35.2.35.2.35.2.34.2.35.2.35.2.35.2.35.19.34.2.35.2.35.2.35.2.35.2.34.2.35.19.35.2.35.2.35.2.34.2.35.2.35.2.35.2.34.19.35.2.35.2.35.2.35.2.34.2.35.2.35.19.35.2.35.2.34.2.35.2.35.2.35.2.35.19.34.2.35.2.35.2.35.2.34.2.35.2.35.2.35.19.35.2.34.2.35.2.35.2.35.2.35.2.34.19.35.2.35.2.35.2.35.2.34.2.35.2.35.2.35.19.34.2.35.2.35.2.35.2.35.2.34.2.35.19.35.2.35.2.35.2.34.2.35.2.35.2.35.19.35.2.34.2.35.2.35.2.35.2.34.2.35.2.35.19.35.2.35.2.34.2.35.2.35.2.35"/><circle cx="195.68" cy="262.18" r="9.48" stroke-width="1.42" stroke="#d1383d" stroke-opacity=".7" fill="#d1383d" fill-opacity=".7"/><circle cx="156.84" cy="218.82" r="8.91" stroke-width="1.42" stroke="#d1383d" stroke-opacity=".7" fill="#d1383d" fill-opacity=".7"/><circle cx="136.58" cy="259.53" r="6.12" stroke-width="1.42" stroke="#d1383d" stroke-opacity=".7" fill="#d1383d" fill-opacity=".7"/><circle cx="153.29" cy="275.04" r="5.89" stroke-width="1.42" stroke="#d1383d" stroke-opacity=".7" fill="#d1383d" fill-opacity=".7"/><circle cx="20.15" cy="207.7" r="5.6" stroke-width="1.42" stroke="#d1383d" stroke-opacity=".7" fill="#d1383d" fill-opacity=".7"/><circle cx="95.73" cy="53.27" r="5.39" stroke-width="1.42" stroke="#d1383d" stroke-opacity=".7" fill="#d1383d" fill-opacity=".7"/><circle cx="50.79" cy="137.99" r="5.29" stroke-width="1.42" stroke="#d1383d" stroke-opacity=".7" fill="#d1383d" fill-opacity=".7"/><circle cx="172.96" cy="309.48" r="5.17" stroke-width="1.42" stroke="#d1383d" stroke-opacity=".7" fill="#d1383d" fill-opacity=".7"/><circle cx="67.52" cy="239.51" r="5.03" stroke-width="1.42" stroke="#d1383d" stroke-opacity=".7" fill="#d1383d" fill-opacity=".7"/><circle cx="339.41" cy="179.48" r="4.88" stroke-width="1.42" stroke="#d1383d" stroke-opacity=".7" fill="#d1383d" fill-opacity=".7"/><circle cx="194.62" cy="343.64" r="4.87" stroke-width="1.42" stroke="#d1383d" stroke-opacity=".7" fill="#d1383d" fill-opacity=".7"/><circle cx="235.14" cy="264.28" r="4.68" stroke-width="1.42" stroke="#d1383d" stroke-opacity=".7" fill="#d1383d" fill-opacity=".7"/><circle cx="110.1" cy="223.43" r="4.56" stroke-width="1.42" stroke="#d1383d" stroke-opacity=".7" fill="#d1383d" fill-opacity=".7"/><circle cx="223.75" cy="287.69" r="4.53" stroke-width="1.42" stroke="#d1383d" stroke-opacity=".7" fill="#d1383d" fill-opacity=".7"/><circle cx="64.28" cy="176.59" r="4.25" stroke-width="1.42" stroke="#d1383d" stroke-opacity=".7" fill="#d1383d" fill-opacity=".7"/><circle cx="56.59" cy="213.61" r="4.23" stroke-width="1.42" stroke="#d1383d" stroke-opacity=".7" fill="#d1383d" fill-opacity=".7"/><circle cx="90.12" cy="276.13" r="4.2" stroke-width="1.42" stroke="#d1383d" stroke-opacity=".7" fill="#d1383d" fill-opacity=".7"/><circle cx="210.82" cy="19.6" r="4.17" stroke-width="1.42" stroke="#d1383d" stroke-opacity=".7" fill="#d1383d" fill-opacity=".7"/><circle cx="391.57" cy="215.97" r="4.15" stroke-width="1.42" stroke="#d1383d" stroke-opacity=".7" fill="#d1383d" fill-opacity=".7"/><circle cx="400.3" cy="163.07" r="4.13" stroke-width="1.42" stroke="#d1383d" stroke-opacity=".7" fill="#d1383d" fill-opacity=".7"/><circle cx="192.81" cy="233.69" r="4.13" stroke-width="1.42" stroke="#d1383d" stroke-opacity=".7" fill="#d1383d" fill-opacity=".7"/><circle cx="175.55" cy="67.08" r="4.07" stroke-width="1.42" stroke="#d1383d" stroke-opacity=".7" fill="#d1383d" fill-opacity=".7"/><circle cx="331.46" cy="144" r="4.05" stroke-width="1.42" stroke="#d1383d" stroke-opacity=".7" fill="#d1383d" fill-opacity=".7"/><circle cx="423.18" cy="179.3" r="4.03" stroke-width="1.42" stroke="#d1383d" stroke-opacity=".7" fill="#d1383d" fill-opacity=".7"/><circle cx="161.99" cy="169.67" r="4.03" stroke-width="1.42" stroke="#d1383d" stroke-opacity=".7" fill="#d1383d" fill-opacity=".7"/><circle cx="210.33" cy="304.67" r="3.95" stroke-width="1.42" stroke="#d1383d" stroke-opacity=".7" fill="#d1383d" fill-opacity=".7"/><circle cx="233.94" cy="304.82" r="3.83" stroke-width="1.42" stroke="#d1383d" stroke-opacity=".7" fill="#d1383d" fill-opacity=".7"/><circle cx="274.12" cy="239.22" r="3.72" stroke-width="1.42" stroke="#d1383d" stroke-opacity=".7" fill="#d1383d" fill-opacity=".7"/><circle cx="233.35" cy="233.76" r="3.56" stroke-width="1.42" stroke="#d1383d" stroke-opacity=".7" fill="#d1383d" fill-opacity=".7"/><circle cx="154.11" cy="339.06" r="3.51" stroke-width="1.42" stroke="#d1383d" stroke-opacity=".7" fill="#d1383d" fill-opacity=".7"/><circle cx="96.92" cy="144.01" r="3.49" stroke-width="1.42" stroke="#d1383d" stroke-opacity=".7" fill="#d1383d" fill-opacity=".7"/><circle cx="222.28" cy="39.77" r="3.47" stroke-width="1.42" stroke="#d1383d" stroke-opacity=".7" fill="#d1383d" fill-opacity=".7"/><circle cx="182.07" cy="16.36" r="3.47" stroke-width="1.42" stroke="#d1383d" stroke-opacity=".7" fill="#d1383d" fill-opacity=".7"/><circle cx="145.72" cy="131.53" r="3.4" stroke-width="1.42" stroke="#d1383d" stroke-opacity=".7" fill="#d1383d" fill-opacity=".7"/><circle cx="293.13" cy="26.75" r="3.32" stroke-width="1.42" stroke="#d1383d" stroke-opacity=".7" fill="#d1383d" fill-opacity=".7"/><circle cx="117.89" cy="178.86" r="3.32" stroke-width="1.42" stroke="#d1383d" stroke-opacity=".7" fill="#d1383d" fill-opacity=".7"/><circle cx="264.04" cy="58.29" r="3.31" stroke-width="1.42" stroke="#d1383d" stroke-opacity=".7" fill="#d1383d" fill-opacity=".7"/><circle cx="346.01" cy="71.52" r="3.31" stroke-width="1.42" stroke="#d1383d" stroke-opacity=".7" fill="#d1383d" fill-opacity=".7"/><circle cx="349.08" cy="120.53" r="3.29" stroke-width="1.42" stroke="#d1383d" stroke-opacity=".7" fill="#d1383d" fill-opacity=".7"/><circle cx="281.97" cy="287.01" r="3.27" stroke-width="1.42" stroke="#d1383d" stroke-opacity=".7" fill="#d1383d" fill-opacity=".7"/><circle cx="148.39" cy="69.31" r="3.23" stroke-width="1.42" stroke="#d1383d" stroke-opacity=".7" fill="#d1383d" fill-opacity=".7"/><circle cx="183.78" cy="142.83" r="3.23" stroke-width="1.42" stroke="#d1383d" stroke-opacity=".7" fill="#d1383d" fill-opacity=".7"/><circle cx="156.98" cy="237.63" r="3.16" stroke-width="1.42" stroke="#d1383d" stroke-opacity=".7" fill="#d1383d" fill-opacity=".7"/><circle cx="371.52" cy="77.6" r="3.16" stroke-width="1.42" stroke="#d1383d" stroke-opacity=".7" fill="#d1383d" fill-opacity=".7"/><circle cx="254.54" cy="276.83" r="3.15" stroke-width="1.42" stroke="#d1383d" stroke-opacity=".7" fill="#d1383d" fill-opacity=".7"/><circle cx="180.74" cy="197.26" r="3.15" stroke-width="1.42" stroke="#d1383d" stroke-opacity=".7" fill="#d1383d" fill-opacity=".7"/><circle cx="377.53" cy="188.34" r="3.09" stroke-width="1.42" stroke="#d1383d" stroke-opacity=".7" fill="#d1383d" fill-opacity=".7"/><circle cx="306.71" cy="124.17" r="3.03" stroke-width="1.42" stroke="#d1383d" stroke-opacity=".7" fill="#d1383d" fill-opacity=".7"/><circle cx="368.38" cy="291.01" r="2.99" stroke-width="1.42" stroke="#d1383d" stroke-opacity=".7" fill="#d1383d" fill-opacity=".7"/><circle cx="117.44" cy="303.44" r="2.97" stroke-width="1.42" stroke="#d1383d" stroke-opacity=".7" fill="#d1383d" fill-opacity=".7"/><circle cx="29.33" cy="157.98" r="2.96" stroke-width="1.42" stroke="#d1383d" stroke-opacity=".7" fill="#d1383d" fill-opacity=".7"/><circle cx="225.22" cy="146.49" r="2.95" stroke-width="1.42" stroke="#d1383d" stroke-opacity=".7" fill="#d1383d" fill-opacity=".7"/><circle cx="318.8" cy="249.14" r="2.89" stroke-width="1.42" stroke="#d1383d" stroke-opacity=".7" fill="#d1383d" fill-opacity=".7"/><circle cx="189.4" cy="173.96" r="2.89" stroke-width="1.42" stroke="#d1383d" stroke-opacity=".7" fill="#d1383d" fill-opacity=".7"/><circle cx="262.51" cy="80.34" r="2.87" stroke-width="1.42" stroke="#d1383d" stroke-opacity=".7" fill="#d1383d" fill-opacity=".7"/><circle cx="314.03" cy="41.17" r="2.84" stroke-width="1.42" stroke="#d1383d" stroke-opacity=".7" fill="#d1383d" fill-opacity=".7"/><circle cx="404.66" cy="135.5" r="2.84" stroke-width="1.42" stroke="#d1383d" stroke-opacity=".7" fill="#d1383d" fill-opacity=".7"/><circle cx="74.45" cy="69.11" r="2.8" stroke-width="1.42" stroke="#d1383d" stroke-opacity=".7" fill="#d1383d" fill-opacity=".7"/><circle cx="120.21" cy="36.12" r="2.68" stroke-width="1.42" stroke="#d1383d" stroke-opacity=".7" fill="#d1383d" fill-opacity=".7"/><circle cx="312.73" cy="208.61" r="2.63" stroke-width="1.42" stroke="#d1383d" stroke-opacity=".7" fill="#d1383d" fill-opacity=".7"/><circle cx="384.56" cy="271.65" r="2.37" stroke-width="1.42" stroke="#d1383d" stroke-opacity=".7" fill="#d1383d" fill-opacity=".7"/><text x="161.83" y="258.35" font-size="11" >question</text><text x="136.42" y="211.39" font-size="11" >answer</text><text x="114.58" y="271.39" font-size="11" >people</text><text x="129.11" y="286.6" font-size="11" >asked</text><text x="3.8" y="203.92" font-size="11" >make</text><text x="60.12" y="64.74" font-size="11" >community</text><text x="27.09" y="149.83" font-size="11" >better</text><text x="149.06" y="309.13" font-size="11" >new</text><text x="69.59" y="235.81" font-size="11" >way</text><text x="305.34" y="175.49" font-size="11" >reputation</text><text x="190.73" y="355.52" font-size="11" >users</text><text x="210.68" y="258.06" font-size="11" >duplicate</text><text x="110.81" y="219.79" font-size="11" >find</text><text x="197.29" y="299.19" font-size="11" >closing</text><text x="37.94" y="188.29" font-size="11" >search</text><text x="32.1" y="225.49" font-size="11" >easier</text><text x="86.29" y="272.4" font-size="11" >help</text><text x="209.62" y="31.29" font-size="11" >dark</text><text x="393.36" y="212.26" font-size="11" >able</text><text x="367.51" y="159.43" font-size="11" >downvote</text><text x="164.56" y="243.17" font-size="11" >mark</text><text x="166" y="63.27" font-size="11" >problem</text><text x="335.07" y="143.93" font-size="11" >system</text><text x="379.42" y="175.68" font-size="11" >comment</text><text x="142.62" y="170.46" font-size="11" >old</text><text x="188.69" y="316.16" font-size="11" >topic</text><text x="237.16" y="316.58" font-size="11" >off</text><text x="267.86" y="251.23" font-size="11" >quality</text><text x="209.03" y="229.41" font-size="11" >someone</text><text x="121.62" y="335.46" font-size="11" >members</text><text x="96.14" y="140.16" font-size="11" >best</text><text x="217.87" y="51.32" font-size="11" >mode</text><text x="157.35" y="12.51" font-size="11" >theme</text><text x="125.06" y="127.11" font-size="11" >years</text><text x="272.18" y="22.95" font-size="11" >back</text><text x="86.22" y="190.42" font-size="11" >accepted</text><text x="258.21" y="69.79" font-size="11" >based</text><text x="319.44" y="67.83" font-size="11" >related</text><text x="315.36" y="128.53" font-size="11" >voting</text><text x="271.47" y="298.69" font-size="11" >different</text><text x="119.49" y="80.85" font-size="11" >solution</text><text x="154.61" y="154.67" font-size="11" >relevant</text><text x="120.83" y="249.15" font-size="11" >correct</text><text x="366.49" y="89.13" font-size="11" >topics</text><text x="252.42" y="273.18" font-size="11" >similar</text><text x="169.1" y="193.39" font-size="11" >outdated</text><text x="352.63" y="199.86" font-size="11" >upvote</text><path stroke-width="1.07" stroke="#c4c8cc" fill="none" stroke-linecap="round" stroke-linejoin="round" stroke-miterlimit="10" d="M308.25 115.08l-1.54 9.09"/><text x="296.34" y="113.28" font-size="11" >point</text><text x="352.34" y="287.08" font-size="11" >everything</text><text x="90.78" y="315.44" font-size="11" >person</text><text x="3.69" y="169.69" font-size="11" >google</text><text x="211.54" y="157.96" font-size="11" >language</text><text x="310.12" y="260.74" font-size="11" >content</text><text x="194.1" y="177.77" font-size="11" >version</text><text x="235.22" y="91.92" font-size="11" >opinion</text><text x="317.37" y="52.67" font-size="11" >go</text><text x="396.96" y="131.91" font-size="11" >reason</text><text x="43.94" y="80.85" font-size="11" >company</text><text x="78.46" y="47.83" font-size="11" >management</text><text x="311.89" y="204.92" font-size="11" >high</text><text x="385.11" y="267.83" font-size="11" >fine</text><text x="449" y="132.06" font-size="11" font-weight="700" >Number of</text><text x="449" y="143.94" font-size="11" font-weight="700" >uses</text><circle cx="457.64" cy="159.39" r="5.24" stroke-width="1.42" stroke="#d1383d" stroke-opacity=".7" fill="#d1383d" fill-opacity=".7"/><circle cx="457.64" cy="176.67" r="6.6" stroke-width="1.42" stroke="#d1383d" stroke-opacity=".7" fill="#d1383d" fill-opacity=".7"/><circle cx="457.64" cy="193.95" r="7.63" stroke-width="1.42" stroke="#d1383d" stroke-opacity=".7" fill="#d1383d" fill-opacity=".7"/><circle cx="457.64" cy="211.23" r="8.48" stroke-width="1.42" stroke="#d1383d" stroke-opacity=".7" fill="#d1383d" fill-opacity=".7"/><circle cx="457.64" cy="228.51" r="9.23" stroke-width="1.42" stroke="#d1383d" stroke-opacity=".7" fill="#d1383d" fill-opacity=".7"/><text x="471.76" y="162.61" font-size="8.8">1000</text><text x="471.76" y="179.89" font-size="8.8">2000</text><text x="471.76" y="197.17" font-size="8.8">3000</text><text x="471.76" y="214.45" font-size="8.8">4000</text><text x="471.76" y="231.73" font-size="8.8">5000</text><style>text{font-family:arial;fill:#9fa6ad}</style></svg>