<svg xmlns="http://www.w3.org/2000/svg" viewBox="0 0 396 396"><path stroke-width=".39" stroke="#40464B" d="M23.76 367.69V3.99M105.56 367.69V3.99M187.35 367.69V3.99M269.15 367.69V3.99M350.94 367.69V3.99"/><path stroke-width=".78" stroke="#40464B" d="M64.66 367.69V3.99M146.46 367.69V3.99M228.25 367.69V3.99M310.04 367.69V3.99M391.84 367.69V3.99"/><path stroke-width="1.07" stroke="#3ca4ff" fill="#3ca4ff" fill-opacity=".7" d="M23.52 352.93h204.72v7.92H23.52zM40.5 334.92h187.74v7.92H40.5zM44.8 316.92h183.45v7.92H44.8zM44.8 298.91h183.45v7.92H44.8zM51.54 280.91h176.71v7.92H51.54zM57.47 262.9h170.78v7.92H57.47zM81.69 244.9h146.56v7.92H81.69zM86.71 226.89h141.54v7.92H86.71zM91.01 208.89h137.23v7.92H91.01zM92.64 190.88h135.61v7.92H92.64z"/><path stroke-width="1.07" stroke="#6649b8" fill="#6649b8" fill-opacity=".7" d="M228.25 172.88h89.73v7.92h-89.73zM228.25 154.87h90.47v7.92h-90.47zM228.25 136.87h91.92v7.92h-91.92zM228.25 118.86h92.71v7.92h-92.71zM228.25 100.85h93.77v7.92h-93.77zM228.25 82.85H323v7.92h-94.75zM228.25 64.84h97.34v7.92h-97.34zM228.25 46.84h115.53v7.92H228.25zM228.25 28.83H365.3v7.92H228.25zM228.25 10.83h146.22v7.92H228.25z"/><text x="208.15" y="17.66" font-size="8" fill="#333">rude</text><text x="200.59" y="35.66" font-size="8" fill="#333">thanks</text><text x="200.15" y="53.67" font-size="8" fill="#333">culture</text><text x="207.71" y="71.67" font-size="8" fill="#333">toxic</text><text x="177.91" y="89.68" font-size="8" fill="#333">transparency</text><text x="205.48" y="107.68" font-size="8" fill="#333">order</text><text x="197.92" y="125.69" font-size="8" fill="#333">attitude</text><text x="208.16" y="143.69" font-size="8" fill="#333">wish</text><text x="212.6" y="161.7" font-size="8" fill="#333">run</text><text x="201.03" y="179.7" font-size="8" fill="#333">proper</text><text x="232.34" y="197.71" font-size="8" fill="#333">day</text><text x="232.34" y="215.72" font-size="8" fill="#333">focus</text><text x="232.34" y="233.72" font-size="8" fill="#333">dark</text><text x="232.34" y="251.73" font-size="8" fill="#333">amount</text><text x="232.34" y="269.73" font-size="8" fill="#333">mobile</text><text x="232.34" y="287.74" font-size="8" fill="#333">big</text><text x="232.34" y="323.75" font-size="8" fill="#333">guys</text><text x="232.34" y="305.74" font-size="8" fill="#333">valuable</text><text x="232.34" y="341.75" font-size="8" fill="#333">github</text><text x="232.34" y="359.76" font-size="8" fill="#333">page</text><text x="57.1" y="377.02" font-size="8" fill="#333">1/4x</text><text x="138.89" y="377.02" font-size="8" fill="#333">1/2x</text><text x="217.8" y="377.02" font-size="8" fill="#333">Same</text><text x="305.82" y="377.02" font-size="8" fill="#333">2x</text><text x="387.61" y="377.02" font-size="8" fill="#333">4x</text><text x="116.31" y="389.37" font-size="8" font-weight="700" fill="#333">Relative use from women compared to men</text><text x="301.43" y="286.82" font-size="8" font-weight="700" fill="#333">More from...</text><path stroke-width="1.07" stroke="#3ca4ff" fill="#3ca4ff" fill-opacity=".7" d="M302.13 293.49h15.86v15.86h-15.86z"/><path stroke-width="1.07" stroke="#6649b8" fill="#6649b8" fill-opacity=".7" d="M302.13 310.77h15.86v15.86h-15.86z"/><text x="322.69" y="304.29" font-size="8">Men</text><text x="322.69" y="321.57" font-size="8">Women</text><style>text{font-family:arial;fill:#9fa6ad}</style></svg>