<svg xmlns="http://www.w3.org/2000/svg" viewBox="0 0 648 432"><path stroke-width=".53" stroke="#40464B" d="M66.17 292.7H560.1M66.17 163.8H560.1M66.17 34.91H560.1M129.34 395.08V5.48M261.26 395.08V5.48M393.18 395.08V5.48M525.1 395.08V5.48"/><path stroke-width="1.07" stroke="#40464B" d="M66.17 357.14H560.1M66.17 228.25H560.1M66.17 99.36H560.1M195.3 395.08V5.48M327.22 395.08V5.48M459.14 395.08V5.48"/><path stroke-width="2.13" fill="#3ca4ff" fill-opacity=".2" d="M88.62 235.31l5.68-.59 5.69-.61 5.68-.65 5.69-.68 5.68-.72 5.68-.76 5.69-.81 5.68-.86 5.68-.92 5.69-.98 5.68-1.05 5.69-1.12 5.68-1.21 5.68-1.3 5.69-1.39 5.68-1.48 5.69-1.6 5.68-1.7 5.68-1.81 5.69-1.92 5.68-2.03 5.69-2.15 5.68-2.25 5.68-2.35 5.69-2.45 5.68-2.54 5.69-2.62 5.68-2.7 5.68-2.78 5.69-2.84 5.68-2.9 5.69-2.95 5.68-3.01 5.68-3.05 5.69-3.09 5.68-3.12 5.69-3.16 5.68-3.19 5.68-3.22 5.69-3.25 5.68-3.26 5.69-3.29 5.68-3.3 5.68-3.32 5.69-3.34 5.68-3.35 5.68-3.37 5.69-3.37 5.68-3.39 5.69-3.4 5.68-3.41 5.68-3.41 5.69-3.43 5.68-3.43 5.69-3.44 5.68-3.44 5.68-3.46 5.69-3.45 5.68-3.47 5.69-3.46 5.68-3.48 5.68-3.47 5.69-3.48 5.68-3.49 5.69-3.48 5.68-3.5 5.68-3.49 5.69-3.5 5.68-3.5 5.69-3.5 5.68-3.51 5.68-3.51 5.69-3.51 5.68-3.51 5.69-3.51 5.68-3.52 5.68-3.52 5.69-3.52 5.68-3.52v206.84l-5.68.27-5.69.27-5.68.27-5.68.28-5.69.27-5.68.28-5.69.28-5.68.28-5.68.28-5.69.29-5.68.29-5.69.29-5.68.3-5.68.29-5.69.31-5.68.3-5.69.31-5.68.31-5.68.32-5.69.32-5.68.33-5.69.33-5.68.34-5.68.35-5.69.35-5.68.36-5.69.36-5.68.37-5.68.39-5.69.39-5.68.4-5.69.41-5.68.43-5.68.44-5.69.45-5.68.47-5.68.48-5.69.51-5.68.52-5.69.55-5.68.57-5.68.6-5.69.63-5.68.66-5.69.7-5.68.74-5.68.79-5.69.83-5.68.89-5.69.95-5.68 1.01-5.68 1.09-5.69 1.17-5.68 1.25-5.69 1.34-5.68 1.44-5.68 1.54-5.69 1.65-5.68 1.75-5.69 1.87-5.68 1.98-5.68 2.09-5.69 2.2-5.68 2.3-5.69 2.4-5.68 2.49-5.68 2.58-5.69 2.67-5.68 2.74-5.69 2.81-5.68 2.87-5.68 2.93-5.69 2.98-5.68 3.03-5.68 3.07-5.69 3.1-5.68 3.15-5.69 3.18-5.68 3.2"/><path stroke-width="2.13" stroke="#3ca4ff" d="M88.62 276.31l5.68-1.9 5.69-1.89 5.68-1.9 5.69-1.89 5.68-1.9 5.68-1.89 5.69-1.9 5.68-1.89 5.68-1.9 5.69-1.89 5.68-1.89 5.69-1.9 5.68-1.89 5.68-1.9 5.69-1.89 5.68-1.9 5.69-1.89 5.68-1.9 5.68-1.89 5.69-1.9 5.68-1.89 5.69-1.9 5.68-1.89 5.68-1.9 5.69-1.89 5.68-1.9 5.69-1.89 5.68-1.9 5.68-1.89 5.69-1.9 5.68-1.89 5.69-1.9 5.68-1.89 5.68-1.9 5.69-1.89 5.68-1.9 5.69-1.89 5.68-1.9 5.68-1.89 5.69-1.9 5.68-1.89 5.69-1.9 5.68-1.89 5.68-1.9 5.69-1.89 5.68-1.9 5.68-1.89 5.69-1.9 5.68-1.89 5.69-1.9 5.68-1.89 5.68-1.9 5.69-1.89 5.68-1.9 5.69-1.89 5.68-1.9 5.68-1.89 5.69-1.9 5.68-1.89 5.69-1.9 5.68-1.89 5.68-1.9 5.69-1.89 5.68-1.9 5.69-1.89 5.68-1.9 5.68-1.89 5.69-1.89 5.68-1.9 5.69-1.89 5.68-1.9 5.68-1.89 5.69-1.9 5.68-1.89 5.69-1.9 5.68-1.89 5.68-1.9 5.69-1.89 5.68-1.9"/><circle cx="281.7" cy="273.74" r="3.96" stroke-width="1.42" stroke="#d1383d" stroke-opacity=".7" fill="#d1383d" fill-opacity=".7"/><circle cx="232.13" cy="194.28" r="7.52" stroke-width="1.42" stroke="#d1383d" stroke-opacity=".7" fill="#d1383d" fill-opacity=".7"/><circle cx="220.43" cy="291.95" r="5.72" stroke-width="1.42" stroke="#d1383d" stroke-opacity=".7" fill="#d1383d" fill-opacity=".7"/><circle cx="229.28" cy="249.37" r="7.21" stroke-width="1.42" stroke="#d1383d" stroke-opacity=".7" fill="#d1383d" fill-opacity=".7"/><circle cx="207.89" cy="270.86" r="6" stroke-width="1.42" stroke="#d1383d" stroke-opacity=".7" fill="#d1383d" fill-opacity=".7"/><circle cx="88.62" cy="377.37" r="3.76" stroke-width="1.42" stroke="#d1383d" stroke-opacity=".7" fill="#d1383d" fill-opacity=".7"/><circle cx="195.74" cy="136.38" r="4.95" stroke-width="1.42" stroke="#d1383d" stroke-opacity=".7" fill="#d1383d" fill-opacity=".7"/><circle cx="144.43" cy="227.41" r="3.2" stroke-width="1.42" stroke="#d1383d" stroke-opacity=".7" fill="#d1383d" fill-opacity=".7"/><circle cx="152.71" cy="281.71" r="9.05" stroke-width="1.42" stroke="#d1383d" stroke-opacity=".7" fill="#d1383d" fill-opacity=".7"/><circle cx="145.14" cy="288.67" r="7.49" stroke-width="1.42" stroke="#d1383d" stroke-opacity=".7" fill="#d1383d" fill-opacity=".7"/><circle cx="157.37" cy="273.74" r="9.48" stroke-width="1.42" stroke="#d1383d" stroke-opacity=".7" fill="#d1383d" fill-opacity=".7"/><circle cx="174.5" cy="231.77" r="2.37" stroke-width="1.42" stroke="#d1383d" stroke-opacity=".7" fill="#d1383d" fill-opacity=".7"/><circle cx="137.97" cy="267.69" r="4.65" stroke-width="1.42" stroke="#d1383d" stroke-opacity=".7" fill="#d1383d" fill-opacity=".7"/><circle cx="282.18" cy="205.5" r="3.96" stroke-width="1.42" stroke="#d1383d" stroke-opacity=".7" fill="#d1383d" fill-opacity=".7"/><circle cx="537.65" cy="123.44" r="3.71" stroke-width="1.42" stroke="#d1383d" stroke-opacity=".7" fill="#d1383d" fill-opacity=".7"/><circle cx="151.3" cy="363.96" r="6.52" stroke-width="1.42" stroke="#d1383d" stroke-opacity=".7" fill="#d1383d" fill-opacity=".7"/><circle cx="132.71" cy="231.74" r="7.81" stroke-width="1.42" stroke="#d1383d" stroke-opacity=".7" fill="#d1383d" fill-opacity=".7"/><circle cx="109.73" cy="247.58" r="4.2" stroke-width="1.42" stroke="#d1383d" stroke-opacity=".7" fill="#d1383d" fill-opacity=".7"/><circle cx="194.24" cy="156.76" r="4.67" stroke-width="1.42" stroke="#d1383d" stroke-opacity=".7" fill="#d1383d" fill-opacity=".7"/><circle cx="166.03" cy="138.03" r="4.11" stroke-width="1.42" stroke="#d1383d" stroke-opacity=".7" fill="#d1383d" fill-opacity=".7"/><circle cx="202.78" cy="127.27" r="3.93" stroke-width="1.42" stroke="#d1383d" stroke-opacity=".7" fill="#d1383d" fill-opacity=".7"/><circle cx="196.59" cy="266.6" r="8.8" stroke-width="1.42" stroke="#d1383d" stroke-opacity=".7" fill="#d1383d" fill-opacity=".7"/><circle cx="196.08" cy="238.77" r="4.29" stroke-width="1.42" stroke="#d1383d" stroke-opacity=".7" fill="#d1383d" fill-opacity=".7"/><circle cx="138.77" cy="247.12" r="6.96" stroke-width="1.42" stroke="#d1383d" stroke-opacity=".7" fill="#d1383d" fill-opacity=".7"/><circle cx="275.22" cy="284.01" r="4.32" stroke-width="1.42" stroke="#d1383d" stroke-opacity=".7" fill="#d1383d" fill-opacity=".7"/><text x="271" y="267.27" font-size="11" >Assembly</text><text x="163.04" y="187.58" font-size="11" >Bash/Shell/PowerShell</text><text x="227.24" y="304.31" font-size="11" >C</text><text x="235.97" y="260.17" font-size="11" >C#</text><text x="217.92" y="275.28" font-size="11" >C++</text><text x="91.62" y="370.57" font-size="11" >Dart</text><path stroke-width="1.07" stroke="#c4c8cc" d="M190.3 143.73l4-6.37"/><text x="173.82" y="150.23" font-size="11" >Go</text><text x="108.27" y="220.26" font-size="11" >Haskell</text><path stroke-width="1.07" stroke="#c4c8cc" d="M162.89 293.59l-9.05-10.44"/><text x="138.72" y="303.27" font-size="11" >HTML/CSS</text><path stroke-width="1.07" stroke="#c4c8cc" d="M133.24 292.81l10.46-3.88"/><text x="108.2" y="297.22" font-size="11" >Java</text><text x="159.3" y="288.15" font-size="11" >JavaScript</text><text x="151.65" y="225.29" font-size="11" >Julia</text><text x="110.8" y="282.09" font-size="11" >Kotlin</text><text x="266.79" y="219.93" font-size="11" >Objective-C</text><text x="536.9" y="116.7" font-size="11" >Perl</text><text x="126.71" y="378.42" font-size="11" >PHP</text><text x="91.95" y="240.69" font-size="11" >Python</text><text x="95.05" y="259.89" font-size="11" >R</text><text x="194.81" y="171.11" font-size="11" >Ruby</text><text x="141.67" y="131.49" font-size="11" >Rust</text><text x="202.23" y="120.7" font-size="11" >Scala</text><text x="200.39" y="260.14" font-size="11" >SQL</text><text x="198.69" y="232.09" font-size="11" >Swift</text><text x="140.46" y="261.18" font-size="11" >TypeScript</text><text x="250.68" y="298.67" font-size="11" >VBA</text><text x="21.47" y="361.08" font-size="11" >$40,000</text><text x="21.47" y="232.19" font-size="11" >$60,000</text><text x="21.47" y="103.3" font-size="11" >$80,000</text><text x="192.24" y="407.89" font-size="11" >9</text><text x="321.1" y="407.89" font-size="11" >11</text><text x="453.02" y="407.89" font-size="11" >13</text><text x="167.33" y="423.88" font-size="11" font-weight="700" >Average years of professional programming experience</text><text transform="rotate(-90 133.405 120.055)" font-size="11" font-weight="700" >Median salary (USD)</text><text x="576.54" y="160.98" font-size="11" font-weight="700" >Number of</text><text x="576.54" y="172.86" font-size="11" font-weight="700" >respondents</text><circle cx="585.18" cy="189.2" r="5.59" stroke-width="1.42" stroke="#d1383d" stroke-opacity=".7" fill="#d1383d" fill-opacity=".7"/><circle cx="585.18" cy="206.48" r="6.97" stroke-width="1.42" stroke="#d1383d" stroke-opacity=".7" fill="#d1383d" fill-opacity=".7"/><circle cx="585.18" cy="223.76" r="8.03" stroke-width="1.42" stroke="#d1383d" stroke-opacity=".7" fill="#d1383d" fill-opacity=".7"/><circle cx="585.18" cy="241.04" r="8.92" stroke-width="1.42" stroke="#d1383d" stroke-opacity=".7" fill="#d1383d" fill-opacity=".7"/><text x="599.3" y="192.42" font-size="8.8">5,000</text><text x="599.3" y="209.7" font-size="8.8">10,000</text><text x="599.3" y="226.98" font-size="8.8">15,000</text><text x="599.3" y="244.26" font-size="8.8">20,000</text><style>text{font-family:arial;fill:#9fa6ad}</style></svg>