<svg xmlns="http://www.w3.org/2000/svg" viewBox="0 0 648 432"><path stroke-width=".53" stroke="#40464B" d="M66.17 341.67H560.1M66.17 250.68H560.1M66.17 159.68H560.1M66.17 68.69H560.1M169.41 395.08V5.48M300.2 395.08V5.48M430.99 395.08V5.48"/><path stroke-width="1.07" stroke="#40464B" d="M66.17 387.17H560.1M66.17 296.18H560.1M66.17 205.18H560.1M66.17 114.18H560.1M66.17 23.19H560.1M104.01 395.08V5.48M234.8 395.08V5.48M365.6 395.08V5.48M496.39 395.08V5.48"/><path stroke-width="2.13" fill="#3ca4ff" fill-opacity=".2" d="M88.62 228.7l5.68.09 5.69.09 5.68.07 5.69.07 5.68.05 5.68.04 5.69.03 5.68.02 5.68.01 5.69-.01 5.68-.03 5.69-.04 5.68-.06 5.68-.08 5.69-.09 5.68-.12 5.69-.14 5.68-.17 5.68-.18 5.69-.22 5.68-.24 5.69-.28 5.68-.31 5.68-.34 5.69-.37 5.68-.42 5.69-.46 5.68-.49 5.68-.55 5.69-.59 5.68-.64 5.69-.69 5.68-.75 5.68-.8 5.69-.86 5.68-.92 5.69-.98 5.68-1.04 5.68-1.1 5.69-1.17 5.68-1.22 5.69-1.29 5.68-1.36 5.68-1.41 5.69-1.47 5.68-1.53 5.68-1.59 5.69-1.65 5.68-1.69 5.69-1.75 5.68-1.8 5.68-1.84 5.69-1.89 5.68-1.93 5.69-1.96 5.68-2.01 5.68-2.04 5.69-2.08 5.68-2.11 5.69-2.14 5.68-2.16 5.68-2.19 5.69-2.22 5.68-2.24 5.69-2.26 5.68-2.28 5.68-2.3 5.69-2.32 5.68-2.34 5.69-2.35 5.68-2.37 5.68-2.38 5.69-2.39 5.68-2.41 5.69-2.42 5.68-2.43 5.68-2.44 5.69-2.45 5.68-2.46v137.29l-5.68-.09-5.69-.08-5.68-.06-5.68-.06-5.69-.05-5.68-.03-5.69-.03H486.5l-5.69.02-5.68.04-5.69.05-5.68.07-5.68.09-5.69.11-5.68.14-5.69.15-5.68.18-5.68.21-5.69.23-5.68.27-5.69.3-5.68.32-5.68.37-5.69.4-5.68.45-5.69.48-5.68.53-5.68.58-5.69.62-5.68.68-5.69.73-5.68.78-5.68.84-5.69.9-5.68.96-5.68 1.02-5.69 1.08-5.68 1.15-5.69 1.2-5.68 1.27-5.68 1.34-5.69 1.39-5.68 1.45-5.69 1.52-5.68 1.57-5.68 1.62-5.69 1.68-5.68 1.73-5.69 1.78-5.68 1.83-5.68 1.87-5.69 1.92-5.68 1.96-5.69 1.99-5.68 2.03-5.68 2.07-5.69 2.1-5.68 2.13-5.69 2.15-5.68 2.19-5.68 2.2-5.69 2.24-5.68 2.25-5.69 2.28-5.68 2.29-5.68 2.31-5.69 2.34-5.68 2.34-5.69 2.36-5.68 2.38-5.68 2.39-5.69 2.4-5.68 2.42-5.68 2.43-5.69 2.43-5.68 2.45-5.69 2.46-5.68 2.46"/><path stroke-width="2.13" stroke="#3ca4ff" d="M88.62 298.21l5.68-1.19 5.69-1.18 5.68-1.19 5.69-1.18 5.68-1.19 5.68-1.19 5.69-1.18 5.68-1.19 5.68-1.18 5.69-1.19 5.68-1.19 5.69-1.18 5.68-1.19 5.68-1.19 5.69-1.18 5.68-1.19 5.69-1.18 5.68-1.19 5.68-1.19 5.69-1.18 5.68-1.19 5.69-1.18 5.68-1.19 5.68-1.19 5.69-1.18 5.68-1.19 5.69-1.19 5.68-1.18 5.68-1.19 5.69-1.18 5.68-1.19 5.69-1.19 5.68-1.18 5.68-1.19 5.69-1.18 5.68-1.19 5.69-1.19 5.68-1.18 5.68-1.19 5.69-1.19 5.68-1.18 5.69-1.19 5.68-1.18 5.68-1.19 5.69-1.19 5.68-1.18 5.68-1.19 5.69-1.18 5.68-1.19 5.69-1.19 5.68-1.18 5.68-1.19 5.69-1.19 5.68-1.18 5.69-1.19 5.68-1.18 5.68-1.19 5.69-1.19 5.68-1.18 5.69-1.19 5.68-1.18 5.68-1.19 5.69-1.19 5.68-1.18 5.69-1.19 5.68-1.19 5.68-1.18 5.69-1.19 5.68-1.18 5.69-1.19 5.68-1.19 5.68-1.18 5.69-1.19 5.68-1.18 5.69-1.19 5.68-1.19 5.68-1.18 5.69-1.19 5.68-1.18"/><circle cx="95.96" cy="377.37" r="3.84" stroke-width="1.42" stroke="#d1383d" stroke-opacity=".7" fill="#d1383d" fill-opacity=".7"/><circle cx="341" cy="248.83" r="4.2" stroke-width="1.42" stroke="#d1383d" stroke-opacity=".7" fill="#d1383d" fill-opacity=".7"/><circle cx="88.62" cy="222.25" r="4.23" stroke-width="1.42" stroke="#d1383d" stroke-opacity=".7" fill="#d1383d" fill-opacity=".7"/><circle cx="461.9" cy="288.18" r="5.05" stroke-width="1.42" stroke="#d1383d" stroke-opacity=".7" fill="#d1383d" fill-opacity=".7"/><circle cx="335.28" cy="326.96" r="4.64" stroke-width="1.42" stroke="#d1383d" stroke-opacity=".7" fill="#d1383d" fill-opacity=".7"/><circle cx="235.88" cy="268.05" r="9.47" stroke-width="1.42" stroke="#d1383d" stroke-opacity=".7" fill="#d1383d" fill-opacity=".7"/><circle cx="469.64" cy="243.62" r="6.76" stroke-width="1.42" stroke="#d1383d" stroke-opacity=".7" fill="#d1383d" fill-opacity=".7"/><circle cx="495.08" cy="235.97" r="4.63" stroke-width="1.42" stroke="#d1383d" stroke-opacity=".7" fill="#d1383d" fill-opacity=".7"/><circle cx="138.81" cy="308.51" r="7.99" stroke-width="1.42" stroke="#d1383d" stroke-opacity=".7" fill="#d1383d" fill-opacity=".7"/><circle cx="198.33" cy="255.01" r="9.48" stroke-width="1.42" stroke="#d1383d" stroke-opacity=".7" fill="#d1383d" fill-opacity=".7"/><circle cx="259.11" cy="296.68" r="3.37" stroke-width="1.42" stroke="#d1383d" stroke-opacity=".7" fill="#d1383d" fill-opacity=".7"/><circle cx="180.41" cy="357.7" r="6.07" stroke-width="1.42" stroke="#d1383d" stroke-opacity=".7" fill="#d1383d" fill-opacity=".7"/><circle cx="226.98" cy="265.4" r="4.35" stroke-width="1.42" stroke="#d1383d" stroke-opacity=".7" fill="#d1383d" fill-opacity=".7"/><circle cx="420.39" cy="131.76" r="5.37" stroke-width="1.42" stroke="#d1383d" stroke-opacity=".7" fill="#d1383d" fill-opacity=".7"/><circle cx="408.75" cy="302.58" r="3.55" stroke-width="1.42" stroke="#d1383d" stroke-opacity=".7" fill="#d1383d" fill-opacity=".7"/><circle cx="221.96" cy="160.96" r="4.17" stroke-width="1.42" stroke="#d1383d" stroke-opacity=".7" fill="#d1383d" fill-opacity=".7"/><circle cx="413.76" cy="23.19" r="2.85" stroke-width="1.42" stroke="#d1383d" stroke-opacity=".7" fill="#d1383d" fill-opacity=".7"/><circle cx="537.65" cy="214.28" r="3.21" stroke-width="1.42" stroke="#d1383d" stroke-opacity=".7" fill="#d1383d" fill-opacity=".7"/><circle cx="307.62" cy="232.48" r="2.37" stroke-width="1.42" stroke="#d1383d" stroke-opacity=".7" fill="#d1383d" fill-opacity=".7"/><circle cx="464.06" cy="259.33" r="4.84" stroke-width="1.42" stroke="#d1383d" stroke-opacity=".7" fill="#d1383d" fill-opacity=".7"/><text x="103.19" y="384.31" font-size="11" >Academic researcher</text><text x="267.3" y="241.75" font-size="11" >Data or business analyst</text><text x="69.98" y="214.72" font-size="11" >Data scientist</text><text x="442.78" y="280.96" font-size="11" >Database administrator</text><text x="327.48" y="342.15" font-size="11" >Designer</text><text x="226.78" y="280.51" font-size="11" >Developer,</text><text x="229.23" y="291.07" font-size="11" >back-end</text><text x="409.21" y="240.48" font-size="11" >Developer,</text><text x="415.01" y="251.04" font-size="11" >desktop</text><path stroke-width="1.07" stroke="#c4c8cc" d="M484.34 227.11l8.94 8.14"/><text x="386.05" y="225.31" font-size="11" >Embedded/devices developer</text><text x="91.41" y="290.73" font-size="11" >Developer,</text><text x="94.47" y="301.29" font-size="11" >front-end</text><text x="150.89" y="237.25" font-size="11" >Developer,</text><text x="154.26" y="247.81" font-size="11" >full-stack</text><text x="253.48" y="311.89" font-size="11" >Developer,</text><text x="236.05" y="322.45" font-size="11" >game or graphics</text><text x="174.71" y="339.91" font-size="11" >Developer,</text><text x="183.58" y="350.47" font-size="11" >mobile</text><text x="211.25" y="247.61" font-size="11" >Developer,</text><text x="211.56" y="258.17" font-size="11" >QA or test</text><text x="390.43" y="124.57" font-size="11" >DevOps specialist</text><text x="372.27" y="317.98" font-size="11" >Educator</text><text x="201.77" y="153.52" font-size="11" >Data engineer</text><text x="388.31" y="38.33" font-size="11" >SRE</text><text x="472.08" y="207.01" font-size="11" >Product manager</text><text x="272.36" y="225.13" font-size="11" >Scientist</text><path stroke-width="1.07" stroke="#c4c8cc" d="M437.43 262.18l24.83-2.78"/><text x="332.32" y="266.14" font-size="11" >System administrator</text><text x="21.47" y="391.11" font-size="11" >$40,000</text><text x="21.47" y="300.11" font-size="11" >$50,000</text><text x="21.47" y="209.12" font-size="11" >$60,000</text><text x="21.47" y="118.12" font-size="11" >$70,000</text><text x="21.47" y="27.13" font-size="11" >$80,000</text><text x="100.95" y="407.89" font-size="11" >8</text><text x="231.74" y="407.89" font-size="11" >9</text><text x="359.48" y="407.89" font-size="11" >10</text><text x="490.27" y="407.89" font-size="11" >11</text><text x="167.33" y="423.88" font-size="11" font-weight="700" >Average years of professional programming experience</text><text transform="rotate(-90 133.405 120.055)" font-size="11" font-weight="700" >Median salary (USD)</text><text x="576.54" y="169.62" font-size="11" font-weight="700" >Number of</text><text x="576.54" y="181.5" font-size="11" font-weight="700" >respondents</text><circle cx="585.18" cy="197.84" r="5.55" stroke-width="1.42" stroke="#d1383d" stroke-opacity=".7" fill="#d1383d" fill-opacity=".7"/><circle cx="585.18" cy="215.12" r="7.27" stroke-width="1.42" stroke="#d1383d" stroke-opacity=".7" fill="#d1383d" fill-opacity=".7"/><circle cx="585.18" cy="232.4" r="8.52" stroke-width="1.42" stroke="#d1383d" stroke-opacity=".7" fill="#d1383d" fill-opacity=".7"/><text x="599.3" y="201.06" font-size="8.8">5,000</text><text x="599.3" y="218.34" font-size="8.8">10,000</text><text x="599.3" y="235.62" font-size="8.8">15,000</text><style>text{font-family:arial;fill:#9fa6ad}</style></svg>