<svg width="196" height="17" viewBox="69 26 196 17" xmlns="http://www.w3.org/2000/svg"><path d="M75.948 42.828c4.683 0 6.72-2.083 6.72-5.312 0-3.16-2.365-4.165-4.964-4.82-2.201-.562-3.255-.726-3.255-1.896 0-.96.773-1.498 2.154-1.498.726 0 1.429.117 1.897.281v1.896h3.63V27.71c-1.359-.585-3.162-1.076-5.574-1.076-4.331 0-6.696 2.036-6.696 5.265 0 2.948 1.967 4.071 4.73 4.773 2.318.562 3.395.726 3.395 2.06 0 .959-.843 1.52-2.108 1.52-.843 0-1.685-.14-2.247-.35V37.75h-3.653v3.908c1.381.608 3.348 1.17 5.97 1.17zm7.438-.328h7.68v-2.387h-.82c-.421 0-.562-.164-.562-.842v-9.103c0-.655.14-.819.562-.819h.82v-2.387h-7.68v2.387h.82c.42 0 .538.164.538.82v9.102c0 .678-.117.842-.539.842h-.82V42.5zm8.164 0h12.971v-5.64h-2.575l-.68 2.294c-.304.866-.655.96-2.036.96h-1.358v-9.946c0-.655.14-.819.561-.819h1.007v-2.387h-7.89v2.387h.82c.444 0 .561.164.561.82v9.102c0 .678-.117.842-.562.842h-.82V42.5zm18.232-13.15h.679v-2.388h-8.148v2.387h.796c.515 0 .702.187.936.843l4.777 12.308h3.793l4.823-12.308c.235-.679.398-.843.96-.843h.796v-2.387h-6.251v2.387h.796c.515 0 .726.14.515.82l-2.388 6.762-2.576-6.763c-.21-.678-.07-.819.492-.819zm9.756 13.15h13.72v-4.423h-2.27l-.422 1.077c-.421.912-.726.96-1.943.96h-2.81V35.83h1.288c.609 0 .82.304.82 1.076v.585h2.107v-5.569h-2.108v.562c0 .772-.21.983-.82.983h-1.287v-4.119h2.599c1.218 0 1.569.117 1.967.96l.421 1.076h2.272v-4.423h-13.534v2.387h.82c.444 0 .561.164.561.82v9.125c0 .655-.117.82-.562.82h-.82V42.5zm29.026-11.209c0-3.065-1.99-4.329-5.713-4.329h-8.898v2.387h.82c.421 0 .562.187.562.82v9.102c0 .655-.14.842-.562.842h-.82V42.5h7.61v-2.387h-.82c-.42 0-.561-.187-.561-.842v-3.276h.843c1.498 0 1.803.912 1.92 2.363.187 2.176.936 4.142 2.88 4.142h3.652v-2.387h-.327c-.586 0-.797-.28-.843-1.053-.117-2.176-.867-3.51-2.974-4.071 2.107-.515 3.231-1.685 3.231-3.698zm-8.382-1.918h1.217c1.616 0 2.272.608 2.272 2.246 0 1.732-.726 2.363-2.553 2.363h-.936v-4.61zm14.9 13.127h7.703c5.736 0 8.5-2.62 8.5-7.722 0-5.288-2.576-7.816-8.313-7.816h-7.89v2.387h.819c.445 0 .562.164.562.82v9.102c0 .678-.117.842-.562.842h-.82V42.5zm6.345-2.387V29.35h1.568c2.342 0 3.115 1.451 3.115 4.89v1.054c0 3.393-.797 4.82-3.161 4.82h-1.522zm18.7 2.715c5.034 0 8.242-3.16 8.242-8.073 0-4.985-3.02-8.12-8.078-8.12s-8.336 3.206-8.336 8.12c0 4.937 3.044 8.073 8.172 8.073zm.07-2.855c-2.084 0-3.09-1.31-3.09-4.704v-1.03c0-3.392 1.006-4.773 3.114-4.773 2.06 0 3.067 1.38 3.067 4.774v1.03c0 3.369-1.007 4.703-3.09 4.703zm16.687 2.855c4.613 0 6.627-2.364 6.978-5.593l-3.583-.632c-.234 2.2-1.31 3.16-3.114 3.16-2.06 0-3.09-1.194-3.09-4.68v-.773c0-3.159.89-4.563 3.043-4.563 1.686 0 2.506 1.053 2.787 3.37h3.816v-6.155h-2.505l-.75 1.896c-.725-1.568-2.224-2.223-4.167-2.223-4.449 0-7.376 3.206-7.376 8.143 0 5.171 2.95 8.05 7.961 8.05zm10.552-.328h7.891v-2.387h-1.007c-.445 0-.562-.164-.562-.842v-9.969h.398c1.382 0 1.897.188 2.06 1.124l.188 1.1h2.248v-4.564h-14.353v4.563h2.248l.187-1.1c.164-.935.656-1.123 2.037-1.123h.234v9.969c0 .678-.14.842-.562.842h-1.007V42.5zm19.614.328c5.034 0 8.242-3.16 8.242-8.073 0-4.985-3.02-8.12-8.078-8.12s-8.336 3.206-8.336 8.12c0 4.937 3.044 8.073 8.172 8.073zm.07-2.855c-2.084 0-3.09-1.31-3.09-4.704v-1.03c0-3.392 1.006-4.773 3.114-4.773 2.06 0 3.067 1.38 3.067 4.774v1.03c0 3.369-1.007 4.703-3.09 4.703zm23.22-8.682c0-3.065-1.99-4.329-5.713-4.329h-8.898v2.387h.82c.421 0 .562.187.562.82v9.102c0 .655-.14.842-.562.842h-.82V42.5h7.61v-2.387h-.82c-.421 0-.562-.187-.562-.842v-3.276h.843c1.499 0 1.803.912 1.92 2.363.188 2.176.937 4.142 2.88 4.142h3.653v-2.387h-.328c-.585 0-.796-.28-.843-1.053-.117-2.176-.866-3.51-2.973-4.071 2.107-.515 3.23-1.685 3.23-3.698zm-8.383-1.918h1.218c1.616 0 2.271.608 2.271 2.246 0 1.732-.726 2.363-2.552 2.363h-.937v-4.61zm15.961 13.455c4.683 0 6.72-2.083 6.72-5.312 0-3.16-2.365-4.165-4.964-4.82-2.2-.562-3.254-.726-3.254-1.896 0-.96.773-1.498 2.154-1.498.726 0 1.428.117 1.897.281v1.896h3.629V27.71c-1.358-.585-3.161-1.076-5.573-1.076-4.332 0-6.696 2.036-6.696 5.265 0 2.948 1.966 4.071 4.73 4.773 2.317.562 3.394.726 3.394 2.06 0 .959-.842 1.52-2.107 1.52-.843 0-1.686-.14-2.248-.35V37.75h-3.652v3.908c1.381.608 3.348 1.17 5.97 1.17z" fill="#FFF" fill-rule="evenodd"/></svg>