<?xml version="1.0" encoding="utf-8"?>
<!-- Generator: Adobe Illustrator 19.1.0, SVG Export Plug-In . SVG Version: 6.00 Build 0)  -->
<svg version="1.1" id="Layer_1" xmlns="http://www.w3.org/2000/svg" xmlns:xlink="http://www.w3.org/1999/xlink" x="0px" y="0px"
	 viewBox="0 0 27 27" style="enable-background:new 0 0 27 27;" xml:space="preserve">
<style type="text/css">
	.st0{fill:#26C4F1;}
	.st1{fill:#FFFFFF;}
</style>
<circle class="st0" cx="13.5" cy="13.5" r="13.5"/>
<path class="st1" d="M4.9,18.9c1.6,1,3.4,1.6,5.4,1.6c5.6,0,10.1-4.5,10.1-10.1c0-0.1,0-0.3,0-0.4c0.2-0.2,1.4-1.2,1.8-1.8
	c0,0-1,0.4-2,0.5c0,0,0,0,0,0c0,0,0,0,0,0c0.1-0.1,1.4-0.9,1.5-2c0,0-0.7,0.4-1.7,0.7c-0.2,0.1-0.3,0.1-0.5,0.2
	c-0.6-0.7-1.6-1.1-2.6-1.1c-2,0-3.5,1.6-3.5,3.5c0,0.3,0,0.5,0.1,0.8c-0.3,0-4.4-0.2-7.3-3.7c0,0-1.7,2.3,1,4.7c0,0-0.8,0-1.5-0.5
	c0,0-0.3,2.8,2.8,3.5c0,0-0.6,0.2-1.6,0.1c0,0,0.5,2.3,3.3,2.5C10.1,17.5,7.9,19.4,4.9,18.9L4.9,18.9z"/>
</svg>
