<?xml version="1.0" encoding="UTF-8" standalone="no"?>
<!-- Created with PhotoLine 20.01 (www.pl32.com) -->
<!DOCTYPE svg PUBLIC "-//W3C//DTD SVG 1.1//EN" "http://www.w3.org/Graphics/SVG/1.1/DTD/svg11.dtd">
<svg width="133" height="34" viewBox="0 0 133 34" version="1.1" xmlns="http://www.w3.org/2000/svg" xmlns:xlink="http://www.w3.org/1999/xlink">
  <rect fill="#35a5de" x="43.5" y="11.2" width="1.5" height="12.9"/>
  <path fill="#35a5de" d="M55.5 21 C55.5 21.6 55.5 22.2 55.5 22.7 C55.5 23.2 55.6 23.7 55.7 24.2 L54.7 24.2 L54.3 22.9 L54.2 22.9 C54 23.3 53.6 23.7 53.1 24 C52.6 24.3 52.1 24.4 51.5 24.4 C50.3 24.4 49.4 24 48.8 23.2 C48.2 22.4 47.9 21.2 47.9 19.6 C47.9 18 48.3 16.8 49 16 C49.7 15.2 50.8 14.8 52.1 14.8 C52.6 14.8 52.9 14.8 53.2 14.9 C53.5 14.9 53.8 15 54.1 15.1 L54.1 11.3 L55.6 11.3 L55.6 21 Z M51.8 23.1 C52.4 23.1 52.9 22.9 53.3 22.6 C53.7 22.3 53.9 21.8 54.1 21.1 L54.1 16.5 C53.9 16.3 53.6 16.2 53.3 16.1 C53 16.1 52.6 16 52.2 16 C51.4 16 50.7 16.3 50.2 16.8 C49.7 17.3 49.5 18.3 49.5 19.5 C49.5 20 49.5 20.5 49.6 20.9 C49.7 21.3 49.8 21.7 50 22 C50.2 22.3 50.4 22.6 50.7 22.7 C51 22.8 51.4 23.1 51.8 23.1 Z"/>
  <path fill="#35a5de" d="M65.1 23.4 C64.7 23.7 64.3 23.9 63.7 24.1 C63.1 24.3 62.5 24.4 61.9 24.4 C61.2 24.4 60.6 24.3 60.1 24.1 C59.6 23.9 59.2 23.5 58.8 23.1 C58.5 22.7 58.2 22.2 58.1 21.6 C57.9 21 57.9 20.3 57.9 19.6 C57.9 18 58.3 16.8 59 16 C59.7 15.2 60.7 14.8 62 14.8 C62.4 14.8 62.8 14.8 63.3 14.9 C63.7 15 64.1 15.2 64.4 15.4 C64.7 15.7 65 16 65.2 16.5 C65.4 17 65.5 17.6 65.5 18.4 C65.5 18.8 65.5 19.3 65.4 19.7 L59.5 19.7 C59.5 20.2 59.6 20.7 59.7 21.1 C59.8 21.5 60 21.9 60.2 22.2 C60.4 22.5 60.7 22.7 61.1 22.9 C61.5 23.1 61.9 23.1 62.5 23.1 C62.9 23.1 63.3 23 63.8 22.9 C64.2 22.8 64.5 22.6 64.7 22.4 Z M61.9 16 C61.2 16 60.6 16.2 60.2 16.6 C59.8 17 59.5 17.6 59.4 18.6 L64 18.6 C64 17.7 63.8 17 63.5 16.6 C63.1 16.2 62.6 16 61.9 16 Z"/>
  <path fill="#35a5de" d="M67.6 15.6 C68.1 15.3 68.6 15.1 69.2 15 C69.8 14.9 70.5 14.8 71.1 14.8 C71.7 14.8 72.3 14.9 72.6 15.1 C73 15.3 73.3 15.5 73.5 15.8 C73.7 16.1 73.8 16.4 73.9 16.7 C74 17 74 17.4 74 17.7 C74 18.4 74 19.2 73.9 19.9 C73.9 20.6 73.8 21.3 73.8 21.9 C73.8 22.4 73.8 22.8 73.9 23.2 C73.9 23.6 74 24 74.1 24.3 L73 24.3 L72.6 23 L72.5 23 C72.4 23.2 72.3 23.3 72.1 23.5 C71.9 23.7 71.7 23.8 71.5 23.9 C71.3 24 71 24.1 70.7 24.2 C70.4 24.3 70 24.3 69.6 24.3 C69.2 24.3 68.8 24.2 68.5 24.1 C68.2 24 67.9 23.8 67.6 23.6 C67.4 23.4 67.2 23.1 67 22.8 C66.9 22.5 66.8 22.1 66.8 21.7 C66.8 21.2 66.9 20.7 67.1 20.3 C67.3 19.9 67.6 19.6 68 19.4 C68.4 19.2 68.9 19 69.4 18.9 C70 18.8 70.6 18.8 71.3 18.8 C71.5 18.8 71.6 18.8 71.8 18.8 C72 18.8 72.1 18.8 72.3 18.8 C72.3 18.4 72.4 18.1 72.4 17.8 C72.4 17.1 72.3 16.6 72 16.4 C72 16.2 71.5 16 70.8 16 C70.6 16 70.4 16 70.1 16 C69.8 16 69.6 16.1 69.4 16.1 C69.2 16.1 68.9 16.2 68.7 16.3 C68.5 16.4 68.3 16.5 68.1 16.6 Z M70.2 23 C70.5 23 70.9 23 71.1 22.9 C71.4 22.8 71.6 22.7 71.8 22.5 C72 22.4 72.2 22.2 72.3 22 C72.4 21.8 72.5 21.7 72.6 21.5 L72.6 20 C72.4 20 72.3 20 72.1 20 C71.9 20 71.7 20 71.6 20 C71.2 20 70.8 20 70.5 20.1 C70.1 20.1 69.8 20.2 69.5 20.3 C69.2 20.4 69 20.6 68.8 20.8 C68.6 21 68.6 21.3 68.6 21.6 C68.6 22 68.8 22.4 69.1 22.7 C69.3 22.8 69.7 23 70.2 23 Z"/>
  <path fill="#35a5de" d="M78.5 21.9 C78.5 22.3 78.6 22.6 78.7 22.8 C78.8 23 79.1 23.1 79.3 23.1 C79.5 23.1 79.6 23.1 79.8 23.1 C80 23.1 80.2 23 80.4 22.9 L80.6 24.1 C80.4 24.2 80.1 24.3 79.8 24.3 C79.4 24.4 79.1 24.4 78.9 24.4 C78.3 24.4 77.9 24.2 77.5 23.9 C77.1 23.6 77 23.1 77 22.3 L77 11.2 L78.5 11.2 L78.5 21.9 Z"/>
  <path fill="#35a5de" d="M97.3 15.4 L97.5 13.5 L97.4 13.5 L96.7 15.3 L93.3 21.1 L92.8 21.1 L89.2 15.2 L88.5 13.4 L88.4 13.4 L88.7 15.3 L88.7 24 L87.3 24 L87.3 11.2 L88.4 11.2 L92.4 17.8 L93 19.2 L93 19.2 L93.6 17.7 L97.5 11.1 L98.7 11.1 L98.7 24 L97.2 24 L97.2 15.4 Z"/>
  <path fill="#35a5de" d="M108.6 23.4 C108.2 23.7 107.8 23.9 107.2 24.1 C106.6 24.3 106 24.4 105.4 24.4 C104.7 24.4 104.1 24.3 103.6 24.1 C103.1 23.9 102.7 23.5 102.3 23.1 C102 22.7 101.7 22.2 101.6 21.6 C101.4 21 101.4 20.3 101.4 19.6 C101.4 18 101.8 16.8 102.5 16 C103.2 15.2 104.2 14.8 105.5 14.8 C105.9 14.8 106.3 14.8 106.8 14.9 C107.2 15 107.6 15.2 107.9 15.4 C108.2 15.7 108.5 16 108.7 16.5 C108.9 17 109 17.6 109 18.4 C109 18.8 109 19.3 108.9 19.7 L103 19.7 C103 20.2 103.1 20.7 103.2 21.1 C103.3 21.5 103.5 21.9 103.7 22.2 C103.9 22.5 104.2 22.7 104.6 22.9 C105 23.1 105.4 23.1 106 23.1 C106.4 23.1 106.8 23 107.3 22.9 C107.7 22.8 108 22.6 108.2 22.4 Z M105.4 16 C104.7 16 104.1 16.2 103.7 16.6 C103.3 17 103 17.6 102.9 18.6 L107.5 18.6 C107.5 17.7 107.3 17 107 16.6 C106.7 16.2 106.1 16 105.4 16 Z"/>
  <path fill="#35a5de" d="M118.3 21 C118.3 21.6 118.3 22.2 118.3 22.7 C118.3 23.2 118.4 23.7 118.5 24.2 L117.5 24.2 L117.1 22.9 L117 22.9 C116.8 23.3 116.4 23.7 115.9 24 C115.4 24.3 114.9 24.4 114.3 24.4 C113.1 24.4 112.2 24 111.6 23.2 C111 22.4 110.7 21.2 110.7 19.6 C110.7 18 111.1 16.8 111.8 16 C112.5 15.2 113.6 14.8 114.9 14.8 C115.4 14.8 115.7 14.8 116 14.9 C116.3 14.9 116.6 15 116.9 15.1 L116.9 11.3 L118.4 11.3 L118.4 21 Z M114.6 23.1 C115.2 23.1 115.7 22.9 116.1 22.6 C116.5 22.3 116.7 21.8 116.9 21.1 L116.9 16.5 C116.7 16.3 116.4 16.2 116.1 16.1 C115.8 16 115.4 16 115 16 C114.2 16 113.5 16.3 113 16.8 C112.5 17.4 112.3 18.3 112.3 19.5 C112.3 20 112.3 20.5 112.4 20.9 C112.5 21.3 112.6 21.7 112.8 22 C113 22.3 113.2 22.6 113.5 22.7 C113.8 23 114.2 23.1 114.6 23.1 Z"/>
  <path fill="#35a5de" d="M121.2 12.1 C121.2 11.8 121.3 11.6 121.5 11.4 C121.7 11.2 121.9 11.1 122.2 11.1 C122.5 11.1 122.7 11.2 123 11.4 C123.2 11.6 123.3 11.8 123.3 12.1 C123.3 12.4 123.2 12.6 123 12.8 C122.8 13 122.5 13.1 122.2 13.1 C121.9 13.1 121.7 13 121.5 12.8 C121.3 12.6 121.2 12.4 121.2 12.1 Z M121.5 14.9 L123 14.9 L123 24.1 L121.5 24.1 Z"/>
  <path fill="#35a5de" d="M126 15.6 C126.5 15.3 127 15.1 127.6 15 C128.2 14.9 128.9 14.8 129.5 14.8 C130.1 14.8 130.7 14.9 131 15.1 C131.3 15.3 131.7 15.5 131.9 15.8 C132.1 16.1 132.2 16.4 132.3 16.7 C132.4 17 132.4 17.4 132.4 17.7 C132.4 18.4 132.4 19.2 132.3 19.9 C132.3 20.6 132.2 21.3 132.2 21.9 C132.2 22.4 132.2 22.8 132.3 23.2 C132.3 23.6 132.4 24 132.5 24.3 L131.4 24.3 L131 23 L130.9 23 C130.8 23.2 130.7 23.3 130.5 23.5 C130.3 23.7 130.1 23.8 129.9 23.9 C129.7 24 129.4 24.1 129.1 24.2 C128.8 24.3 128.4 24.3 128 24.3 C127.6 24.3 127.2 24.2 126.9 24.1 C126.6 24 126.3 23.8 126 23.6 C125.8 23.4 125.6 23.1 125.4 22.8 C125.3 22.5 125.2 22.1 125.2 21.7 C125.2 21.2 125.3 20.7 125.5 20.3 C125.7 19.9 126 19.6 126.4 19.4 C126.8 19.2 127.3 19 127.8 18.9 C128.4 18.8 129 18.8 129.7 18.8 C129.9 18.8 130 18.8 130.2 18.8 C130.4 18.8 130.5 18.8 130.7 18.8 C130.7 18.4 130.8 18.1 130.8 17.8 C130.8 17.1 130.7 16.6 130.4 16.4 C130.1 16.1 129.6 16 128.9 16 C128.7 16 128.5 16 128.2 16 C127.9 16 127.7 16.1 127.5 16.1 C127.2 16.2 127 16.2 126.8 16.3 C126.6 16.4 126.4 16.5 126.2 16.6 Z M128.6 23 C128.9 23 129.3 23 129.5 22.9 C129.8 22.8 130 22.7 130.2 22.5 C130.4 22.4 130.6 22.2 130.7 22 C130.8 21.8 130.9 21.7 131 21.5 L131 20 C130.8 20 130.7 20 130.5 20 C130.3 20 130.1 20 130 20 C129.6 20 129.2 20 128.9 20.1 C128.5 20.1 128.2 20.2 127.9 20.3 C127.6 20.4 127.4 20.6 127.2 20.8 C127 21 127 21.3 127 21.6 C127 22 127.2 22.4 127.5 22.7 C127.7 22.8 128.1 23 128.6 23 Z"/>
  <path fill="#35a5de" fill-opacity="0.75" d="M18.7 34 L12.6 34 L21 3.5 C21 3.5 22 0 23.5 0 L24.8 0 C27.1 0 29 0 29 0 L25.4 10.2 Z"/>
  <path fill="#35a5de" d="M25.3 4.4 C25.3 4.4 25.5 0 23.6 0 L28.9 0 C31.8 0 31.8 3.5 31.8 3.5 L31.8 34 L25.3 34 L25.3 4.4 Z"/>
  <path fill="#35a5de" d="M4.1 3.8 C4.1 3.8 4.6 1.6 6.6 0 L7.9 0 C9.4 0 10.4 3.5 10.4 3.5 L18.7 34 L12.6 34 Z"/>
  <path fill="#f3930e" d="M6.5 34 L0 34 L0 3.5 C0 3.5 0 0 2.9 0 L8.2 0 C6.3 0 6.5 4.4 6.5 4.4 Z"/>
</svg>
