<svg xmlns="http://www.w3.org/2000/svg" viewBox="0 0 32 32"><defs><style>.cls-1{fill:#fff;}</style></defs><title>instagram</title><path d="M28.38 27V13.54h-2.82a9 9 0 0 1 .44 2.73 9.23 9.23 0 0 1-1.33 4.84A9.72 9.72 0 0 1 21 24.64a10 10 0 0 1-5 1.3 9.73 9.73 0 0 1-7-2.83 9.15 9.15 0 0 1-2.92-6.82 9 9 0 0 1 .42-2.73H3.56V27a1.25 1.25 0 0 0 1.27 1.27H27.1a1.24 1.24 0 0 0 .9-.36 1.2 1.2 0 0 0 .38-.9zm-5.92-11.1a5.9 5.9 0 0 0-1.9-4.4A6.3 6.3 0 0 0 16 9.7a6.3 6.3 0 0 0-4.53 1.83 5.9 5.9 0 0 0-1.87 4.4 5.9 5.9 0 0 0 1.9 4.42 6.3 6.3 0 0 0 4.5 1.82 6.3 6.3 0 0 0 4.55-1.82 5.9 5.9 0 0 0 1.9-4.4zm5.92-7.5V5A1.4 1.4 0 0 0 28 4a1.37 1.37 0 0 0-1-.43h-3.7a1.37 1.37 0 0 0-1 .43 1.4 1.4 0 0 0-.4 1v3.44a1.42 1.42 0 0 0 1.43 1.44h3.63a1.42 1.42 0 0 0 1.44-1.44zM32 4.1v23.8a4.13 4.13 0 0 1-4.1 4.1H4.1a4 4 0 0 1-2.9-1.2A4 4 0 0 1 0 27.9V4.1a4 4 0 0 1 1.2-2.9A4 4 0 0 1 4.1 0h23.8a4 4 0 0 1 2.9 1.2A4 4 0 0 1 32 4.1z" class="cls-1"/></svg>