<?xml version="1.0" encoding="utf-8"?>
<!-- Generator: Adobe Illustrator 19.0.0, SVG Export Plug-In . SVG Version: 6.00 Build 0)  -->
<svg version="1.1" id="Layer_1" xmlns="http://www.w3.org/2000/svg" xmlns:xlink="http://www.w3.org/1999/xlink" x="0px" y="0px"
	 viewBox="0 0 50 50" style="enable-background:new 0 0 50 50;" xml:space="preserve">
<style type="text/css">
	.st0{fill:#635E57;}
</style>
<path id="XMLID_10_" class="st0" d="M49.2,46.2L36.4,33.4c2.9-3.5,4.6-8,4.6-12.9C41,9.2,31.8,0,20.5,0C9.2,0,0,9.2,0,20.5
	C0,31.8,9.2,41,20.5,41c4.8,0,9.2-1.7,12.8-4.5l12.8,12.8c0.4,0.4,1,0.7,1.6,0.7c0.6,0,1.1-0.2,1.6-0.7
	C50.1,48.5,50.1,47.1,49.2,46.2z M4.5,20.5c0-8.9,7.2-16.1,16.1-16.1s16.1,7.2,16.1,16.1s-7.2,16.1-16.1,16.1S4.5,29.4,4.5,20.5z"/>
</svg>
