<?xml version="1.0" encoding="utf-8"?>
<!-- Generator: Adobe Illustrator 18.0.0, SVG Export Plug-In . SVG Version: 6.00 Build 0)  -->
<!DOCTYPE svg PUBLIC "-//W3C//DTD SVG 1.1//EN" "http://www.w3.org/Graphics/SVG/1.1/DTD/svg11.dtd">
<svg version="1.1" id="Layer_1" xmlns="http://www.w3.org/2000/svg" xmlns:xlink="http://www.w3.org/1999/xlink" x="0px" y="0px"
	 viewBox="0 0 290 55" enable-background="new 0 0 290 55" xml:space="preserve">
<g>
	<path d="M262.3,1.8c0,14.2,0,28.4,0,42.5c0,0.8,0.2,1.7,0.3,2.5c0.4,1.7,1.5,2.6,3.1,2.9c0.4,0.1,0.5,0.2,0.5,0.6c0,0.5,0,1,0,1.6
		c-1.4,0.1-2.8,0.1-4.2,0.3c-2.3,0.2-4.6,0.5-7,0.8c-0.1,0-0.2,0.1-0.3,0.1c-0.1,0-0.2,0-0.4,0c0-1.4,0-2.8,0-4.1
		c-0.5,0.5-1,1-1.6,1.5c-3.7,3.2-9.3,3-13.1-0.4c-2.3-2.1-3.7-4.7-4.4-7.7c-1.2-5.4-1-10.8,1.2-15.9c0.9-2.1,2.3-3.9,4.1-5.3
		c3.7-2.9,7.8-3,11.6-0.3c0.7,0.5,1.3,1,2,1.6c0-0.2,0.1-0.3,0.1-0.4c0-2.9,0-5.9,0-8.8c0-0.9-0.1-1.8-0.4-2.6
		c-0.4-1.6-1.4-2.7-3.2-3c-0.2,0-0.4-0.1-0.6-0.1c0-0.6,0-1.2,0-1.7c0-0.2,0.3-0.4,0.5-0.5c2.8-0.9,5.5-1.7,8.3-2.6c1-0.3,2-0.6,3-1
		C262.2,1.8,262.3,1.8,262.3,1.8z M254.5,35.6c0-3,0-5.9,0-8.9c0-0.3-0.1-0.6-0.3-0.8c-1.1-1.2-2.4-2-3.9-2.6
		c-1.6-0.6-2.9-0.3-4.1,0.8c-1.3,1.2-2.1,2.8-2.5,4.6c-1.2,4.5-1.1,9,0.1,13.5c0.5,1.9,1.2,3.8,2.6,5.2c1.7,1.8,4.1,1.9,5.9,0.3
		c0.7-0.6,1.3-1.4,1.9-2.2c0.2-0.3,0.3-0.6,0.3-1C254.5,41.5,254.5,38.6,254.5,35.6z"/>
	<path d="M31.4,1.8c0.5,2.1,1,4.2,1.5,6.2c0.6,2.6,1.2,5.3,1.9,7.9c-0.5,0.2-1,0.5-1.5,0.7c-0.1,0-0.4-0.2-0.5-0.3
		c-1-1.5-2-3.1-3-4.6c-1.4-2-2.8-3.9-4.7-5.4c-2.1-1.7-4.4-2.4-7.1-1.7c-2.1,0.6-3.6,2.1-4.8,4c-1.5,2.3-2.3,4.9-2.9,7.5
		c-1,4.8-1.1,9.6-1,14.5c0.1,3.9,0.5,7.8,1.6,11.5c0.6,2.2,1.5,4.2,3.1,5.9c2.1,2.2,4.6,2.9,7.6,2.1c2-0.5,3.1-2,3.8-3.8
		c0.7-1.9,0.9-3.9,0.9-6c0-1.6,0-3.2-0.2-4.7c-0.2-1.7-1-2.5-2.7-2.8c-0.7-0.1-1.5-0.2-2.3-0.3c0-0.8,0-1.7,0-2.5
		c6.1,0,12.1,0,18.3,0c0,0.8,0,1.6,0,2.3c0,0.1-0.2,0.2-0.4,0.3c-0.4,0.1-0.8,0.2-1.2,0.3c-2,0.5-2.9,1.5-3.2,3.6
		c-0.1,0.8-0.1,1.6-0.1,2.3c0,3.4,0,6.7,0,10.1c0,0.2,0,0.5,0,0.8c-0.5,0-1,0-1.5,0c-1.8,0-3.5,0.5-5.2,1.1c-2.1,0.8-4.3,1.7-6.6,2
		c-0.3,0.1-0.7,0.1-1,0.2c-1,0-2,0-3,0c-0.2,0-0.4-0.1-0.6-0.1c-4.1-0.4-7.6-2.1-10.5-5.2c-3.3-3.5-5-7.8-5.7-12.5
		c-0.2-1.3-0.3-2.6-0.5-3.9c0-1.5,0-3,0-4.4c0.1-1,0.2-2,0.4-3C0.9,19,2.5,14.3,5.4,10c2.3-3.3,5.1-5.9,9-7.3
		c1.1-0.4,2.4-0.6,3.5-0.9c0.8,0,1.7,0,2.5,0c1.7,0.6,3.3,1.1,5,1.7c2.3,0.7,4.1-0.3,5.8-1.7C31.3,1.8,31.3,1.8,31.4,1.8z"/>
	<path d="M88.7,1.8c0,6.9,0,13.7,0,20.6c0,0,0,0.1,0.1,0.2c0.3-0.3,0.6-0.5,0.9-0.7c1.7-1.4,3.6-2.6,5.9-2.8c3.8-0.5,6.7,0.9,9,3.9
		c1.8,2.3,2.7,5,3.1,7.8c0.7,4.4,0.5,8.8-0.9,13.1c-0.8,2.5-2.1,4.7-4.2,6.4c-3.4,2.8-8,3.6-12.3,0.6c-0.8-0.6-1.6-1.3-2.5-1.9
		c-1.8,1.4-3.7,2.8-5.6,4.2c-0.4-0.6-0.8-1.1-1.2-1.7c-0.1-0.2-0.1-0.5-0.1-0.8c0-12.2,0-24.3,0-36.5c0-1.1-0.2-2.2-0.4-3.3
		c-0.4-1.5-1.4-2.5-2.9-2.8c-0.4-0.1-0.5-0.2-0.5-0.6c0-1.6,0-1.6,1.5-2.1c3.2-1.1,6.3-2.2,9.5-3.3c0.2-0.1,0.3-0.2,0.5-0.2
		C88.6,1.8,88.7,1.8,88.7,1.8z M88.7,36c0,3.1,0,6.3,0,9.4c0,0.3,0.1,0.6,0.2,0.8c0.8,1.2,1.9,2.1,3.3,2.5c2.4,0.8,4.4,0.2,5.7-2
		c0.6-1,1.1-2.2,1.4-3.3c1.2-4.6,1.2-9.2,0.4-13.9c-0.2-1.4-0.6-2.8-1.4-4.1c-1.4-2.4-3.8-3.2-6.3-1.9c-1,0.5-1.9,1.4-2.9,2.1
		c-0.3,0.2-0.4,0.6-0.4,1C88.7,29.8,88.7,32.9,88.7,36z"/>
	<path d="M290.2,45.4c-1,1.2-2,2.5-3.1,3.7c-5.5,5.6-14.9,4.8-19.8-1.6c-2.1-2.8-3.2-6.1-3.3-9.6c-0.2-4.3,0.7-8.3,2.8-12
		c1.6-2.9,3.8-5.2,7-6.3c5-1.7,10.1,0.1,13.1,4.7c2.3,3.4,3.1,7.3,3,11.5c-6.1,0-12.1,0-18.3,0c0.1,1.1,0.2,2.1,0.3,3.1
		c0.5,2.7,1.5,5.3,3.4,7.4c2.6,2.9,6.2,3.4,9.4,1.4c1.2-0.8,2.2-1.8,3.3-2.8c0.3-0.2,0.5-0.5,0.7-0.8c0.5,0.4,0.9,0.9,1.4,1.3
		C290.2,45.3,290.2,45.3,290.2,45.4z M283,32.8c0-0.2,0.1-0.3,0.1-0.4c-0.1-1.3-0.1-2.7-0.2-4c-0.1-1.5-0.5-2.9-1.2-4.2
		c-0.9-1.7-2.5-2.6-4.5-2.3c-1.7,0.2-2.8,1.3-3.6,2.6c-1.1,1.9-1.5,3.9-1.8,6c-0.1,0.7-0.1,1.5-0.2,2.2
		C275.5,32.8,279.3,32.8,283,32.8z"/>
	<path d="M48.9,1.8c0,0.4,0,0.9,0,1.3c0,14.1,0,28.3,0,42.4c0,0.7,0.1,1.4,0.3,2.1c0.3,1.4,1.1,2,2.5,2.2c0.2,0,0.4,0,0.6,0.1
		c0,0.7,0,1.3,0,2c-4.9,0-9.9,0-14.8,0c0-0.7,0-1.3,0-2c0.3,0,0.6-0.1,0.9-0.1c1.1-0.1,1.8-0.7,2.1-1.7c0.3-1,0.5-2,0.5-3
		c0-10.4,0-20.9,0-31.3c0-1.1-0.2-2.2-0.5-3.2c-0.4-1.4-1.4-2.2-2.8-2.5c-0.4-0.1-0.5-0.3-0.5-0.6c0-1.5,0-1.5,1.4-2
		c3.1-1.1,6.3-2.2,9.5-3.3c0.2-0.1,0.4-0.2,0.5-0.3C48.8,1.8,48.9,1.8,48.9,1.8z"/>
	<path d="M148.1,1.8c0,0.3,0,0.6,0,0.8c0,14.3,0,28.6,0,42.9c0,0.8,0.1,1.6,0.3,2.3c0.3,1.2,1.1,1.9,2.4,2c0.2,0,0.4,0.1,0.7,0.1
		c0,0.7,0,1.3,0,2c-4.9,0-9.8,0-14.8,0c0-0.6,0-1.2,0-1.8c0-0.1,0.2-0.3,0.4-0.3c2.1-0.3,2.8-0.9,3.1-3c0.1-0.9,0.2-1.9,0.2-2.8
		c0-9.7,0-19.5,0-29.2c0-1.3-0.1-2.5-0.4-3.7c-0.3-1.6-1.4-2.7-3-3c-0.1,0-0.3,0-0.3-0.1c-0.1-0.6-0.1-1.2-0.1-1.8
		c0-0.2,0.3-0.4,0.5-0.4c3.4-1.2,6.9-2.4,10.4-3.6c0.2-0.1,0.3-0.2,0.5-0.3C148,1.8,148,1.8,148.1,1.8z"/>
	<path d="M156.6,3.1c10.8,0,21.6,0,32.4,0c0.3,1.4,0.6,2.8,0.9,4.2c0.6,2.9,1.2,5.7,1.9,8.6c0.1,0.5,0,0.7-0.4,0.8
		c-0.5,0.1-0.9,0.3-1.4,0.5c-0.8-1.3-1.6-2.7-2.5-3.9c-1.6-2.3-3.4-4.4-5.8-6c-1.1-0.7-2.2-1.2-3.5-1.4c-0.3,0-0.5,0-0.9-0.1
		c0,0.3,0,0.5,0,0.7c0,12.5,0,25,0,37.5c0,0.8,0.1,1.7,0.2,2.5c0.4,2.1,1.6,3.2,3.8,3.3c0.4,0,0.8,0.1,1.2,0.1c0,0.7,0,1.4,0,2.1
		c-6.4,0-12.9,0-19.3,0c0-0.7,0-1.4,0-2.1c0.3,0,0.6-0.1,0.9-0.1c2.6-0.2,3.9-1.4,4.2-3.9c0.1-0.7,0.1-1.4,0.1-2.1
		c0-12.4,0-24.9,0-37.3c0-0.2,0-0.4,0-0.7c-2,0.3-3.6,1.1-5.2,2.2c-2.4,1.8-4.3,4.1-5.8,6.6c-0.5,0.8-1,1.6-1.5,2.5
		c-0.6-0.2-1.1-0.4-1.7-0.6c-0.4-0.1-0.2-0.5-0.2-0.7c0.4-2,0.8-4,1.2-5.9C155.7,7.6,156.1,5.4,156.6,3.1z"/>
	<path d="M136.2,47.6c0.5,0.8,0.4,1.4-0.2,2.1c-0.9,1.1-2,2.1-3.4,2.6c-2.1,0.9-4,0.5-5.6-1.1c-0.7-0.7-1.2-1.5-1.8-2.3
		c-0.7,0.5-1.4,1.2-2.2,1.7c-2.7,1.8-5.6,2.5-8.8,1.9c-3.3-0.6-5.4-2.9-5.9-6.2c-0.7-4.5,0.9-8,4.6-10.6c2.6-1.8,5.6-2.9,8.6-3.6
		c1.1-0.3,2.2-0.5,3.3-0.8c0.2,0,0.4-0.3,0.4-0.4c0-2.3,0.2-4.5-0.3-6.8c-0.1-0.4-0.3-0.9-0.5-1.3c-1.1-2.2-4-2.5-5.3-0.4
		c-0.6,0.9-0.9,2-1.3,3.1c-0.3,0.8-0.5,1.6-0.8,2.3c-0.1,0.4-0.4,0.8-0.6,1.1c-0.9,1.5-2.2,2.1-3.5,1.8c-1.5-0.4-2.6-1.8-2.7-3.4
		c-0.1-2.3,0.9-4.1,2.6-5.5c1.6-1.4,3.6-2.1,5.6-2.5c2.7-0.5,5.4-0.5,8,0.1c3.9,0.9,6.2,3.6,6.4,7.6c0.1,2.3,0.1,4.7,0.1,7
		c0,3.5,0,7.1,0,10.6c0,0.7,0,1.3,0.2,2c0.3,1.2,1.1,1.6,2.3,1.2C135.8,47.7,136,47.7,136.2,47.6z M125.3,34.2
		c-1,0.3-1.9,0.4-2.8,0.7c-4.9,1.6-7.4,6.5-5.7,11.2c0.9,2.5,3.1,3.3,5.4,2c1.2-0.7,2.1-1.6,2.8-2.6c0.2-0.3,0.3-0.6,0.3-0.9
		c0-2.4,0-4.8,0-7.3C125.3,36.3,125.3,35.3,125.3,34.2z"/>
	<path d="M224.2,31.3c-0.1-2.5,0.2-4.9-0.4-7.3c-0.3-1.2-0.9-2.2-2.1-2.6c-1.5-0.5-3.1,0.1-3.8,1.6c-0.5,0.9-0.8,2-1.1,3
		c-0.3,0.9-0.6,1.7-1,2.6c-0.1,0.3-0.3,0.5-0.4,0.7c-0.9,1.4-2.1,1.9-3.3,1.7c-1.4-0.3-2.5-1.6-2.7-3.1c-0.3-2.5,0.8-4.4,2.6-6
		c1.7-1.5,3.8-2.2,6.1-2.6c2.8-0.5,5.6-0.4,8.4,0.4c3.3,1,5,3.4,5.5,6.7c0.1,1,0.2,2,0.2,3c0,4.9,0,9.9,0,14.8c0,0.7,0,1.4,0.1,2.2
		c0.3,1.5,1.2,2,2.6,1.5c0.1,0,0.3-0.1,0.4-0.1c0.4,0.7,0.5,1.3-0.1,2c-1,1.2-2,2.1-3.4,2.7c-2.1,0.9-4.4,0.4-6-1.4
		c-0.5-0.6-1-1.4-1.5-2.1c-0.2,0.2-0.4,0.4-0.6,0.6c-2.5,2.2-5.3,3.4-8.7,3.4c-4.3-0.1-7.2-2.8-7.6-7.1c-0.5-4.7,1.6-8.1,5.5-10.5
		c2.9-1.8,6-2.7,9.3-3.4C222.7,31.6,223.4,31.4,224.2,31.3z M224.2,34.2c-1.2,0.3-2.4,0.6-3.5,1c-4.5,1.7-6.7,6.6-5,11.1
		c0.9,2.4,3,3.2,5.2,2c1.2-0.6,2.1-1.6,2.9-2.7c0.2-0.3,0.3-0.7,0.3-1c0-3.2,0-6.4,0-9.5C224.2,34.7,224.2,34.5,224.2,34.2z"/>
	<path d="M78.8,35.1c-0.1,4.1-0.8,8-3.1,11.5c-2.6,4-6.2,6.2-11.1,6.1c-4.2-0.1-7.5-2-10-5.2c-2.9-3.7-3.9-8.1-3.6-12.7
		c0.2-3.3,1-6.4,2.8-9.1c2.6-4,6.2-6.4,11.1-6.7c4.7-0.3,8.3,1.7,10.9,5.6C77.9,27.7,78.8,31.3,78.8,35.1z M58.8,37.2
		c0.1,1.3,0.3,3.6,0.7,5.8c0.3,1.9,0.9,3.7,2,5.2c2,2.7,5.3,2.6,7.2-0.2c0.8-1.2,1.3-2.6,1.6-4.1c1.1-5.2,1-10.4,0.2-15.6
		c-0.3-1.8-0.8-3.6-2-5.1c-1.6-2.1-4.5-2.3-6.3-0.3c-0.7,0.8-1.3,1.9-1.7,2.9C59.1,29.1,58.9,32.6,58.8,37.2z"/>
	<path d="M200.1,49.9c0,0.7,0,1.3,0,2c-5.1,0-10.2,0-15.4,0c0-0.7,0-1.3,0-2c0.4,0,0.7-0.1,1.1-0.1c1.2-0.1,2-0.7,2.2-1.8
		c0.2-1.1,0.4-2.3,0.4-3.4c0-4.5,0-9.1,0-13.6c0-0.8-0.1-1.5-0.2-2.3c-0.3-2.1-1.3-3.6-3.7-4c0-0.6,0-1.2,0-1.8
		c0-0.2,0.3-0.4,0.5-0.4c2.9-1,5.9-2.1,8.8-3.1c0.7-0.2,1.4-0.5,2.2-0.8c0,2.5,0,5,0,7.4c0,0,0.1,0,0.1,0.1c0.1-0.2,0.2-0.3,0.3-0.5
		c1.3-1.9,2.5-3.9,4.2-5.4c1-0.9,2-1.7,3.5-1.7c0.9-0.1,1.7,0.3,2.3,1c1.6,1.7,2,4.7,0.9,6.8c-0.9,1.7-2.4,2.3-4.2,1.6
		c-0.7-0.3-1.5-0.7-2.2-1c-0.8-0.4-1.6-0.4-2.2,0.3c-0.9,1.2-1.8,2.4-2.7,3.6c-0.1,0.2-0.1,0.4-0.1,0.6c0,4.7,0,9.5,0,14.2
		c0,0.7,0.1,1.5,0.3,2.2c0.4,1.5,1.1,2.1,2.6,2.3C199.5,49.9,199.8,49.9,200.1,49.9z"/>
</g>
</svg>
